<svg width="422" height="513" viewBox="0 0 422 513" fill="none" xmlns="http://www.w3.org/2000/svg">
<path d="M342.342 199.789H356.699V205.901C356.699 207.807 355.942 209.635 354.594 210.982C353.247 212.329 351.419 213.086 349.514 213.086C347.608 213.086 345.781 212.329 344.433 210.982C343.086 209.635 342.329 207.807 342.329 205.901V199.789H342.342Z" fill="#C372E9"/>
<path d="M366.52 234.345H337.159L326.278 193.78L374.261 189.812L366.52 234.345Z" stroke="#7C58B0" stroke-linecap="round" stroke-linejoin="round"/>
<path d="M337.16 234.345L341.489 192.526L350.276 234.345L357.319 191.208L366.521 234.345H343.828" stroke="#7C58B0" stroke-linecap="round" stroke-linejoin="round"/>
<path d="M115.893 435.943H138.767V447.883C138.767 449.097 138.528 450.298 138.063 451.419C137.599 452.54 136.918 453.559 136.06 454.417C135.202 455.275 134.184 455.956 133.063 456.42C131.942 456.884 130.74 457.123 129.527 457.123H125.133C123.92 457.123 122.718 456.884 121.597 456.42C120.476 455.956 119.457 455.275 118.599 454.417C117.741 453.559 117.061 452.54 116.596 451.419C116.132 450.298 115.893 449.097 115.893 447.883V435.943Z" fill="#C372E9"/>
<path d="M157.635 492.403H107.894L89.4531 434.715L170.764 429.068L157.635 492.403Z" stroke="#220F55" stroke-width="2" stroke-linecap="round" stroke-linejoin="round"/>
<path d="M107.894 492.403L115.221 432.932L130.109 492.403L142.062 431.071L157.634 492.403H119.189" stroke="#220F55" stroke-width="2" stroke-linecap="round" stroke-linejoin="round"/>
<path d="M163.798 512.744H101.69V486.006C122.178 490.23 143.311 490.23 163.798 486.006V512.744Z" fill="#4942CE"/>
<path d="M108.527 487.26C109.032 489.296 109.37 491.371 109.535 493.463C109.729 495.53 109.832 497.598 109.819 499.666C109.806 501.733 109.729 503.801 109.548 505.869C109.378 507.961 109.037 510.035 108.527 512.072C108.028 510.034 107.691 507.96 107.519 505.869C107.338 503.801 107.235 501.733 107.248 499.666C107.261 497.598 107.338 495.53 107.532 493.463C107.693 491.371 108.026 489.297 108.527 487.26Z" fill="#8050E7"/>
<path d="M114.95 512.744C114.449 510.724 114.116 508.667 113.955 506.592C113.761 504.538 113.658 502.496 113.658 500.441C113.658 498.386 113.761 496.344 113.942 494.29C114.114 492.216 114.451 490.159 114.95 488.138C115.462 490.156 115.799 492.214 115.958 494.29C116.337 498.382 116.337 502.5 115.958 506.592C115.792 508.667 115.455 510.725 114.95 512.744Z" fill="#8050E7"/>
<path d="M121.36 512.744C120.856 510.777 120.518 508.771 120.352 506.747C119.973 502.755 119.973 498.735 120.352 494.742C120.511 492.718 120.848 490.711 121.36 488.746C121.858 490.714 122.196 492.719 122.368 494.742C122.549 496.745 122.652 498.748 122.652 500.738C122.652 502.728 122.549 504.744 122.355 506.747C122.192 508.771 121.86 510.776 121.36 512.744Z" fill="#8050E7"/>
<path d="M127.058 512.744C126.56 510.802 126.223 508.822 126.05 506.825C125.869 504.848 125.766 502.883 125.766 500.906C125.766 498.929 125.857 496.952 126.05 494.988C126.215 492.989 126.552 491.009 127.058 489.069C127.564 491.009 127.902 492.989 128.066 494.988C128.265 496.954 128.359 498.93 128.351 500.906C128.351 502.883 128.247 504.848 128.066 506.825C127.894 508.822 127.557 510.802 127.058 512.744Z" fill="#8050E7"/>
<path d="M132.745 512.744C132.246 510.811 131.909 508.84 131.737 506.851C131.556 504.887 131.453 502.974 131.453 500.958C131.453 498.942 131.556 497.081 131.737 495.065C131.903 493.075 132.24 491.104 132.745 489.172C133.25 491.104 133.587 493.075 133.753 495.065C133.951 497.023 134.046 498.99 134.037 500.958C134.037 502.922 133.934 504.835 133.753 506.851C133.581 508.84 133.244 510.811 132.745 512.744Z" fill="#8050E7"/>
<path d="M138.766 512.744C138.263 510.803 137.925 508.823 137.758 506.825C137.561 504.854 137.466 502.874 137.474 500.893C137.474 498.916 137.565 496.952 137.746 494.975C137.916 492.972 138.257 490.987 138.766 489.043C139.265 490.989 139.602 492.973 139.774 494.975C139.955 496.952 140.059 498.916 140.046 500.893C140.054 502.874 139.959 504.854 139.762 506.825C139.599 508.823 139.266 510.803 138.766 512.744Z" fill="#8050E7"/>
<path d="M145.15 512.744C144.644 510.769 144.307 508.754 144.142 506.722C143.763 502.72 143.763 498.692 144.142 494.69C144.302 492.662 144.639 490.651 145.15 488.681C145.649 490.654 145.986 492.663 146.158 494.69C146.339 496.706 146.442 498.709 146.442 500.712C146.442 502.715 146.339 504.719 146.145 506.722C145.985 508.754 145.652 510.768 145.15 512.744Z" fill="#8050E7"/>
<path d="M151.612 512.744C151.11 510.711 150.778 508.641 150.617 506.554C150.423 504.499 150.319 502.431 150.319 500.376C150.319 498.322 150.423 496.254 150.604 494.186C150.776 492.104 151.114 490.038 151.612 488.009C152.122 490.036 152.459 492.102 152.62 494.186C152.813 496.254 152.917 498.309 152.904 500.376C152.891 502.444 152.813 504.499 152.62 506.554C152.454 508.641 152.117 510.712 151.612 512.744Z" fill="#8050E7"/>
<path d="M158.435 487.014C158.936 489.139 159.273 491.299 159.443 493.476C159.624 495.621 159.728 497.753 159.728 499.937C159.728 502.121 159.637 504.227 159.443 506.399C159.281 508.576 158.944 510.737 158.435 512.86C157.927 510.737 157.59 508.576 157.427 506.399C157.246 504.253 157.143 502.108 157.143 499.937C157.143 497.766 157.246 495.66 157.427 493.476C157.597 491.299 157.934 489.139 158.435 487.014Z" fill="#8050E7"/>
<path d="M101.69 499.368C106.86 498.839 112.029 498.554 117.198 498.373C122.367 498.192 127.536 498.102 132.705 498.076C137.875 498.05 143.044 498.154 148.213 498.36C153.382 498.567 158.551 498.839 163.721 499.368C158.551 499.911 153.382 500.195 148.213 500.376C143.044 500.557 137.875 500.635 132.705 500.661C127.536 500.687 122.367 500.583 117.198 500.376C112.029 500.17 106.86 499.911 101.69 499.368Z" fill="#8050E7"/>
<path d="M131.155 439.6C127.485 362.648 124.25 285.675 121.45 208.68C120.347 178.388 119.314 148.11 118.349 117.844C119.757 117.844 121.166 117.754 122.587 117.754C190.239 117.754 245.11 179.577 245.11 255.823C245.11 294.359 231.075 329.186 208.486 354.244C174.693 392.715 170.751 429.068 170.751 429.068C158.552 436.408 144.298 439.083 131.155 439.6Z" fill="url(#paint0_linear_3389_68395)"/>
<path d="M122.587 117.754C121.631 117.754 120.687 117.754 119.744 117.754H118.348C119.322 148.028 120.356 178.306 121.45 208.589C124.258 285.584 127.493 362.558 131.155 439.509C117.091 439.907 103.044 438.262 89.4526 434.624C79.657 393.969 46.0186 363.548 46.0186 363.548C17.9629 338.258 0 299.386 0 255.771C0 181.115 52.5835 120.3 118.297 117.793H119.692C120.687 117.767 121.631 117.754 122.587 117.754Z" fill="url(#paint1_linear_3389_68395)"/>
<path d="M112.391 438.928C113.476 425.178 108.514 405.755 102.737 388.386C95.5992 367.732 84.7369 348.561 70.6886 331.822C23.3518 274.38 33.6643 186.052 39.2471 154.636C15.1328 179.849 0.0517578 215.865 0.0517578 255.849C0.0517578 299.463 18.0147 338.336 46.0704 363.626C46.0704 363.626 79.67 394.085 89.5044 434.702C97.0023 436.745 104.658 438.159 112.391 438.928Z" fill="url(#paint2_linear_3389_68395)"/>
<path d="M150.979 436.989C147.438 423.407 151.224 401.49 156.277 381.989C161.93 360.873 171.404 340.97 184.23 323.267C223.489 268.112 213.358 190.82 205.346 153.977C229.783 179.202 245.11 215.464 245.11 255.771C245.11 294.307 231.075 329.134 208.486 354.192C174.692 392.664 170.751 429.016 170.751 429.016C164.607 432.669 157.938 435.358 150.979 436.989Z" fill="url(#paint3_linear_3389_68395)"/>
<path d="M1.27979 236.322C3.66832 238.597 6.60053 240.221 9.79601 241.039C12.9774 241.834 16.3182 241.717 19.4365 240.703L21.7239 239.85L23.8691 238.661C24.218 238.454 24.5928 238.286 24.9159 238.054L25.898 237.317L27.8494 235.844C29.0383 234.719 30.2272 233.608 31.3644 232.432L34.5305 228.684C34.598 228.619 34.6884 228.582 34.7825 228.582C34.8766 228.582 34.967 228.619 35.0345 228.684C40.5907 234.581 47.3763 239.183 54.91 242.163C62.4328 245.13 70.5404 246.316 78.5978 245.626C82.6067 245.231 86.5671 244.443 90.4223 243.274C92.3219 242.615 94.2991 241.982 96.1084 241.207C97.0388 240.819 97.9822 240.457 98.8868 240.031L101.614 238.739C108.802 235.019 115.518 230.45 121.618 225.131C121.735 225.031 121.884 224.976 122.038 224.976C122.192 224.976 122.341 225.031 122.458 225.131C128.656 230.388 135.522 234.803 142.877 238.26C150.214 241.817 158.062 244.202 166.138 245.329C174.192 246.479 182.393 246.04 190.278 244.037C198.165 241.913 205.606 238.389 212.247 233.634C212.304 233.594 212.371 233.572 212.441 233.572C212.51 233.572 212.578 233.594 212.635 233.634C214.891 235.309 217.311 236.751 219.858 237.937C222.406 239.148 225.087 240.059 227.845 240.651C230.616 241.202 233.461 241.276 236.258 240.871C239.024 240.361 241.661 239.302 244.011 237.756C241.672 239.354 239.035 240.466 236.258 241.026C233.448 241.504 230.577 241.504 227.767 241.026C224.968 240.478 222.24 239.611 219.639 238.441C217.028 237.278 214.539 235.858 212.208 234.203H212.596C205.942 239.084 198.466 242.73 190.523 244.967C182.526 247.125 174.179 247.665 165.97 246.557C157.792 245.429 149.84 243.036 142.398 239.462C134.915 235.976 127.928 231.514 121.618 226.19H122.458C116.281 231.576 109.467 236.185 102.169 239.915L99.4037 241.207C98.4733 241.633 97.517 241.995 96.5736 242.396C94.6998 243.223 92.6967 243.804 90.7841 244.476C86.8413 245.647 82.795 246.434 78.7012 246.828C74.6023 247.163 70.4786 247.024 66.4114 246.415C62.3453 245.787 58.3676 244.681 54.5611 243.119C46.9312 240.022 40.085 235.268 34.5176 229.201H35.0604L31.8167 232.962C30.6407 234.138 29.4001 235.249 28.1854 236.361L26.2598 237.731L25.2519 238.454C24.9029 238.7 24.5152 238.855 24.1663 239.062L21.9565 240.225L19.6045 241.052C16.4195 242.024 13.0254 242.082 9.80893 241.22C6.59209 240.348 3.65449 238.661 1.27979 236.322Z" fill="#6D3FB8"/>
<path d="M5.19482 295.509C8.47323 297.569 12.0787 299.054 15.8563 299.903C19.6149 300.769 23.5105 300.861 27.306 300.174C31.076 299.43 34.6416 297.883 37.7607 295.638C40.8783 293.399 43.6405 290.702 45.9538 287.639C45.9842 287.598 46.0227 287.563 46.067 287.537C46.1112 287.512 46.1603 287.495 46.2112 287.489C46.2621 287.483 46.3136 287.487 46.3627 287.502C46.4118 287.517 46.4573 287.541 46.4966 287.574L46.5741 287.639C48.8127 290.462 51.5077 292.89 54.5476 294.824C57.5738 296.793 60.8808 298.292 64.3561 299.27C71.3499 301.128 78.7019 301.172 85.7177 299.399C92.74 297.59 99.4523 294.741 105.632 290.947C111.822 287.185 117.692 282.918 123.181 278.192C123.244 278.136 123.318 278.093 123.398 278.066C123.478 278.039 123.563 278.028 123.647 278.034C123.732 278.04 123.814 278.063 123.889 278.101C123.964 278.139 124.031 278.192 124.086 278.257C128.692 283.888 134.182 288.733 140.343 292.601C146.484 296.512 153.349 299.149 160.529 300.355C167.734 301.425 175.086 300.886 182.058 298.778C188.999 296.569 195.542 293.267 201.443 288.996C201.5 288.957 201.568 288.937 201.637 288.937C201.706 288.937 201.773 288.957 201.83 288.996C204.812 290.583 207.9 291.965 211.07 293.131C214.229 294.329 217.485 295.254 220.801 295.897C224.12 296.574 227.519 296.77 230.894 296.478C234.282 296.209 237.548 295.094 240.392 293.235C237.568 295.156 234.307 296.338 230.907 296.672C227.516 297.035 224.09 296.904 220.737 296.284C217.379 295.701 214.076 294.837 210.864 293.7C207.641 292.578 204.506 291.222 201.481 289.642H201.869C195.923 294.043 189.309 297.46 182.278 299.761C175.184 302.008 167.671 302.613 160.309 301.531C152.958 300.324 145.926 297.647 139.632 293.661C133.392 289.719 127.836 284.786 123.181 279.058L124.112 279.161C118.555 283.963 112.602 288.286 106.317 292.084C100.022 295.909 93.1928 298.775 86.0537 300.588C78.8316 302.408 71.2597 302.314 64.0847 300.316C60.5271 299.283 57.1493 297.71 54.0694 295.651C50.9604 293.629 48.2127 291.1 45.9409 288.169H46.5741C44.1843 291.267 41.3391 293.986 38.1354 296.233C34.9119 298.459 31.2434 299.958 27.3835 300.626C23.5143 301.267 19.5544 301.1 15.7529 300.135C11.997 299.202 8.42689 297.638 5.19482 295.509Z" fill="#6D3FB8"/>
<path d="M31.1445 347.679C34.9065 349.533 38.9145 350.838 43.0466 351.556C47.1505 352.296 51.3512 352.327 55.4655 351.646C57.5091 351.291 59.5161 350.75 61.4618 350.031C63.3804 349.256 65.2269 348.313 66.9799 347.214C70.4484 344.919 73.5065 342.058 76.0259 338.749C76.0996 338.657 76.2034 338.593 76.3191 338.57C76.4348 338.546 76.5552 338.564 76.6591 338.62C80.5131 340.762 84.6766 342.292 89.0006 343.156C93.3186 344.055 97.7571 344.221 102.13 343.647C106.49 343.051 110.71 341.695 114.601 339.641C118.484 337.561 122.059 334.952 125.224 331.887C125.284 331.826 125.355 331.778 125.434 331.746C125.513 331.713 125.597 331.696 125.682 331.696C125.768 331.696 125.852 331.713 125.931 331.746C126.01 331.778 126.081 331.826 126.141 331.887C129.04 335.563 132.749 338.52 136.979 340.527C141.209 342.533 145.846 343.534 150.527 343.453C155.224 343.305 159.857 342.325 164.212 340.558C168.605 338.829 172.788 336.61 176.683 333.942C176.758 333.882 176.851 333.85 176.948 333.85C177.044 333.85 177.137 333.882 177.213 333.942C179.962 336.198 182.854 338.275 185.871 340.158C188.886 342.055 192.044 343.714 195.318 345.12C198.596 346.57 202.087 347.482 205.656 347.821C209.235 348.179 212.831 347.323 215.865 345.392C212.856 347.409 209.257 348.36 205.643 348.092C202.05 347.825 198.522 346.992 195.188 345.624C191.845 344.291 188.624 342.669 185.561 340.778C182.48 338.917 179.523 336.858 176.709 334.614H177.238C173.325 337.381 169.111 339.696 164.677 341.515C160.209 343.355 155.447 344.384 150.617 344.552C145.745 344.664 140.913 343.649 136.499 341.584C132.085 339.519 128.208 336.461 125.172 332.65L126.141 332.74C122.89 335.891 119.209 338.567 115.208 340.688C111.173 342.793 106.799 344.17 102.285 344.758C97.7845 345.331 93.2195 345.143 88.7809 344.203C84.3362 343.293 80.0681 341.669 76.1422 339.395L76.7884 339.279C74.1774 342.632 71.0185 345.52 67.4451 347.821C65.6365 348.934 63.7287 349.877 61.7461 350.638C59.7541 351.353 57.6987 351.876 55.6077 352.202C51.4191 352.783 47.1621 352.643 43.0207 351.788C38.8855 350.995 34.8859 349.611 31.1445 347.679Z" fill="#6D3FB8"/>
<path d="M71.7607 395.481C74.4886 396.14 77.2778 396.513 80.0831 396.592C82.8671 396.687 85.6523 396.448 88.3797 395.881C91.0897 395.311 93.6817 394.279 96.0429 392.832C98.3624 391.357 100.387 389.464 102.013 387.249C102.087 387.153 102.189 387.083 102.306 387.05C102.423 387.017 102.547 387.024 102.659 387.068C104.754 387.871 106.917 388.485 109.121 388.903C111.305 389.325 113.526 389.528 115.75 389.51C117.939 389.47 120.112 389.135 122.212 388.515C124.301 387.845 126.263 386.827 128.014 385.504C128.132 385.412 128.278 385.362 128.428 385.362C128.578 385.362 128.723 385.412 128.841 385.504C130.595 386.961 132.572 388.126 134.695 388.955C136.815 389.824 139.064 390.335 141.351 390.467C143.641 390.614 145.94 390.396 148.161 389.821C149.274 389.544 150.367 389.19 151.431 388.761C152.503 388.334 153.524 387.792 154.571 387.314C154.67 387.268 154.78 387.255 154.887 387.276C154.994 387.296 155.091 387.35 155.165 387.43C156.892 389.282 158.836 390.917 160.955 392.302C163.072 393.702 165.384 394.782 167.817 395.507C170.261 396.225 172.834 396.392 175.351 395.998L177.225 395.61L179.008 394.951C179.616 394.744 180.197 394.466 180.74 394.124L182.433 393.193C180.338 394.729 177.942 395.803 175.403 396.347C172.834 396.847 170.187 396.776 167.649 396.14C165.129 395.451 162.725 394.393 160.516 393C158.289 391.619 156.236 389.974 154.403 388.102L155.036 388.205C153.951 388.735 152.917 389.33 151.805 389.782C150.698 390.246 149.558 390.626 148.394 390.919C144.875 391.841 141.188 391.918 137.633 391.146C134.078 390.374 130.756 388.773 127.937 386.474H128.764C126.892 387.889 124.789 388.97 122.548 389.666C120.312 390.308 117.999 390.647 115.673 390.674C113.368 390.668 111.07 390.434 108.811 389.976C106.546 389.529 104.327 388.876 102.181 388.024L102.84 387.843C101.06 390.129 98.8688 392.062 96.3789 393.542C93.9079 394.976 91.212 395.981 88.4055 396.515C85.6117 397 82.7687 397.139 79.9409 396.928C77.1677 396.761 74.4229 396.276 71.7607 395.481Z" fill="#6D3FB8"/>
<path d="M11.9019 193.883C14.1739 193.434 16.3918 192.745 18.5184 191.828C20.6467 190.929 22.7106 189.884 24.6956 188.701C26.6712 187.497 28.5702 186.172 30.3817 184.733C31.3121 184.049 32.1392 183.26 32.9663 182.524C33.7933 181.787 34.6462 180.934 35.5508 180.146C35.6048 180.099 35.6735 180.074 35.7447 180.074C35.8158 180.074 35.8846 180.099 35.9385 180.146C39.0564 182.521 42.4129 184.565 45.9538 186.245C49.4814 187.964 53.1749 189.32 56.9771 190.29C64.5719 192.304 72.5231 192.578 80.2384 191.092C87.9058 189.521 95.1709 186.398 101.587 181.916C108.046 177.459 113.886 172.167 118.956 166.176C119.064 166.058 119.212 165.984 119.371 165.968C119.531 165.951 119.691 165.993 119.821 166.086C126.35 170.924 133.31 175.15 140.614 178.711C147.886 182.344 155.559 185.111 163.475 186.956C171.369 188.886 179.561 189.277 187.602 188.106C191.604 187.409 195.508 186.238 199.233 184.617C202.912 182.918 206.382 180.798 209.571 178.298C209.591 178.278 209.614 178.262 209.639 178.251C209.665 178.24 209.692 178.235 209.72 178.235C209.748 178.235 209.775 178.24 209.801 178.251C209.826 178.262 209.849 178.278 209.868 178.298C210.859 179.592 212.01 180.756 213.293 181.761C214.574 182.783 216.003 183.602 217.532 184.191C219.064 184.772 220.703 185.018 222.339 184.914C223.983 184.805 225.591 184.388 227.082 183.687C225.602 184.415 223.997 184.854 222.352 184.979C220.725 185.166 219.077 185.002 217.519 184.501C215.956 183.931 214.488 183.129 213.164 182.123C211.83 181.123 210.632 179.954 209.597 178.647H209.894C203.574 183.99 195.948 187.558 187.796 188.985C179.632 190.282 171.295 189.988 163.242 188.119C155.23 186.285 147.461 183.513 140.097 179.862C132.699 176.297 125.647 172.053 119.033 167.184L119.912 167.094C114.766 173.164 108.824 178.51 102.246 182.989C95.6711 187.532 88.2333 190.677 80.3935 192.229C72.5309 193.698 64.436 193.344 56.7316 191.195C52.8936 190.16 49.1701 188.74 45.6178 186.956C42.0463 185.217 38.675 183.094 35.5638 180.624H35.9644C35.0985 181.412 34.2456 182.214 33.3798 182.963C32.514 183.713 31.6094 184.475 30.6531 185.147C28.8029 186.555 26.8696 187.849 24.8636 189.024C22.8401 190.171 20.7419 191.182 18.583 192.048C16.4277 192.896 14.188 193.511 11.9019 193.883Z" fill="#6D3FB8"/>
<path d="M38.7556 185.948C38.783 186.373 38.723 186.799 38.5792 187.2C38.4354 187.601 38.2109 187.968 37.9197 188.279C37.6284 188.59 37.2764 188.837 36.8857 189.007C36.4949 189.176 36.0735 189.263 35.6476 189.263C35.2217 189.263 34.8004 189.176 34.4096 189.007C34.0188 188.837 33.6669 188.59 33.3756 188.279C33.0843 187.968 32.8599 187.601 32.7161 187.2C32.5723 186.799 32.5122 186.373 32.5397 185.948C32.5397 184.229 35.6412 180.262 35.6412 180.262C35.6412 180.262 38.7556 184.229 38.7556 185.948Z" fill="#C372E9"/>
<path d="M122.613 172.315C122.64 172.74 122.58 173.166 122.437 173.567C122.293 173.967 122.068 174.335 121.777 174.645C121.486 174.956 121.134 175.204 120.743 175.373C120.352 175.542 119.931 175.63 119.505 175.63C119.079 175.63 118.658 175.542 118.267 175.373C117.876 175.204 117.524 174.956 117.233 174.645C116.942 174.335 116.717 173.967 116.573 173.567C116.43 173.166 116.37 172.74 116.397 172.315C116.397 170.609 119.512 166.628 119.512 166.628C119.512 166.628 122.613 170.609 122.613 172.315Z" fill="#C372E9"/>
<path d="M212.957 184.191C212.985 184.616 212.925 185.042 212.781 185.443C212.637 185.844 212.413 186.211 212.121 186.521C211.83 186.832 211.478 187.08 211.087 187.249C210.697 187.418 210.275 187.506 209.849 187.506C209.423 187.506 209.002 187.418 208.611 187.249C208.22 187.08 207.869 186.832 207.577 186.521C207.286 186.211 207.062 185.844 206.918 185.443C206.774 185.042 206.714 184.616 206.741 184.191C206.741 182.485 209.856 178.505 209.856 178.505C209.856 178.505 212.957 182.485 212.957 184.191Z" fill="#C372E9"/>
<path d="M37.8899 234.577C37.9173 235.002 37.8573 235.428 37.7135 235.829C37.5697 236.23 37.3452 236.597 37.0539 236.908C36.7626 237.219 36.4107 237.466 36.0199 237.636C35.6291 237.805 35.2078 237.892 34.7819 237.892C34.356 237.892 33.9347 237.805 33.5439 237.636C33.1531 237.466 32.8012 237.219 32.5099 236.908C32.2186 236.597 31.9941 236.23 31.8503 235.829C31.7066 235.428 31.6465 235.002 31.6739 234.577C31.6739 232.859 34.7884 228.878 34.7884 228.878C34.7884 228.878 37.8899 232.859 37.8899 234.577Z" fill="#C372E9"/>
<path d="M49.3397 293.648C49.3397 294.474 49.0116 295.266 48.4275 295.85C47.8434 296.434 47.0513 296.762 46.2253 296.762C45.3993 296.762 44.6071 296.434 44.023 295.85C43.439 295.266 43.1108 294.474 43.1108 293.648C43.1108 291.929 46.2253 287.962 46.2253 287.962C46.2253 287.962 49.3397 291.929 49.3397 293.648Z" fill="#C372E9"/>
<path d="M126.58 284.408C126.607 284.833 126.547 285.259 126.403 285.66C126.26 286.061 126.035 286.428 125.744 286.739C125.453 287.05 125.101 287.297 124.71 287.466C124.319 287.636 123.898 287.723 123.472 287.723C123.046 287.723 122.625 287.636 122.234 287.466C121.843 287.297 121.491 287.05 121.2 286.739C120.909 286.428 120.684 286.061 120.54 285.66C120.396 285.259 120.336 284.833 120.364 284.408C120.364 282.689 123.465 278.709 123.465 278.709C123.465 278.709 126.58 282.715 126.58 284.408Z" fill="#C372E9"/>
<path d="M204.803 294.876C204.752 295.665 204.402 296.406 203.825 296.947C203.248 297.488 202.486 297.79 201.695 297.79C200.904 297.79 200.142 297.488 199.565 296.947C198.987 296.406 198.638 295.665 198.587 294.876C198.587 293.157 201.688 289.177 201.688 289.177C201.688 289.177 204.803 293.157 204.803 294.876Z" fill="#C372E9"/>
<path d="M180.042 340.08C180.07 340.505 180.01 340.931 179.866 341.332C179.722 341.733 179.498 342.1 179.206 342.411C178.915 342.722 178.563 342.969 178.172 343.139C177.781 343.308 177.36 343.395 176.934 343.395C176.508 343.395 176.087 343.308 175.696 343.139C175.305 342.969 174.954 342.722 174.662 342.411C174.371 342.1 174.146 341.733 174.003 341.332C173.859 340.931 173.799 340.505 173.826 340.08C173.826 338.361 176.928 334.394 176.928 334.394C176.928 334.394 180.042 338.361 180.042 340.08Z" fill="#C372E9"/>
<path d="M128.764 338C128.713 338.789 128.364 339.53 127.786 340.071C127.209 340.612 126.448 340.914 125.656 340.914C124.865 340.914 124.103 340.612 123.526 340.071C122.949 339.53 122.599 338.789 122.548 338C122.548 336.281 125.65 332.301 125.65 332.301C125.65 332.301 128.764 336.281 128.764 338Z" fill="#C372E9"/>
<path d="M79.4762 344.823C79.4252 345.613 79.0756 346.353 78.4984 346.894C77.9211 347.436 77.1595 347.737 76.3682 347.737C75.5769 347.737 74.8153 347.436 74.2381 346.894C73.6608 346.353 73.3112 345.613 73.2603 344.823C73.2603 343.104 76.3618 339.124 76.3618 339.124C76.3618 339.124 79.4762 343.104 79.4762 344.823Z" fill="#C372E9"/>
<path d="M106.381 392.78C106.438 393.184 106.415 393.595 106.313 393.99C106.211 394.385 106.032 394.756 105.787 395.082C105.541 395.407 105.234 395.682 104.883 395.889C104.531 396.096 104.143 396.232 103.739 396.289C103.335 396.345 102.924 396.322 102.529 396.22C102.134 396.118 101.763 395.939 101.437 395.694C101.111 395.448 100.837 395.141 100.63 394.79C100.423 394.438 100.287 394.05 100.23 393.646C99.9846 391.94 102.517 387.572 102.517 387.572C102.517 387.572 106.201 391.087 106.381 392.78Z" fill="#C372E9"/>
<path d="M131.827 391.539C131.818 392.338 131.503 393.102 130.946 393.675C130.389 394.247 129.634 394.584 128.836 394.616C128.038 394.647 127.258 394.371 126.658 393.844C126.058 393.317 125.683 392.58 125.611 391.785C125.611 390.066 128.493 385.97 128.493 385.97C128.493 385.97 131.75 389.821 131.827 391.539Z" fill="#C372E9"/>
<path d="M157.363 393.698C157.275 394.509 156.873 395.254 156.242 395.772C155.611 396.29 154.801 396.539 153.988 396.466C153.175 396.393 152.423 396.004 151.894 395.382C151.365 394.761 151.102 393.956 151.16 393.142C151.315 391.436 154.778 387.753 154.778 387.753C154.778 387.753 157.518 391.992 157.363 393.698Z" fill="#C372E9"/>
<path d="M125.223 231.256C125.223 232.082 124.895 232.874 124.311 233.458C123.727 234.042 122.935 234.371 122.109 234.371C121.283 234.371 120.491 234.042 119.907 233.458C119.323 232.874 118.995 232.082 118.995 231.256C118.995 229.537 122.109 225.557 122.109 225.557C122.109 225.557 125.223 229.537 125.223 231.256Z" fill="#C372E9"/>
<path d="M215.464 239.436C215.413 240.226 215.063 240.967 214.486 241.508C213.909 242.049 213.147 242.35 212.356 242.35C211.565 242.35 210.803 242.049 210.226 241.508C209.649 240.967 209.299 240.226 209.248 239.436C209.248 237.718 212.362 233.737 212.362 233.737C212.362 233.737 215.464 237.718 215.464 239.436Z" fill="#C372E9"/>
<path d="M370.346 248.004H331.344V231.204C344.21 233.854 357.48 233.854 370.346 231.204V248.004Z" fill="#371963"/>
<path d="M335.647 232.006C336.509 237.165 336.509 242.431 335.647 247.591C335.184 245.033 334.968 242.436 335.001 239.837C334.969 237.212 335.186 234.59 335.647 232.006Z" fill="#4C2F77"/>
<path d="M339.68 248.004C339.219 245.446 339.003 242.85 339.034 240.25C338.996 237.651 339.212 235.054 339.68 232.497C340.54 237.608 340.54 242.828 339.68 247.94V248.004Z" fill="#4C2F77"/>
<path d="M343.698 248.004C342.837 243.018 342.837 237.922 343.698 232.936C344.56 237.922 344.56 243.018 343.698 248.004Z" fill="#4C2F77"/>
<path d="M347.304 248.004C346.443 243.088 346.443 238.059 347.304 233.143C348.166 238.059 348.166 243.088 347.304 248.004Z" fill="#4C2F77"/>
<path d="M350.844 248.004C350.393 245.567 350.177 243.091 350.198 240.612C350.17 238.129 350.386 235.648 350.844 233.207C351.309 235.648 351.526 238.129 351.491 240.612C351.519 243.092 351.302 245.568 350.844 248.004Z" fill="#4C2F77"/>
<path d="M354.618 248.004C353.757 243.084 353.757 238.051 354.618 233.13C355.48 238.051 355.48 243.084 354.618 248.004Z" fill="#4C2F77"/>
<path d="M358.586 248.004C357.725 243.005 357.725 237.896 358.586 232.897C359.448 237.896 359.448 243.005 358.586 248.004Z" fill="#4C2F77"/>
<path d="M362.721 248.004C362.263 245.446 362.047 242.85 362.075 240.25C362.041 237.651 362.257 235.055 362.721 232.497C363.178 235.055 363.395 237.651 363.367 240.25C363.388 242.849 363.172 245.445 362.721 248.004Z" fill="#4C2F77"/>
<path d="M366.972 231.851C367.834 237.201 367.834 242.654 366.972 248.004C366.111 242.654 366.111 237.201 366.972 231.851Z" fill="#4C2F77"/>
<path d="M331.344 239.604C334.601 239.346 337.806 239.217 341.101 239.113C344.396 239.01 347.563 238.984 350.845 238.958C354.127 238.932 357.306 238.958 360.602 239.113L365.474 239.294C367.089 239.398 368.717 239.462 370.346 239.604C368.717 239.759 367.089 239.824 365.474 239.927L360.602 240.108C357.345 240.225 354.14 240.238 350.845 240.25C347.55 240.263 344.384 240.25 341.101 240.108C337.819 239.966 334.601 239.876 331.344 239.604Z" fill="#4C2F77"/>
<path d="M349.85 202.076C347.541 153.762 345.508 105.434 343.75 57.0936C343.061 38.071 342.415 19.0613 341.812 0.0646162C342.691 0.0646162 343.57 0 344.474 0C386.952 0 421.392 38.7688 421.392 86.6871C421.392 110.892 412.578 132.757 398.402 148.485C377.182 172.651 374.701 195.472 374.701 195.472C367.051 200.086 358.095 201.779 349.85 202.076Z" fill="url(#paint4_linear_3389_68395)"/>
<path d="M344.474 0C343.866 0 343.272 0 342.678 0H341.812C342.415 19.014 343.061 38.0236 343.75 57.029C345.473 105.369 347.506 153.697 349.85 202.012C341.02 202.266 332.201 201.234 323.668 198.949C317.517 173.491 296.349 154.365 296.349 154.365C278.735 138.482 267.453 114.071 267.453 86.6871C267.453 39.8285 300.471 1.62829 341.734 0.103383H342.6C343.272 0.0129228 343.866 0 344.474 0Z" fill="url(#paint5_linear_3389_68395)"/>
<path d="M338.064 201.663C338.749 193.03 335.661 180.831 332.003 169.924C327.517 156.95 320.688 144.909 311.856 134.399C282.134 98.3307 288.595 42.8654 292.123 23.145C276.965 38.9756 267.531 61.5908 267.531 86.6871C267.531 114.071 278.812 138.482 296.426 154.365C296.426 154.365 317.555 173.491 323.707 199.013C328.411 200.294 333.213 201.18 338.064 201.663Z" fill="url(#paint6_linear_3389_68395)"/>
<path d="M362.256 200.448C360.033 191.919 362.411 178.156 365.59 165.905C369.134 152.647 375.077 140.151 383.126 129.036C407.783 94.4021 401.425 45.8764 396.398 22.7831C411.725 38.6137 421.352 61.384 421.352 86.6871C421.352 110.892 412.539 132.757 398.363 148.485C377.143 172.651 374.662 195.472 374.662 195.472C370.801 197.746 366.618 199.424 362.256 200.448Z" fill="url(#paint7_linear_3389_68395)"/>
<path d="M268.306 74.449C269.815 75.862 271.662 76.8632 273.669 77.3567C275.654 77.8495 277.738 77.7688 279.678 77.1241C281.602 76.4442 283.382 75.4097 284.925 74.0743C285.662 73.3635 286.398 72.6657 287.109 71.9291L289.086 69.5771C289.119 69.5431 289.158 69.516 289.201 69.4975C289.245 69.479 289.291 69.4695 289.338 69.4695C289.385 69.4695 289.432 69.479 289.475 69.4975C289.519 69.516 289.558 69.5431 289.59 69.5771C293.072 73.2529 297.321 76.1165 302.035 77.9641C306.738 79.8022 311.801 80.5318 316.832 80.0964C319.333 79.8438 321.804 79.3504 324.211 78.6232C326.61 77.856 328.944 76.8966 331.189 75.7543C335.685 73.4217 339.885 70.5582 343.699 67.2251C343.814 67.1225 343.964 67.0658 344.119 67.0658C344.273 67.0658 344.423 67.1225 344.539 67.2251C348.412 70.5117 352.7 73.275 357.294 75.4441C361.887 77.6506 366.796 79.1286 371.845 79.825C376.881 80.5382 382.008 80.2617 386.939 79.0109C391.868 77.6988 396.522 75.5101 400.676 72.5494C400.733 72.5093 400.8 72.4878 400.87 72.4878C400.939 72.4878 401.007 72.5093 401.064 72.5494C402.473 73.6018 403.984 74.5109 405.574 75.2632C407.162 76.0216 408.831 76.5982 410.549 76.982C412.281 77.3304 414.059 77.3828 415.809 77.137C417.563 76.8431 419.239 76.1922 420.732 75.2244C419.263 76.2491 417.601 76.9656 415.847 77.3309C414.073 77.6346 412.259 77.6346 410.484 77.3309C408.704 76.997 406.969 76.4548 405.315 75.7155C403.666 75.011 402.09 74.1453 400.611 73.1309H400.999C396.818 76.2169 392.117 78.5279 387.12 79.9542C382.073 81.3421 376.798 81.6937 371.612 80.9881C366.452 80.2928 361.433 78.7928 356.738 76.5426C352.048 74.344 347.668 71.5371 343.712 68.1943H344.564C340.667 71.5852 336.371 74.4884 331.771 76.8398C329.455 78.0032 327.047 78.9757 324.573 79.7475C322.085 80.4849 319.531 80.9783 316.948 81.2207C311.752 81.6557 306.528 80.8404 301.712 78.8428C296.904 76.8742 292.592 73.8642 289.086 70.0294H289.629L287.574 72.3943C286.838 73.1309 286.049 73.8288 285.287 74.5266C283.658 75.8573 281.795 76.8739 279.795 77.5247C277.78 78.1314 275.634 78.1583 273.605 77.6022C271.597 77.0238 269.772 75.9378 268.306 74.449Z" fill="#300C55"/>
<path d="M270.762 111.615C272.833 112.877 275.099 113.786 277.469 114.303C279.816 114.846 282.251 114.885 284.615 114.42C286.954 113.964 289.161 112.993 291.077 111.577L291.813 111.073C292.046 110.892 292.265 110.685 292.485 110.491L293.777 109.289C294.617 108.436 295.354 107.493 296.155 106.601C296.193 106.564 296.237 106.534 296.286 106.514C296.334 106.493 296.387 106.483 296.44 106.483C296.492 106.483 296.545 106.493 296.594 106.514C296.642 106.534 296.687 106.564 296.724 106.601C299.628 110.125 303.565 112.647 307.98 113.812C312.345 114.937 316.925 114.937 321.29 113.812C325.674 112.672 329.864 110.886 333.722 108.514C337.608 106.148 341.29 103.463 344.733 100.489C344.797 100.433 344.871 100.391 344.952 100.365C345.032 100.339 345.117 100.329 345.201 100.337C345.286 100.344 345.368 100.368 345.443 100.407C345.517 100.447 345.584 100.501 345.637 100.566C348.505 104.083 351.927 107.108 355.769 109.522C359.594 111.974 363.875 113.627 368.356 114.381C372.851 115.06 377.442 114.734 381.796 113.425C386.158 112.067 390.272 110.017 393.982 107.351C394.041 107.317 394.108 107.299 394.176 107.299C394.244 107.299 394.311 107.317 394.37 107.351C396.232 108.337 398.158 109.201 400.133 109.935C402.107 110.699 404.143 111.287 406.22 111.693C408.297 112.125 410.425 112.255 412.539 112.081C414.657 111.9 416.703 111.223 418.51 110.103C416.73 111.298 414.693 112.055 412.565 112.313C410.412 112.556 408.235 112.482 406.104 112.094C403.989 111.743 401.909 111.206 399.888 110.491C397.851 109.783 395.872 108.919 393.969 107.907H394.357C390.613 110.703 386.447 112.884 382.015 114.368C377.538 115.807 372.79 116.2 368.136 115.518C363.497 114.755 359.059 113.067 355.084 110.556C351.097 108.086 347.543 104.977 344.565 101.355L345.482 101.458C341.983 104.467 338.235 107.174 334.278 109.548C330.305 111.963 325.992 113.771 321.484 114.911C316.923 116.043 312.146 115.976 307.618 114.717C303.088 113.385 299.086 110.675 296.168 106.963H296.789C295.961 107.868 295.186 108.824 294.307 109.69L292.912 110.905C292.679 111.099 292.459 111.318 292.214 111.499L291.438 112.003C289.407 113.417 287.084 114.358 284.641 114.756C282.212 115.164 279.725 115.058 277.339 114.446C275.006 113.872 272.783 112.916 270.762 111.615Z" fill="#300C55"/>
<path d="M287.057 144.362C289.433 145.48 291.95 146.267 294.54 146.701C297.105 147.146 299.728 147.146 302.293 146.701C303.565 146.479 304.815 146.146 306.028 145.706C307.217 145.206 308.359 144.601 309.44 143.897C310.523 143.2 311.536 142.399 312.464 141.506C312.93 141.071 313.362 140.6 313.756 140.098L315.048 138.637C315.126 138.546 315.233 138.485 315.35 138.463C315.468 138.442 315.59 138.463 315.694 138.521C318.101 139.839 320.693 140.785 323.384 141.325C326.071 141.882 328.834 141.97 331.551 141.584C334.268 141.235 336.897 140.385 339.305 139.077C340.521 138.45 341.684 137.724 342.781 136.906C343.892 136.104 344.874 135.122 345.934 134.321C346.073 134.21 346.25 134.158 346.427 134.178C346.604 134.197 346.766 134.286 346.877 134.424C348.675 136.684 350.97 138.497 353.584 139.723C356.211 140.958 359.083 141.581 361.984 141.545L364.155 141.39C364.878 141.306 365.594 141.176 366.301 141.002C367.732 140.68 369.136 140.248 370.501 139.71C371.87 139.18 373.176 138.495 374.52 137.888L378.319 135.613C378.395 135.561 378.485 135.532 378.577 135.532C378.67 135.532 378.76 135.561 378.836 135.613C380.552 137.019 382.357 138.314 384.238 139.49C386.117 140.688 388.088 141.738 390.131 142.631C392.178 143.546 394.36 144.126 396.592 144.349C398.827 144.587 401.078 144.073 402.989 142.889C401.099 144.196 398.819 144.816 396.527 144.647C394.263 144.5 392.038 143.99 389.937 143.135C387.823 142.307 385.786 141.295 383.85 140.111C381.905 138.943 380.04 137.648 378.267 136.234H378.797L374.92 138.65C373.563 139.309 372.232 140.033 370.837 140.615C369.421 141.16 367.965 141.592 366.482 141.907C365.719 142.049 364.995 142.269 364.233 142.333L361.933 142.501C358.848 142.568 355.788 141.927 352.99 140.627C350.172 139.332 347.698 137.393 345.766 134.967L346.735 135.058C345.65 135.975 344.603 136.97 343.44 137.797C342.284 138.645 341.061 139.397 339.783 140.046C337.246 141.399 334.482 142.275 331.628 142.631C328.782 143.013 325.892 142.895 323.086 142.282C320.275 141.703 317.577 140.668 315.1 139.219L315.746 139.103L314.454 140.602C314.024 141.113 313.553 141.589 313.045 142.023C312.063 142.941 310.989 143.755 309.84 144.453C308.698 145.156 307.496 145.757 306.248 146.249C304.986 146.678 303.689 146.994 302.371 147.192C299.733 147.552 297.054 147.455 294.449 146.908C291.873 146.429 289.382 145.571 287.057 144.362Z" fill="#300C55"/>
<path d="M312.554 174.382C314.252 174.761 315.984 174.973 317.723 175.015C319.46 175.041 321.194 174.872 322.893 174.511C324.572 174.14 326.176 173.484 327.635 172.573C329.069 171.649 330.318 170.466 331.318 169.084C331.395 168.991 331.498 168.925 331.614 168.895C331.73 168.865 331.853 168.872 331.964 168.916C333.254 169.411 334.587 169.787 335.945 170.04C337.303 170.299 338.684 170.425 340.067 170.415C341.434 170.388 342.79 170.175 344.099 169.782C345.381 169.368 346.583 168.739 347.653 167.921C347.774 167.83 347.921 167.78 348.073 167.78C348.224 167.78 348.372 167.83 348.493 167.921C350.128 169.273 352.06 170.22 354.13 170.685C356.201 171.15 358.351 171.119 360.408 170.596C361.79 170.241 363.126 169.725 364.388 169.058C364.489 169.015 364.601 169.003 364.709 169.024C364.818 169.045 364.917 169.097 364.995 169.174C366.06 170.337 367.262 171.365 368.575 172.237C369.887 173.116 371.319 173.799 372.827 174.266C374.346 174.724 375.947 174.843 377.518 174.615C379.102 174.352 380.617 173.776 381.976 172.922C380.67 173.909 379.167 174.605 377.57 174.964C375.947 175.3 374.27 175.273 372.659 174.886C371.056 174.471 369.526 173.813 368.123 172.935C366.712 172.069 365.41 171.037 364.246 169.859L364.879 169.963C364.194 170.299 363.587 170.686 362.837 170.971C362.134 171.268 361.408 171.51 360.666 171.694C359.183 172.105 357.641 172.267 356.105 172.172C352.995 171.992 350.02 170.84 347.601 168.877H348.441C347.238 169.781 345.887 170.467 344.448 170.906C343.023 171.316 341.549 171.529 340.067 171.539C338.604 171.537 337.145 171.386 335.712 171.087C334.277 170.795 332.875 170.362 331.525 169.795L332.171 169.627C331.043 171.065 329.658 172.283 328.088 173.219C326.514 174.124 324.796 174.749 323.009 175.067C321.246 175.359 319.453 175.433 317.672 175.287C315.937 175.18 314.22 174.877 312.554 174.382Z" fill="#300C55"/>
<path d="M274.974 47.8019C276.395 47.5218 277.782 47.0885 279.109 46.5097C280.444 45.9367 281.739 45.2762 282.986 44.5324C284.218 43.7723 285.401 42.935 286.527 42.0254C287.655 41.1235 288.734 40.1615 289.758 39.1436C289.81 39.0981 289.876 39.0731 289.945 39.0731C290.014 39.0731 290.081 39.0981 290.133 39.1436C294.07 42.0792 298.544 44.2171 303.301 45.437C308.041 46.6643 312.994 46.8188 317.801 45.8894C322.592 44.9107 327.134 42.9673 331.15 40.1774C335.183 37.3829 338.829 34.0675 341.993 30.3172C342.101 30.1995 342.249 30.1253 342.408 30.1087C342.568 30.092 342.728 30.134 342.858 30.2267C346.945 33.2553 351.301 35.9027 355.872 38.1356C360.418 40.4115 365.215 42.1464 370.165 43.3048C375.095 44.5296 380.215 44.7928 385.246 44.0801C387.744 43.6535 390.182 42.9289 392.508 41.922C394.805 40.8849 396.974 39.5839 398.97 38.0451C399.012 38.007 399.068 37.9859 399.125 37.9859C399.182 37.9859 399.237 38.007 399.28 38.0451C400.5 39.6862 402.144 40.964 404.036 41.7411C404.991 42.1066 406.012 42.2694 407.034 42.2192C408.087 42.1619 409.119 41.8985 410.071 41.4439C409.144 41.9206 408.135 42.2187 407.098 42.3226C406.053 42.4271 404.997 42.2946 404.01 41.9349C403.014 41.5904 402.081 41.0887 401.244 40.4488C400.398 39.8226 399.638 39.0884 398.983 38.2648H399.293C397.31 39.9111 395.141 41.3206 392.831 42.4648C390.471 43.5396 387.989 44.325 385.439 44.8038C380.287 45.6437 375.021 45.4769 369.932 44.3127C364.885 43.1598 359.989 41.4251 355.342 39.1436C350.682 36.9 346.239 34.2308 342.07 31.1701L342.949 31.0797C339.705 34.9056 335.957 38.2746 331.809 41.0949C327.652 43.9598 322.949 45.9392 317.995 46.9103C313.037 47.8379 307.933 47.6035 303.082 46.2253C300.667 45.5646 298.325 44.6641 296.09 43.5374C293.837 42.4366 291.713 41.0886 289.758 39.5183H290.159C289.09 40.5211 287.968 41.4658 286.799 42.3485C285.628 43.231 284.402 44.0382 283.128 44.7651C280.605 46.239 277.847 47.2664 274.974 47.8019Z" fill="#300C55"/>
<path d="M291.839 42.8266C291.763 43.2864 291.527 43.7044 291.172 44.0061C290.817 44.3077 290.366 44.4733 289.9 44.4733C289.434 44.4733 288.984 44.3077 288.629 44.0061C288.274 43.7044 288.037 43.2864 287.962 42.8266C287.962 41.7411 289.913 39.2469 289.913 39.2469C289.913 39.2469 291.839 41.7411 291.839 42.8266Z" fill="#0850EC"/>
<path d="M344.487 34.2717C344.432 34.7472 344.204 35.1859 343.846 35.5044C343.489 35.8229 343.027 35.9988 342.548 35.9988C342.07 35.9988 341.608 35.8229 341.25 35.5044C340.893 35.1859 340.665 34.7472 340.61 34.2717C340.61 33.1861 342.561 30.692 342.561 30.692C342.561 30.692 344.487 33.1861 344.487 34.2717Z" fill="#0850EC"/>
<path d="M401.206 41.7282C401.238 42.0015 401.211 42.2785 401.128 42.5408C401.045 42.8032 400.908 43.045 400.725 43.2505C400.542 43.4559 400.317 43.6204 400.066 43.7329C399.815 43.8455 399.543 43.9037 399.268 43.9037C398.993 43.9037 398.721 43.8455 398.469 43.7329C398.218 43.6204 397.994 43.4559 397.811 43.2505C397.628 43.045 397.49 42.8032 397.407 42.5408C397.324 42.2785 397.298 42.0015 397.329 41.7282C397.329 40.6426 399.281 38.1485 399.281 38.1485C399.281 38.1485 401.206 40.6426 401.206 41.7282Z" fill="#0850EC"/>
<path d="M291.322 73.3635C291.247 73.8233 291.011 74.2414 290.656 74.543C290.3 74.8446 289.85 75.0102 289.384 75.0102C288.918 75.0102 288.467 74.8446 288.112 74.543C287.757 74.2414 287.521 73.8233 287.445 73.3635C287.445 72.2909 289.41 69.7968 289.41 69.7968C289.41 69.7968 291.322 72.278 291.322 73.3635Z" fill="#0850EC"/>
<path d="M298.481 110.44C298.527 110.721 298.512 111.008 298.436 111.283C298.359 111.557 298.224 111.812 298.04 112.029C297.856 112.246 297.626 112.42 297.368 112.54C297.109 112.659 296.828 112.721 296.543 112.721C296.258 112.721 295.977 112.659 295.718 112.54C295.46 112.42 295.23 112.246 295.046 112.029C294.861 111.812 294.726 111.557 294.65 111.283C294.574 111.008 294.558 110.721 294.604 110.44C294.604 109.367 296.569 106.873 296.569 106.873C296.569 106.873 298.481 109.367 298.481 110.44Z" fill="#0850EC"/>
<path d="M346.981 104.637C346.906 105.097 346.669 105.515 346.314 105.817C345.959 106.118 345.508 106.284 345.042 106.284C344.577 106.284 344.126 106.118 343.771 105.817C343.416 105.515 343.179 105.097 343.104 104.637C343.104 103.564 345.068 101.07 345.068 101.07C345.068 101.07 346.981 103.564 346.981 104.637Z" fill="#0850EC"/>
<path d="M396.089 111.215C396.12 111.488 396.094 111.765 396.011 112.028C395.928 112.29 395.79 112.532 395.607 112.737C395.424 112.943 395.2 113.107 394.948 113.22C394.697 113.332 394.425 113.39 394.15 113.39C393.875 113.39 393.603 113.332 393.352 113.22C393.101 113.107 392.876 112.943 392.693 112.737C392.51 112.532 392.373 112.29 392.29 112.028C392.207 111.765 392.18 111.488 392.212 111.215C392.212 110.129 394.163 107.635 394.163 107.635C394.163 107.635 396.089 110.129 396.089 111.215Z" fill="#0850EC"/>
<path d="M380.517 139.594C380.462 140.069 380.234 140.508 379.876 140.826C379.519 141.145 379.057 141.321 378.578 141.321C378.099 141.321 377.637 141.145 377.28 140.826C376.923 140.508 376.695 140.069 376.64 139.594C376.64 138.521 378.591 136.027 378.591 136.027C378.591 136.027 380.517 138.521 380.517 139.594Z" fill="#0850EC"/>
<path d="M348.351 138.288C348.296 138.764 348.068 139.203 347.711 139.521C347.353 139.84 346.891 140.016 346.413 140.016C345.934 140.016 345.472 139.84 345.114 139.521C344.757 139.203 344.529 138.764 344.474 138.288C344.474 137.203 346.425 134.709 346.425 134.709C346.425 134.709 348.351 137.203 348.351 138.288Z" fill="#0850EC"/>
<path d="M317.4 142.579C317.345 143.054 317.117 143.493 316.76 143.812C316.403 144.13 315.941 144.306 315.462 144.306C314.983 144.306 314.521 144.13 314.164 143.812C313.806 143.493 313.578 143.054 313.523 142.579C313.523 141.493 315.475 138.999 315.475 138.999C315.475 138.999 317.4 141.493 317.4 142.579Z" fill="#0850EC"/>
<path d="M334.329 172.689C334.365 172.944 334.35 173.203 334.286 173.452C334.221 173.701 334.108 173.934 333.954 174.139C333.799 174.345 333.605 174.517 333.384 174.648C333.162 174.778 332.917 174.863 332.662 174.899C332.408 174.935 332.149 174.92 331.9 174.855C331.651 174.791 331.417 174.678 331.212 174.523C331.007 174.368 330.834 174.175 330.704 173.953C330.574 173.732 330.488 173.487 330.453 173.232C330.297 172.159 331.887 169.42 331.887 169.42C331.887 169.42 334.174 171.578 334.329 172.689Z" fill="#0850EC"/>
<path d="M350.264 171.901C350.276 172.158 350.237 172.414 350.149 172.656C350.061 172.897 349.926 173.119 349.751 173.308C349.577 173.496 349.367 173.649 349.133 173.756C348.899 173.862 348.647 173.922 348.39 173.93C347.873 173.947 347.37 173.761 346.99 173.41C346.611 173.059 346.384 172.573 346.361 172.056C346.361 170.983 348.183 168.412 348.183 168.412C348.183 168.412 350.225 170.828 350.264 171.901Z" fill="#0850EC"/>
<path d="M366.301 173.258C366.221 173.745 365.961 174.183 365.571 174.485C365.181 174.788 364.691 174.931 364.2 174.887C363.709 174.843 363.253 174.614 362.923 174.247C362.594 173.88 362.415 173.402 362.424 172.909C362.528 171.836 364.699 169.523 364.699 169.523C364.699 169.523 366.404 172.185 366.301 173.258Z" fill="#0850EC"/>
<path d="M346.115 71.27C346.147 71.5434 346.12 71.8203 346.037 72.0827C345.954 72.3451 345.816 72.5869 345.633 72.7924C345.45 72.9978 345.226 73.1622 344.975 73.2748C344.724 73.3874 344.452 73.4456 344.176 73.4456C343.901 73.4456 343.629 73.3874 343.378 73.2748C343.127 73.1622 342.903 72.9978 342.72 72.7924C342.536 72.5869 342.399 72.3451 342.316 72.0827C342.233 71.8203 342.206 71.5434 342.238 71.27C342.238 70.1974 344.189 67.6904 344.189 67.6904C344.189 67.6904 346.115 70.1974 346.115 71.27Z" fill="#0850EC"/>
<path d="M402.782 76.4004C402.814 76.6738 402.787 76.9507 402.704 77.2131C402.622 77.4755 402.484 77.7173 402.301 77.9228C402.118 78.1282 401.893 78.2926 401.642 78.4052C401.391 78.5178 401.119 78.576 400.844 78.576C400.569 78.576 400.297 78.5178 400.046 78.4052C399.795 78.2926 399.57 78.1282 399.387 77.9228C399.204 77.7173 399.066 77.4755 398.983 77.2131C398.9 76.9507 398.874 76.6738 398.906 76.4004C398.906 75.3278 400.857 72.8337 400.857 72.8337C400.857 72.8337 402.782 75.3278 402.782 76.4004Z" fill="#0850EC"/>
<defs>
<linearGradient id="paint0_linear_3389_68395" x1="181.729" y1="117.754" x2="181.729" y2="439.6" gradientUnits="userSpaceOnUse">
<stop stop-color="#A574F6"/>
<stop offset="1" stop-color="#5C3B91"/>
</linearGradient>
<linearGradient id="paint1_linear_3389_68395" x1="65.5775" y1="117.754" x2="65.5775" y2="439.568" gradientUnits="userSpaceOnUse">
<stop stop-color="#682DC9"/>
<stop offset="1" stop-color="#6126C1"/>
</linearGradient>
<linearGradient id="paint2_linear_3389_68395" x1="56.2964" y1="154.636" x2="56.2964" y2="438.928" gradientUnits="userSpaceOnUse">
<stop stop-color="#A574F6"/>
<stop offset="1" stop-color="#5C3B91"/>
</linearGradient>
<linearGradient id="paint3_linear_3389_68395" x1="197.352" y1="153.977" x2="197.352" y2="436.989" gradientUnits="userSpaceOnUse">
<stop stop-color="#682DC9"/>
<stop offset="1" stop-color="#6126C1"/>
</linearGradient>
<linearGradient id="paint4_linear_3389_68395" x1="381.602" y1="0" x2="381.602" y2="202.076" gradientUnits="userSpaceOnUse">
<stop stop-color="#7B61FF"/>
<stop offset="0.273934" stop-color="#9151D1"/>
<stop offset="1" stop-color="#3E2656"/>
</linearGradient>
<linearGradient id="paint5_linear_3389_68395" x1="308.651" y1="0" x2="308.651" y2="202.049" gradientUnits="userSpaceOnUse">
<stop stop-color="#6536C8"/>
<stop offset="1" stop-color="#35224E"/>
</linearGradient>
<linearGradient id="paint6_linear_3389_68395" x1="302.845" y1="23.145" x2="302.845" y2="201.663" gradientUnits="userSpaceOnUse">
<stop stop-color="#7B61FF"/>
<stop offset="0.273934" stop-color="#9151D1"/>
<stop offset="1" stop-color="#3E2656"/>
</linearGradient>
<linearGradient id="paint7_linear_3389_68395" x1="391.37" y1="22.7831" x2="391.37" y2="200.448" gradientUnits="userSpaceOnUse">
<stop stop-color="#6536C8"/>
<stop offset="1" stop-color="#35224E"/>
</linearGradient>
</defs>
</svg>
