<svg width="468" height="395" viewBox="0 0 468 395" fill="none" xmlns="http://www.w3.org/2000/svg">
<path fill-rule="evenodd" clip-rule="evenodd" d="M61.149 265.54C60.1855 268.35 71.5084 271.145 72.6762 268.414C84.1513 241.582 121.308 161.371 152.857 97.6019C157.914 99.6593 169.294 104.376 177.887 108.577C181.474 110.331 192.512 92.8004 189.84 89.2616C189.051 88.2176 185.322 86.0758 180.799 83.7291C181.617 81.8828 182.903 79.5033 184.914 76.4851C186.988 73.3744 187.93 71.1786 189.211 68.192L189.211 68.192L189.211 68.1916C189.59 67.3086 189.999 66.3565 190.475 65.2912C191.118 63.8531 192.224 62.9095 193.355 61.9858C196.187 63.3927 198.861 64.8629 201.058 66.3179C204.059 68.3049 211.828 54.508 208.576 52.9662C199.393 48.6114 188.166 42.7569 182.527 39.7817C187.4 30.8275 191.581 23.5821 194.801 18.6432C196.388 16.2103 185.905 11.0777 184.364 13.54C150.001 68.4607 76.6295 220.396 61.149 265.54Z" fill="url(#paint0_linear_3389_70935)"/>
<path d="M35.8497 330.508C13.1836 319.425 5.43163 292.786 16.5142 270.12C27.5967 247.454 53.3813 237.212 76.0475 248.295C98.7136 259.378 107.023 286.289 95.9401 308.955C84.8575 331.621 58.5158 341.59 35.8497 330.508ZM71.1422 258.327C54.0079 249.949 34.9242 257.891 26.5464 275.025C18.1686 292.159 23.6206 312.098 40.755 320.475C57.8893 328.853 77.53 321.184 85.9078 304.05C94.2857 286.916 88.2765 266.705 71.1422 258.327L71.1422 258.327Z" fill="#593FAF"/>
<path d="M260.947 168.35C260.163 168.35 259.388 168.18 258.675 167.852C257.963 167.523 257.331 167.044 256.821 166.447C256.312 165.85 255.939 165.15 255.726 164.395C255.514 163.64 255.468 162.848 255.592 162.073L255.776 160.933C256.629 155.655 258.217 145.83 257.964 141.609C257.4 132.223 254.468 116.043 241.167 113.135C235.824 111.966 231.913 112.312 229.212 114.19C225.866 116.517 223.679 121.627 222.523 129.812C222.215 131.997 221.944 134.828 221.657 137.824C221.241 142.173 220.811 146.671 220.173 150.242C220.048 150.942 219.787 151.611 219.403 152.21C219.02 152.809 218.522 153.327 217.938 153.734C217.355 154.141 216.696 154.429 216.002 154.581C215.307 154.734 214.588 154.748 213.888 154.623C213.188 154.498 212.519 154.236 211.92 153.852C211.32 153.469 210.803 152.971 210.396 152.387C209.989 151.803 209.701 151.145 209.549 150.45C209.397 149.755 209.383 149.037 209.508 148.337C210.068 145.2 210.477 140.926 210.873 136.792C211.171 133.671 211.453 130.724 211.796 128.298C213.417 116.806 216.986 109.496 223.026 105.295C228.265 101.652 235.147 100.728 243.481 102.551C258.504 105.836 267.488 119.476 268.778 140.96C269.079 145.958 267.803 154.421 266.472 162.662L266.289 163.792C266.085 165.062 265.435 166.218 264.457 167.053C263.478 167.889 262.234 168.348 260.947 168.35Z" fill="url(#paint1_linear_3389_70935)"/>
<path d="M234.642 215.455C227.861 214.073 221.349 211.091 214.673 208.332C198.523 201.658 194.311 192.507 197.785 175.106C199.977 164.127 203.265 152.108 204.708 140.758C228.216 146.938 250.602 151.51 273.725 159.753C270.974 171.259 268.289 186.775 264.796 197.239C259.26 213.825 251.047 218.798 234.642 215.455Z" fill="url(#paint2_linear_3389_70935)"/>
<path d="M239.995 167.25C240.598 163.192 239.46 158.625 235.385 157.25C231.309 155.875 229.015 158.739 228.145 162.457C227.583 164.862 228.577 167.732 229.637 169.958C227.317 176.148 224.685 182.157 222.07 188.209C225.73 189.509 229.3 190.963 232.846 192.547C233.989 186.033 235.041 179.518 235.954 172.962C238.097 171.626 239.616 169.804 239.995 167.25Z" fill="black"/>
<path d="M336.438 141.524C336.438 141.524 313.353 201.412 296.186 228.844C260.38 286.058 232.546 302.443 232.546 302.443L332.358 394.945C332.358 394.945 380.628 363.929 418.846 301.948C444.295 260.677 467.949 197.471 467.949 197.471L336.438 141.524Z" fill="url(#paint3_linear_3389_70935)"/>
<path d="M382.652 265.443C381.806 265.442 380.971 265.243 380.215 264.862C379.458 264.481 378.802 263.928 378.298 263.247C377.795 262.566 377.457 261.777 377.313 260.942C377.169 260.108 377.223 259.251 377.47 258.441C380.544 248.383 383.764 230.262 370.787 221.92C365.548 218.551 361.208 217.374 357.516 218.32C353.001 219.478 348.658 223.996 344.24 232.134C343.074 234.281 341.702 237.103 340.249 240.091C338.148 244.413 335.975 248.882 333.951 252.305C333.219 253.541 332.026 254.435 330.635 254.792C329.244 255.148 327.769 254.938 326.533 254.207C325.297 253.476 324.401 252.284 324.044 250.893C323.686 249.503 323.895 248.027 324.625 246.79C326.425 243.748 328.499 239.481 330.505 235.354C332.013 232.254 333.436 229.325 334.718 226.964C340.736 215.881 347.125 209.8 354.825 207.826C361.503 206.114 368.843 207.79 376.646 212.806C390.713 221.85 394.685 239.181 387.831 261.608C387.492 262.717 386.806 263.688 385.874 264.379C384.942 265.069 383.812 265.442 382.652 265.443Z" fill="black"/>
<path d="M324.335 325.52C317.841 321.475 312.242 315.88 306.388 310.453C292.224 297.323 291.382 286.247 301.68 269.62C308.177 259.13 316.209 247.988 322.074 236.824C344.051 252.285 365.485 265.653 386.269 283.095C378.99 293.913 370.236 308.899 362.589 318.355C350.469 333.344 340.045 335.308 324.335 325.52Z" fill="black"/>
<path d="M348.436 277.809C350.622 273.852 351.201 268.696 347.508 265.702C343.815 262.709 340.335 264.779 338.003 268.283C336.494 270.55 336.42 273.897 336.661 276.605C331.875 282.101 326.835 287.29 321.796 292.529C325.087 295.285 328.227 298.165 331.291 301.17C334.983 294.886 338.58 288.565 342.05 282.147C344.784 281.595 347.06 280.3 348.436 277.809Z" fill="#9266DC"/>
<defs>
<linearGradient id="paint0_linear_3389_70935" x1="183.617" y1="11.7583" x2="96.7649" y2="279.06" gradientUnits="userSpaceOnUse">
<stop stop-color="#7E75FC"/>
<stop offset="1" stop-color="#5236A3"/>
</linearGradient>
<linearGradient id="paint1_linear_3389_70935" x1="239.123" y1="101.643" x2="239.123" y2="168.35" gradientUnits="userSpaceOnUse">
<stop stop-color="#A171F0"/>
<stop offset="1" stop-color="#7E75FC" stop-opacity="0.91"/>
</linearGradient>
<linearGradient id="paint2_linear_3389_70935" x1="235.189" y1="140.758" x2="235.189" y2="216.438" gradientUnits="userSpaceOnUse">
<stop stop-color="#A171F0"/>
<stop offset="1" stop-color="#7E75FC" stop-opacity="0.91"/>
</linearGradient>
<linearGradient id="paint3_linear_3389_70935" x1="350.248" y1="141.524" x2="350.248" y2="394.945" gradientUnits="userSpaceOnUse">
<stop stop-color="#A171F0"/>
<stop offset="1" stop-color="#704CAD"/>
</linearGradient>
</defs>
</svg>
