<svg width="522" height="482" viewBox="0 0 522 482" fill="none" xmlns="http://www.w3.org/2000/svg">
<path d="M174.739 391.673C171.103 391.673 167.632 390.943 165.057 389.442L38.2616 316.247C35.7136 314.774 34.3225 312.735 34.3225 310.491C34.3225 307.805 36.3334 305.092 39.8455 303.068L281.673 163.467C288.243 159.666 298.242 159.267 303.944 162.558L430.74 235.753C433.288 237.227 434.679 239.265 434.679 241.51C434.679 244.195 432.668 246.908 429.156 248.932L187.328 388.533C183.733 390.599 179.119 391.673 174.739 391.673ZM165.332 388.974C170.883 392.183 180.634 391.77 187.052 388.065L428.88 248.464C432.213 246.536 434.128 244.002 434.128 241.523C434.128 239.485 432.819 237.612 430.464 236.249L303.669 163.054C298.118 159.845 288.367 160.258 281.949 163.963L40.1072 303.55C36.7741 305.478 34.8597 308.012 34.8597 310.491C34.8597 312.529 36.1681 314.402 38.5233 315.765L165.332 388.974Z" fill="#A988F0"/>
<path d="M434.403 207.701L416.195 210.841L303.806 145.964C298.173 142.713 288.325 143.113 281.811 146.872L66.7991 270.994L34.5977 276.544V287.961H34.6114C34.5977 290.04 35.8372 292.037 38.399 293.511L165.194 366.706C170.827 369.956 180.675 369.556 187.19 365.797L429.018 226.196C432.516 224.171 434.334 221.596 434.389 219.131H434.403V207.701Z" fill="url(#paint0_linear_2564_7826)"/>
<path d="M165.194 355.207L38.399 282.011C32.7658 278.761 33.4682 273.074 39.9829 269.314L281.811 129.699C288.325 125.94 298.173 125.527 303.806 128.791L430.601 201.986C436.235 205.236 435.532 210.923 429.017 214.683L187.19 354.298C180.675 358.043 170.827 358.457 165.194 355.207Z" fill="#24126A"/>
<path d="M429.017 214.683L187.19 354.298C180.675 358.057 170.827 358.47 165.194 355.207L38.399 282.011C36.1402 280.703 34.9144 279.009 34.6527 277.205C34.3084 279.546 35.5204 281.832 38.399 283.499L165.194 356.68C170.827 359.93 180.675 359.531 187.19 355.771L429.017 216.17C432.915 213.925 434.719 210.978 434.334 208.279C434.003 210.538 432.213 212.838 429.017 214.683Z" fill="white"/>
<path opacity="0.51" d="M165.442 352.37L43.1648 281.764C37.7107 278.61 38.3993 273.115 44.6936 269.479L282.031 132.509C288.326 128.873 297.857 128.474 303.311 131.627L425.588 202.234C431.043 205.387 430.354 210.882 424.06 214.518L186.722 351.488C180.427 355.124 170.896 355.523 165.442 352.37Z" fill="#453C9E"/>
<path opacity="0.8" d="M174.684 351.722C171.144 351.722 167.77 351.006 165.249 349.56L42.9719 278.954C40.4652 277.508 39.0879 275.497 39.0879 273.28C39.0879 270.636 41.0574 267.978 44.5007 265.981L281.839 129.011C288.229 125.32 297.967 124.921 303.517 128.129L425.795 198.735C428.302 200.181 429.679 202.192 429.679 204.409C429.679 207.053 427.709 209.711 424.266 211.708L186.928 348.679C183.43 350.689 178.94 351.722 174.684 351.722ZM165.635 348.872C170.979 351.956 180.345 351.557 186.529 347.99L423.867 211.02C427.048 209.174 428.88 206.764 428.88 204.409C428.88 202.481 427.64 200.719 425.395 199.41L303.118 128.804C297.774 125.719 288.408 126.119 282.224 129.685L44.8863 266.656C41.7048 268.501 39.8729 270.911 39.8729 273.266C39.8729 275.194 41.1125 276.957 43.3575 278.265L165.635 348.872Z" fill="url(#paint1_linear_2564_7826)"/>
<g opacity="0.1">
<path opacity="0.5" d="M165.443 349.216L43.1651 278.61C37.7109 275.456 38.3996 269.961 44.6939 266.326L282.032 129.355C288.326 125.719 297.857 125.32 303.311 128.474L425.589 199.08C431.043 202.233 430.354 207.728 424.06 211.364L186.722 348.334C180.428 351.97 170.897 352.37 165.443 349.216Z" fill="url(#paint2_radial_2564_7826)"/>
<g opacity="0.1">
<path opacity="0.1" d="M300.501 322.706C300.501 307.351 289.717 288.677 276.412 280.992C269.746 277.15 263.714 276.792 259.361 279.326L254.802 281.984L256.125 282.108C253.728 285.041 252.323 289.379 252.323 294.901C252.323 310.256 263.108 328.93 276.412 336.615C280.985 339.259 285.255 340.251 288.891 339.796L288.794 341.022L293.422 338.323C293.436 338.309 293.463 338.295 293.477 338.295L293.67 338.185H293.656C297.898 335.596 300.501 330.253 300.501 322.706Z" fill="#793CDD"/>
<path opacity="0.1" d="M288.843 340.997C298.25 335.566 298.251 317.96 288.845 301.671C279.44 285.382 264.189 276.58 254.782 282.011C245.376 287.441 245.375 305.048 254.78 321.337C264.186 337.625 279.437 346.428 288.843 340.997Z" fill="#A988F0"/>
</g>
</g>
<path opacity="0.4" d="M399.488 210.785C397.615 211.86 394.599 211.86 392.726 210.785C390.853 209.711 390.853 207.962 392.726 206.888C394.599 205.814 397.615 205.814 399.488 206.888C401.348 207.962 401.348 209.711 399.488 210.785Z" fill="#24126A"/>
<path opacity="0.4" d="M373.691 191.988L386.927 199.631C388.539 200.567 388.346 202.192 386.473 203.266C384.6 204.34 381.776 204.464 380.165 203.528L366.929 195.885C365.317 194.948 365.51 193.323 367.383 192.249C369.242 191.175 372.066 191.065 373.691 191.988Z" fill="#24126A"/>
<path opacity="0.4" d="M298.215 146.184L311.451 153.827C313.063 154.764 312.87 156.389 310.997 157.463C309.123 158.537 306.314 158.661 304.688 157.724L291.453 150.081C289.841 149.145 290.034 147.52 291.907 146.446C293.766 145.358 296.59 145.247 298.215 146.184Z" fill="#24126A"/>
<path d="M399.488 206.048C397.615 207.122 394.599 207.122 392.726 206.048C390.853 204.974 390.853 203.225 392.726 202.151C394.599 201.077 397.615 201.077 399.488 202.151C401.362 203.225 401.348 204.974 399.488 206.048Z" fill="#A988F0"/>
<path d="M373.691 187.25L386.927 194.893C388.539 195.83 388.346 197.455 386.473 198.529C384.6 199.603 381.776 199.727 380.165 198.791L366.929 191.147C365.317 190.211 365.51 188.586 367.383 187.512C369.242 186.438 372.066 186.314 373.691 187.25Z" fill="#A988F0"/>
<path d="M298.215 141.433L311.451 149.076C313.063 150.012 312.87 151.637 310.997 152.711C309.123 153.786 306.314 153.909 304.688 152.973L291.453 145.33C289.841 144.393 290.034 142.768 291.907 141.694C293.766 140.62 296.59 140.51 298.215 141.433Z" fill="#A988F0"/>
<g opacity="0.3">
<path opacity="0.3" d="M473.629 372.793V366.623L471.922 365.673C471.44 368.592 468.01 370.506 465.145 370.906L445.629 382.322L437.103 385.393L409.915 371.36L410.549 371.002C408.221 369.914 406.968 367.435 405.714 365.163L403.882 366.251L402.794 366.554V372.889C402.794 374.101 403.593 375.313 405.191 376.222L432.434 391.949C435.629 393.794 440.808 393.794 444.004 391.949L471.247 376.222C472.817 375.313 473.616 374.128 473.643 372.944C473.643 372.903 473.629 372.848 473.629 372.793Z" fill="url(#paint3_linear_2564_7826)"/>
<path opacity="0.3" d="M465.145 370.906L445.629 382.322L438.219 384.994V393.34C440.312 393.34 442.406 392.885 444.003 391.962L471.247 376.235C472.817 375.327 473.616 374.142 473.643 372.958C473.643 372.903 473.643 372.848 473.643 372.793V366.623L472.087 365.755H471.921C471.384 368.62 467.996 370.507 465.145 370.906Z" fill="#0F054C"/>
<g opacity="0.3">
<path opacity="0.3" d="M432.434 385.683L405.191 369.956C401.996 368.11 401.996 365.122 405.191 363.277L432.434 347.55C435.629 345.704 440.808 345.704 444.004 347.55L471.247 363.277C474.442 365.122 474.442 368.11 471.247 369.956L444.004 385.683C440.808 387.528 435.616 387.528 432.434 385.683Z" fill="url(#paint4_linear_2564_7826)"/>
</g>
<g opacity="0.3">
<path opacity="0.3" d="M432.434 385.683L405.191 369.956C401.996 368.11 401.996 365.122 405.191 363.277L432.434 347.55C435.629 345.704 440.808 345.704 444.004 347.55L471.247 363.277C474.442 365.122 474.442 368.11 471.247 369.956L444.004 385.683C440.808 387.528 435.616 387.528 432.434 385.683Z" fill="#0F054C"/>
</g>
</g>
<path d="M438.218 365.81C436.358 365.81 434.499 365.397 433.08 364.585L405.837 348.858C404.418 348.045 403.647 346.944 403.647 345.759C403.647 344.575 404.432 343.473 405.837 342.661L433.08 326.934C435.918 325.309 440.518 325.295 443.355 326.934L470.598 342.661C472.017 343.473 472.788 344.575 472.788 345.759C472.788 346.944 472.003 348.045 470.598 348.858L443.355 364.585C441.936 365.397 440.077 365.81 438.218 365.81ZM438.218 326.176C436.441 326.176 434.664 326.562 433.314 327.347L406.071 343.074C404.804 343.804 404.115 344.754 404.115 345.759C404.115 346.765 404.804 347.715 406.071 348.445L433.314 364.172C436.014 365.728 440.408 365.728 443.107 364.172L470.35 348.445C471.604 347.715 472.306 346.765 472.306 345.759C472.306 344.754 471.617 343.804 470.35 343.074L443.107 327.347C441.757 326.562 439.981 326.176 438.218 326.176Z" fill="#A988F0"/>
<path opacity="0.4" d="M473.628 339.714V330.39L471.921 329.44C471.439 332.36 468.009 334.274 465.144 334.673L445.628 346.09L437.102 349.161L409.914 335.128L410.548 334.77C408.22 333.682 406.967 331.203 405.713 328.931L403.882 330.018L402.793 330.321V339.81C402.793 341.022 403.592 342.234 405.19 343.143L432.433 358.87C435.628 360.715 440.807 360.715 444.003 358.87L471.246 343.143C472.816 342.234 473.615 341.049 473.642 339.865C473.642 339.824 473.628 339.769 473.628 339.714Z" fill="#A988F0"/>
<path d="M473.628 331.423V325.253L471.921 324.303C471.439 327.223 468.009 329.137 465.144 329.536L445.628 340.953L437.102 344.024L409.914 329.991L410.548 329.633C408.22 328.545 406.967 326.066 405.713 323.794L403.882 324.882L402.793 325.185V331.519C402.793 332.731 403.592 333.943 405.19 334.852L432.433 350.579C435.628 352.424 440.807 352.424 444.003 350.579L471.246 334.852C472.816 333.943 473.615 332.759 473.642 331.575C473.642 331.533 473.628 331.478 473.628 331.423Z" fill="url(#paint5_linear_2564_7826)"/>
<path opacity="0.3" d="M465.145 329.536L445.628 340.953L438.218 343.625V351.97C440.312 351.97 442.405 351.516 444.003 350.593L471.246 334.866C472.816 333.957 473.615 332.773 473.643 331.588C473.643 331.533 473.643 331.478 473.643 331.423V325.254L472.086 324.386H471.921C471.384 327.25 467.996 329.137 465.145 329.536Z" fill="#0F054C"/>
<path d="M432.433 344.327L405.19 328.6C401.995 326.755 401.995 323.766 405.19 321.921L432.433 306.194C435.628 304.348 440.807 304.348 444.003 306.194L471.246 321.921C474.441 323.766 474.441 326.755 471.246 328.6L444.003 344.327C440.807 346.159 435.615 346.159 432.433 344.327Z" fill="url(#paint6_linear_2564_7826)"/>
<path d="M471.246 328.6L444.003 344.327C440.807 346.172 435.629 346.172 432.433 344.327L405.19 328.6C403.758 327.774 402.973 326.727 402.821 325.639C402.628 326.975 403.427 328.338 405.19 329.357L432.433 345.084C435.629 346.93 440.807 346.93 444.003 345.084L471.246 329.357C473.009 328.338 473.794 326.961 473.615 325.639C473.45 326.713 472.665 327.774 471.246 328.6Z" fill="white"/>
<g opacity="0.3">
<path opacity="0.3" d="M352.343 409.493V403.324L350.635 402.373C350.153 405.293 346.723 407.207 343.858 407.607L324.342 419.023L315.816 422.094L288.628 408.061L289.262 407.703C286.934 406.615 285.681 404.136 284.427 401.864L282.596 402.952L281.508 403.255V409.59C281.508 410.802 282.306 412.013 283.904 412.922L311.147 428.649C314.343 430.495 319.521 430.495 322.717 428.649L349.96 412.922C351.53 412.013 352.329 410.829 352.356 409.645C352.343 409.603 352.329 409.548 352.343 409.493Z" fill="url(#paint7_linear_2564_7826)"/>
<path opacity="0.3" d="M343.859 407.607L324.342 419.023L316.932 421.695V430.04C319.026 430.04 321.119 429.586 322.717 428.663L349.96 412.936C351.53 412.027 352.329 410.843 352.356 409.659C352.356 409.604 352.356 409.548 352.356 409.493V403.324L350.8 402.456H350.635C350.084 405.321 346.696 407.207 343.859 407.607Z" fill="#0F054C"/>
<g opacity="0.3">
<path opacity="0.3" d="M311.134 422.397L283.891 406.67C280.695 404.825 280.695 401.836 283.891 399.991L311.134 384.264C314.329 382.419 319.508 382.419 322.703 384.264L349.946 399.991C353.142 401.836 353.142 404.825 349.946 406.67L322.703 422.397C319.508 424.229 314.315 424.229 311.134 422.397Z" fill="url(#paint8_linear_2564_7826)"/>
</g>
<g opacity="0.3">
<path opacity="0.3" d="M311.134 422.397L283.891 406.67C280.695 404.825 280.695 401.836 283.891 399.991L311.134 384.264C314.329 382.419 319.508 382.419 322.703 384.264L349.946 399.991C353.142 401.836 353.142 404.825 349.946 406.67L322.703 422.397C319.508 424.229 314.315 424.229 311.134 422.397Z" fill="#0F054C"/>
</g>
</g>
<path d="M316.919 399.509C315.06 399.509 313.2 399.096 311.782 398.283L284.539 382.557C283.12 381.744 282.349 380.642 282.349 379.458C282.349 378.274 283.134 377.172 284.539 376.359L311.782 360.632C314.619 358.994 319.219 358.994 322.056 360.632L349.3 376.359C350.718 377.172 351.49 378.274 351.49 379.458C351.49 380.642 350.704 381.744 349.3 382.557L322.056 398.283C320.638 399.11 318.778 399.509 316.919 399.509ZM312.016 397.87C314.715 399.427 319.109 399.427 321.808 397.87L349.052 382.143C350.319 381.413 351.007 380.463 351.007 379.458C351.007 378.453 350.319 377.502 349.052 376.773L321.808 361.046C319.109 359.489 314.715 359.489 312.016 361.046L284.773 376.773C283.506 377.502 282.817 378.453 282.817 379.458C282.817 380.463 283.506 381.413 284.773 382.143L312.016 397.87Z" fill="#A988F0"/>
<path opacity="0.4" d="M352.344 373.426V364.103L350.636 363.152C350.154 366.072 346.724 367.986 343.859 368.386L324.343 379.802L315.817 382.873L288.629 368.84L289.263 368.482C286.935 367.394 285.682 364.915 284.428 362.643L282.597 363.731L281.509 364.034V373.522C281.509 374.734 282.307 375.946 283.905 376.855L311.148 392.582C314.344 394.427 319.522 394.427 322.718 392.582L349.961 376.855C351.531 375.946 352.33 374.762 352.357 373.577C352.344 373.522 352.33 373.467 352.344 373.426Z" fill="#A988F0"/>
<path d="M352.344 365.122V358.952L350.636 358.002C350.154 360.922 346.724 362.836 343.859 363.235L324.343 374.652L315.817 377.723L288.629 363.69L289.263 363.332C286.935 362.244 285.682 359.765 284.428 357.492L282.597 358.58L281.509 358.883V365.218C281.509 366.43 282.307 367.642 283.905 368.551L311.148 384.278C314.344 386.123 319.522 386.123 322.718 384.278L349.961 368.551C351.531 367.642 352.33 366.458 352.357 365.273C352.344 365.232 352.33 365.177 352.344 365.122Z" fill="url(#paint9_linear_2564_7826)"/>
<path opacity="0.3" d="M343.859 363.235L324.343 374.652L316.933 377.323V385.669C319.026 385.669 321.12 385.214 322.718 384.292L349.961 368.565C351.531 367.656 352.33 366.471 352.357 365.287C352.357 365.232 352.357 365.177 352.357 365.122V358.952L350.801 358.085H350.636C350.085 360.949 346.696 362.85 343.859 363.235Z" fill="#0F054C"/>
<path d="M311.134 378.026L283.891 362.299C280.696 360.453 280.696 357.465 283.891 355.62L311.134 339.893C314.33 338.047 319.508 338.047 322.704 339.893L349.947 355.62C353.142 357.465 353.142 360.453 349.947 362.299L322.704 378.026C319.508 379.871 314.316 379.871 311.134 378.026Z" fill="url(#paint10_linear_2564_7826)"/>
<path d="M316.919 375.161C315.239 375.161 313.558 374.789 312.277 374.059L290.998 361.775C289.717 361.032 289.015 360.04 289.015 358.952C289.015 357.878 289.717 356.873 290.998 356.143L312.277 343.859C314.839 342.385 318.999 342.385 321.56 343.859L342.84 356.143C344.121 356.886 344.823 357.878 344.823 358.966C344.823 360.04 344.121 361.045 342.84 361.775L321.56 374.059C320.28 374.803 318.599 375.161 316.919 375.161ZM312.512 373.646C314.936 375.051 318.889 375.051 321.313 373.646L342.592 361.362C343.721 360.715 344.341 359.861 344.341 358.966C344.341 358.071 343.721 357.217 342.592 356.556L321.313 344.272C318.889 342.867 314.936 342.867 312.512 344.272L291.232 356.556C290.103 357.203 289.483 358.057 289.483 358.952C289.483 359.847 290.103 360.701 291.232 361.348L312.512 373.646Z" fill="#5351AF"/>
<path d="M349.947 362.299L322.704 378.026C319.508 379.871 314.33 379.871 311.134 378.026L283.891 362.299C282.459 361.472 281.674 360.426 281.522 359.338C281.329 360.674 282.128 362.037 283.891 363.056L311.134 378.783C314.33 380.628 319.508 380.628 322.704 378.783L349.947 363.056C351.71 362.037 352.495 360.66 352.316 359.338C352.151 360.426 351.366 361.472 349.947 362.299Z" fill="white"/>
<g opacity="0.3">
<path opacity="0.3" d="M119.343 190.555V184.385L117.635 183.435C117.153 186.355 113.724 188.269 110.859 188.668L91.3424 200.085L82.8168 203.156L55.6288 189.123L56.2623 188.765C53.9347 187.677 52.6813 185.198 51.4279 182.926L49.5961 184.014L48.5081 184.317V190.651C48.5081 191.863 49.3069 193.075 50.9046 193.984L78.1477 209.711C81.3431 211.556 86.5218 211.556 89.7172 209.711L116.96 193.984C118.53 193.075 119.329 191.891 119.357 190.707C119.343 190.651 119.343 190.61 119.343 190.555Z" fill="url(#paint11_linear_2564_7826)"/>
<path opacity="0.3" d="M110.859 188.668L91.3423 200.085L83.9324 202.757V211.102C86.0259 211.102 88.1194 210.648 89.7171 209.725L116.96 193.998C118.53 193.089 119.329 191.905 119.357 190.72C119.357 190.665 119.357 190.61 119.357 190.555V184.386L117.8 183.518H117.635C117.084 186.382 113.696 188.269 110.859 188.668Z" fill="#0F054C"/>
<g opacity="0.3">
<path opacity="0.3" d="M78.1343 203.445L50.8911 187.718C47.6958 185.873 47.6958 182.884 50.8911 181.039L78.1343 165.312C81.3297 163.467 86.5083 163.467 89.7037 165.312L116.947 181.039C120.142 182.884 120.142 185.873 116.947 187.718L89.7037 203.445C86.5221 205.291 81.3297 205.291 78.1343 203.445Z" fill="url(#paint12_linear_2564_7826)"/>
</g>
<g opacity="0.3">
<path opacity="0.3" d="M78.1343 203.445L50.8911 187.718C47.6958 185.873 47.6958 182.884 50.8911 181.039L78.1343 165.312C81.3297 163.467 86.5083 163.467 89.7037 165.312L116.947 181.039C120.142 182.884 120.142 185.873 116.947 187.718L89.7037 203.445C86.5221 205.291 81.3297 205.291 78.1343 203.445Z" fill="#0F054C"/>
</g>
</g>
<path d="M83.9196 184.606C82.0602 184.606 80.2009 184.193 78.7823 183.38L51.5391 167.653C50.1205 166.841 49.3491 165.739 49.3491 164.555C49.3491 163.37 50.1342 162.269 51.5391 161.456L78.7823 145.729C81.6195 144.09 86.2197 144.09 89.057 145.729L116.3 161.456C117.719 162.269 118.49 163.37 118.49 164.555C118.49 165.739 117.705 166.841 116.3 167.653L89.057 183.38C87.6383 184.193 85.779 184.606 83.9196 184.606ZM83.9196 144.958C82.1429 144.958 80.3799 145.344 79.0164 146.129L51.7732 161.856C50.5061 162.585 49.8174 163.536 49.8174 164.541C49.8174 165.546 50.5061 166.497 51.7732 167.226L79.0164 182.953C81.7159 184.51 86.1095 184.51 88.8091 182.953L116.052 167.226C117.319 166.497 118.008 165.546 118.008 164.541C118.008 163.536 117.319 162.585 116.052 161.856L88.8091 146.129C87.4731 145.357 85.6963 144.958 83.9196 144.958Z" fill="#A988F0"/>
<path opacity="0.4" d="M119.344 158.509V149.186L117.636 148.235C117.154 151.155 113.725 153.069 110.86 153.469L91.3433 164.885L82.8178 167.956L55.6297 153.923L56.2633 153.565C53.9356 152.477 52.6823 149.998 51.4289 147.726L49.5971 148.814L48.509 149.117V158.605C48.509 159.817 49.3079 161.029 50.9055 161.938L78.1487 177.665C81.3441 179.51 86.5228 179.51 89.7181 177.665L116.961 161.938C118.531 161.029 119.33 159.845 119.358 158.66C119.344 158.619 119.344 158.564 119.344 158.509Z" fill="#A988F0"/>
<path d="M119.344 150.219V144.049L117.636 143.099C117.154 146.018 113.724 147.933 110.86 148.332L91.3294 159.749L82.8039 162.82L55.6158 148.787L56.2494 148.428C53.9217 147.34 52.6684 144.862 51.415 142.589L49.5832 143.677L48.4951 143.98V150.315C48.4951 151.527 49.294 152.739 50.8917 153.648L78.1348 169.389C81.3302 171.234 86.5089 171.234 89.7042 169.389L116.947 153.662C118.518 152.753 119.316 151.568 119.344 150.384C119.344 150.329 119.344 150.274 119.344 150.219Z" fill="url(#paint13_linear_2564_7826)"/>
<path opacity="0.3" d="M110.86 148.332L91.3299 159.749L83.9199 162.42V170.766C86.0134 170.766 88.107 170.311 89.7046 169.389L116.948 153.662C118.518 152.753 119.317 151.568 119.344 150.384C119.344 150.329 119.344 150.274 119.344 150.219V144.049L117.788 143.182H117.623C117.086 146.046 113.697 147.933 110.86 148.332Z" fill="#0F054C"/>
<path d="M56.2492 148.428L82.0599 133.528C83.0791 132.935 84.7457 132.935 85.7649 133.528L111.135 148.167L110.859 148.332C113.724 147.933 117.154 146.018 117.636 143.099L89.1668 127.262L80.8892 125.072L74.1404 129.038L51.4148 142.589C52.6681 144.862 53.9215 147.34 56.2492 148.428Z" fill="url(#paint14_linear_2564_7826)"/>
<path opacity="0.3" d="M83.9194 125.885L80.8755 125.086L74.1267 129.052L51.4011 142.603C52.6545 144.862 53.9078 147.354 56.2354 148.442L82.0463 133.541C82.5559 133.252 83.2307 133.101 83.9056 133.101V125.885H83.9194Z" fill="#0F054C"/>
<path d="M78.1348 163.109L50.8916 147.382C47.6963 145.536 47.6963 142.548 50.8916 140.703L78.1348 124.976C81.3302 123.13 86.5088 123.13 89.7042 124.976L116.947 140.703C120.143 142.548 120.143 145.536 116.947 147.382L89.7042 163.109C86.5226 164.954 81.3302 164.954 78.1348 163.109ZM85.7789 127.248C84.7596 126.656 83.0931 126.656 82.0739 127.248L54.8307 142.975C53.8115 143.567 53.8115 144.517 54.8307 145.11L82.0739 160.836C83.0931 161.429 84.7596 161.429 85.7789 160.836L113.022 145.11C114.041 144.517 114.041 143.567 113.022 142.975L85.7789 127.248Z" fill="url(#paint15_linear_2564_7826)"/>
<path d="M113.022 142.975L85.7789 127.248C84.7597 126.656 83.0931 126.656 82.0739 127.248L54.8307 142.975C54.1559 143.374 53.9217 143.925 54.1559 144.435C54.2661 144.187 54.5002 143.953 54.8307 143.746L82.0739 128.019C83.0931 127.427 84.7597 127.427 85.7789 128.019L113.022 143.746C113.366 143.939 113.587 144.173 113.697 144.435C113.917 143.925 113.697 143.374 113.022 142.975Z" fill="white"/>
<path d="M116.947 147.382L89.7043 163.109C86.5089 164.954 81.3303 164.954 78.1349 163.109L50.8917 147.382C49.4593 146.555 48.6743 145.509 48.5228 144.421C48.33 145.757 49.1288 147.12 50.8917 148.139L78.1349 163.88C81.3303 165.725 86.5089 165.725 89.7043 163.88L116.947 148.153C118.71 147.134 119.495 145.757 119.316 144.435C119.165 145.509 118.38 146.569 116.947 147.382Z" fill="white"/>
<path d="M78.9064 162.668L51.6632 146.941C48.8948 145.344 48.8948 142.741 51.6632 141.143L78.9064 125.416C81.6748 123.819 86.1786 123.819 88.9332 125.416L116.176 141.143C118.945 142.741 118.945 145.344 116.176 146.927L88.9332 162.654C86.1648 164.266 81.6748 164.266 78.9064 162.668ZM86.5366 126.807C85.0905 125.967 82.7353 125.967 81.2891 126.807L54.0459 142.534C52.5998 143.374 52.5998 144.724 54.0459 145.564L81.2891 161.291C82.7353 162.131 85.0905 162.131 86.5366 161.291L113.78 145.564C115.226 144.724 115.226 143.374 113.78 142.534L86.5366 126.807Z" fill="url(#paint16_linear_2564_7826)"/>
<path opacity="0.4" d="M85.7789 127.248C84.7597 126.656 83.0932 126.656 82.074 127.248L54.8308 142.975C53.8116 143.567 53.8116 144.517 54.8308 145.11L82.074 160.836C83.0932 161.429 84.7597 161.429 85.7789 160.836L113.022 145.11C114.041 144.517 114.041 143.567 113.022 142.975L85.7789 127.248Z" fill="#A988F0"/>
<path opacity="0.5" d="M113.78 144.022V46.8641H54.0596V144.022C54.0458 144.421 54.3075 144.807 54.8171 145.11L82.0603 160.836C83.0795 161.429 84.746 161.429 85.7652 160.836L113.008 145.11C113.532 144.82 113.793 144.421 113.78 144.022Z" fill="url(#paint17_linear_2564_7826)"/>
<path d="M300.501 221.39C300.501 206.035 289.717 187.36 276.412 179.676C269.746 175.834 263.713 175.476 259.361 178.01L254.802 180.668L256.124 180.792C253.728 183.725 252.323 188.063 252.323 193.585C252.323 208.94 263.107 227.614 276.412 235.299C280.985 237.943 285.254 238.935 288.891 238.48L288.794 239.706L293.422 237.007C293.436 236.993 293.463 236.979 293.477 236.979L293.67 236.869H293.656C297.898 234.28 300.501 228.95 300.501 221.39Z" fill="#793CDD"/>
<path d="M288.842 239.681C298.249 234.251 298.25 216.644 288.844 200.355C279.438 184.066 264.188 175.264 254.781 180.695C245.374 186.125 245.373 203.732 254.779 220.021C264.185 236.309 279.435 245.112 288.842 239.681Z" fill="#A988F0"/>
<path d="M244.238 155.025C253.149 142.52 255.215 121.051 248.839 107.087C245.643 100.091 240.947 96.2897 235.919 95.8215L230.672 95.3533L231.677 96.2209C228.014 97.2262 224.364 99.9392 221.155 104.429C212.243 116.933 210.177 138.403 216.541 152.367C218.731 157.173 221.637 160.465 224.86 162.2L224.075 163.136L229.405 163.618C229.432 163.618 229.446 163.618 229.474 163.618L229.694 163.632L229.68 163.618C234.625 164.004 239.858 161.167 244.238 155.025Z" fill="#793CDD"/>
<path d="M246.954 131.127C248.752 112.404 241.445 96.3851 230.632 95.3467C219.82 94.3084 209.597 108.644 207.799 127.367C206 146.089 213.308 162.109 224.12 163.147C234.932 164.185 245.155 149.849 246.954 131.127Z" fill="#A988F0"/>
<g opacity="0.1">
<path opacity="0.1" d="M252.336 256.121C252.336 240.766 241.552 222.092 228.247 214.407C221.581 210.565 215.548 210.207 211.196 212.741L206.637 215.399L207.959 215.523C205.563 218.456 204.158 222.794 204.158 228.316C204.158 243.672 214.942 262.346 228.247 270.03C232.819 272.674 237.089 273.666 240.725 273.211L240.629 274.437L245.257 271.738C245.27 271.724 245.298 271.71 245.312 271.71L245.505 271.6H245.491C249.733 269.011 252.336 263.668 252.336 256.121Z" fill="#793CDD"/>
<path opacity="0.1" d="M240.668 274.413C250.075 268.982 250.076 251.375 240.67 235.087C231.264 218.798 216.014 209.996 206.607 215.426C197.2 220.857 197.199 238.464 206.605 254.752C216.011 271.041 231.261 279.843 240.668 274.413Z" fill="#A988F0"/>
</g>
<path opacity="0.4" d="M225.203 281.171C208.593 281.171 191.969 277.522 179.325 270.223C167.026 263.117 160.25 253.67 160.25 243.603C160.25 233.536 167.026 224.089 179.325 216.983C204.626 202.371 245.78 202.385 271.082 216.983C283.381 224.089 290.157 233.536 290.157 243.603C290.157 253.67 283.381 263.131 271.082 270.223L270.958 270.016L271.082 270.223C258.438 277.522 241.828 281.171 225.203 281.171ZM225.203 206.503C208.676 206.503 192.148 210.138 179.559 217.396C167.412 224.405 160.732 233.715 160.732 243.603C160.732 253.491 167.425 262.8 179.573 269.81C204.737 284.339 245.684 284.339 270.847 269.81C282.995 262.8 289.675 253.491 289.675 243.603C289.675 233.715 282.982 224.405 270.834 217.396C258.259 210.124 241.731 206.503 225.203 206.503Z" fill="#A988F0"/>
<path opacity="0.2" d="M225.203 291.252C204.117 291.252 183.03 286.625 166.984 277.357C151.393 268.35 142.799 256.369 142.799 243.617C142.799 230.864 151.393 218.869 166.984 209.877C199.089 191.34 251.317 191.34 283.422 209.877C299.013 218.883 307.608 230.864 307.608 243.617C307.608 256.369 299.013 268.364 283.422 277.357C267.376 286.611 246.29 291.252 225.203 291.252ZM225.203 196.422C204.199 196.422 183.209 201.035 167.219 210.262C151.779 219.172 143.267 231.016 143.267 243.589C143.267 256.176 151.765 268.006 167.219 276.916C199.186 295.37 251.207 295.37 283.174 276.916C298.614 268.006 307.126 256.162 307.126 243.589C307.126 231.002 298.628 219.172 283.174 210.262C267.197 201.035 246.207 196.422 225.203 196.422Z" fill="#A988F0"/>
<path d="M225.204 273.239C212.105 273.239 199.021 270.361 189.049 264.604C179.353 258.999 174.009 251.535 174.009 243.589C174.009 235.643 179.353 228.179 189.049 222.574C208.993 211.061 241.428 211.061 261.358 222.574C271.054 228.179 276.398 235.643 276.398 243.589C276.398 251.535 271.054 258.999 261.358 264.604L261.234 264.398L261.358 264.604C251.4 270.361 238.302 273.239 225.204 273.239ZM225.204 214.435C212.202 214.435 199.186 217.3 189.283 223.015C179.739 228.523 174.477 235.836 174.477 243.617C174.477 251.398 179.739 258.696 189.283 264.219C209.089 275.649 241.318 275.649 261.124 264.219C270.669 258.71 275.93 251.398 275.93 243.631C275.93 235.863 270.669 228.551 261.124 223.028C251.221 217.286 238.219 214.435 225.204 214.435Z" fill="#A988F0"/>
<path d="M252.336 256.121C252.336 240.766 241.552 222.092 228.247 214.407C221.581 210.565 215.548 210.207 211.196 212.741L206.637 215.399L207.959 215.523C205.563 218.456 204.158 222.794 204.158 228.316C204.158 243.672 214.942 262.346 228.247 270.03C232.819 272.674 237.089 273.666 240.725 273.211L240.629 274.437L245.257 271.738C245.27 271.724 245.298 271.71 245.312 271.71L245.505 271.6H245.491C249.733 269.011 252.336 263.668 252.336 256.121Z" fill="#793CDD"/>
<path d="M240.668 274.413C250.075 268.982 250.076 251.375 240.67 235.087C231.264 218.798 216.014 209.996 206.607 215.426C197.2 220.857 197.199 238.464 206.605 254.752C216.011 271.041 231.261 279.843 240.668 274.413Z" fill="#A988F0"/>
<path opacity="0.4" d="M160.525 322.554L84.8836 278.885C82.6524 277.591 82.6524 274.382 84.8836 273.087L96.4255 266.367C100.282 264.136 105.047 264.136 108.904 266.367L184.546 310.036C186.777 311.331 186.777 314.539 184.546 315.834L173.004 322.554C169.134 324.785 164.382 324.785 160.525 322.554Z" fill="#24126A"/>
<path d="M122.663 277.921L110.556 270.925L112.953 269.534L125.059 276.53L122.663 277.921Z" fill="#A988F0"/>
<path d="M156.793 298.11L153.074 295.962L155.47 294.571L159.189 296.719L156.793 298.11Z" fill="#A988F0"/>
<path d="M129.674 282.08L125.955 279.932L128.365 278.541L132.084 280.689L129.674 282.08Z" fill="#A988F0"/>
<path d="M166.764 313.851C164.561 313.851 162.357 313.286 160.387 312.143L84.7457 268.474C83.6163 267.813 82.9414 266.642 82.9414 265.334C82.9414 264.026 83.6163 262.855 84.7457 262.194L96.2875 255.474C100.227 253.201 105.102 253.201 109.041 255.474L184.683 299.143C185.813 299.79 186.487 300.975 186.487 302.283C186.487 303.591 185.813 304.762 184.683 305.423L173.141 312.143C171.172 313.286 168.968 313.851 166.764 313.851ZM102.664 254.331C100.557 254.331 98.4499 254.868 96.563 255.956L85.0212 262.676C84.057 263.227 83.4785 264.232 83.4785 265.334C83.4785 266.45 84.057 267.441 85.0212 267.992L160.663 311.661C164.423 313.837 169.106 313.837 172.866 311.661L184.408 304.941C185.372 304.39 185.95 303.398 185.95 302.283C185.95 301.167 185.372 300.176 184.408 299.625L108.766 255.956C106.893 254.882 104.786 254.331 102.664 254.331Z" fill="#A988F0"/>
<defs>
<linearGradient id="paint0_linear_2564_7826" x1="34.589" y1="256.323" x2="434.407" y2="256.323" gradientUnits="userSpaceOnUse">
<stop stop-color="#BCBEFF"/>
<stop offset="0.151" stop-color="#A3A7F5"/>
<stop offset="0.3866" stop-color="#8289E8"/>
<stop offset="0.6124" stop-color="#6A73DF"/>
<stop offset="0.8221" stop-color="#5C66D9"/>
<stop offset="1" stop-color="#5761D7"/>
</linearGradient>
<linearGradient id="paint1_linear_2564_7826" x1="243.611" y1="271.869" x2="134.893" y2="74.6961" gradientUnits="userSpaceOnUse">
<stop stop-color="#C3A7F0"/>
<stop offset="0.0843" stop-color="#A16DE3"/>
<stop offset="0.3334" stop-color="#5D30A7"/>
<stop offset="0.5584" stop-color="#3F2687"/>
<stop offset="0.7515" stop-color="#3D1E6F"/>
<stop offset="0.9051" stop-color="#321660"/>
<stop offset="1" stop-color="#2F0D5B"/>
</linearGradient>
<radialGradient id="paint2_radial_2564_7826" cx="0" cy="0" r="1" gradientUnits="userSpaceOnUse" gradientTransform="translate(224.576 242.617) scale(312.939 312.901)">
<stop stop-color="#BE89F3"/>
<stop offset="0.1055" stop-color="#8D5BDE"/>
<stop offset="0.2197" stop-color="#582CA1"/>
<stop offset="0.338" stop-color="#432387"/>
<stop offset="0.4587" stop-color="#3D1C72"/>
<stop offset="0.5824" stop-color="#331661"/>
<stop offset="0.7105" stop-color="#271255"/>
<stop offset="0.8458" stop-color="#1E084E"/>
<stop offset="1" stop-color="#1C054C"/>
</radialGradient>
<linearGradient id="paint3_linear_2564_7826" x1="409.841" y1="354.357" x2="466.045" y2="386.81" gradientUnits="userSpaceOnUse">
<stop stop-color="#BCBEFF"/>
<stop offset="0.2271" stop-color="#AAADF8"/>
<stop offset="0.6802" stop-color="#7C83E5"/>
<stop offset="1" stop-color="#5761D7"/>
</linearGradient>
<linearGradient id="paint4_linear_2564_7826" x1="402.793" y1="366.622" x2="473.636" y2="366.622" gradientUnits="userSpaceOnUse">
<stop stop-color="#E9E9FD"/>
<stop offset="0.3601" stop-color="#D3D2F9"/>
<stop offset="0.7062" stop-color="#C5C4F7"/>
<stop offset="1" stop-color="#C0BFF6"/>
</linearGradient>
<linearGradient id="paint5_linear_2564_7826" x1="409.84" y1="312.989" x2="466.044" y2="345.443" gradientUnits="userSpaceOnUse">
<stop stop-color="#BCBEFF"/>
<stop offset="0.2271" stop-color="#AAADF8"/>
<stop offset="0.6802" stop-color="#7C83E5"/>
<stop offset="1" stop-color="#5761D7"/>
</linearGradient>
<linearGradient id="paint6_linear_2564_7826" x1="402.792" y1="325.255" x2="473.635" y2="325.255" gradientUnits="userSpaceOnUse">
<stop stop-color="#E9E9FD"/>
<stop offset="0.3601" stop-color="#D3D2F9"/>
<stop offset="0.7062" stop-color="#C5C4F7"/>
<stop offset="1" stop-color="#C0BFF6"/>
</linearGradient>
<linearGradient id="paint7_linear_2564_7826" x1="288.542" y1="391.06" x2="344.746" y2="423.513" gradientUnits="userSpaceOnUse">
<stop stop-color="#BCBEFF"/>
<stop offset="0.2271" stop-color="#AAADF8"/>
<stop offset="0.6802" stop-color="#7C83E5"/>
<stop offset="1" stop-color="#5761D7"/>
</linearGradient>
<linearGradient id="paint8_linear_2564_7826" x1="281.494" y1="403.325" x2="352.337" y2="403.325" gradientUnits="userSpaceOnUse">
<stop stop-color="#E9E9FD"/>
<stop offset="0.3601" stop-color="#D3D2F9"/>
<stop offset="0.7062" stop-color="#C5C4F7"/>
<stop offset="1" stop-color="#C0BFF6"/>
</linearGradient>
<linearGradient id="paint9_linear_2564_7826" x1="288.543" y1="346.691" x2="344.747" y2="379.144" gradientUnits="userSpaceOnUse">
<stop stop-color="#BCBEFF"/>
<stop offset="0.2271" stop-color="#AAADF8"/>
<stop offset="0.6802" stop-color="#7C83E5"/>
<stop offset="1" stop-color="#5761D7"/>
</linearGradient>
<linearGradient id="paint10_linear_2564_7826" x1="281.495" y1="358.956" x2="352.338" y2="358.956" gradientUnits="userSpaceOnUse">
<stop stop-color="#E9E9FD"/>
<stop offset="0.3601" stop-color="#D3D2F9"/>
<stop offset="0.7062" stop-color="#C5C4F7"/>
<stop offset="1" stop-color="#C0BFF6"/>
</linearGradient>
<linearGradient id="paint11_linear_2564_7826" x1="55.5464" y1="172.115" x2="111.751" y2="204.568" gradientUnits="userSpaceOnUse">
<stop stop-color="#BCBEFF"/>
<stop offset="0.2271" stop-color="#AAADF8"/>
<stop offset="0.6802" stop-color="#7C83E5"/>
<stop offset="1" stop-color="#5761D7"/>
</linearGradient>
<linearGradient id="paint12_linear_2564_7826" x1="48.4989" y1="184.38" x2="119.342" y2="184.38" gradientUnits="userSpaceOnUse">
<stop stop-color="#E9E9FD"/>
<stop offset="0.3601" stop-color="#D3D2F9"/>
<stop offset="0.7062" stop-color="#C5C4F7"/>
<stop offset="1" stop-color="#C0BFF6"/>
</linearGradient>
<linearGradient id="paint13_linear_2564_7826" x1="55.5474" y1="131.783" x2="111.752" y2="164.236" gradientUnits="userSpaceOnUse">
<stop stop-color="#BCBEFF"/>
<stop offset="0.2271" stop-color="#AAADF8"/>
<stop offset="0.6802" stop-color="#7C83E5"/>
<stop offset="1" stop-color="#5761D7"/>
</linearGradient>
<linearGradient id="paint14_linear_2564_7826" x1="58.9203" y1="129.598" x2="109.043" y2="158.54" gradientUnits="userSpaceOnUse">
<stop offset="0.2421" stop-color="#5761D7"/>
<stop offset="0.3923" stop-color="#7A82E5"/>
<stop offset="0.5463" stop-color="#979CF0"/>
<stop offset="0.7" stop-color="#ACAFF8"/>
<stop offset="0.8519" stop-color="#B8BAFD"/>
<stop offset="1" stop-color="#BCBEFF"/>
</linearGradient>
<linearGradient id="paint15_linear_2564_7826" x1="48.4994" y1="144.048" x2="119.342" y2="144.048" gradientUnits="userSpaceOnUse">
<stop stop-color="#E9E9FD"/>
<stop offset="0.3601" stop-color="#D3D2F9"/>
<stop offset="0.7062" stop-color="#C5C4F7"/>
<stop offset="1" stop-color="#C0BFF6"/>
</linearGradient>
<linearGradient id="paint16_linear_2564_7826" x1="49.5872" y1="144.048" x2="118.255" y2="144.048" gradientUnits="userSpaceOnUse">
<stop stop-color="#E9E9FD"/>
<stop offset="0.3601" stop-color="#D3D2F9"/>
<stop offset="0.7062" stop-color="#C5C4F7"/>
<stop offset="1" stop-color="#C0BFF6"/>
</linearGradient>
<linearGradient id="paint17_linear_2564_7826" x1="83.9192" y1="161.287" x2="83.9192" y2="46.8706" gradientUnits="userSpaceOnUse">
<stop stop-color="#C38EF9"/>
<stop offset="0.1055" stop-color="#7C5ADA"/>
<stop offset="0.2197" stop-color="#582CA1"/>
<stop offset="0.338" stop-color="#4F2387"/>
<stop offset="0.4587" stop-color="#321C72"/>
<stop offset="0.5824" stop-color="#331661"/>
<stop offset="0.7105" stop-color="#231255"/>
<stop offset="0.8458" stop-color="#27084E"/>
<stop offset="1" stop-color="#01052B"/>
</linearGradient>
</defs>
</svg>
