<svg width="24" height="24" viewBox="0 0 24 24" fill="none" xmlns="http://www.w3.org/2000/svg">
<path d="M5.25 11.9991H8.379C9.55 11.9991 10.5 11.0491 10.5 9.87811V9.87811C10.5 9.31511 10.277 8.77611 9.879 8.37811L8.038 6.53711" stroke="#3082DA" stroke-width="1.5" stroke-linecap="round" stroke-linejoin="round"/>
<path d="M16.7189 16.829L15.3859 14.83C15.1449 14.468 14.7389 14.251 14.3039 14.251V14.251C13.8109 14.251 13.3609 13.973 13.1409 13.532L13.0409 13.333C12.8579 12.967 12.8579 12.536 13.0409 12.17L13.8909 10.471C14.1109 10.03 14.5619 9.75195 15.0539 9.75195H18.3599" stroke="#3082DA" stroke-width="1.5" stroke-linecap="round" stroke-linejoin="round"/>
<path d="M12 5.25C15.737 5.25 18.75 8.263 18.75 12C18.75 15.737 15.737 18.75 12 18.75" stroke="#3082DA" stroke-width="1.5" stroke-linecap="round" stroke-linejoin="round"/>
<path d="M12 18.75C8.263 18.75 5.25 15.737 5.25 12C5.25 8.263 8.263 5.25 12 5.25" stroke="#3082DA" stroke-width="1.5" stroke-linecap="round" stroke-linejoin="round"/>
<path d="M4.58997 5.67323C5.08997 5.08823 5.65897 4.56723 6.28197 4.11523" stroke="#3082DA" stroke-width="1.5" stroke-linecap="round" stroke-linejoin="round"/>
<path d="M17.4169 20.1055C15.8669 21.1425 14.0049 21.7495 11.9999 21.7495C11.0119 21.7495 10.0599 21.5995 9.16089 21.3265" stroke="#3082DA" stroke-width="1.5" stroke-linecap="round" stroke-linejoin="round"/>
<path d="M5.87789 19.583C4.48989 18.461 3.42389 16.965 2.81689 15.25" stroke="#3082DA" stroke-width="1.5" stroke-linecap="round" stroke-linejoin="round"/>
<path d="M2.81695 8.75C2.45595 9.768 2.24995 10.859 2.24995 12" stroke="#3082DA" stroke-width="1.5" stroke-linecap="round" stroke-linejoin="round"/>
<path d="M20.085 17.417C21.129 15.867 21.75 14.01 21.75 12C21.75 6.615 17.385 2.25 12 2.25" stroke="#3082DA" stroke-width="1.5" stroke-linecap="round" stroke-linejoin="round"/>
</svg>
