<svg width="20" height="21" viewBox="0 0 20 21" fill="none" xmlns="http://www.w3.org/2000/svg">
<path fill-rule="evenodd" clip-rule="evenodd" d="M0 4.34961C0 3.9354 0.335786 3.59961 0.75 3.59961H16.75C17.4793 3.59961 18.1788 3.88934 18.6945 4.40507C19.2103 4.92079 19.5 5.62026 19.5 6.34961V15.8496C19.5 16.7116 19.1576 17.5382 18.5481 18.1477C17.9386 18.7572 17.112 19.0996 16.25 19.0996H10.75C10.3358 19.0996 10 18.7638 10 18.3496C10 17.9354 10.3358 17.5996 10.75 17.5996H16.25C16.7141 17.5996 17.1592 17.4152 17.4874 17.087C17.8156 16.7589 18 16.3137 18 15.8496V6.34961C18 6.01809 17.8683 5.70015 17.6339 5.46573C17.3995 5.23131 17.0815 5.09961 16.75 5.09961H0.75C0.335786 5.09961 0 4.76382 0 4.34961Z" fill="#D7D4ED"/>
<path fill-rule="evenodd" clip-rule="evenodd" d="M0.951903 1.55151C1.5614 0.942019 2.38805 0.599609 3.25 0.599609H12.75C13.4793 0.599609 14.1788 0.889341 14.6945 1.40507C15.2103 1.92079 15.5 2.62026 15.5 3.34961V4.34961C15.5 4.76382 15.1642 5.09961 14.75 5.09961C14.3358 5.09961 14 4.76382 14 4.34961V3.34961C14 3.01809 13.8683 2.70015 13.6339 2.46573C13.3995 2.23131 13.0815 2.09961 12.75 2.09961H3.25C2.78587 2.09961 2.34075 2.28398 2.01256 2.61217C1.68437 2.94036 1.5 3.38548 1.5 3.84961V12.3496C1.5 12.7638 1.16421 13.0996 0.75 13.0996C0.335786 13.0996 0 12.7638 0 12.3496V3.84961C0 2.98766 0.34241 2.16101 0.951903 1.55151Z" fill="#D7D4ED"/>
<path fill-rule="evenodd" clip-rule="evenodd" d="M4.25 12.1016C4.66421 12.1016 5 12.4373 5 12.8516V19.8516C5 20.2658 4.66421 20.6016 4.25 20.6016C3.83579 20.6016 3.5 20.2658 3.5 19.8516V12.8516C3.5 12.4373 3.83579 12.1016 4.25 12.1016Z" fill="#3082DA"/>
<path fill-rule="evenodd" clip-rule="evenodd" d="M6.78033 17.3212C7.07322 17.6141 7.07322 18.089 6.78033 18.3819L4.78033 20.3819C4.48744 20.6748 4.01256 20.6748 3.71967 20.3819L1.71967 18.3819C1.42678 18.089 1.42678 17.6141 1.71967 17.3212C2.01256 17.0283 2.48744 17.0283 2.78033 17.3212L4.25 18.7909L5.71967 17.3212C6.01256 17.0283 6.48744 17.0283 6.78033 17.3212Z" fill="#3082DA"/>
<path fill-rule="evenodd" clip-rule="evenodd" d="M12 11.3496C12 10.9354 12.3358 10.5996 12.75 10.5996H14.75C15.1642 10.5996 15.5 10.9354 15.5 11.3496C15.5 11.7638 15.1642 12.0996 14.75 12.0996H12.75C12.3358 12.0996 12 11.7638 12 11.3496Z" fill="#D7D4ED"/>
</svg>
