<svg width="24" height="24" viewBox="0 0 24 24" fill="none" xmlns="http://www.w3.org/2000/svg">
<path fill-rule="evenodd" clip-rule="evenodd" d="M18.5334 9H5.46941C4.90141 9 4.44141 8.54 4.44141 7.973V7.027C4.44141 6.46 4.90141 6 5.46941 6H18.5344C19.1014 6 19.5614 6.46 19.5614 7.027V7.972C19.5614 8.54 19.1014 9 18.5334 9V9Z" stroke="#B35858" stroke-width="1.5" stroke-linecap="round" stroke-linejoin="round"/>
<path d="M18 9L17.153 19.166C17.066 20.203 16.2 21 15.16 21H8.84C7.8 21 6.933 20.203 6.847 19.166L6 9" stroke="#B35858" stroke-width="1.5" stroke-linecap="round" stroke-linejoin="round"/>
<path d="M8 6L9.224 3.553C9.393 3.214 9.739 3 10.118 3H13.882C14.261 3 14.607 3.214 14.776 3.553L16 6" stroke="#B35858" stroke-width="1.5" stroke-linecap="round" stroke-linejoin="round"/>
<path d="M12 12V18" stroke="#B35858" stroke-width="1.5" stroke-linecap="round" stroke-linejoin="round"/>
<path d="M15.0019 12L14.5919 18" stroke="#B35858" stroke-width="1.5" stroke-linecap="round" stroke-linejoin="round"/>
<path d="M9.00203 12L9.41203 18" stroke="#B35858" stroke-width="1.5" stroke-linecap="round" stroke-linejoin="round"/>
</svg>
