<svg width="24" height="24" viewBox="0 0 24 24" fill="none" xmlns="http://www.w3.org/2000/svg">
<path d="M18.3639 5.63604C21.8787 9.15076 21.8787 14.8492 18.3639 18.3639C14.8492 21.8787 9.15074 21.8787 5.63604 18.3639C2.12132 14.8492 2.12132 9.15074 5.63604 5.63604C9.15076 2.12132 14.8492 2.12132 18.3639 5.63604" stroke="#7A7982" stroke-width="1.5" stroke-linecap="round" stroke-linejoin="round"/>
<path fill-rule="evenodd" clip-rule="evenodd" d="M13.705 15.3328H10.898C10.28 15.3328 9.77795 14.8318 9.77795 14.2128V12.0508H13.705C14.604 12.0508 15.334 12.7798 15.334 13.6798V13.7048C15.333 14.6038 14.604 15.3328 13.705 15.3328V15.3328Z" stroke="#7A7982" stroke-width="1.5" stroke-linecap="round" stroke-linejoin="round"/>
<path fill-rule="evenodd" clip-rule="evenodd" d="M13.31 12.052H9.77795V9.80497C9.77795 9.17697 10.287 8.66797 10.915 8.66797H13.31C14.223 8.66797 14.964 9.40797 14.964 10.322V10.399C14.964 11.312 14.224 12.052 13.31 12.052Z" stroke="#7A7982" stroke-width="1.5" stroke-linecap="round" stroke-linejoin="round"/>
<path d="M10.89 8.66992H8.67004" stroke="#7A7982" stroke-width="1.5" stroke-linecap="round" stroke-linejoin="round"/>
<path d="M10.9 15.3301H8.67004" stroke="#7A7982" stroke-width="1.5" stroke-linecap="round" stroke-linejoin="round"/>
<path d="M13.23 7.56055V8.67055" stroke="#7A7982" stroke-width="1.5" stroke-linecap="round" stroke-linejoin="round"/>
<path d="M10.5 7.56055V8.67055" stroke="#7A7982" stroke-width="1.5" stroke-linecap="round" stroke-linejoin="round"/>
<path d="M10.5 16.4401V15.3301" stroke="#7A7982" stroke-width="1.5" stroke-linecap="round" stroke-linejoin="round"/>
<path d="M13.23 16.4401V15.3301" stroke="#7A7982" stroke-width="1.5" stroke-linecap="round" stroke-linejoin="round"/>
</svg>
