<svg width="34" height="34" viewBox="0 0 34 34" fill="none" xmlns="http://www.w3.org/2000/svg">
<g clip-path="url(#clip0_2794_53941)">
<path d="M29.495 5.47188C26.4669 2.67219 22.4188 0.966875 17.9669 0.966875C8.57969 0.966875 0.966875 8.57969 0.966875 17.9669C0.966875 22.4134 2.6775 26.4616 5.47188 29.495C2.10906 26.3872 0 21.9406 0 17C0 7.61281 7.61281 0 17 0C21.9406 0 26.3872 2.10906 29.495 5.47188Z" fill="#FFE27B"/>
<path d="M33.7805 19.7233C35.2846 10.4557 28.9912 1.72353 19.7236 0.219357C10.456 -1.28482 1.72381 5.00866 0.219638 14.2762C-1.28453 23.5438 5.00894 32.276 14.2765 33.7802C23.5441 35.2844 32.2763 28.9909 33.7805 19.7233Z" fill="#F9C65B"/>
<path d="M34.0011 17.0001C34.0011 26.3873 26.3883 34.0001 17.0011 34.0001C12.0711 34.0001 7.62984 31.9017 4.52734 28.5495C7.56078 31.3598 11.6142 33.0757 16.0767 33.0757C25.4639 33.0757 33.0767 25.4629 33.0767 16.0757C33.0767 11.6186 31.3608 7.5598 28.5505 4.52637C31.9027 7.62887 34.0011 12.0701 34.0011 17.0001Z" fill="#F6B444"/>
<path d="M22.0341 30.0676C29.2512 27.2874 32.848 19.183 30.0678 11.966C27.2876 4.74889 19.1832 1.1521 11.9661 3.9323C4.74903 6.71251 1.15224 14.8169 3.93245 22.034C6.71265 29.251 14.817 32.8478 22.0341 30.0676Z" fill="#F6B444"/>
<path d="M27.4336 7.66047C24.958 5.43984 21.6802 4.09047 18.0942 4.09047C10.3592 4.08516 4.08516 10.3592 4.08516 18.0942C4.08516 21.6855 5.43453 24.958 7.65516 27.4336C4.79703 24.8677 2.99609 21.1436 2.99609 16.9998C2.99609 9.26484 9.26484 2.99609 16.9998 2.99609C21.1436 2.99609 24.873 4.79703 27.4336 7.66047Z" fill="#F09922"/>
<path d="M27.6425 18.3485C28.3877 12.4718 24.2278 7.10362 18.3511 6.35841C12.4744 5.61319 7.10626 9.77309 6.36105 15.6498C5.61583 21.5265 9.77573 26.8946 15.6524 27.6399C21.5292 28.3851 26.8973 24.2252 27.6425 18.3485Z" fill="#FFCA5C"/>
<path d="M28.6884 17.9615C28.6884 23.8849 23.8859 28.6874 17.9625 28.6874C14.7538 28.6874 11.8797 27.2796 9.91406 25.0483C11.8053 26.7165 14.2862 27.7258 17.0062 27.7258C22.9297 27.7258 27.7322 22.9233 27.7322 16.9999C27.7322 14.2799 26.7228 11.799 25.0547 9.90771C27.2806 11.8733 28.6884 14.7527 28.6884 17.9615Z" fill="#F09922"/>
<path d="M9.00914 15.4809C8.87102 15.4809 8.7382 15.4277 8.63195 15.3268C8.42477 15.1196 8.42477 14.7849 8.63195 14.5777L11.9098 11.2999C12.117 11.0927 12.4516 11.0927 12.6588 11.2999C12.866 11.5071 12.866 11.8418 12.6588 12.049L9.38102 15.3268C9.28008 15.4277 9.14727 15.4809 9.00914 15.4809ZM9.00914 19.1677C8.87102 19.1677 8.7382 19.1146 8.63195 19.0137C8.42477 18.8065 8.42477 18.4718 8.63195 18.2646L11.9098 14.9868C12.117 14.7796 12.4516 14.7796 12.6588 14.9868C12.866 15.194 12.866 15.5287 12.6588 15.7359L9.38102 19.0137C9.28008 19.1146 9.14727 19.1677 9.00914 19.1677Z" fill="#F8DD79"/>
<path d="M21.6644 17.0958C21.1013 16.5327 20.3203 16.1821 19.4544 16.1821H19.4969C20.9631 16.1821 22.1531 14.9921 22.1531 13.5258V13.3983C22.1531 11.9321 20.9631 10.7368 19.4969 10.7368V9.24926C19.4969 9.11644 19.3906 9.00488 19.2525 9.00488H18.1156C17.9828 9.00488 17.8713 9.11113 17.8713 9.24926V10.6305H16.6706V9.24926C16.6706 9.11644 16.5644 9.00488 16.4263 9.00488H15.2469C15.1141 9.00488 15.0025 9.11113 15.0025 9.24926V10.6518H12.3197C12.2613 10.6518 12.2188 10.6996 12.2188 10.7527V12.1711C12.2188 12.2296 12.2666 12.2721 12.3197 12.2721H12.9838C13.3184 12.2721 13.5894 12.543 13.5894 12.8777V20.4161C13.5894 20.6977 13.3609 20.9208 13.0847 20.9208H12.6012C12.3887 20.9208 12.2188 21.0908 12.2188 21.3033V22.1693C12.2188 22.3764 12.3887 22.5464 12.5959 22.5464H15.0875V23.8746C15.0875 24.0499 15.2309 24.1933 15.4063 24.1933H16.3359C16.5113 24.1933 16.6547 24.0499 16.6547 23.8746V22.4827H17.8553V23.8746C17.8553 24.0499 17.9988 24.1933 18.1741 24.1933H19.1463C19.3216 24.1933 19.465 24.0499 19.465 23.8746V22.4189C21.1916 22.4189 22.5888 21.0218 22.5888 19.2952C22.5781 18.4399 22.2275 17.6589 21.6644 17.0958ZM16.1553 12.5802H18.19C18.9922 12.5802 19.6456 13.2336 19.6456 14.0358C19.6456 14.4396 19.4809 14.8008 19.2206 15.0664C18.955 15.3321 18.5938 15.4914 18.19 15.4914H16.1553V12.5802ZM19.8316 18.9393C19.8316 19.9008 19.0506 20.6818 18.0891 20.6818H16.2722C16.2137 20.6818 16.1606 20.6339 16.1606 20.5702V17.303C16.1606 17.2446 16.2084 17.1914 16.2722 17.1914H18.0891C19.0506 17.1914 19.8316 17.9724 19.8316 18.9393Z" fill="#F09922"/>
<path d="M29.495 5.47188C26.4669 2.67219 22.4188 0.966875 17.9669 0.966875C8.57969 0.966875 0.966875 8.57969 0.966875 17.9669C0.966875 22.4134 2.6775 26.4616 5.47188 29.495C2.10906 26.3872 0 21.9406 0 17C0 7.61281 7.61281 0 17 0C21.9406 0 26.3872 2.10906 29.495 5.47188Z" fill="#FFE27B"/>
<path d="M33.7805 19.7233C35.2846 10.4557 28.9912 1.72353 19.7236 0.219357C10.456 -1.28482 1.72381 5.00866 0.219638 14.2762C-1.28453 23.5438 5.00894 32.276 14.2765 33.7802C23.5441 35.2844 32.2763 28.9909 33.7805 19.7233Z" fill="#F9C65B"/>
<path d="M34.0011 17.0001C34.0011 26.3873 26.3883 34.0001 17.0011 34.0001C12.0711 34.0001 7.62984 31.9017 4.52734 28.5495C7.56078 31.3598 11.6142 33.0757 16.0767 33.0757C25.4639 33.0757 33.0767 25.4629 33.0767 16.0757C33.0767 11.6186 31.3608 7.5598 28.5505 4.52637C31.9027 7.62887 34.0011 12.0701 34.0011 17.0001Z" fill="#F6B444"/>
<path d="M22.0341 30.0676C29.2512 27.2874 32.848 19.183 30.0678 11.966C27.2876 4.74889 19.1832 1.1521 11.9661 3.9323C4.74903 6.71251 1.15224 14.8169 3.93245 22.034C6.71265 29.251 14.817 32.8478 22.0341 30.0676Z" fill="#F6B444"/>
<path d="M27.4336 7.66047C24.958 5.43984 21.6802 4.09047 18.0942 4.09047C10.3592 4.08516 4.08516 10.3592 4.08516 18.0942C4.08516 21.6855 5.43453 24.958 7.65516 27.4336C4.79703 24.8677 2.99609 21.1436 2.99609 16.9998C2.99609 9.26484 9.26484 2.99609 16.9998 2.99609C21.1436 2.99609 24.873 4.79703 27.4336 7.66047Z" fill="#F09922"/>
<path d="M27.6425 18.3485C28.3877 12.4718 24.2278 7.10362 18.3511 6.35841C12.4744 5.61319 7.10626 9.77309 6.36105 15.6498C5.61583 21.5265 9.77573 26.8946 15.6524 27.6399C21.5292 28.3851 26.8973 24.2252 27.6425 18.3485Z" fill="#FFCA5C"/>
<path d="M28.6884 17.9615C28.6884 23.8849 23.8859 28.6874 17.9625 28.6874C14.7538 28.6874 11.8797 27.2796 9.91406 25.0483C11.8053 26.7165 14.2862 27.7258 17.0062 27.7258C22.9297 27.7258 27.7322 22.9233 27.7322 16.9999C27.7322 14.2799 26.7228 11.799 25.0547 9.90771C27.2806 11.8733 28.6884 14.7527 28.6884 17.9615Z" fill="#F09922"/>
<path d="M9.00914 15.4809C8.87102 15.4809 8.7382 15.4277 8.63195 15.3268C8.42477 15.1196 8.42477 14.7849 8.63195 14.5777L11.9098 11.2999C12.117 11.0927 12.4516 11.0927 12.6588 11.2999C12.866 11.5071 12.866 11.8418 12.6588 12.049L9.38102 15.3268C9.28008 15.4277 9.14727 15.4809 9.00914 15.4809ZM9.00914 19.1677C8.87102 19.1677 8.7382 19.1146 8.63195 19.0137C8.42477 18.8065 8.42477 18.4718 8.63195 18.2646L11.9098 14.9868C12.117 14.7796 12.4516 14.7796 12.6588 14.9868C12.866 15.194 12.866 15.5287 12.6588 15.7359L9.38102 19.0137C9.28008 19.1146 9.14727 19.1677 9.00914 19.1677Z" fill="#F8DD79"/>
<path d="M21.6644 17.0958C21.1013 16.5327 20.3203 16.1821 19.4544 16.1821H19.4969C20.9631 16.1821 22.1531 14.9921 22.1531 13.5258V13.3983C22.1531 11.9321 20.9631 10.7368 19.4969 10.7368V9.24926C19.4969 9.11644 19.3906 9.00488 19.2525 9.00488H18.1156C17.9828 9.00488 17.8713 9.11113 17.8713 9.24926V10.6305H16.6706V9.24926C16.6706 9.11644 16.5644 9.00488 16.4263 9.00488H15.2469C15.1141 9.00488 15.0025 9.11113 15.0025 9.24926V10.6518H12.3197C12.2613 10.6518 12.2188 10.6996 12.2188 10.7527V12.1711C12.2188 12.2296 12.2666 12.2721 12.3197 12.2721H12.9838C13.3184 12.2721 13.5894 12.543 13.5894 12.8777V20.4161C13.5894 20.6977 13.3609 20.9208 13.0847 20.9208H12.6012C12.3887 20.9208 12.2188 21.0908 12.2188 21.3033V22.1693C12.2188 22.3764 12.3887 22.5464 12.5959 22.5464H15.0875V23.8746C15.0875 24.0499 15.2309 24.1933 15.4063 24.1933H16.3359C16.5113 24.1933 16.6547 24.0499 16.6547 23.8746V22.4827H17.8553V23.8746C17.8553 24.0499 17.9988 24.1933 18.1741 24.1933H19.1463C19.3216 24.1933 19.465 24.0499 19.465 23.8746V22.4189C21.1916 22.4189 22.5888 21.0218 22.5888 19.2952C22.5781 18.4399 22.2275 17.6589 21.6644 17.0958ZM16.1553 12.5802H18.19C18.9922 12.5802 19.6456 13.2336 19.6456 14.0358C19.6456 14.4396 19.4809 14.8008 19.2206 15.0664C18.955 15.3321 18.5938 15.4914 18.19 15.4914H16.1553V12.5802ZM19.8316 18.9393C19.8316 19.9008 19.0506 20.6818 18.0891 20.6818H16.2722C16.2137 20.6818 16.1606 20.6339 16.1606 20.5702V17.303C16.1606 17.2446 16.2084 17.1914 16.2722 17.1914H18.0891C19.0506 17.1914 19.8316 17.9724 19.8316 18.9393Z" fill="#F09922"/>
</g>
<defs>
<clipPath id="clip0_2794_53941">
<rect width="34" height="34" fill="white"/>
</clipPath>
</defs>
</svg>
