<svg width="18" height="18" viewBox="0 0 18 18" fill="none" xmlns="http://www.w3.org/2000/svg">
<path d="M13.7872 6.00098H14.583C15.228 6.00098 15.75 6.52298 15.75 7.16798V14.5847C15.75 15.229 15.228 15.751 14.583 15.751H6.417C5.772 15.751 5.25 15.229 5.25 14.584V13.501" stroke="#D7D4ED" stroke-linecap="round" stroke-linejoin="round"/>
<path fill-rule="evenodd" clip-rule="evenodd" d="M3.0007 13.501H11.4847C11.9864 13.501 12.4544 13.2505 12.7327 12.8327L13.2832 12.0062C13.6117 11.5135 13.7872 10.9345 13.7872 10.342V4.50098C13.7872 3.67223 13.1159 3.00098 12.2872 3.00098H4.7872C3.95845 3.00098 3.2872 3.67223 3.2872 4.50098V9.79298C3.2872 10.2587 3.17845 10.7177 2.9707 11.1347L2.3302 12.4157C2.08045 12.9145 2.44345 13.501 3.0007 13.501Z" stroke="#D7D4ED" stroke-linecap="round" stroke-linejoin="round"/>
<path d="M10.2383 7.19336L8.12855 9.30311L6.86255 8.03786" stroke="#D7D4ED" stroke-linecap="round" stroke-linejoin="round"/>
<path d="M6.28497 2.25V3.75" stroke="#D7D4ED" stroke-linecap="round" stroke-linejoin="round"/>
<path d="M10.785 2.25V3.75" stroke="#D7D4ED" stroke-linecap="round" stroke-linejoin="round"/>
</svg>
