<svg width="24" height="24" viewBox="0 0 24 24" fill="none" xmlns="http://www.w3.org/2000/svg">
<path fill-rule="evenodd" clip-rule="evenodd" d="M18 20H6C4.343 20 3 18.657 3 17V6C3 4.895 3.895 4 5 4H19C20.105 4 21 4.895 21 6V17C21 18.657 19.657 20 18 20Z" stroke="#D7D4ED" stroke-width="1.5" stroke-linecap="round" stroke-linejoin="round"/>
<path d="M21 11.5H17.5C16.97 11.5 16.461 11.711 16.086 12.086L15.258 12.914C14.883 13.289 14.374 13.5 13.844 13.5H10.743C10.213 13.5 9.704 13.289 9.329 12.914L8.5 12.086C8.125 11.711 7.616 11.5 7.086 11.5H3" stroke="#D7D4ED" stroke-width="1.5" stroke-linecap="round" stroke-linejoin="round"/>
<path d="M21 8H3" stroke="#D7D4ED" stroke-width="1.5" stroke-linecap="round" stroke-linejoin="round"/>
</svg>
