<svg width="129" height="35" viewBox="0 0 129 35" fill="none" xmlns="http://www.w3.org/2000/svg">
<g clip-path="url(#clip0_3315_45817)">
<path d="M122.711 10.1874H109.481L118.204 1.4726L116.728 0L104.459 12.2716H122.706C123.821 12.2737 124.889 12.7173 125.677 13.5054C126.465 14.2934 126.909 15.3617 126.911 16.4761V20.6806H97.5203V0.416336L95.7676 2.05598C95.0943 2.6882 93.4058 4.33298 92.7659 4.93436L94.1896 6.45578C94.4749 6.19878 94.9478 5.73362 95.4361 5.26074V22.7649H129.013V16.4761C129.013 15.6493 128.849 14.8306 128.532 14.067C128.215 13.3033 127.751 12.6096 127.166 12.0255C126.58 11.4415 125.886 10.9785 125.121 10.6631C124.357 10.3477 123.538 10.186 122.711 10.1874V10.1874Z" fill="#FFBD00"/>
<path d="M87.7442 11.2308V16.2551C87.7442 18.6015 85.9272 20.6241 83.6707 20.678H83.5397C82.4254 20.676 81.3575 20.2323 80.5698 19.4442C79.7822 18.656 79.3391 17.5878 79.3378 16.4735V11.2308H77.2535V16.4761C77.2535 17.5912 76.8105 18.6606 76.022 19.4491C75.2335 20.2376 74.1641 20.6806 73.049 20.6806C71.9339 20.6806 70.8645 20.2376 70.076 19.4491C69.2875 18.6606 68.8445 17.5912 68.8445 16.4761V11.2308H66.7603V20.6806H57.3105C54.8051 20.6772 52.4032 19.6806 50.6313 17.9092C48.8595 16.1378 47.8622 13.7362 47.8581 11.2308H45.7739V20.6806H41.5719C40.4575 20.6786 39.3892 20.2349 38.6012 19.4469C37.8131 18.6588 37.3695 17.5906 37.3675 16.4761V10.1874H24.79V21.7214C24.8107 22.9757 24.5815 24.2215 24.1158 25.3863C23.6502 26.5511 22.9573 27.6115 22.0776 28.5058C21.198 29.4001 20.1491 30.1103 18.9921 30.5952C17.8352 31.08 16.5933 31.3297 15.3389 31.3297C14.0845 31.3297 12.8426 31.08 11.6857 30.5952C10.5287 30.1103 9.47986 29.4001 8.60019 28.5058C7.72053 27.6115 7.02766 26.5511 6.56199 25.3863C6.09631 24.2215 5.86713 22.9757 5.88782 21.7214V10.5986L4.07084 12.6186L0 17.152L1.54199 18.5449L3.80357 16.0366V21.7214C3.78074 23.2508 4.06224 24.7694 4.6317 26.1889C5.20116 27.6084 6.04721 28.9006 7.12063 29.9901C8.19405 31.0797 9.47341 31.9449 10.8843 32.5355C12.2952 33.1261 13.8094 33.4302 15.3389 33.4302C16.8684 33.4302 18.3826 33.1261 19.7935 32.5355C21.2044 31.9449 22.4838 31.0797 23.5572 29.9901C24.6306 28.9006 25.4767 27.6084 26.0461 26.1889C26.6156 24.7694 26.8971 23.2508 26.8742 21.7214V12.2716H35.2832V16.4761C35.2839 18.1438 35.9467 19.7429 37.1259 20.9222C38.3051 22.1014 39.9043 22.7642 41.5719 22.7648H47.8581V17.8176C48.9175 19.3438 50.3305 20.591 51.9765 21.4525C53.6226 22.3139 55.4527 22.7642 57.3105 22.7648H68.8445V21.1226C69.5125 21.735 70.3058 22.1947 71.1693 22.4698C72.0328 22.7448 72.9458 22.8286 73.8449 22.7154C74.7441 22.6022 75.6078 22.2946 76.3761 21.8141C77.1445 21.3336 77.799 20.6916 78.2943 19.9327C78.8659 20.8017 79.6445 21.515 80.5601 22.0084C81.4757 22.5019 82.4996 22.76 83.5397 22.7597H83.7324C87.2225 22.6389 89.8284 19.6526 89.8284 16.2525V11.2308H87.7442Z" fill="#FFBD00"/>
<path d="M36.8252 27.6735H27.8431V29.7578H36.8252V27.6735Z" fill="#FFBD00"/>
<path d="M40.5234 27.6735V29.7578H46.3984C45.7086 30.1981 45.0484 30.6831 44.4221 31.2098C43.6779 31.8412 42.9978 32.5445 42.3918 33.3095L44.0237 34.5945C44.5459 33.939 45.1312 33.3364 45.7713 32.7955C46.9324 31.8098 48.2235 30.9882 49.6083 30.354C50.1223 30.1176 50.5566 29.9557 50.8496 29.8555L51.1811 29.7475L51.2736 29.7218L51.0166 27.6658L40.5234 27.6735Z" fill="#FFBD00"/>
<path d="M15.2179 16.5325L13.007 18.7411L15.5134 21.2503L17.7244 19.0416L15.2179 16.5325Z" fill="#FFBD00"/>
<path d="M87.6363 30.521C87.3254 30.5277 87.0144 30.5114 86.7059 30.4722C87.0898 29.9955 87.5269 29.5644 88.0089 29.1872C88.3161 28.9152 88.7007 28.7462 89.1089 28.7041C89.2498 28.6888 89.3922 28.7153 89.5182 28.7802C89.6443 28.845 89.7486 28.9455 89.8182 29.069C89.963 29.4078 90.0281 29.7753 90.0083 30.1433C89.6479 30.2858 89.2717 30.385 88.8878 30.4388C88.4731 30.4962 88.0549 30.5236 87.6363 30.521ZM89.0934 28.0127C88.6802 28.0355 88.285 28.1894 87.9652 28.4522C87.5676 28.743 87.2023 29.0756 86.8755 29.4442C86.5974 29.7443 86.3398 30.0629 86.1046 30.3977L85.8989 30.3488L85.7242 30.2589L85.7576 29.015H85.1845L85.1999 30.3488L84.7347 30.4928L84.1539 30.521L84.1128 30.5879L84.0948 30.7446V31.1224L84.1128 31.2766L84.1539 31.3357L84.9583 31.2226L85.5546 30.8757C85.8102 31.0735 86.115 31.1979 86.4361 31.2355C86.8318 31.302 87.2324 31.3355 87.6337 31.3357C88.2065 31.346 88.7782 31.2829 89.335 31.1481C89.7148 31.0641 90.0679 30.8876 90.363 30.6341L90.5198 30.3129L90.5686 29.876C90.5755 28.6338 90.0829 28.0127 89.0909 28.0127H89.0934ZM84.1642 30.521H83.807C83.221 30.521 82.9075 30.3257 82.869 29.9299L82.7533 28.7837L82.1211 28.9097L82.3781 31.1969C82.231 31.5596 81.9907 31.877 81.6816 32.117C81.2171 32.4939 80.6969 32.7964 80.1396 33.0139L80.5585 33.6307C81.2271 33.3664 81.831 32.9615 82.3293 32.4434C82.6953 32.0664 82.9063 31.5655 82.9203 31.0402V30.9477L83.2904 31.2432L83.8044 31.3434H84.1591L84.1951 31.2843L84.2156 31.1301V30.7523L84.1951 30.5956L84.1642 30.521ZM80.3632 31.4103L80.9029 31.3357L80.8438 25.4865L80.2039 25.5918L80.3632 31.4103ZM77.5054 25.6818L78.1196 26.1675L78.5899 25.5841L77.9731 25.0984L77.5054 25.6818ZM77.2921 29.0973C77.2776 28.7547 77.3482 28.4139 77.4977 28.1053L78.0451 27.7249L78.6362 28.0693C78.7903 28.3982 78.8592 28.7605 78.8367 29.123C78.5534 29.1863 78.2633 29.2139 77.9731 29.2052L77.2921 29.0973ZM78.1119 27.0413C77.9661 27.0371 77.8209 27.0635 77.6859 27.1188C77.5509 27.1741 77.429 27.2572 77.3281 27.3625C77.1183 27.5796 76.964 27.8441 76.8783 28.1335C76.786 28.4263 76.7384 28.7312 76.737 29.0382L76.7755 29.3183L76.9117 29.5573L77.2844 29.8143L77.8806 29.876C78.199 29.88 78.517 29.8498 78.8289 29.786L78.7955 30.3283C78.533 30.4098 78.2607 30.4556 77.986 30.4645C77.6211 30.4902 77.0531 30.5005 76.2847 30.5005L76.2461 30.5673L76.2281 30.7241V31.1019L76.2461 31.2561L76.2847 31.3152C77.1148 31.3152 77.6904 31.2997 78.022 31.2663C78.3014 31.2452 78.5761 31.182 78.8367 31.0787L79.1862 30.7755L79.3507 30.2255C79.3869 29.8841 79.4024 29.5408 79.3969 29.1975C79.4065 28.6764 79.304 28.1593 79.0962 27.6812C79.0159 27.4883 78.8786 27.3244 78.7028 27.2114C78.5269 27.0985 78.3208 27.0418 78.1119 27.049V27.0413ZM76.2847 30.5133H74.1362L73.9563 31.328C74.37 31.328 74.6682 31.328 74.8583 31.3537L75.2747 31.4719L75.4057 31.7803L75.38 32.0116C75.1444 32.2269 74.8517 32.3696 74.5371 32.4228C74.1134 32.5017 73.683 32.5378 73.2521 32.5308C72.8994 32.5467 72.5478 32.4816 72.2241 32.3406C72.1051 32.289 72.0047 32.2023 71.9362 32.092C71.8678 31.9818 71.8347 31.8534 71.8412 31.7238C71.9034 30.9563 72.0072 30.1928 72.1521 29.4365L71.6382 29.3286L71.5302 30.0122C71.4608 30.4619 71.3991 30.8474 71.3529 31.1687C71.3175 31.3822 71.2943 31.5976 71.2835 31.8137C71.2668 32.0287 71.2998 32.2446 71.38 32.4447C71.4603 32.6448 71.5855 32.8238 71.7461 32.9677C72.0596 33.2195 72.5582 33.3454 73.2418 33.3454C73.9138 33.3686 74.5814 33.2284 75.1873 32.9368C75.4286 32.8231 75.6308 32.6402 75.768 32.4115C75.9053 32.1827 75.9715 31.9183 75.9583 31.6518L75.9197 31.3306H76.2641L76.3078 31.2715L76.3232 31.1173V30.7395L76.3284 30.5827L76.2847 30.5133ZM67.2897 32.9985L67.7087 33.6153C68.3772 33.351 68.9811 32.9461 69.4794 32.428C69.846 32.0511 70.0578 31.5503 70.073 31.0248C70.073 30.8217 70.0576 30.5287 70.0242 30.1484C69.9908 29.768 69.9471 29.308 69.8906 28.7683L69.2583 28.8942L69.5153 31.1815C69.3661 31.5437 69.1252 31.8608 68.8163 32.1016C68.3562 32.48 67.8404 32.7852 67.2872 33.0062L67.2897 32.9985ZM67.3283 31.0145L65.9045 30.39L66.2489 29.7603L66.5213 29.4596L66.8323 29.3697L67.2872 29.6421C67.41 29.8568 67.4697 30.1018 67.4594 30.3488L67.426 30.7189L67.3283 31.0145ZM66.8991 28.6784L66.3594 28.8043L65.9302 29.2181C65.7601 29.4807 65.6131 29.7576 65.4908 30.0456L65.3186 30.354L65.1361 30.4799L64.8149 30.5133H64.527L64.4885 30.5801L64.4705 30.7369V31.1147L64.4885 31.2689L64.527 31.328H64.7172C64.8772 31.342 65.0383 31.3223 65.1902 31.27C65.342 31.2178 65.4812 31.1342 65.5987 31.0248L67.061 31.675L67.2846 31.7238L67.6136 31.6004L67.9117 31.2226C67.9954 30.9417 68.0362 30.6497 68.0325 30.3566C68.051 29.9323 67.9437 29.5121 67.7241 29.1487C67.6397 29.005 67.5185 28.8864 67.3731 28.8051C67.2276 28.7238 67.0631 28.6827 66.8965 28.6861L66.8991 28.6784ZM62.1498 27.3934L62.7666 27.8791L63.2343 27.2957L62.6175 26.81L62.1498 27.3934ZM64.527 30.521H64.1724C63.5864 30.521 63.2754 30.3257 63.2343 29.9299L63.1135 28.776L62.4813 28.902L62.7383 31.1892C62.5893 31.5508 62.3494 31.8677 62.0419 32.1093C61.5773 32.4862 61.0571 32.7887 60.4999 33.0062L60.9188 33.623C61.5866 33.3588 62.1896 32.9538 62.6869 32.4357C63.0546 32.0595 63.2666 31.5583 63.2806 31.0325V30.9399L63.6507 31.2355L64.1647 31.3357H64.5193L64.5579 31.2766L64.5784 31.1224V30.7446L64.5579 30.5879L64.527 30.521ZM60.0116 31.4103L60.5513 31.3357L60.4947 25.4865L59.8522 25.5918L60.0116 31.4103ZM56.6269 33.0062L57.0458 33.623C57.6236 33.3399 58.1317 32.9327 58.5338 32.4305C58.8579 32.0358 59.0391 31.5431 59.0478 31.0325C59.0478 30.8294 59.0324 30.5365 58.999 30.1561C58.9656 29.7757 58.9219 29.3157 58.8679 28.776L58.2357 28.902L58.4927 31.1892C58.3598 31.5463 58.1491 31.8694 57.8759 32.135C57.5109 32.4939 57.0877 32.7885 56.6243 33.0062H56.6269ZM55.7685 27.3934L56.3853 27.8791L56.8531 27.2957L56.2363 26.81L55.7685 27.3934ZM54.1315 33.0062L54.5478 33.623C55.2167 33.3594 55.8207 32.9544 56.3185 32.4357C56.6862 32.0595 56.8982 31.5583 56.9122 31.0325C56.9122 30.8294 56.8968 30.5365 56.8634 30.1561C56.8299 29.7757 56.7863 29.3157 56.7323 28.776L56.0975 28.902L56.3545 31.1892C56.2055 31.5508 55.9656 31.8677 55.658 32.1093C55.2009 32.4833 54.6897 32.7857 54.1417 33.0062H54.1315Z" fill="#D7D4ED"/>
</g>
<defs>
<clipPath id="clip0_3315_45817">
<rect width="129" height="34.6073" fill="white"/>
</clipPath>
</defs>
</svg>
