<svg width="107" height="92" viewBox="0 0 107 92" fill="none" xmlns="http://www.w3.org/2000/svg">
<path d="M61.3612 91.2781C86.567 91.2781 107 70.8448 107 45.6391C107 20.4333 86.567 0 61.3612 0C36.1555 0 15.7222 20.4333 15.7222 45.6391C15.7222 70.8448 36.1555 91.2781 61.3612 91.2781Z" fill="url(#paint0_radial_1737_3396)"/>
<path d="M61.3604 67.1052C73.2158 67.1052 82.8265 57.4945 82.8265 45.6391C82.8265 33.7837 73.2158 24.173 61.3604 24.173C49.505 24.173 39.8943 33.7837 39.8943 45.6391C39.8943 57.4945 49.505 67.1052 61.3604 67.1052Z" fill="url(#paint1_radial_1737_3396)"/>
<path fill-rule="evenodd" clip-rule="evenodd" d="M0 63.7846C0.0472128 63.6115 0.141639 63.5485 0.283277 63.5328C0.283277 63.7531 0.377702 63.7846 0.361964 64.0206C0.299014 64.0206 0.220327 64.0206 0.157377 64.0206C0.251802 63.8003 0.204589 63.7374 0 63.7846Z" fill="#C7E1DB"/>
<path fill-rule="evenodd" clip-rule="evenodd" d="M9.1757 63.6587C9.11275 63.1865 9.50619 63.4855 9.66357 63.4068C9.66357 63.7373 9.38029 63.6272 9.1757 63.6587Z" fill="#C7E1DB"/>
<path fill-rule="evenodd" clip-rule="evenodd" d="M49.9192 31.2707C49.9349 31.0661 50.4385 30.7671 50.4071 31.2549C50.1867 31.0818 50.171 31.2234 49.9192 31.2707Z" fill="#C7E1DB"/>
<path fill-rule="evenodd" clip-rule="evenodd" d="M50.6907 31.1133C51.2572 30.6097 51.21 30.83 52.0126 30.7041C51.7923 31.2077 51.1943 31.0975 50.6907 31.1133Z" fill="#C7E1DB"/>
<path fill-rule="evenodd" clip-rule="evenodd" d="M52.8469 30.4523C53.1145 30.9716 53.5236 30.6726 53.9643 30.6726C53.7282 31.0346 52.9886 31.3808 52.8469 30.4523Z" fill="#C7E1DB"/>
<path fill-rule="evenodd" clip-rule="evenodd" d="M55.0815 29.1618C55.113 29.0516 55.2704 28.973 55.1445 28.91C55.2074 28.5953 55.4592 29.0044 55.4278 29.272C55.3648 29.3664 55.2704 29.4136 55.1445 29.3979C55.1602 29.2562 55.1445 29.1775 55.0815 29.1618Z" fill="#C7E1DB"/>
<path fill-rule="evenodd" clip-rule="evenodd" d="M52.0908 30.9559C52.1852 30.8457 52.7046 30.405 52.7203 30.9401C52.4213 30.8142 52.4056 30.9244 52.0908 30.9559Z" fill="#C7E1DB"/>
<path fill-rule="evenodd" clip-rule="evenodd" d="M61.0308 42.4601C61.2039 42.4758 61.2826 42.5702 61.314 42.6961C60.9678 42.7748 61.0465 42.586 61.0308 42.4601Z" fill="#C7E1DB"/>
<path fill-rule="evenodd" clip-rule="evenodd" d="M61.4705 47.0712C61.5177 47.087 61.5649 47.1499 61.5806 47.087C61.738 47.2129 61.6908 47.4175 61.6121 47.5591C61.5334 47.386 61.5334 47.2758 61.4705 47.0712Z" fill="#C7E1DB"/>
<path fill-rule="evenodd" clip-rule="evenodd" d="M60.7788 47.1656C60.9204 47.2129 60.9834 47.323 61.1093 47.386C60.8103 47.3703 60.8103 47.3073 60.7788 47.1656Z" fill="#C7E1DB"/>
<path fill-rule="evenodd" clip-rule="evenodd" d="M61.1881 47.622C61.251 47.6063 61.2353 47.5591 61.2353 47.5276C61.3926 47.5591 61.3612 47.685 61.5186 47.7164C61.4871 47.7637 61.3927 47.7479 61.4084 47.7007C61.2195 47.7322 61.2825 47.7164 61.0936 47.7479C61.0622 47.6378 60.9835 47.5748 60.9048 47.4961C60.952 47.4489 61.0307 47.4174 61.1723 47.4174C61.3612 47.4804 61.0464 47.5591 61.1881 47.622Z" fill="#C7E1DB"/>
<path fill-rule="evenodd" clip-rule="evenodd" d="M61.6763 47.7322C61.8809 47.7637 61.755 47.8738 61.8022 47.9368C61.8809 48.0469 62.1012 47.8896 61.8179 48.0627C61.6763 47.9368 61.755 47.8738 61.6763 47.7322Z" fill="#C7E1DB"/>
<path fill-rule="evenodd" clip-rule="evenodd" d="M61.7546 48.6607C61.8176 48.6292 61.8648 48.881 61.8805 48.9755C61.7861 48.9125 61.7546 48.7866 61.7546 48.6607Z" fill="#C7E1DB"/>
<path fill-rule="evenodd" clip-rule="evenodd" d="M61.4241 49.2745C61.3297 49.3374 61.4241 49.3532 61.4399 49.4161C61.2353 49.4633 61.2195 49.2587 61.4241 49.2745Z" fill="#C7E1DB"/>
<path fill-rule="evenodd" clip-rule="evenodd" d="M60.543 49.6207C60.6374 49.6679 60.543 49.6994 60.606 49.7938C60.4171 49.8253 60.5115 49.6365 60.543 49.6207Z" fill="#C7E1DB"/>
<path fill-rule="evenodd" clip-rule="evenodd" d="M59.9597 44.9781C60.0069 44.9781 60.0384 44.9781 60.0856 44.9781C60.18 45.0253 60.1014 45.104 60.1014 45.1827C60.0541 45.0883 59.9597 45.0568 59.9597 44.9781Z" fill="#C7E1DB"/>
<path fill-rule="evenodd" clip-rule="evenodd" d="M61.487 45.765C61.5657 45.765 61.5815 45.7964 61.5815 45.8436C61.5343 45.8436 61.5028 45.8594 61.5028 45.8751C61.4084 45.8751 61.4713 45.7807 61.487 45.765Z" fill="#C7E1DB"/>
<path fill-rule="evenodd" clip-rule="evenodd" d="M61.691 45.8122C61.754 45.8437 61.691 45.8909 61.7382 45.9696C61.5966 45.9853 61.6123 45.9066 61.6123 45.8437C61.6595 45.8437 61.691 45.8437 61.691 45.8122Z" fill="#C7E1DB"/>
<path fill-rule="evenodd" clip-rule="evenodd" d="M57.8049 55.1918C57.9937 55.3335 57.9937 55.4122 58.1983 55.6168C58.1196 55.6482 58.041 55.664 58.0252 55.7269C57.8206 55.7584 58.0567 55.5066 57.7419 55.601C57.8521 55.4279 57.7577 55.4122 57.8049 55.1918Z" fill="#C7E1DB"/>
<path fill-rule="evenodd" clip-rule="evenodd" d="M58.5757 47.0712C58.796 47.0555 58.5757 47.2286 58.7173 47.2915C58.9062 47.2915 58.8117 47.1814 58.7803 47.1342C59.095 47.1499 58.6544 47.3702 59.0006 47.3545C58.9848 47.4174 58.9534 47.4646 58.9691 47.5433C58.8275 47.5748 58.9062 47.4646 58.8747 47.4174C58.7173 47.5119 58.733 47.3545 58.5442 47.4646C58.6386 47.3073 58.6386 47.2128 58.5757 47.0712Z" fill="#C7E1DB"/>
<path fill-rule="evenodd" clip-rule="evenodd" d="M60.6526 49.0541C60.7627 49.1171 60.7627 49.0699 60.8886 49.0384C60.8886 49.0856 60.9359 49.0856 60.9359 49.1328C60.8572 49.1013 60.6054 49.18 60.6526 49.0541Z" fill="#C7E1DB"/>
<path fill-rule="evenodd" clip-rule="evenodd" d="M61.802 40.9493C61.9908 41.028 62.0852 41.2326 61.6446 41.2011C61.5659 41.0594 61.8806 41.0909 61.802 40.9493Z" fill="#C7E1DB"/>
<path fill-rule="evenodd" clip-rule="evenodd" d="M63.768 42.3184C64.0828 42.2712 64.0041 42.7433 63.8939 42.8063C63.9569 42.9165 64.2402 42.9007 64.429 42.9164C64.2559 43.0581 63.9097 43.121 63.6579 43.2155C63.5005 43.1368 63.5635 42.6489 63.7995 42.7591C63.768 42.6017 63.6736 42.4601 63.768 42.3184Z" fill="#C7E1DB"/>
<path fill-rule="evenodd" clip-rule="evenodd" d="M59.5351 50.3604C59.6453 50.3918 59.5666 50.5177 59.5037 50.5492C59.4092 50.5177 59.5509 50.4076 59.5351 50.3604Z" fill="#C7E1DB"/>
<path fill-rule="evenodd" clip-rule="evenodd" d="M58.5279 51.0685C58.5752 51.1315 58.6696 51.1787 58.7011 51.2574C58.4965 51.2731 58.5122 51.163 58.5279 51.0685Z" fill="#C7E1DB"/>
<path fill-rule="evenodd" clip-rule="evenodd" d="M61.8795 54.0587C62.147 54.0745 62.3988 54.1059 62.4303 54.279C62.1942 54.2948 61.9267 54.3263 61.8008 54.2633C61.8637 54.2161 61.8952 54.1374 61.8795 54.0587Z" fill="#C7E1DB"/>
<path fill-rule="evenodd" clip-rule="evenodd" d="M53.3821 38.3998C53.8857 38.4155 53.0831 38.6988 53.5867 38.683C53.571 38.746 53.3664 38.7303 53.2405 38.746C53.3192 38.5729 53.3349 38.5257 53.3821 38.3998Z" fill="#C7E1DB"/>
<path fill-rule="evenodd" clip-rule="evenodd" d="M51.7773 47.087C51.9662 47.1185 52.1078 47.1814 52.0606 47.3702C51.8403 47.3545 51.856 47.1971 51.7773 47.087Z" fill="#C7E1DB"/>
<path fill-rule="evenodd" clip-rule="evenodd" d="M52.2807 50.0613C52.6112 50.1086 52.265 50.4862 52.328 50.7066C52.0919 50.738 52.3909 50.4233 52.0447 50.5177C52.3594 50.3761 52.2021 50.2974 52.2807 50.0613Z" fill="#C7E1DB"/>
<path fill-rule="evenodd" clip-rule="evenodd" d="M53.4136 38.8404C53.6024 38.8089 53.6496 38.8562 53.7755 38.8719C53.7283 38.9821 53.1775 38.9978 53.445 39.1867C53.3663 39.344 53.2877 39.0922 53.1775 39.108C53.2562 39.0293 53.445 38.9821 53.4136 38.8404Z" fill="#C7E1DB"/>
<path fill-rule="evenodd" clip-rule="evenodd" d="M53.7904 39.1237C53.696 39.2654 53.6016 39.2811 53.7275 39.4227C53.5701 39.4227 53.5071 39.4699 53.4757 39.5329C53.4599 39.5171 53.4914 39.1395 53.7904 39.1237Z" fill="#C7E1DB"/>
<path fill-rule="evenodd" clip-rule="evenodd" d="M55.9632 44.9781C56.0891 45.0096 56.1363 45.0725 56.152 45.167C55.9946 45.167 55.9632 45.2456 55.8058 45.2299C55.8058 45.1827 55.79 45.1355 55.79 45.0883C55.9632 45.1512 55.9946 45.1197 55.9632 44.9781Z" fill="#C7E1DB"/>
<path fill-rule="evenodd" clip-rule="evenodd" d="M56.3879 51.4148C56.7184 51.3518 56.5138 51.6351 56.5925 51.7453C56.3407 51.761 56.4194 51.5564 56.3879 51.4148Z" fill="#C7E1DB"/>
<path fill-rule="evenodd" clip-rule="evenodd" d="M52.9566 57.584C52.9408 57.521 52.7992 57.5525 52.689 57.5525C52.6261 57.2377 53.2241 56.9859 52.8936 56.7027C52.689 56.7341 52.9094 56.9702 52.7363 57.0017C52.5474 56.8915 52.8149 56.7971 52.6104 56.6082C52.9251 56.5453 52.8307 56.5925 53.1297 56.5295C53.2556 56.9387 53.0982 56.8915 53.2084 57.4108C52.8936 57.2849 53.0982 57.6941 52.9566 57.6784C53.3028 57.6312 53.2713 57.8515 52.9881 57.9774C53.0825 58.1033 53.2241 57.8987 53.35 58.0089C53.1612 58.182 53.5231 58.5597 53.1297 58.5125C53.1454 58.5754 53.114 58.6069 53.051 58.6226C53.1454 58.7328 53.4287 58.4967 53.413 58.7485C53.0982 58.6069 53.1769 58.8744 53.0825 58.9689C52.5474 58.7485 52.8779 58.0718 52.6261 57.7571C52.689 57.6784 52.8464 57.6312 52.9566 57.584Z" fill="#C7E1DB"/>
<path fill-rule="evenodd" clip-rule="evenodd" d="M62.6675 45.702C62.8406 45.9696 62.4944 46.4102 62.2111 46.6148C61.9908 46.4102 62.6045 46.0483 62.6675 45.702Z" fill="#C7E1DB"/>
<path fill-rule="evenodd" clip-rule="evenodd" d="M66.9158 45.4974C67.4194 45.5132 66.6168 45.7965 67.1204 45.7807C67.1047 45.8437 66.9001 45.8279 66.7742 45.8437C66.8529 45.6548 66.8686 45.6233 66.9158 45.4974Z" fill="#C7E1DB"/>
<path fill-rule="evenodd" clip-rule="evenodd" d="M63.7529 45.8751C63.9417 45.8594 63.8158 46.0482 63.863 46.1112C63.5955 46.0955 63.6899 46.0797 63.4224 46.1427C63.4696 46.0325 63.7056 46.001 63.7529 45.8751Z" fill="#C7E1DB"/>
<path fill-rule="evenodd" clip-rule="evenodd" d="M64.3987 46.1427C64.6191 46.1742 64.8551 46.3158 64.5876 46.3788C64.4617 46.3315 64.383 46.2529 64.3987 46.1427Z" fill="#C7E1DB"/>
<path fill-rule="evenodd" clip-rule="evenodd" d="M63.816 46.662C64.0205 46.7879 64.3038 47.1027 64.0363 47.2443C63.8474 47.1656 63.9891 47.0712 63.6743 47.1656C63.8789 47.0712 63.8474 46.8666 63.816 46.662Z" fill="#C7E1DB"/>
<path fill-rule="evenodd" clip-rule="evenodd" d="M63.7537 48.047C64.2101 47.9368 64.2258 48.9283 63.6436 48.8024C63.6593 48.7394 63.8009 48.7551 63.9111 48.7394C63.6908 48.5505 64.0213 48.2358 63.7537 48.047Z" fill="#C7E1DB"/>
<path fill-rule="evenodd" clip-rule="evenodd" d="M64.6662 50.6594C64.8708 50.6751 64.7292 50.8954 64.7764 50.9899C64.5561 50.9584 64.5875 50.8167 64.6662 50.6594Z" fill="#C7E1DB"/>
<path fill-rule="evenodd" clip-rule="evenodd" d="M65.311 54.1689C65.4999 54.2004 65.6415 54.2633 65.5943 54.4521C65.374 54.4364 65.3897 54.279 65.311 54.1689Z" fill="#C7E1DB"/>
<path fill-rule="evenodd" clip-rule="evenodd" d="M65.8147 57.159C66.1452 57.2062 65.7989 57.5839 65.8619 57.8042C65.6258 57.8357 65.9248 57.521 65.5786 57.6311C65.8934 57.4738 65.736 57.3951 65.8147 57.159Z" fill="#C7E1DB"/>
<path fill-rule="evenodd" clip-rule="evenodd" d="M66.9472 45.9381C67.1361 45.9066 67.1833 45.9538 67.3092 45.9696C67.262 46.0797 66.7112 46.0955 66.9787 46.2843C66.9 46.4417 66.8213 46.1899 66.7112 46.2056C66.7899 46.1112 66.9787 46.0797 66.9472 45.9381Z" fill="#C7E1DB"/>
<path fill-rule="evenodd" clip-rule="evenodd" d="M63.5955 46.2371C63.9732 46.2843 63.5955 46.5519 63.5483 46.6778C63.4696 46.662 63.4067 46.6306 63.2808 46.6463C63.5011 46.8352 63.0919 46.7879 63.0447 46.9611C63.0762 47.0083 63.2178 46.9768 63.2336 47.0555C63.2808 47.2129 63.1706 47.2758 62.9031 47.2758C63.029 47.0083 62.9975 47.0397 62.8559 46.7879C62.9503 46.7879 63.029 46.7722 63.1234 46.7722C63.0919 46.662 63.1234 46.5834 63.1864 46.5204C62.966 46.5519 62.8873 46.5991 62.7457 46.5047C62.5254 46.5047 62.8086 46.725 62.4939 46.662C62.5726 46.5519 62.6513 46.4575 62.73 46.3473C62.8716 46.5519 63.029 46.426 63.3595 46.363C63.2021 46.4732 63.3595 46.4889 63.3752 46.6148C63.7214 46.5991 63.6113 46.3945 63.5955 46.2371Z" fill="#C7E1DB"/>
<path fill-rule="evenodd" clip-rule="evenodd" d="M67.3258 46.2056C67.2314 46.3473 67.1527 46.363 67.2629 46.5046C67.1055 46.5046 67.0425 46.5518 67.0111 46.6148C66.9953 46.6148 67.0268 46.2214 67.3258 46.2056Z" fill="#C7E1DB"/>
<path fill-rule="evenodd" clip-rule="evenodd" d="M63.3289 47.1814C63.6594 47.3073 63.1715 47.4489 62.9984 47.4961C63.0613 47.5434 63.203 47.5276 63.1872 47.6378C62.5735 47.5591 63.2817 47.3702 63.3289 47.1814Z" fill="#C7E1DB"/>
<path fill-rule="evenodd" clip-rule="evenodd" d="M54.2159 45.3715C54.3103 45.5132 54.1215 45.7335 53.9798 45.8437C53.8697 45.7492 54.1844 45.5604 54.2159 45.3715Z" fill="#C7E1DB"/>
<path fill-rule="evenodd" clip-rule="evenodd" d="M56.4033 45.2771C56.6708 45.2771 56.2459 45.4345 56.5134 45.4188C56.4977 45.4502 56.4033 45.4502 56.3403 45.4502C56.3875 45.3558 56.3875 45.3401 56.4033 45.2771Z" fill="#C7E1DB"/>
<path fill-rule="evenodd" clip-rule="evenodd" d="M54.7672 45.4659C54.8617 45.4502 54.7987 45.5604 54.8302 45.5918C54.6886 45.5761 54.7358 45.5761 54.6099 45.6076C54.6256 45.5446 54.7515 45.5289 54.7672 45.4659Z" fill="#C7E1DB"/>
<path fill-rule="evenodd" clip-rule="evenodd" d="M55.1124 45.6076C55.2226 45.6233 55.3485 45.702 55.2069 45.7335C55.1439 45.702 55.0967 45.6706 55.1124 45.6076Z" fill="#C7E1DB"/>
<path fill-rule="evenodd" clip-rule="evenodd" d="M54.8145 45.8751C54.9247 45.9381 55.0663 46.1112 54.9247 46.1741C54.8303 46.1269 54.909 46.0797 54.7358 46.1269C54.846 46.0797 54.8303 45.9853 54.8145 45.8751Z" fill="#C7E1DB"/>
<path fill-rule="evenodd" clip-rule="evenodd" d="M54.7666 46.5991C55.0026 46.5362 55.0184 47.0555 54.7036 46.9926C54.7036 46.9611 54.7823 46.9611 54.8453 46.9611C54.7508 46.8509 54.9239 46.6935 54.7666 46.5991Z" fill="#C7E1DB"/>
<path fill-rule="evenodd" clip-rule="evenodd" d="M56.4355 45.4974C56.5299 45.4817 56.5614 45.5132 56.6243 45.5132C56.6086 45.5762 56.3096 45.5761 56.4512 45.6706C56.4197 45.7492 56.3725 45.6234 56.3096 45.6234C56.3568 45.5919 56.4512 45.5761 56.4355 45.4974Z" fill="#C7E1DB"/>
<path fill-rule="evenodd" clip-rule="evenodd" d="M54.7034 45.6548C54.8922 45.6706 54.7034 45.828 54.6719 45.8909C54.6404 45.8752 54.5932 45.8752 54.5303 45.8752C54.6404 45.9696 54.4358 45.9539 54.4044 46.0326C54.4201 46.064 54.4988 46.0483 54.4988 46.0798C54.5303 46.1585 54.4673 46.1899 54.3257 46.1899C54.3886 46.0483 54.3729 46.064 54.3099 45.9381C54.3572 45.9381 54.4044 45.9381 54.4516 45.9224C54.4358 45.8594 54.4516 45.828 54.4831 45.7965C54.3729 45.8122 54.3257 45.8437 54.247 45.7807C54.1368 45.7807 54.2785 45.8909 54.1211 45.8594C54.1683 45.8122 54.1998 45.7493 54.247 45.7021C54.3099 45.8122 54.4044 45.7335 54.5617 45.7021C54.4831 45.7493 54.5617 45.765 54.5775 45.828C54.7506 45.8437 54.7034 45.7335 54.7034 45.6548Z" fill="#C7E1DB"/>
<path fill-rule="evenodd" clip-rule="evenodd" d="M56.6239 45.6391C56.5766 45.702 56.5294 45.7178 56.5924 45.7965C56.5137 45.7965 56.4822 45.8279 56.4665 45.8594C56.4507 45.8437 56.4665 45.6548 56.6239 45.6391Z" fill="#C7E1DB"/>
<path fill-rule="evenodd" clip-rule="evenodd" d="M54.5467 46.1427C54.7198 46.2057 54.468 46.2843 54.3736 46.3001C54.4051 46.3316 54.4838 46.3158 54.468 46.363C54.169 46.3473 54.531 46.2371 54.5467 46.1427Z" fill="#C7E1DB"/>
<path fill-rule="evenodd" clip-rule="evenodd" d="M52.2651 40.7447C52.4697 40.7604 52.3281 40.9807 52.3753 41.0752C52.1549 41.0437 52.1864 40.9021 52.2651 40.7447Z" fill="#C7E1DB"/>
<path fill-rule="evenodd" clip-rule="evenodd" d="M52.9099 44.2699C53.0988 44.3014 53.2404 44.3643 53.1932 44.5532C52.9886 44.5374 52.9886 44.3801 52.9099 44.2699Z" fill="#C7E1DB"/>
<path fill-rule="evenodd" clip-rule="evenodd" d="M53.4136 47.2443C53.744 47.2915 53.3978 47.6692 53.4608 47.8896C53.2247 47.921 53.5237 47.6063 53.1775 47.7007C53.4922 47.5591 53.3349 47.4804 53.4136 47.2443Z" fill="#C7E1DB"/>
<path fill-rule="evenodd" clip-rule="evenodd" d="M59.5355 57.521C59.6614 57.5525 59.8188 57.5839 59.8188 57.6941C59.63 57.82 59.4726 57.6941 59.205 57.7256C59.1578 57.4895 59.4883 57.7098 59.5355 57.521Z" fill="#C7E1DB"/>
<path fill-rule="evenodd" clip-rule="evenodd" d="M59.6933 60.7314C59.8979 60.7472 59.7562 60.9675 59.8035 61.0619C59.473 61.0462 59.7405 60.8731 59.6933 60.7314Z" fill="#C7E1DB"/>
<path fill-rule="evenodd" clip-rule="evenodd" d="M64.2254 60.7C64.5401 60.6527 64.367 61.0776 64.0837 61.0619C64.005 60.8731 64.2411 60.8573 64.2254 60.7Z" fill="#C7E1DB"/>
<path fill-rule="evenodd" clip-rule="evenodd" d="M70.6455 55.1288C70.913 55.1761 70.8973 55.4436 70.8658 55.5537C70.6927 55.4751 70.7399 55.2547 70.6455 55.1288Z" fill="#C7E1DB"/>
<path fill-rule="evenodd" clip-rule="evenodd" d="M70.7096 55.8685C71.0087 55.9 70.7254 56.3092 70.9457 56.498C70.6624 56.4193 70.6782 55.963 70.7096 55.8685Z" fill="#C7E1DB"/>
<path fill-rule="evenodd" clip-rule="evenodd" d="M70.095 57.1433C70.4098 57.159 70.3626 57.4266 70.394 57.6154C70.1737 57.6627 70.2209 57.285 70.0321 57.4895C69.8117 57.4266 70.1422 57.2535 70.095 57.1433Z" fill="#C7E1DB"/>
<path fill-rule="evenodd" clip-rule="evenodd" d="M70.5204 57.9931C70.3473 58.1033 70.3473 57.9774 70.1584 57.9616C70.2371 57.8672 70.127 57.6941 70.4102 57.6941C70.363 57.7413 70.3316 57.7728 70.3316 57.8515C70.3945 57.9144 70.5361 57.8987 70.5204 57.9931Z" fill="#C7E1DB"/>
<path fill-rule="evenodd" clip-rule="evenodd" d="M70.599 57.9459C70.8666 58.0718 70.3315 58.2764 70.6463 58.4338C70.2213 58.4023 70.363 58.0403 70.599 57.9459Z" fill="#C7E1DB"/>
<path fill-rule="evenodd" clip-rule="evenodd" d="M54.7976 49.9512C55.1596 49.9039 54.9392 50.1872 54.8133 50.203C54.5615 50.1715 54.9235 50.0613 54.7976 49.9512Z" fill="#C7E1DB"/>
<path fill-rule="evenodd" clip-rule="evenodd" d="M58.4658 54.7039C58.7491 54.6724 58.8907 54.9557 58.4816 54.9557C58.4816 54.877 58.4658 54.7983 58.4658 54.7039Z" fill="#C7E1DB"/>
<path fill-rule="evenodd" clip-rule="evenodd" d="M58.6226 55.6324C58.7642 55.6954 58.8271 55.8056 58.8271 55.9629C58.4967 56.0259 58.7012 55.7426 58.6226 55.6324Z" fill="#C7E1DB"/>
<path fill-rule="evenodd" clip-rule="evenodd" d="M59.7393 56.2147C59.8967 55.9787 60.117 56.5295 59.755 56.4665C59.6291 56.3406 59.9911 56.2462 59.7393 56.2147Z" fill="#C7E1DB"/>
<path fill-rule="evenodd" clip-rule="evenodd" d="M57.143 50.3446C57.3476 50.2817 57.0328 50.7066 57.0958 50.8954C56.8125 50.7538 57.1273 50.502 57.143 50.3446Z" fill="#C7E1DB"/>
<path fill-rule="evenodd" clip-rule="evenodd" d="M53.1143 53.6967C53.2874 53.9643 52.9412 54.4049 52.6579 54.6095C52.4375 54.4049 53.0513 54.0429 53.1143 53.6967Z" fill="#C7E1DB"/>
<path fill-rule="evenodd" clip-rule="evenodd" d="M57.3472 53.4921C57.8508 53.5079 57.0482 53.7912 57.5518 53.7754C57.5361 53.8384 57.3315 53.8226 57.2056 53.8384C57.3 53.6652 57.3157 53.618 57.3472 53.4921Z" fill="#C7E1DB"/>
<path fill-rule="evenodd" clip-rule="evenodd" d="M54.2011 53.8856C54.3899 53.8698 54.264 54.0587 54.3113 54.1216C54.0437 54.1059 54.1381 54.0902 53.8706 54.1531C53.9178 54.0272 54.1381 53.9957 54.2011 53.8856Z" fill="#C7E1DB"/>
<path fill-rule="evenodd" clip-rule="evenodd" d="M54.8296 54.1374C55.0499 54.1689 55.286 54.3105 55.0184 54.3734C54.8925 54.342 54.8296 54.2633 54.8296 54.1374Z" fill="#C7E1DB"/>
<path fill-rule="evenodd" clip-rule="evenodd" d="M54.2627 54.6725C54.4673 54.7984 54.7506 55.1132 54.4831 55.2548C54.2942 55.1761 54.4358 55.0817 54.1211 55.1761C54.3257 55.0817 54.2942 54.8771 54.2627 54.6725Z" fill="#C7E1DB"/>
<path fill-rule="evenodd" clip-rule="evenodd" d="M54.1851 56.0574C54.6415 55.9472 54.6572 56.9387 54.075 56.8128C54.0907 56.7498 54.2323 56.7656 54.3425 56.7498C54.1379 56.5453 54.4684 56.2462 54.1851 56.0574Z" fill="#C7E1DB"/>
<path fill-rule="evenodd" clip-rule="evenodd" d="M57.3955 53.9328C57.5843 53.9013 57.6316 53.9485 57.7575 53.9642C57.7102 54.0744 57.1594 54.0901 57.427 54.279C57.3483 54.4364 57.2696 54.1846 57.1594 54.2003C57.2381 54.1216 57.427 54.0744 57.3955 53.9328Z" fill="#C7E1DB"/>
<path fill-rule="evenodd" clip-rule="evenodd" d="M54.0423 54.2318C54.42 54.279 54.0423 54.5466 53.9951 54.6725C53.9164 54.6567 53.8535 54.6252 53.7276 54.641C53.9479 54.8298 53.5387 54.7826 53.4915 54.9558C53.523 55.003 53.6646 54.9715 53.6803 55.0502C53.7276 55.2075 53.6174 55.2705 53.3499 55.2705C53.4758 55.003 53.4443 55.0344 53.3026 54.7826C53.3971 54.7826 53.4758 54.7669 53.5702 54.7669C53.5387 54.6567 53.5702 54.5781 53.6331 54.5151C53.4128 54.5466 53.3341 54.5938 53.1925 54.4993C52.9722 54.4993 53.2554 54.7197 52.9407 54.6567C53.0194 54.5466 53.0981 54.4521 53.1767 54.342C53.3184 54.5466 53.4758 54.4207 53.8062 54.3577C53.6489 54.4679 53.8062 54.4836 53.822 54.6095C54.1682 54.6095 54.0423 54.3892 54.0423 54.2318Z" fill="#C7E1DB"/>
<path fill-rule="evenodd" clip-rule="evenodd" d="M57.7731 54.2161C57.6787 54.3577 57.5842 54.3734 57.7101 54.5151C57.5528 54.5151 57.4898 54.5623 57.4583 54.6252C57.4269 54.6095 57.4741 54.2318 57.7731 54.2161Z" fill="#C7E1DB"/>
<path fill-rule="evenodd" clip-rule="evenodd" d="M53.7594 55.1918C54.0899 55.3177 53.6021 55.4594 53.429 55.5066C53.4919 55.5538 53.6335 55.5381 53.6178 55.6482C53.0198 55.5695 53.728 55.3649 53.7594 55.1918Z" fill="#C7E1DB"/>
<path fill-rule="evenodd" clip-rule="evenodd" d="M64.4302 53.6967C64.6033 53.9643 64.2571 54.4049 63.9738 54.6095C63.7535 54.4049 64.3672 54.0429 64.4302 53.6967Z" fill="#C7E1DB"/>
<path fill-rule="evenodd" clip-rule="evenodd" d="M68.6785 53.4921C69.1821 53.5079 68.3795 53.7912 68.8831 53.7754C68.8674 53.8384 68.6628 53.8226 68.5369 53.8384C68.6156 53.6652 68.6313 53.618 68.6785 53.4921Z" fill="#C7E1DB"/>
<path fill-rule="evenodd" clip-rule="evenodd" d="M65.5155 53.8698C65.7044 53.8541 65.5785 54.0429 65.6257 54.1059C65.3582 54.0901 65.4526 54.0744 65.1851 54.1374C65.2323 54.0272 65.4683 53.9957 65.5155 53.8698Z" fill="#C7E1DB"/>
<path fill-rule="evenodd" clip-rule="evenodd" d="M66.1614 54.1374C66.3817 54.1689 66.6178 54.3105 66.3503 54.3734C66.2244 54.342 66.1457 54.2633 66.1614 54.1374Z" fill="#C7E1DB"/>
<path fill-rule="evenodd" clip-rule="evenodd" d="M65.5787 54.6567C65.7832 54.7826 66.0665 55.0974 65.799 55.239C65.6101 55.1603 65.7518 55.0659 65.437 55.1603C65.6416 55.0659 65.6101 54.8613 65.5787 54.6567Z" fill="#C7E1DB"/>
<path fill-rule="evenodd" clip-rule="evenodd" d="M65.5149 56.0416C65.9713 55.9315 65.9871 56.9229 65.4048 56.797C65.4205 56.7341 65.5622 56.7498 65.6723 56.7341C65.452 56.5452 65.7825 56.2305 65.5149 56.0416Z" fill="#C7E1DB"/>
<path fill-rule="evenodd" clip-rule="evenodd" d="M66.428 58.6541C66.6326 58.6698 66.4909 58.8901 66.5381 59.0003C66.3178 58.9531 66.3336 58.8114 66.428 58.6541Z" fill="#C7E1DB"/>
<path fill-rule="evenodd" clip-rule="evenodd" d="M68.7099 53.9328C68.8988 53.9013 68.946 53.9485 69.0719 53.9642C69.0247 54.0744 68.4739 54.0901 68.7414 54.279C68.6627 54.4364 68.584 54.1846 68.4739 54.2003C68.5526 54.1059 68.7414 54.0744 68.7099 53.9328Z" fill="#C7E1DB"/>
<path fill-rule="evenodd" clip-rule="evenodd" d="M65.3585 54.2318C65.7362 54.279 65.3585 54.5466 65.3113 54.6725C65.2326 54.6567 65.1696 54.6252 65.0437 54.641C65.264 54.8298 64.8549 54.7826 64.8077 54.9558C64.8391 55.003 64.9808 54.9715 64.9965 55.0502C65.0437 55.2075 64.9336 55.2705 64.666 55.2705C64.7919 55.003 64.7604 55.0344 64.6188 54.7826C64.7132 54.7826 64.7919 54.7669 64.8863 54.7669C64.8549 54.6567 64.8863 54.5781 64.9493 54.5151C64.729 54.5466 64.6503 54.5938 64.5086 54.4993C64.2883 54.4993 64.5716 54.7197 64.2568 54.6567C64.3355 54.5466 64.4142 54.4521 64.4929 54.342C64.6345 54.5466 64.7919 54.4207 65.1224 54.3577C64.965 54.4679 65.1224 54.4836 65.1381 54.6095C65.4844 54.6095 65.3585 54.3892 65.3585 54.2318Z" fill="#C7E1DB"/>
<path fill-rule="evenodd" clip-rule="evenodd" d="M69.0885 54.2003C68.9941 54.342 68.9154 54.3577 69.0256 54.4993C68.8682 54.4993 68.8052 54.5466 68.7738 54.6095C68.758 54.6095 68.7895 54.2318 69.0885 54.2003Z" fill="#C7E1DB"/>
<path fill-rule="evenodd" clip-rule="evenodd" d="M65.0901 55.1918C65.4206 55.3177 64.9327 55.4594 64.7596 55.5066C64.8226 55.5538 64.9642 55.5381 64.9485 55.6482C64.3347 55.5695 65.0429 55.3649 65.0901 55.1918Z" fill="#C7E1DB"/>
<path fill-rule="evenodd" clip-rule="evenodd" d="M66.3185 49.6837C66.3972 49.8096 66.2398 50.0142 66.1139 50.1086C66.0038 49.9984 66.287 49.841 66.3185 49.6837Z" fill="#C7E1DB"/>
<path fill-rule="evenodd" clip-rule="evenodd" d="M71.8258 51.8869C72.0147 51.8712 71.8888 52.06 71.936 52.123C71.6685 52.1073 71.7629 52.0915 71.4954 52.1545C71.5426 52.0286 71.7786 51.9971 71.8258 51.8869Z" fill="#C7E1DB"/>
<path fill-rule="evenodd" clip-rule="evenodd" d="M72.4714 52.1387C72.6918 52.1702 72.9278 52.3119 72.6603 52.3748C72.5344 52.3433 72.4714 52.2646 72.4714 52.1387Z" fill="#C7E1DB"/>
<path fill-rule="evenodd" clip-rule="evenodd" d="M71.8892 52.6738C72.0938 52.7997 72.3771 53.1144 72.1095 53.2561C71.9207 53.1774 72.0623 53.083 71.7476 53.1774C71.9521 53.083 71.9207 52.8784 71.8892 52.6738Z" fill="#C7E1DB"/>
<path fill-rule="evenodd" clip-rule="evenodd" d="M72.9595 50.9584C73.4159 50.8482 73.4317 51.8397 72.8494 51.7138C72.8651 51.6509 73.0067 51.6666 73.1169 51.6509C72.8966 51.4463 73.2271 51.1472 72.9595 50.9584Z" fill="#C7E1DB"/>
<path fill-rule="evenodd" clip-rule="evenodd" d="M72.7554 56.6711C72.96 56.6869 72.8183 56.9072 72.8655 57.0016C72.6452 56.9701 72.6609 56.8128 72.7554 56.6711Z" fill="#C7E1DB"/>
<path fill-rule="evenodd" clip-rule="evenodd" d="M66.7432 49.9197C66.9163 49.9354 66.7432 50.0613 66.7117 50.1243C66.6803 50.1085 66.6488 50.1085 66.5858 50.1085C66.696 50.1872 66.5072 50.1715 66.4757 50.2502C66.4914 50.2817 66.5544 50.2659 66.5544 50.2974C66.5858 50.3603 66.5229 50.4075 66.397 50.3918C66.4599 50.2659 66.4442 50.2816 66.3813 50.1715C66.4285 50.1715 66.4599 50.1715 66.5072 50.1715C66.4914 50.1243 66.5072 50.0771 66.5386 50.0613C66.4285 50.0771 66.397 50.0928 66.334 50.0456C66.2396 50.0456 66.3655 50.14 66.2239 50.1243C66.2554 50.0771 66.3026 50.0299 66.334 49.9826C66.397 50.0771 66.4757 50.0141 66.6173 49.9826C66.5386 50.0299 66.6173 50.0456 66.6331 50.0928C66.7904 50.0928 66.7432 49.9984 66.7432 49.9197Z" fill="#C7E1DB"/>
<path fill-rule="evenodd" clip-rule="evenodd" d="M66.6178 50.3604C66.7751 50.4233 66.5391 50.4862 66.4604 50.502C66.4919 50.5177 66.5548 50.5177 66.5548 50.5649C66.2715 50.5334 66.5863 50.439 66.6178 50.3604Z" fill="#C7E1DB"/>
<path fill-rule="evenodd" clip-rule="evenodd" d="M61.0142 43.3414C61.0456 43.2469 60.8725 43.0581 61.1715 43.0896C61.0928 43.3886 61.5964 43.4043 61.801 43.2469C61.8955 43.2784 61.8955 43.3571 62.0686 43.3256C61.801 43.5302 61.4233 43.3414 61.0142 43.3414Z" fill="#C7E1DB"/>
<path fill-rule="evenodd" clip-rule="evenodd" d="M62.0535 44.1283C61.7859 44.0968 61.5341 44.3171 61.4397 44.2227C61.5026 44.0496 61.8174 44.1913 62.0377 44.0339C62.0063 44.1126 62.1164 44.1283 62.2266 44.1283C62.0535 44.443 62.384 44.5375 62.2895 44.9152C62.1322 44.8837 62.0535 44.7578 62.1794 44.6791C61.8331 44.805 61.9118 44.5217 61.6285 44.3644C61.7702 44.3486 61.9276 44.3486 62.0692 44.3329C62.0535 44.2542 62.0535 44.1912 62.0535 44.1283Z" fill="#C7E1DB"/>
<path fill-rule="evenodd" clip-rule="evenodd" d="M66.176 45.8909C65.7196 45.828 65.877 46.064 65.7511 46.1584C65.4521 46.064 66.1131 45.5447 66.176 45.8909Z" fill="#C7E1DB"/>
<path fill-rule="evenodd" clip-rule="evenodd" d="M60.8424 47.9053C60.811 47.8423 60.8267 47.4804 60.9369 47.8109C60.8897 47.8423 60.8582 47.8738 60.8424 47.9053Z" fill="#C7E1DB"/>
<path fill-rule="evenodd" clip-rule="evenodd" d="M61.0777 48.2515C60.9991 48.1571 60.9204 48.0626 60.9361 47.9053C61.062 47.9682 61.1407 47.8581 61.2509 47.8266C61.2981 47.9053 61.2666 48.0312 61.1092 48.0784C61.1564 48.1256 61.1879 48.0627 61.3295 48.0941C61.2666 48.1413 61.2666 48.2358 61.3453 48.2673C61.2823 48.3145 61.2509 48.1413 61.0777 48.2515Z" fill="#C7E1DB"/>
<path fill-rule="evenodd" clip-rule="evenodd" d="M60.6528 48.2515C60.9204 48.346 61.2351 48.8338 61.2666 49.1328C61.2823 49.1643 61.361 49.1486 61.424 49.1486C61.361 49.2273 61.3138 49.243 61.1564 49.2273C61.1564 49.3532 61.2509 49.3532 61.125 49.4318C61.1564 49.4633 61.2037 49.4948 61.2823 49.4791C61.2194 50.1243 61.424 50.6122 61.5656 51.0371C61.3925 50.9584 61.4869 51.1473 61.2509 51.1158C61.2823 51.1315 61.3138 51.163 61.3138 51.1945C61.4082 51.1787 61.3453 51.0843 61.5184 51.1C61.4397 51.2417 61.5027 51.3046 61.2194 51.3833C61.062 51.3518 61.4555 51.2102 61.1092 51.2417C61.0463 50.3446 61.062 49.841 61.0148 48.8024C61.0463 48.7237 60.9046 48.7551 60.8417 48.7237C60.9361 48.7079 60.8259 48.582 60.9361 48.5663C60.8889 48.5191 60.8417 48.4719 60.7158 48.4876C60.6843 48.4247 60.7787 48.2673 60.6528 48.2515Z" fill="#C7E1DB"/>
<path fill-rule="evenodd" clip-rule="evenodd" d="M61.0306 45.1827C61.1565 45.1827 61.0935 45.2928 61.1565 45.3086C61.1879 45.2928 61.2194 45.2614 61.2352 45.2299C61.5184 45.3558 61.3296 45.6076 61.4083 45.8122C61.1722 45.765 61.125 46.2843 61.3611 46.3158C61.4083 46.3787 61.2666 46.363 61.2509 46.4102C61.3138 46.4574 61.424 46.4889 61.4712 46.5518C61.4397 46.5361 61.3768 46.5361 61.3138 46.5361C61.3925 46.6305 61.125 46.6935 61.0463 46.7722C61.1565 46.7879 61.1407 46.8666 61.0935 46.9296C60.9991 46.8351 60.9519 46.961 60.9834 47.0555C60.8732 46.9296 60.7316 46.8981 60.7158 46.7564C60.763 46.7564 60.7788 46.7879 60.8417 46.7879C60.9519 46.7092 60.9834 46.5833 60.9361 46.4889C60.9834 46.4574 61.0778 46.4574 61.1407 46.4732C60.9991 46.4102 61.1722 46.2056 60.9047 46.1742C60.9361 46.1269 60.9834 46.0797 60.9676 46.0168C61.125 46.0325 60.9676 46.0797 60.9834 46.1584C61.0148 46.1741 61.062 46.1899 61.1093 46.1899C61.0935 45.9223 61.1093 45.4974 61.0306 45.1827Z" fill="#C7E1DB"/>
<path fill-rule="evenodd" clip-rule="evenodd" d="M59.5508 45.4974C59.6609 45.4502 59.6137 45.3243 59.7396 45.2771C59.7396 45.3715 59.6295 45.4974 59.6767 45.5604C59.6609 45.6076 59.5823 45.5132 59.5508 45.4974Z" fill="#C7E1DB"/>
<path fill-rule="evenodd" clip-rule="evenodd" d="M57.8828 55.1288C57.7254 54.8456 57.7884 54.6882 57.6467 54.4049C57.7569 54.4206 57.8356 54.4521 57.8356 54.5465C57.8985 54.5151 57.9772 54.4836 58.1031 54.4836C57.8513 54.7826 58.0244 54.9872 58.2448 55.2075C58.1661 55.1446 57.8356 54.8141 57.8828 55.1288Z" fill="#C7E1DB"/>
<path fill-rule="evenodd" clip-rule="evenodd" d="M58.1189 55.8056C58.3393 55.6954 58.0402 56.0102 57.7727 55.9787C57.8357 55.9315 57.8514 55.8685 57.8514 55.7741C57.9773 55.7426 58.0717 55.963 58.1189 55.8056Z" fill="#C7E1DB"/>
<path fill-rule="evenodd" clip-rule="evenodd" d="M64.8239 54.0587C65.0128 54.2004 64.9971 54.279 65.2174 54.4836C65.1387 54.5151 65.06 54.5308 65.0443 54.5938C64.8397 54.6253 65.0757 54.3735 64.761 54.4679C64.8711 54.2948 64.7767 54.279 64.8239 54.0587Z" fill="#C7E1DB"/>
<path fill-rule="evenodd" clip-rule="evenodd" d="M68.0815 46.7722C68.2703 46.8508 68.3648 47.0554 67.9241 47.024C67.8454 46.8823 68.1602 46.9138 68.0815 46.7722Z" fill="#C7E1DB"/>
<path fill-rule="evenodd" clip-rule="evenodd" d="M53.4923 55.6482C53.6654 55.9157 53.3192 56.3564 53.0359 56.561C52.7998 56.3564 53.4136 55.9944 53.4923 55.6482Z" fill="#C7E1DB"/>
<path fill-rule="evenodd" clip-rule="evenodd" d="M57.7254 55.4436C58.229 55.4593 57.4264 55.7426 57.93 55.7269C57.9142 55.7898 57.7096 55.7741 57.5837 55.7898C57.6624 55.601 57.6782 55.5695 57.7254 55.4436Z" fill="#C7E1DB"/>
<path fill-rule="evenodd" clip-rule="evenodd" d="M54.5622 55.8213C54.751 55.8056 54.6094 55.9944 54.6723 56.0574C54.4048 56.0416 54.4992 56.0259 54.2317 56.0889C54.2789 55.9787 54.515 55.9472 54.5622 55.8213Z" fill="#C7E1DB"/>
<path fill-rule="evenodd" clip-rule="evenodd" d="M55.2078 56.0889C55.4281 56.1203 55.6642 56.262 55.3966 56.3249C55.2707 56.2777 55.2078 56.199 55.2078 56.0889Z" fill="#C7E1DB"/>
<path fill-rule="evenodd" clip-rule="evenodd" d="M54.6255 56.6082C54.8301 56.7341 55.1134 57.0489 54.8459 57.1905C54.657 57.1118 54.7986 57.0174 54.4839 57.1118C54.6885 57.0174 54.657 56.8128 54.6255 56.6082Z" fill="#C7E1DB"/>
<path fill-rule="evenodd" clip-rule="evenodd" d="M57.6309 43.9552C58.0873 43.845 58.103 44.8365 57.5208 44.7106C57.5365 44.6476 57.6781 44.6634 57.7883 44.6476C57.5837 44.4588 57.9142 44.144 57.6309 43.9552Z" fill="#C7E1DB"/>
<path fill-rule="evenodd" clip-rule="evenodd" d="M58.5591 46.5676C58.7637 46.5834 58.622 46.8037 58.6692 46.9139C58.4489 46.8666 58.4647 46.725 58.5591 46.5676Z" fill="#C7E1DB"/>
<path fill-rule="evenodd" clip-rule="evenodd" d="M57.7568 55.8842C57.9457 55.8528 57.9929 55.9 58.1188 55.9157C58.0716 56.0259 57.5208 56.0416 57.7883 56.2305C57.7096 56.3878 57.6309 56.136 57.5208 56.1518C57.6152 56.0574 57.804 56.0259 57.7568 55.8842Z" fill="#C7E1DB"/>
<path fill-rule="evenodd" clip-rule="evenodd" d="M54.4205 56.1833C54.7982 56.2305 54.4205 56.498 54.3733 56.6239C54.2946 56.6082 54.2316 56.5767 54.1057 56.5925C54.3261 56.7813 53.9169 56.7341 53.8697 56.9072C53.9011 56.9544 54.0428 56.9229 54.0585 57.0016C54.1057 57.159 53.9956 57.222 53.728 57.222C53.8539 56.9544 53.8225 56.9859 53.6808 56.7341C53.7752 56.7341 53.8539 56.7184 53.9484 56.7184C53.9169 56.6082 53.9484 56.5295 54.0113 56.4666C53.791 56.498 53.7123 56.5453 53.5706 56.4508C53.3503 56.4508 53.6336 56.6711 53.3188 56.6082C53.3975 56.498 53.4762 56.4036 53.5549 56.2934C53.6966 56.498 53.8539 56.3721 54.1844 56.3092C54.027 56.4194 54.1844 56.4351 54.2002 56.561C54.5306 56.5452 54.4205 56.3407 54.4205 56.1833Z" fill="#C7E1DB"/>
<path fill-rule="evenodd" clip-rule="evenodd" d="M58.1348 56.1518C58.0404 56.2934 57.946 56.3092 58.0719 56.4508C57.9145 56.4508 57.8515 56.498 57.8201 56.561C57.8043 56.561 57.8515 56.1675 58.1348 56.1518Z" fill="#C7E1DB"/>
<path fill-rule="evenodd" clip-rule="evenodd" d="M54.1367 57.1275C54.4672 57.2534 53.9794 57.3951 53.8062 57.4423C53.8692 57.4895 54.0108 57.4737 53.9951 57.5839C53.3813 57.5052 54.0895 57.3164 54.1367 57.1275Z" fill="#C7E1DB"/>
<path fill-rule="evenodd" clip-rule="evenodd" d="M64.9016 53.9958C64.7442 53.7125 64.8072 53.5551 64.6655 53.2719C64.7757 53.2876 64.8544 53.3191 64.8544 53.4135C64.9173 53.382 64.996 53.3505 65.1219 53.3505C64.8701 53.6496 65.0432 53.8542 65.2636 54.0745C65.1849 54.0115 64.8701 53.681 64.9016 53.9958Z" fill="#C7E1DB"/>
<path fill-rule="evenodd" clip-rule="evenodd" d="M65.1377 54.6725C65.3581 54.5623 65.059 54.8771 64.7915 54.8456C64.8545 54.7984 64.8702 54.7354 64.8702 54.641C64.9961 54.6095 65.1063 54.8299 65.1377 54.6725Z" fill="#C7E1DB"/>
<path fill-rule="evenodd" clip-rule="evenodd" d="M60.1651 55.9315C60.2438 55.9158 60.2438 55.9472 60.2595 55.9787C60.3225 55.9787 60.3697 55.9787 60.4327 55.963C60.0392 56.0574 60.4799 56.5453 59.8661 56.5453C59.8189 56.4351 59.992 56.4508 60.1179 56.4351C60.1809 56.2148 60.1179 56.0574 60.1651 55.9315Z" fill="#C7E1DB"/>
<path fill-rule="evenodd" clip-rule="evenodd" d="M64.1617 53.3348C64.1775 53.4135 64.0516 53.4292 64.0673 53.5236C64.0044 53.4607 63.8155 53.3977 63.8942 53.3033C63.7998 53.3033 63.784 53.3505 63.6896 53.3505C63.6896 53.2404 63.7526 53.2404 63.6739 53.1459C63.6109 53.1617 63.5637 53.1931 63.5795 53.2404C63.4221 53.2089 63.548 53.1459 63.3591 53.0987C63.3749 53.0358 63.5952 53.083 63.6267 53.1145C63.6896 53.0673 63.7683 53.0358 63.7683 52.9571C63.8313 52.9728 63.8313 53.02 63.9257 53.0043C64.0044 53.1774 63.9414 53.2561 64.1617 53.3348Z" fill="#C7E1DB"/>
<path fill-rule="evenodd" clip-rule="evenodd" d="M58.3557 47.3387C58.3557 47.3072 58.4029 47.323 58.4029 47.3387C58.4501 47.323 58.4343 47.2915 58.5288 47.2915C58.513 47.3702 58.4186 47.4017 58.3714 47.4646C58.2455 47.5276 58.4501 47.323 58.3557 47.3387Z" fill="#C7E1DB"/>
<path fill-rule="evenodd" clip-rule="evenodd" d="M59.3466 47.4804C59.4253 47.5119 59.5355 47.5276 59.5197 47.6063C59.3151 47.5276 59.5984 47.7322 59.4883 47.8109C59.504 47.8266 59.6771 47.8581 59.6456 47.8266C59.5827 47.9211 59.6299 48.283 59.4568 48.4246C59.7243 48.4561 59.3781 48.5978 59.6299 48.6135C59.6299 48.6607 59.4883 48.6292 59.4725 48.6765C59.6142 48.7709 59.4096 48.9125 59.4568 48.9912C59.4411 49.0227 59.1263 48.9755 59.2994 49.0699C59.142 49.1171 59.205 48.9597 59.3624 48.9283C59.3309 48.8338 59.3624 48.7709 59.4253 48.6765C59.4096 48.645 59.3466 48.6292 59.2522 48.645C59.2679 48.5191 59.3466 48.5034 59.2365 48.3932C59.6771 48.4089 59.2207 48.0784 59.5197 47.9368C59.3781 47.8424 59.441 47.6693 59.3466 47.4804Z" fill="#C7E1DB"/>
<path fill-rule="evenodd" clip-rule="evenodd" d="M62.305 47.7794C62.3837 47.7951 62.3994 47.8423 62.3994 47.9053C62.5096 47.921 62.4938 47.8738 62.604 47.8738C62.604 47.9997 62.7142 48.0627 62.7928 48.1413C62.541 48.0941 62.6827 48.6135 62.3522 48.6607C62.3837 48.6764 62.3994 48.7079 62.3994 48.7551C62.2892 48.8023 62.2263 48.8653 62.2106 48.9754C61.9273 49.1013 61.8801 49.3531 61.6283 49.4476C61.6912 49.3846 61.5811 49.2587 61.5811 49.2902C61.4394 48.8967 61.943 48.1886 61.3922 47.921C61.345 47.9997 61.5968 48.0469 61.5338 48.2043C61.4079 48.0941 61.2191 48.0941 61.1089 47.9367C60.9988 47.9367 61.1719 48.0784 60.9988 48.0626C60.9201 48.0312 61.0302 47.984 60.983 47.9053C61.2663 47.984 61.2034 47.6692 61.1561 47.6063C61.2348 47.6063 61.2191 47.6692 61.3293 47.6377C61.3607 47.7164 61.2348 47.7794 61.345 47.8423C61.6125 47.7322 61.4237 47.5748 61.4709 47.4017C61.5181 47.5748 61.943 47.7007 62.0847 47.8895C62.0532 47.984 62.0532 48.1099 62.2578 48.1099C62.242 48.1571 62.1161 48.1571 62.1476 48.2358C62.2263 48.2987 62.3679 48.22 62.3207 48.3774C62.3522 48.4089 62.4151 48.4089 62.4938 48.4089C62.6669 48.3302 62.4151 48.1099 62.6355 48.1571C62.6512 48.1099 62.5568 48.1256 62.541 48.0941C62.4466 48.0941 62.5725 48.1886 62.4309 48.1728C62.3522 48.1413 62.3994 48.0626 62.541 48.0784C62.4938 47.921 62.305 47.921 62.305 47.7794Z" fill="#C7E1DB"/>
<path fill-rule="evenodd" clip-rule="evenodd" d="M59.0482 47.7794C59.1427 47.7794 59.001 47.8424 59.064 47.8896C58.9381 47.921 58.9538 47.9053 58.8594 47.8738C58.9223 47.8424 59.0325 47.8738 59.0482 47.7794Z" fill="#C7E1DB"/>
<path fill-rule="evenodd" clip-rule="evenodd" d="M59.2055 48.7236C59.1898 48.8181 59.2055 48.9125 59.1426 49.0227C59.1426 48.9912 59.0482 48.7394 59.2055 48.7236Z" fill="#C7E1DB"/>
<path fill-rule="evenodd" clip-rule="evenodd" d="M60.9356 48.9912C60.5894 48.9912 60.9356 48.7237 60.9828 48.5978C60.9986 48.7552 61.0301 48.8968 60.9356 48.9912Z" fill="#C7E1DB"/>
<path fill-rule="evenodd" clip-rule="evenodd" d="M62.5726 52.1387C62.4624 52.1702 62.5254 52.0443 62.3051 52.06C62.4782 52.0128 62.3995 51.8397 62.667 51.824C62.5726 51.6666 62.3838 51.5722 61.9588 51.6351C61.5811 51.3519 61.8644 50.9269 62.2106 50.7223C62.8559 50.5807 63.3438 50.6909 63.4539 50.9112C63.627 51.2574 62.9031 51.6824 63.2179 51.9342C63.1392 52.0443 63.1549 52.3276 62.9975 52.485C62.8244 52.4692 62.8716 52.485 62.6828 52.5007C62.6356 52.3905 62.7142 52.1859 62.4467 52.2174C62.4467 52.2017 62.4939 52.1702 62.5726 52.1387Z" fill="#C7E1DB"/>
<defs>
<radialGradient id="paint0_radial_1737_3396" cx="0" cy="0" r="1" gradientUnits="userSpaceOnUse" gradientTransform="translate(61.363 45.6353) rotate(-8.06893) scale(45.6431)">
<stop stop-color="#9A13FC"/>
<stop offset="0.0267" stop-color="#9312F1"/>
<stop offset="0.1849" stop-color="#6D0DB2"/>
<stop offset="0.3415" stop-color="#4C097C"/>
<stop offset="0.4926" stop-color="#30064F"/>
<stop offset="0.637" stop-color="#1B032D"/>
<stop offset="0.7731" stop-color="#0C0214"/>
<stop offset="0.8977" stop-color="#030005"/>
<stop offset="1"/>
</radialGradient>
<radialGradient id="paint1_radial_1737_3396" cx="0" cy="0" r="1" gradientUnits="userSpaceOnUse" gradientTransform="translate(55.0827 38.658) scale(28.8126)">
<stop stop-color="#D4BDF0"/>
<stop offset="1" stop-color="#A190F0"/>
</radialGradient>
</defs>
</svg>
