<svg width="54" height="54" viewBox="0 0 54 54" fill="none" xmlns="http://www.w3.org/2000/svg">
<g clip-path="url(#clip0_2732_55221)">
<path d="M3.15483 0.078125C2.33884 0.078125 1.55626 0.402277 0.979271 0.979271C0.402277 1.55626 0.078125 2.33884 0.078125 3.15483V15.4616H15.4616V0.078125H3.15483ZM11.6158 11.6158H3.924V3.924H11.6158V11.6158Z" fill="#D7D4ED"/>
<path d="M0.078125 50.8439C0.078125 51.6599 0.402277 52.4425 0.979271 53.0195C1.55626 53.5965 2.33884 53.9206 3.15483 53.9206H15.4616V38.5371H0.078125V50.8439ZM3.924 42.383H11.6158V50.0747H3.924V42.383Z" fill="#D7D4ED"/>
<path d="M38.5371 53.9206H50.8439C51.6599 53.9206 52.4425 53.5965 53.0195 53.0195C53.5965 52.4425 53.9206 51.6599 53.9206 50.8439V38.5371H38.5371V53.9206ZM42.383 42.383H50.0747V50.0747H42.383V42.383Z" fill="#D7D4ED"/>
<path d="M50.8439 0.078125H38.5371V15.4616H53.9206V3.15483C53.9206 2.33884 53.5965 1.55626 53.0195 0.979271C52.4425 0.402277 51.6599 0.078125 50.8439 0.078125ZM50.0747 11.6158H42.383V3.924H50.0747V11.6158Z" fill="#D7D4ED"/>
<path d="M30.8441 11.6159V7.77002H23.1523V15.4618H26.9982V11.6159H30.8441Z" fill="#D7D4ED"/>
<path d="M15.4609 15.4614H19.3068V19.3073H15.4609V15.4614Z" fill="#D7D4ED"/>
<path d="M19.3086 19.3076H27.0003V23.1535H19.3086V19.3076Z" fill="#D7D4ED"/>
<path d="M30.8462 3.924V7.76988H34.6921V0.078125H19.3086V7.76988H23.1545V3.924H30.8462Z" fill="#D7D4ED"/>
<path d="M0.078125 19.3076H3.924V26.9994H0.078125V19.3076Z" fill="#D7D4ED"/>
<path d="M15.4616 23.1535V26.9994H11.6158V19.3076H7.76988V26.9994H3.924V30.8453H0.078125V34.6911H7.76988V30.8453H11.6158V34.6911H15.4616V30.8453H19.3075V23.1535H15.4616Z" fill="#D7D4ED"/>
<path d="M30.8459 23.1534H34.6918V26.9992H38.5376V23.1534H42.3835V19.3075H34.6918V11.6157H30.8459V15.4616H27V19.3075H30.8459V23.1534Z" fill="#D7D4ED"/>
<path d="M27.0003 50.0744H19.3086V53.9203H34.6921V50.0744H30.8462V46.2285H27.0003V50.0744Z" fill="#D7D4ED"/>
<path d="M34.69 30.8451V26.9992H30.8441V23.1533H26.9982V26.9992H23.1523V30.8451H26.9982V34.691H30.8441V30.8451H34.69Z" fill="#D7D4ED"/>
<path d="M50.0742 30.8452H53.9201V34.6911H50.0742V30.8452Z" fill="#D7D4ED"/>
<path d="M34.6914 30.8452H46.229V34.6911H34.6914V30.8452Z" fill="#D7D4ED"/>
<path d="M50.0746 19.3076H46.2287V23.1535H42.3828V26.9994H46.2287V30.8453H50.0746V26.9994H53.9205V23.1535H50.0746V19.3076Z" fill="#D7D4ED"/>
<path d="M30.8457 34.6909H34.6916V46.2286H30.8457V34.6909Z" fill="#D7D4ED"/>
<path d="M19.3086 46.2287H23.1545V42.3829H27.0003V38.537H23.1545V30.8452H19.3086V46.2287Z" fill="#D7D4ED"/>
</g>
<defs>
<clipPath id="clip0_2732_55221">
<rect width="53.7097" height="53.7097" fill="white" transform="translate(0.144531 0.144531)"/>
</clipPath>
</defs>
</svg>
