<svg width="18" height="18" viewBox="0 0 18 18" fill="none" xmlns="http://www.w3.org/2000/svg">
<path d="M7.5 13.5H10.5" stroke="#BE8CF0" stroke-width="1.5" stroke-linecap="round" stroke-linejoin="round"/>
<path fill-rule="evenodd" clip-rule="evenodd" d="M12.7341 2.25H5.26562C4.85162 2.25 4.51563 2.586 4.51563 3V4.7835C4.51563 5.09925 4.61537 5.4075 4.80062 5.66325L7.21562 9L4.80062 12.3368C4.61537 12.5925 4.51562 12.9007 4.51562 13.2165V15C4.51562 15.414 4.85162 15.75 5.26562 15.75H12.7334C13.1474 15.75 13.4834 15.414 13.4834 15V13.2435C13.4834 12.9105 13.3724 12.5873 13.1684 12.324L10.5906 9L13.1691 5.67525C13.3731 5.412 13.4841 5.08875 13.4841 4.75575V3C13.4841 2.586 13.1481 2.25 12.7341 2.25Z" stroke="#BE8CF0" stroke-width="1.5" stroke-linecap="round" stroke-linejoin="round"/>
</svg>
