<svg width="14" height="16" viewBox="0 0 14 16" fill="none" xmlns="http://www.w3.org/2000/svg">
<path fill-rule="evenodd" clip-rule="evenodd" d="M9.25 13.55V7.14725C9.25 6.8285 9.12325 6.52325 8.89825 6.29825L7.20175 4.60175C6.97675 4.37675 6.6715 4.25 6.35275 4.25H2.2C1.537 4.25 1 4.787 1 5.45V13.55C1 14.213 1.537 14.75 2.2 14.75H8.05C8.713 14.75 9.25 14.213 9.25 13.55Z" stroke="#D7D4ED" stroke-width="1.5" stroke-linecap="round" stroke-linejoin="round"/>
<path d="M9.25 11.7505H11.8C12.463 11.7505 13 11.2135 13 10.5505V4.14774C13 3.82899 12.8732 3.52374 12.6482 3.29874L10.9518 1.60224C10.7268 1.37724 10.4215 1.25049 10.1027 1.25049H5.95C5.287 1.25049 4.75 1.78749 4.75 2.45049V4.25049" stroke="#D7D4ED" stroke-width="1.5" stroke-linecap="round" stroke-linejoin="round"/>
<path d="M13 4.25049H10.6C10.2685 4.25049 10 3.98199 10 3.65049V1.25049" stroke="#D7D4ED" stroke-width="1.5" stroke-linecap="round" stroke-linejoin="round"/>
<path d="M9.25 7.25H6.85C6.5185 7.25 6.25 6.9815 6.25 6.65V4.25" stroke="#D7D4ED" stroke-width="1.5" stroke-linecap="round" stroke-linejoin="round"/>
</svg>
