<svg width="148" height="148" viewBox="0 0 148 148" fill="none" xmlns="http://www.w3.org/2000/svg">
<path d="M138.75 37.1367H9.25C4.15325 37.1367 0 41.2793 0 46.3629V129.399C0 134.492 4.15325 138.625 9.25 138.625H138.75C143.856 138.625 148 134.492 148 129.399V46.3629C148 41.2793 143.856 37.1367 138.75 37.1367Z" fill="#8D87B5"/>
<path d="M148 55.5898H0V83.2685H148V55.5898Z" fill="#3F3C57"/>
<path d="M41.625 110.947H23.125C20.572 110.947 18.5 108.88 18.5 106.334C18.5 103.787 20.572 101.721 23.125 101.721H41.625C44.178 101.721 46.25 103.787 46.25 106.334C46.25 108.88 44.178 110.947 41.625 110.947Z" fill="#101126"/>
<path d="M148 82.7696V46.3629C148 41.2793 143.856 37.1367 138.75 37.1367H64.75V46.3629C64.75 75.2595 75.776 92.8539 104.118 109.129C106.208 110.319 108.595 110.946 111 110.946C113.405 110.946 115.791 110.319 117.91 109.11C131.933 101.074 141.701 92.6878 148 82.7696Z" fill="#101126"/>
<path d="M145.197 23.6759L112.822 9.83655C111.647 9.33834 110.343 9.33834 109.168 9.83655L76.7935 23.6759C75.1008 24.3955 74 26.0655 74 27.9107V46.3632C74 71.7445 83.4073 86.5803 108.697 101.112C109.409 101.518 110.204 101.72 111 101.72C111.796 101.72 112.591 101.518 113.303 101.112C138.593 86.6172 148 71.7814 148 46.3632V27.9107C148 26.0655 146.899 24.3955 145.197 23.6759Z" fill="#15CF74"/>
<path d="M106.375 69.4296C106.31 69.4296 106.236 69.4296 106.18 69.4296C104.71 69.365 103.35 68.6084 102.527 67.3814L93.2767 53.542C91.8614 51.42 92.4349 48.5599 94.5624 47.1482C96.6714 45.7459 99.5482 46.2994 100.973 48.4307L106.717 57.0203L121.258 38.8815C122.858 36.8979 125.772 36.5842 127.761 38.1619C129.759 39.758 130.073 42.6551 128.482 44.6479L109.982 67.7135C109.103 68.793 107.771 69.4296 106.375 69.4296Z" fill="#FAFAFA"/>
</svg>
