<svg width="20" height="21" viewBox="0 0 20 21" fill="none" xmlns="http://www.w3.org/2000/svg">
<path fill-rule="evenodd" clip-rule="evenodd" d="M0.261108 4.34961C0.261108 3.9354 0.596895 3.59961 1.01111 3.59961H17.0111C17.7405 3.59961 18.4399 3.88934 18.9557 4.40507C19.4714 4.92079 19.7611 5.62026 19.7611 6.34961V15.8496C19.7611 16.7116 19.4187 17.5382 18.8092 18.1477C18.1997 18.7572 17.3731 19.0996 16.5111 19.0996H11.0111C10.5969 19.0996 10.2611 18.7638 10.2611 18.3496C10.2611 17.9354 10.5969 17.5996 11.0111 17.5996H16.5111C16.9752 17.5996 17.4204 17.4152 17.7485 17.087C18.0767 16.7589 18.2611 16.3137 18.2611 15.8496V6.34961C18.2611 6.01809 18.1294 5.70015 17.895 5.46573C17.6606 5.23131 17.3426 5.09961 17.0111 5.09961H1.01111C0.596895 5.09961 0.261108 4.76382 0.261108 4.34961Z" fill="#D7D4ED"/>
<path fill-rule="evenodd" clip-rule="evenodd" d="M1.21301 1.55151C1.8225 0.942019 2.64915 0.599609 3.51111 0.599609H13.0111C13.7405 0.599609 14.4399 0.889341 14.9557 1.40507C15.4714 1.92079 15.7611 2.62026 15.7611 3.34961V4.34961C15.7611 4.76382 15.4253 5.09961 15.0111 5.09961C14.5969 5.09961 14.2611 4.76382 14.2611 4.34961V3.34961C14.2611 3.01809 14.1294 2.70015 13.895 2.46573C13.6606 2.23131 13.3426 2.09961 13.0111 2.09961H3.51111C3.04698 2.09961 2.60186 2.28398 2.27367 2.61217C1.94548 2.94036 1.76111 3.38548 1.76111 3.84961V12.3496C1.76111 12.7638 1.42532 13.0996 1.01111 13.0996C0.596895 13.0996 0.261108 12.7638 0.261108 12.3496V3.84961C0.261108 2.98766 0.603518 2.16101 1.21301 1.55151Z" fill="#D7D4ED"/>
<path fill-rule="evenodd" clip-rule="evenodd" d="M4.51111 20.5996C4.09689 20.5996 3.76111 20.2638 3.76111 19.8496L3.76111 12.8496C3.76111 12.4354 4.09689 12.0996 4.51111 12.0996C4.92532 12.0996 5.26111 12.4354 5.26111 12.8496V19.8496C5.26111 20.2638 4.92532 20.5996 4.51111 20.5996Z" fill="#0CD29E"/>
<path fill-rule="evenodd" clip-rule="evenodd" d="M1.98078 15.3799C1.68789 15.087 1.68789 14.6122 1.98078 14.3193L3.98078 12.3193C4.27367 12.0264 4.74855 12.0264 5.04144 12.3193L7.04144 14.3193C7.33433 14.6122 7.33433 15.087 7.04144 15.3799C6.74855 15.6728 6.27367 15.6728 5.98078 15.3799L4.51111 13.9103L3.04144 15.3799C2.74855 15.6728 2.27367 15.6728 1.98078 15.3799Z" fill="#0CD29E"/>
<path fill-rule="evenodd" clip-rule="evenodd" d="M12.2611 11.3496C12.2611 10.9354 12.5969 10.5996 13.0111 10.5996H15.0111C15.4253 10.5996 15.7611 10.9354 15.7611 11.3496C15.7611 11.7638 15.4253 12.0996 15.0111 12.0996H13.0111C12.5969 12.0996 12.2611 11.7638 12.2611 11.3496Z" fill="#D7D4ED"/>
</svg>
