<svg width="25" height="24" viewBox="0 0 25 24" fill="none" xmlns="http://www.w3.org/2000/svg">
<path d="M16.5 12C16.5 14.209 14.709 16 12.5 16C10.291 16 8.5 14.209 8.5 12C8.5 9.791 10.291 8 12.5 8C14.709 8 16.5 9.791 16.5 12ZM16.5 12V13.5C16.5 14.881 17.619 16 19 16C20.381 16 21.5 14.881 21.5 13.5V12C21.5 7.029 17.471 3 12.5 3C7.529 3 3.5 7.029 3.5 12C3.5 16.971 7.529 21 12.5 21C13.649 21 14.817 20.782 15.944 20.315C16.552 20.063 17.114 19.747 17.633 19.386" stroke="#7A7982" stroke-width="1.5" stroke-linecap="round" stroke-linejoin="round"/>
</svg>
