<svg width="624" height="412" viewBox="0 0 624 412" fill="none" xmlns="http://www.w3.org/2000/svg">
<path d="M142.55 253.213L178.627 229.621C179.54 229.02 180.697 228.865 181.743 229.176L289.128 261.87C290.33 262.226 291.131 263.339 291.109 264.586C290.864 274.801 289.841 319.224 289.841 334.18C289.841 351.139 264.669 366.451 260.351 369.234C252.629 374.219 226.366 390.866 200.149 387.261C200.149 387.261 154.19 355.524 148.693 345.308C143.017 334.737 140.458 320.871 140.458 305.425V257.085C140.458 255.527 141.259 254.058 142.55 253.213Z" fill="#A180FF"/>
<path d="M142.906 255.416L255.077 293.853C256.568 294.364 257.592 295.789 257.592 297.369V349.315C257.592 366.274 237.472 375.933 233.155 378.715C225.432 383.7 203.999 392.18 187.797 383.945C173.286 376.578 154.146 355.524 148.671 345.309C142.995 334.737 140.436 320.871 140.436 305.426V257.175C140.458 255.906 141.705 255.016 142.906 255.416Z" fill="#D3BBFA"/>
<path d="M211.166 320.982C211.166 330.152 203.799 334.692 195.631 331.888C186.951 328.928 179.874 319.202 179.874 310.032C179.874 300.863 186.973 295.677 195.631 298.682C205.067 301.931 211.166 311.813 211.166 320.982Z" fill="#8D71FF"/>
<path d="M191.001 326.324L185.437 347.289C185.059 348.692 185.816 350.138 187.196 350.628L202.997 356.303C204.311 356.77 205.646 355.702 205.468 354.322L202.308 330.041L191.001 326.324Z" fill="#8D71FF"/>
<path d="M220.268 163.877C206.091 160.249 192.137 162.675 181.988 170.532C173.664 176.986 168.79 186.534 168.078 197.662L167.967 200.6V242.708C167.967 248.851 168.656 252.768 176.201 255.55C182.7 257.953 190.378 252.968 190.378 248.317L190.245 209.858C190.245 204.383 190.2 192.187 195.653 188.114C200.305 184.642 207.382 183.551 214.727 185.443C229.282 189.182 244.728 203.938 244.728 223.968V265.854C244.505 272.687 246.219 278.874 255.967 280.098C262.065 280.855 267.028 276.849 267.028 270.55V223.968C267.028 196.104 247.354 170.821 220.268 163.877Z" fill="#6543C7"/>
<path d="M586.18 103.853C571.914 103.385 559.362 94.1934 554.02 80.951L552.529 77.2343C552.151 76.2773 552.596 75.209 553.553 74.8084L562.166 71.3364C563.123 70.9581 564.191 71.4032 564.592 72.3602L566.127 76.166C569.599 84.7346 577.745 90.7214 586.981 90.8772C600.891 91.1221 612.042 78.7699 609.772 64.4816C608.102 53.9767 598.933 45.3414 587.449 45.4971C583.242 45.5639 581.573 45.742 581.551 45.742L570.957 46.966C567.93 47.3221 566.261 43.5831 568.531 41.5578L597.33 15.7408C593.213 15.9856 588.784 16.1414 584.222 16.1414C567.24 16.1414 554.554 12.8475 554.554 12.8475C553.553 12.6695 552.863 11.7125 553.041 10.6887L554.666 1.54143C554.844 0.539912 555.801 -0.150024 556.824 0.0280241C556.824 0.0280241 568.598 3.12162 584.644 3.12162C595.862 3.12162 606.99 2.12009 616.07 0.962778C622.213 0.183816 625.685 7.77313 621.078 11.8905L596.819 33.6569C610.506 37.3069 621.144 49.2807 622.836 63.9252C625.373 85.9141 607.813 104.565 586.18 103.853Z" fill="#4A90F4"/>
<path d="M234.846 53.6199C234.868 52.9968 234.89 52.3958 234.89 51.7727C234.89 23.1959 211.722 0.0273438 183.145 0.0273438C161.623 0.0273438 143.173 13.1584 135.384 31.8535C128.328 26.2005 119.359 22.7953 109.611 22.7953C86.8431 22.7953 68.3928 41.2233 68.3261 63.969C61.5157 58.3382 52.7914 54.9553 43.2658 54.9553C21.5439 54.9553 0 93.2134 0 114.935C0 127.287 5.54176 132.785 43.2658 133.608C64.6538 134.076 201.529 133.497 220.468 133.608C257.057 133.808 270.745 127.065 272.792 113.8C276.977 86.7147 260.084 56.8916 234.846 53.6199Z" fill="url(#paint0_linear_2667_106580)"/>
<path d="M227.724 75.8767C217.152 73.5621 207.004 74.4523 196.454 77.2788C186.261 79.9718 176.669 84.3118 166.809 87.6947C161.935 89.5419 156.75 90.1428 151.586 89.809C143.307 89.2749 136.074 86.6264 131.355 83.5105C132.713 81.5965 133.826 79.4599 134.382 77.0785C135.584 72.0264 132.49 67.2414 128.462 67.0411C123.633 66.7962 122.208 73.1392 123.855 77.3679C124.923 80.0386 126.949 82.0194 129.063 83.6441C129.063 83.6441 129.063 83.6441 129.085 83.6441C125.992 87.4721 121.518 90.7215 117.401 92.5242C112.772 94.5495 107.564 95.373 102.912 93.459C95.6789 90.4767 89.1579 81.552 77.8073 74.942C68.7936 69.645 57.7546 66.4179 47.1607 67.2191C34.9866 68.1093 25.1272 74.0517 19.6967 82.3977C13.3983 91.9678 13.5318 103.786 18.6952 113.623C24.3705 123.972 34.9644 126.843 46.8491 126.932C60.7591 126.977 78.0299 123.06 93.6313 119.899C112.504 116.049 136.808 111.197 155.147 116.116C165.363 118.875 173.353 124.506 178.805 133.765C183.991 142.489 186.15 153.105 187.085 163.143V163.165C187.151 163.966 187.863 164.545 188.665 164.478C189.466 164.411 190.045 163.699 189.978 162.898C188.999 152.371 186.706 141.443 181.276 132.318C175.6 122.726 167.143 116.427 155.904 113.423C137.008 108.371 112.527 113.267 93.0972 117.228C77.3622 120.433 60.4698 124.306 46.8714 124.261C36.144 124.217 26.2623 121.858 21.0321 112.377C16.2916 103.407 16.0467 92.6355 21.7888 83.7776C27.3083 75.1868 37.0342 70.3572 47.3387 69.556C57.4207 68.7548 68.0369 71.7816 76.739 76.8337C88.0228 83.3325 94.4103 92.1681 102.178 95.3062C107.363 97.4206 113.061 96.5526 118.158 94.2602C122.987 92.1014 127.238 88.8075 130.532 84.6456C135.517 87.8727 142.995 90.5434 151.542 91.0331C155.459 91.2334 159.532 90.9441 163.404 89.9425C164.695 89.6087 165.941 89.1636 167.188 88.7407C177.092 85.2688 186.639 80.9066 196.721 78.1913C207.137 75.3426 217.13 74.4301 227.568 76.6557C227.791 76.7002 227.991 76.5666 228.036 76.3441C228.08 76.1438 227.947 75.9212 227.724 75.8767ZM129.931 82.509C127.928 80.9733 126.103 79.1038 125.257 76.8337C124.1 73.7846 124.79 68.3764 128.395 68.6435C131.2 68.7993 133.804 72.427 132.757 76.7224C132.268 78.7032 131.289 80.684 129.931 82.509C129.931 82.5313 129.931 82.5313 129.931 82.509Z" fill="#BE8CF0"/>
<path d="M147.024 123.838C148.226 123.727 153.055 123.705 159.888 123.771C164.117 101.048 184.036 83.8441 207.983 83.8441C218.421 83.8441 228.081 87.1157 236.026 92.6797C242.814 62.0999 270.055 39.2207 302.683 39.2207C337.87 39.2207 366.847 65.8389 370.564 100.046C389.682 98.5553 403.124 111.175 406.997 129.246C416.144 121.479 427.984 116.761 440.915 116.805C484.114 116.939 514.761 161.273 514.761 202.647C514.761 219.984 503.076 228.33 440.915 228.33C415.61 228.33 175.846 228.33 147.002 228.33C110.836 228.33 94.1213 216.735 94.1213 195.458C94.1436 166.614 110.658 127.043 147.024 123.838Z" fill="url(#paint1_linear_2667_106580)"/>
<path d="M562.077 177.098C560.942 177.098 559.807 177.165 558.672 177.254C558.56 148.165 534.947 124.618 505.836 124.618C482.511 124.618 462.748 139.73 455.737 160.673C448.549 156.2 440.069 153.596 430.989 153.596C407.842 153.596 388.635 170.377 384.83 192.455C378.309 186.379 369.562 182.684 359.925 182.684C339.717 182.684 316.748 205.897 316.904 235.72C316.949 245.847 318.952 255.884 359.925 255.884C376.306 255.884 543.983 255.884 562.055 255.884C598.243 255.884 600.602 249.564 602.561 235.298C605.877 211.439 590.053 177.098 562.077 177.098Z" fill="url(#paint2_linear_2667_106580)"/>
<path d="M431.5 136.681C426.515 136.747 421.596 137.66 416.833 138.995C402.745 142.89 389.214 150.413 377.418 159.36C374.124 161.83 370.83 165.013 365.422 167.906C356.742 172.424 345.77 174.494 337.735 168.841C334.597 166.682 332.461 163.766 331.036 160.428C333.418 158.848 335.777 157.067 338.069 155.064C342.476 151.236 344.791 148.254 345.859 146.963C349.353 143.068 351.757 138.328 351.512 133.053C351.356 128.891 349.197 124.885 346.504 122.793C344.746 121.19 341.408 120.033 339.093 120.478C337.913 120.567 336.089 121.302 335.354 121.858C329.345 125.797 327.787 135.279 327.364 142.467C327.097 148.254 327.52 154.241 329.412 159.426C324.315 162.609 316.859 166.192 307.601 167.461C297.652 168.907 288.171 167.861 278.712 165.057C272.815 163.277 267.095 160.851 261.709 157.824C262.265 156.511 262.777 155.175 263.222 153.818C265.604 146.407 266.516 138.795 265.492 131.228C264.958 126.465 263.4 120.745 261.086 116.628C258.994 112.399 254.832 107.881 250.091 105.789C244.104 103.119 238.184 104.476 234.846 107.97C231.04 111.843 230.283 117.563 230.973 122.904C231.485 127.533 233.955 134.322 235.87 137.326C238.273 141.31 239.119 142.022 240.298 143.513C243.548 147.386 247.331 150.747 251.36 153.751C253.563 155.398 255.833 156.911 258.192 158.314C254.921 165.235 250.069 171.4 243.882 175.785C235.914 181.393 226.834 183.441 216.952 181.66H216.93C216.017 181.504 215.149 182.105 214.993 183.018C214.838 183.93 215.438 184.798 216.351 184.954C227.145 186.846 237.138 184.509 245.751 178.366C252.339 173.626 257.413 167.105 260.841 159.827C266.316 162.854 272.147 165.28 278.156 167.038C288.038 169.909 297.786 170.866 307.912 169.33C315.368 168.262 322.913 165.591 330.102 161.029C331.615 164.456 333.885 167.461 337.157 169.686C345.57 175.518 356.876 173.403 365.867 168.64C371.364 165.658 375.126 162.097 377.952 159.938C389.659 150.969 403.057 143.402 417.012 139.44C421.752 138.105 426.626 137.148 431.545 137.059C431.656 137.059 431.767 136.948 431.767 136.836C431.723 136.77 431.634 136.681 431.5 136.681ZM252.717 151.948C248.845 149.011 245.195 145.717 242.101 142C240.988 140.553 240.254 139.952 237.962 136.124C236.159 133.342 233.866 126.821 233.444 122.615C232.865 118.052 233.466 113.045 236.671 109.795C239.319 107.058 244.082 106.012 249.001 108.237C253.162 110.107 256.857 114.224 258.637 117.941C260.796 121.814 262.176 127.244 262.644 131.584C263.556 138.661 262.688 145.828 260.373 152.883C259.995 154.04 259.55 155.175 259.083 156.288C256.901 154.953 254.765 153.506 252.717 151.948ZM328.633 142.579C329.056 135.991 330.569 126.643 336.111 123.06C336.712 122.593 338.336 121.969 339.271 121.903C341.207 121.524 344.123 122.593 345.592 123.95C347.973 125.82 349.887 129.447 349.999 133.142C350.199 138.038 347.884 142.356 344.635 145.939C343.567 147.186 341.319 150.057 336.979 153.796C336.823 153.885 334.508 156.132 330.435 158.803C328.677 153.818 328.343 148.054 328.633 142.579Z" fill="#BE8CF0"/>
<path d="M506.726 103.874C495.82 103.874 486.629 99.2897 480.13 90.5876C473.386 81.5739 469.959 68.7099 469.959 52.3072C469.959 35.9045 473.386 23.0405 480.13 14.0268C486.629 5.34692 495.843 0.739911 506.726 0.739911C517.631 0.739911 526.823 5.32466 533.322 14.0268C540.065 23.0405 543.493 35.9045 543.493 52.3072C543.493 98.8446 517.787 103.874 506.726 103.874ZM506.726 13.7374C491.614 13.7374 482.956 27.8033 482.956 52.3072C482.956 76.8111 491.614 90.8769 506.726 90.8769C526.378 90.8769 530.495 69.9117 530.495 52.3072C530.495 27.8033 521.838 13.7374 506.726 13.7374ZM442.651 103.874H433.37C432.346 103.874 431.523 103.051 431.523 102.027V77.9239H387.077C381.647 77.9239 378.598 71.6477 381.981 67.3745L432.925 3.18808C436.753 -1.64149 444.52 1.07375 444.52 7.23868V64.9041H457.74C458.764 64.9041 459.588 65.7276 459.588 66.7514V76.0321C459.588 77.0559 458.764 77.8794 457.74 77.8794H444.52V101.96C444.52 103.029 443.674 103.874 442.651 103.874ZM400.52 64.9264H431.5V25.8893L400.52 64.9264Z" fill="#4A90F4"/>
<path d="M592.123 213.441C585.023 209.68 575.965 206.653 568.042 204.828C542.024 198.841 515.985 202.424 493.528 215.244C483.691 220.808 481.109 224.08 472.029 229.043C461.057 235.03 447.547 239.102 435.774 235.23C431.033 233.716 426.849 230.912 423.6 226.973C425.046 226.016 426.426 224.903 427.717 223.59C435.551 215.778 441.516 198.952 439.246 187.201C436.953 175.228 426.538 171.244 419.905 180.947C413.918 189.716 412.939 207.521 417.212 218.894C418.192 221.476 419.438 223.835 420.885 225.949C415.721 228.798 409.734 229.688 403.414 229.621C391.885 229.443 377.396 225.905 366.001 223.011C358.812 221.142 357.232 221.097 353.182 220.719C343.879 220.118 334.932 222.722 328.9 229.888C325.829 233.538 323.692 238.079 322.936 242.018V242.04C322.78 242.953 323.381 243.821 324.293 243.999C325.206 244.155 326.074 243.554 326.252 242.641L326.274 242.552C326.875 239.28 328.678 235.185 331.371 231.914C336.668 225.459 344.635 223.078 353.07 223.501C357.21 223.679 361.261 224.48 365.4 225.548C377.151 228.442 391.64 231.891 403.436 231.98C410.246 232.025 416.745 230.979 422.331 227.752C425.781 231.958 430.254 234.963 435.396 236.587C447.659 240.527 461.457 236.298 472.697 230.089C481.888 224.97 484.27 221.787 494.129 216.156C516.296 203.337 542.091 199.642 567.975 205.429C577.567 207.566 586.158 210.815 591.967 213.842C592.078 213.909 592.234 213.864 592.301 213.731C592.278 213.664 592.234 213.508 592.123 213.441ZM418.703 218.36C414.119 205.963 416.433 189.338 421.419 182.016C427.161 173.692 435.396 177.364 437.287 187.602C439.379 198.797 433.437 214.843 426.137 222.01C424.913 223.234 423.6 224.28 422.22 225.148C420.818 223.145 419.638 220.875 418.703 218.36Z" fill="#ACA8BE"/>
<path d="M107.942 251.343L134.627 273.176C135.027 273.51 134.627 274.133 134.159 273.888L103.446 258.398C102.979 258.176 102.823 257.597 103.112 257.152L106.651 251.543C106.94 251.12 107.541 251.009 107.942 251.343ZM78.23 301.241L129.33 311.902C130.109 312.057 129.998 313.193 129.196 313.193L77.1394 313.838C76.3605 313.838 75.7596 313.193 75.8041 312.414L76.6276 302.398C76.7166 301.642 77.4733 301.085 78.23 301.241ZM104.781 370.279L143.218 355.279C143.796 355.056 144.219 355.857 143.685 356.191L109.5 379.093C108.988 379.427 108.298 379.271 108.009 378.714L104.247 371.726C103.936 371.192 104.181 370.502 104.781 370.279ZM283.631 411.587L259.817 379.048C259.461 378.559 260.106 377.958 260.552 378.358L290.775 404.91C291.22 405.31 291.243 406 290.798 406.401L285.145 411.72C284.722 412.143 284.009 412.076 283.631 411.587ZM339.694 372.127L291.287 352.408C290.553 352.118 290.864 351.028 291.643 351.161L343.033 359.908C343.789 360.042 344.279 360.798 344.079 361.555L341.452 371.259C341.252 372.015 340.429 372.416 339.694 372.127ZM330.992 302.843L297.141 304.735C296.629 304.757 296.517 304.045 297.007 303.889L329.568 294.742C330.057 294.609 330.547 294.92 330.636 295.41L331.793 301.82C331.86 302.332 331.504 302.799 330.992 302.843Z" fill="#EEBDFF"/>
<path d="M199.926 198.908C198.057 206.386 186.194 209.346 176.424 205.562C166.298 201.645 160.6 191.296 165.051 184.041C169.258 177.164 177.515 175.895 187.151 180.012C196.788 184.108 201.863 191.074 199.926 198.908Z" fill="#919DCE"/>
<path d="M267.029 270.55V223.968C267.029 196.081 247.354 170.821 220.269 163.855C206.092 160.227 192.137 162.653 181.988 170.509C173.665 176.963 168.79 186.511 168.078 197.639L167.989 199.843C170.17 202.224 173.041 204.249 176.424 205.563C180.987 207.321 186.017 207.632 190.268 206.675C190.379 200.577 191.091 191.541 195.654 188.136C200.305 184.664 207.382 183.574 214.727 185.465C229.282 189.204 244.728 203.96 244.728 223.991V265.876C244.506 272.709 246.219 278.896 255.967 280.12C262.043 280.855 267.029 276.826 267.029 270.55Z" fill="#512CBC"/>
<defs>
<linearGradient id="paint0_linear_2667_106580" x1="136.714" y1="0.0273437" x2="136.714" y2="133.793" gradientUnits="userSpaceOnUse">
<stop stop-color="#BE8CF0" stop-opacity="0.69"/>
<stop offset="1" stop-color="#4D2191" stop-opacity="0.32"/>
</linearGradient>
<linearGradient id="paint1_linear_2667_106580" x1="304.441" y1="39.2207" x2="304.441" y2="228.33" gradientUnits="userSpaceOnUse">
<stop stop-color="#7B61FF"/>
<stop offset="1" stop-color="#BE8CF0" stop-opacity="0.53"/>
</linearGradient>
<linearGradient id="paint2_linear_2667_106580" x1="459.95" y1="124.618" x2="459.95" y2="255.884" gradientUnits="userSpaceOnUse">
<stop stop-color="#7B43D6"/>
<stop offset="1" stop-color="#571FAB"/>
</linearGradient>
</defs>
</svg>
