<svg width="768" height="406" viewBox="0 0 768 406" fill="none" xmlns="http://www.w3.org/2000/svg">
<path d="M198.408 20.9396L173.769 82.863C173.14 84.4664 174.54 86.1307 176.225 85.8059L205.451 80.0216L167.863 156.903L248.56 51.7288C249.778 50.1254 248.377 47.8725 246.409 48.2378L213.448 54.8138L237.174 13.8562C238.087 12.1919 236.585 10.2232 234.738 10.6697L200.682 18.9302C199.626 19.2144 198.794 19.945 198.408 20.9396Z" fill="#FFC6BD"/>
<path d="M669.786 62.6887C675.997 27.5967 655.843 3.93141 624.242 0.257809C600.292 -2.52276 567.757 17.6516 559.071 38.4348C554.342 30.2555 546.589 24.7755 535.75 24.7755C510.421 24.7755 488.887 46.9186 481.742 73.953C474.172 67.6815 467.15 64.1703 456.555 64.1703C418.662 64.1703 409.915 98.0851 366.136 128.732C346.327 142.594 384.727 151.707 456.555 151.707C480.362 151.707 614.357 151.707 635.445 151.707C660.815 151.707 691.442 134.578 699.723 105.777C704.716 88.3836 691.442 62.9525 669.786 62.6887Z" fill="url(#paint0_linear_2667_110794)"/>
<path opacity="0.3" d="M550.201 128.53C550.181 128.53 550.181 128.53 550.161 128.53C550.181 128.53 550.181 128.53 550.201 128.53ZM550.161 128.53H550.14H550.161ZM550.262 126.521C550.242 126.521 550.262 126.521 550.262 126.521V126.521ZM695.379 91.5709C695.298 91.2868 694.994 91.1041 694.71 91.1853C675.692 96.3202 651.966 99.5473 632.847 95.4881C629.214 94.7168 625.54 93.6817 622.07 92.261C625.277 87.5726 627.996 82.3971 628.707 77.7696C629.356 73.1826 628.625 66.8503 626.109 61.9995C619.35 49.01 603.661 49.152 601.043 60.8426C599.683 66.5458 601.185 75.0905 605.488 81.362C608.979 86.4766 613.992 90.1096 619.655 92.6872C617.848 95.1836 615.961 97.4974 614.235 99.4458C605.224 109.492 593.249 118.626 580.828 123.334C571.512 126.825 566.296 126.46 560.613 126.724L558.015 126.825C552.393 126.622 550.749 126.561 550.343 126.561C550.343 126.561 550.323 126.561 550.282 126.561H550.262H550.242H550.221C550.221 126.561 550.221 126.561 550.201 126.561C550.201 126.561 550.201 126.561 550.181 126.561C549.004 126.521 541.332 125.709 539.87 125.384C537.394 124.836 536.542 125.039 527.206 122.624C517.585 119.904 509.02 116.251 500.313 112.74C486.512 107.158 474.395 103.018 459.356 103.343C444.255 102.49 328.365 128.896 315.395 131.818L233.724 150.531C214.585 154.956 173.85 164.393 154.61 168.189C153.777 168.331 152.966 168.432 152.154 168.574L151.971 168.595C151.037 168.737 150.408 169.609 150.55 170.543C150.692 171.477 151.565 172.106 152.499 171.964C163.804 170.218 198.49 161.938 234.434 153.576L316.025 134.578C328.02 131.818 444.458 104.845 459.417 105.656C474.05 105.291 485.862 109.269 499.501 114.749C509.183 118.605 516.652 121.832 526.658 124.613C536.258 127.069 536.867 126.805 539.566 127.373C541.068 127.698 548.841 128.49 550.059 128.53C550.1 128.53 550.14 128.53 550.161 128.53H550.14C550.161 128.53 550.161 128.53 550.181 128.53C550.607 128.55 552.271 128.591 557.975 128.774L560.613 128.672C566.255 128.388 571.776 128.753 581.437 125.1C594.223 120.229 606.381 110.832 615.494 100.603C617.32 98.5325 619.33 96.0564 621.217 93.3773C624.83 94.8792 628.666 95.9549 632.522 96.7667C651.864 100.806 675.753 97.4974 694.933 92.2407C695.278 92.1595 695.461 91.8551 695.379 91.5709ZM550.343 126.521H550.323H550.343ZM606.665 80.5704C602.443 74.3801 601.246 66.0993 602.484 61.2079C604.757 50.999 618.559 50.8772 624.668 62.7301C627.002 67.2562 627.671 73.1421 627.063 77.5057C626.373 81.91 623.633 86.984 620.446 91.5709C614.966 89.0745 610.054 85.5633 606.665 80.5704Z" fill="#D3BBFA"/>
<path d="M564.956 96.1164L534.147 170.887C533.396 172.694 534.938 174.622 536.887 174.277L570.253 168.391L525.683 254.913L619.918 137.257C621.359 135.471 619.816 132.852 617.564 133.258L578.656 139.895L607.903 88.9721C608.978 87.0846 607.314 84.8317 605.183 85.2985L567.554 93.8635C566.397 94.1679 565.403 94.9798 564.956 96.1164Z" fill="#CAAFE6"/>
<path d="M445.149 112.881C446.813 107.035 446.833 100.825 447.726 94.5126C452.577 59.7859 427.207 25.8711 390.227 25.8711C355.724 25.8711 323.473 52.1343 314.198 87.206C309.246 77.3015 296.967 68.5538 281.907 68.5538C252.518 68.5538 228.285 93.721 217.467 122.217C208.496 114.606 196.886 109.978 184.201 110.019C141.843 110.141 139.672 152.823 75.1097 190.026C49.9222 204.538 123.252 213.001 184.201 213.001C209.024 213.001 418.824 213.001 447.117 213.001C475.41 213.001 507.173 189.823 511.679 161.571C516.124 133.603 485.802 101.17 445.149 112.881Z" fill="url(#paint1_linear_2667_110794)"/>
<path d="M202.305 344.277C181.989 344.277 161.896 328.933 166.422 285.845C170.948 242.756 194.268 227.412 214.584 227.412C234.901 227.412 254.994 242.756 250.468 285.845C244.927 338.594 214.929 344.277 202.305 344.277ZM212.819 244.319C196.846 244.319 186.109 259.46 183.328 285.865C180.548 312.27 188.118 327.411 204.091 327.411C224.854 327.411 231.593 304.822 233.582 285.865C236.342 259.46 228.771 244.319 212.819 244.319Z" fill="#4A90F4"/>
<path d="M296.528 343.865C276.212 343.865 256.118 328.521 260.644 285.433C265.17 242.344 288.491 227 308.807 227C329.124 227 349.217 242.344 344.691 285.433C339.15 338.182 309.152 343.865 296.528 343.865ZM307.041 243.907C291.068 243.907 280.332 259.048 277.551 285.453C274.771 311.858 282.341 326.999 298.314 326.999C319.077 326.999 325.815 304.409 327.804 285.453C330.565 259.048 322.994 243.907 307.041 243.907Z" fill="#4A90F4"/>
<path d="M694.324 245.861C702.056 210.789 676.138 180.162 639.686 180.162C610.48 180.162 579.508 197.678 565.423 225.098C556.432 219.476 548.212 215.173 536.846 215.173C507.863 215.173 486.512 235.956 476.648 264.878C468.468 257.287 457.508 252.7 445.473 252.64C403.358 252.396 396.803 291.77 348.66 327.877C345.677 330.11 345.474 336.523 350.852 338.817C361.203 343.241 389.983 344.297 406.646 344.297C427.166 344.297 660.815 344.297 683.465 344.297C710.703 344.297 743.278 326.03 747.905 294.977C754.583 250.184 714.092 238.148 694.324 245.861Z" fill="url(#paint2_linear_2667_110794)"/>
<path d="M106.163 344.237C91.0828 343.588 78.7224 334.292 73.5063 320.815C72.9178 319.293 73.8514 317.467 75.4751 316.858L86.3132 312.819C87.7542 312.291 89.2155 312.88 89.7635 314.199C92.8891 321.627 99.7492 326.803 108.132 327.351C122.603 328.305 135.937 316.107 136.303 301.494C136.627 288.545 126.073 279.127 113.043 279.553C100.378 279.959 92.605 284.83 92.26 285.033L84.3445 290.29C81.6451 292.076 78.3571 290.27 78.7021 287.205L79.6967 278.112L84.8113 229.483C84.9939 227.656 86.78 226.276 88.5458 226.54L94.7564 227.514C94.939 227.534 112.292 230.234 124.165 230.234C135.673 230.234 146.227 227.697 146.329 227.677L150.753 226.601C152.945 226.073 154.995 227.372 155.3 229.523L156.558 238.149C156.862 240.301 155.34 242.472 153.128 243L148.703 244.076C148.196 244.198 135.957 247.141 122.4 247.141C115.195 247.141 106.528 246.308 100.033 245.517L97.9632 265.184C102.286 263.946 107.502 262.951 113.49 262.687C136.323 261.693 154.528 278.681 153.25 301.412C151.91 325.443 130.072 345.272 106.163 344.237Z" fill="#4A90F4"/>
<path d="M467.697 147.08C467.555 146.938 467.352 146.938 467.21 147.08C457.083 156.68 442.348 162.464 428.465 164.758C418.155 166.442 406.322 166.463 396.438 163.236C388.766 160.739 377.136 154.001 366.521 150.429C364.37 149.698 362.239 149.089 360.128 148.602C361.163 144.502 361.041 140.24 359.296 136.181C353.816 123.597 336.077 116.798 322.479 114.363C307.663 111.805 293.618 113.307 279.106 117.651C265.244 121.811 251.402 128.895 241.132 139.002C239.041 141.072 237.093 143.285 235.327 145.639C232.141 143.975 228.67 143.143 225.504 143.508C224.002 143.691 221.12 144.462 219.922 144.969C214.564 146.918 210.241 150.814 206.446 155.036C201.595 160.597 197.414 166.463 192.543 171.659C176.712 188.687 157.816 195.304 135.531 196.176C121.344 196.826 86.0695 194.512 70.6851 193.294C56.2748 192.137 41.8646 190.798 27.5152 189.235H27.4949H27.4746C26.3584 189.113 25.3639 189.925 25.2421 191.041C25.1203 192.158 25.9321 193.152 27.0484 193.274C41.479 194.776 55.9095 196.034 70.3603 197.11C86.6175 198.307 121.162 200.378 135.633 199.647C158.709 198.592 178.437 191.569 194.796 173.769C199.809 168.371 204.01 162.383 208.678 157.025C212.048 153.209 216.046 149.475 220.937 147.689C222.074 147.181 224.733 146.491 225.829 146.37C228.264 146.065 231.004 146.674 233.602 147.973C229.38 154.102 225.849 161.977 228.548 168.858C229.746 171.882 232.181 174.135 235.429 174.723C241.172 175.738 245.272 171.314 246.531 166.077C248.357 158.547 243.709 151.099 237.418 146.897C239.062 144.726 240.868 142.655 242.796 140.707C252.741 130.803 266.238 123.861 279.694 119.721C293.983 115.357 307.561 113.835 322.093 116.311C334.981 118.564 352.334 125.018 357.55 136.891C359.133 140.565 359.235 144.462 358.301 148.196C346.57 145.842 335.407 147.161 323.453 150.977C316.877 153.088 308.596 156.437 304.618 162.059C301.838 166.118 302.771 170.157 306.364 172.592C309.347 174.642 313.528 175.373 317.161 175.474C333.784 175.718 348.397 168.127 355.846 157.573C357.55 155.138 358.91 152.479 359.742 149.739C361.833 150.206 363.944 150.794 366.075 151.525C376.649 155.016 388.157 161.612 396.072 164.169C406.119 167.417 418.094 167.356 428.526 165.61C442.591 163.236 457.428 157.35 467.616 147.608C467.839 147.445 467.84 147.222 467.697 147.08ZM243.892 165.448C242.999 169.284 240.158 172.836 235.916 172.125C233.561 171.699 231.857 170.096 230.964 167.884C228.569 161.957 232.12 154.549 235.774 149.211C241.193 152.763 245.414 159.075 243.892 165.448ZM354.445 156.538C347.443 166.544 333.439 173.993 317.263 173.81C313.995 173.749 310.017 173.12 307.318 171.273C304.395 169.304 303.644 166.28 305.917 162.911C309.57 157.634 317.77 154.305 323.92 152.316C335.671 148.48 346.57 147.141 357.997 149.353C357.246 151.87 356.008 154.285 354.445 156.538Z" fill="#EEBDFF"/>
<path d="M332.667 330.861C342.328 332.789 357.266 333.418 367.09 333.459C392.683 333.682 411.7 329.785 434.757 320.835C445.595 316.694 456.291 311.803 467.86 309.022C478.13 306.628 488.542 305.998 503.195 308.718C523.004 312.371 537.76 320.896 553.733 321.606C566.093 322.174 575.754 318.42 585.07 310.727C597.511 300.437 608.634 282.536 610.095 267.01C610.724 260.109 608.938 254.609 606.401 251.077C599.602 241.518 588.094 246.632 592.458 265.467C598.08 288.848 652.23 300.234 685.414 287.752C701.752 281.521 730.167 265.548 749.976 260.9C755.679 259.561 761.605 258.85 767.491 259.277C767.796 259.297 768.019 259.561 767.999 259.865C767.978 260.17 767.715 260.393 767.41 260.373C761.646 259.987 755.862 260.697 750.24 262.057C730.654 266.766 702.442 282.8 685.942 289.193C652.189 302.081 596.598 290.898 590.489 265.974C585.354 244.258 600.211 238.818 608.187 249.819C611.78 254.893 612.916 261.266 612.368 267.233C610.927 283.449 599.602 301.919 586.694 312.696C576.951 320.794 566.702 324.853 553.631 324.326C537.13 323.676 522.274 315.152 502.668 311.641C488.318 309.043 478.333 309.753 468.611 312.067C457.468 314.807 446.874 319.678 435.975 323.92C412.208 333.276 393.028 337.153 367.11 337.133C356.941 337.173 341.882 336.645 331.855 334.717C330.78 334.514 330.09 333.479 330.293 332.404C330.496 331.328 331.531 330.638 332.606 330.841H332.627L332.667 330.861Z" fill="#A180FF"/>
<path d="M344.662 322.844C349.675 323.859 356.069 324.447 361.082 324.813C372.306 325.604 383.245 325.543 394.489 325.158C402.121 324.873 408.291 324.346 411.213 324.163C411.396 324.143 411.558 324.285 411.558 324.468C411.579 324.65 411.436 324.792 411.254 324.813C405.124 325.503 400.335 326.03 394.55 326.477C383.245 327.329 372.265 327.837 360.919 327.492C355.805 327.309 349.371 326.984 343.972 326.132C343.059 325.99 342.43 325.117 342.572 324.204C342.714 323.29 343.587 322.661 344.5 322.803C344.52 322.803 344.54 322.803 344.561 322.824L344.662 322.844Z" fill="#4CA1D6"/>
<path d="M0.988068 205.208C10.5881 207.298 24.3489 208.131 34.1925 208.394C50.2467 208.881 67.6608 207.704 67.6811 207.704C67.8232 207.684 67.9653 207.806 67.9856 207.968C68.0059 208.11 67.8841 208.252 67.7217 208.273C60.6993 208.902 45.0306 209.632 34.1722 209.49C24.2068 209.369 10.3852 208.76 0.643033 206.791C0.216815 206.71 -0.0673307 206.284 0.0138538 205.857C0.0950382 205.431 0.521256 205.147 0.947475 205.228L0.988068 205.208ZM51.5863 176.347C59.8062 178.539 69.041 179.554 75.3531 180.406C90.088 182.07 102.733 182.273 105.655 182.415L111.744 182.517C125.687 182.882 147.912 181.705 148.236 181.685C148.399 181.685 148.541 181.806 148.541 181.969C148.541 182.131 148.419 182.273 148.257 182.273C141.011 182.781 124.246 184.019 111.724 183.978L105.615 184.019C103.138 183.958 89.54 183.998 75.1095 182.72C68.3712 181.969 59.4003 181.218 50.7947 179.148C50.0235 178.965 49.5364 178.173 49.719 177.402C49.9017 176.631 50.6933 176.144 51.4645 176.326H51.4848L51.5863 176.347Z" fill="#BE8CF0"/>
<path d="M393.454 183.897L347.849 297.474C347.24 299.077 348.62 300.741 350.305 300.396L403.075 290.147L345.17 400.903C343.485 404.495 348.437 407.438 350.792 404.231L474.72 243.933C475.877 242.309 474.456 240.137 472.508 240.523L413.527 252.274L461.243 171.232C462.217 169.588 460.756 167.579 458.889 167.985L395.829 181.847C394.733 182.111 393.86 182.862 393.454 183.897Z" fill="#EEBDFF"/>
<defs>
<linearGradient id="paint0_linear_2667_110794" x1="530.862" y1="0" x2="530.862" y2="151.707" gradientUnits="userSpaceOnUse">
<stop stop-color="#BE8CF0" stop-opacity="0.69"/>
<stop offset="1" stop-color="#4D2191" stop-opacity="0.32"/>
</linearGradient>
<linearGradient id="paint1_linear_2667_110794" x1="291.066" y1="25.8711" x2="291.066" y2="213.001" gradientUnits="userSpaceOnUse">
<stop stop-color="#7B61FF"/>
<stop offset="1" stop-color="#BE8CF0" stop-opacity="0.53"/>
</linearGradient>
<linearGradient id="paint2_linear_2667_110794" x1="547.608" y1="180.162" x2="547.608" y2="344.297" gradientUnits="userSpaceOnUse">
<stop stop-color="#7B43D6"/>
<stop offset="1" stop-color="#571FAB"/>
</linearGradient>
</defs>
</svg>
