<svg width="674" height="456" viewBox="0 0 674 456" fill="none" xmlns="http://www.w3.org/2000/svg">
<path d="M203.773 244.013L257.867 235.177C259.109 234.966 259.93 233.771 259.672 232.552C256.625 218.044 242.938 148.06 322.813 142.154C365.234 139.013 377.961 188.372 366.172 216.146C350.492 253.107 325.32 259.388 313.625 302.489C307.859 323.724 307.531 343.013 309.242 358.575C310.766 372.333 329.258 375.591 335.258 363.122C342.664 347.771 352.203 329.138 362.82 311.044C394.156 257.771 420.43 273.029 440.609 228.38C463.812 177.005 437.656 74.6301 326.023 83.8176C178.203 95.9583 197.727 224.255 201.219 242.255C201.477 243.427 202.578 244.2 203.773 244.013Z" fill="#D3BBFA"/>
<path d="M326.633 455.02C344.522 455.02 359.024 440.519 359.024 422.63C359.024 404.741 344.522 390.239 326.633 390.239C308.744 390.239 294.243 404.741 294.243 422.63C294.243 440.519 308.744 455.02 326.633 455.02Z" fill="#D3BBFA"/>
<path d="M48.2946 122.962C49.3918 122.861 53.8006 122.84 60.0381 122.901C63.8984 102.234 82.0825 86.5861 103.944 86.5861C113.473 86.5861 122.291 89.5617 129.544 94.6223C135.741 66.8092 160.61 46 190.395 46C222.517 46 248.97 70.21 252.363 101.323C269.816 99.9663 282.088 111.444 285.623 127.881C293.973 120.816 304.782 116.525 316.587 116.565C356.023 116.687 384 157.01 384 194.64C384 210.409 373.333 218 316.587 218C293.486 218 74.6057 218 48.2743 218C15.2584 218 0 207.454 0 188.102C0.0203175 161.868 15.0959 125.877 48.2946 122.962Z" fill="url(#paint0_linear_2667_109393)"/>
<path d="M597.081 233.366C595.641 233.366 594.2 233.451 592.76 233.563C592.619 196.778 562.658 167 525.721 167C496.127 167 471.051 186.111 462.155 212.595C453.034 206.938 442.275 203.645 430.754 203.645C401.385 203.645 377.015 224.866 372.186 252.786C363.912 245.103 352.814 240.431 340.587 240.431C314.946 240.431 285.803 269.786 286.001 307.501C286.057 320.307 288.599 333 340.587 333C361.371 333 574.123 333 597.053 333C642.969 333 645.962 325.007 648.447 306.966C652.655 276.794 632.577 233.366 597.081 233.366Z" fill="url(#paint1_linear_2667_109393)"/>
<path d="M461.187 164.021C459.312 155.326 449.937 147.896 442.437 143.068C442.344 142.998 442.203 143.044 442.133 143.138C442.062 143.232 442.109 143.373 442.203 143.419C449.539 148.201 458.867 155.607 460.648 164.138C462.828 174.029 453.57 180.38 443.89 183.357C437.844 185.185 431.492 185.959 425.187 186.123C405.172 186.615 379.555 181.201 352.367 167.044C323.164 151.88 283.625 124.927 249.828 116.654C224.82 110.255 196.601 112.904 176.867 130.013C171.242 134.818 166.812 140.513 163.555 146.466C159.758 143.865 155.445 141.755 150.641 140.185C133.719 134.63 109.953 136.084 93.4999 142.107C69.0312 150.943 47.0937 171.755 34.6015 190.271C34.1093 190.998 34.3203 191.982 35.0468 192.474C35.7734 192.966 36.7578 192.755 37.25 192.029L37.2968 191.982C49.7187 173.373 71.3046 153.263 94.4843 144.755C110.258 138.919 133.508 137.326 149.867 142.623C154.531 144.123 158.726 146.162 162.43 148.716C158.469 156.802 156.687 165.263 157.109 172.693C158.398 194.232 182.023 190.623 181.812 174.849C181.812 171.427 180.664 168.123 179.281 165.216C176.023 158.162 171.336 152.255 165.242 147.685C168.359 141.802 172.672 136.201 178.133 131.49C197.351 114.662 225.078 112.06 249.5 118.201C283.015 126.24 322.625 152.912 351.922 168.005C379.414 182.185 405.195 187.482 425.234 186.896C431.609 186.685 437.984 185.912 444.125 184.013C450.101 182.162 456.64 178.88 459.758 173.466C461.422 170.63 461.914 167.185 461.187 164.021ZM177.148 166.177C178.484 169.107 179.445 171.544 179.516 174.802C179.726 187.81 160.437 191.068 159.266 172.505C158.844 165.498 160.484 157.529 164.141 149.865C169.695 154.13 174.055 159.591 177.148 166.177Z" fill="#D3BBFA"/>
<path d="M622.812 255.778C622.719 255.685 622.555 255.685 622.461 255.778L622.437 255.802C617.797 260.63 612.289 264.614 606.5 268.036C589.859 277.739 570.312 281.7 548.164 278.325C518.938 273.989 494 259.13 471.125 254.114C458.211 251.325 443.094 252.146 431.023 257.255C421.086 261.45 413.281 268.528 409.508 277.81C394.742 272.724 378.664 271.646 362.844 274.107C343.977 277.06 320.656 286.177 309.43 301.692C301.109 313.224 298.133 328.833 304.484 341.091C305.82 343.669 307.578 346.06 309.664 348.099C307.719 349.435 306.078 351.099 304.906 353.185C303.008 356.56 302.844 360.45 304.25 364.083C306.383 369.544 312.055 374.7 320.867 376.458C321.617 376.599 322.344 376.13 322.484 375.38C322.625 374.63 322.156 373.903 321.406 373.763C313.484 372.192 308.563 367.669 306.781 363.099C305.656 360.286 305.75 357.075 307.25 354.474C308.305 352.575 309.852 351.075 311.727 349.903C317 354.122 323.516 356.185 330.242 356.817C336.547 357.427 347.656 358.013 353.422 355.341C355.039 354.567 356.563 353.349 356.586 351.567C356.633 349.833 355.25 348.521 353.82 347.56C348.688 344.349 339.617 343.411 333.57 343.2C326.586 342.942 318.078 343.552 311.797 346.81C309.734 344.935 307.977 342.661 306.57 339.989C300.524 328.435 303.547 313.692 311.211 302.958C322.016 287.911 344.914 278.958 363.148 276.052C378.5 273.614 394.273 274.528 408.898 279.497C407.961 282.216 407.352 285.122 407.117 288.169C406.367 297.685 409.461 310.107 416.141 316.974C428.773 330.169 448.789 319.622 444.078 304.528C441.312 295.294 430.859 288.052 422.328 283.458C418.602 281.442 414.758 279.732 410.82 278.302C414.477 269.302 422.023 262.505 431.516 258.45C443.258 253.435 458.117 252.521 470.891 255.239C493.719 260.185 518.633 274.974 548.047 279.239C570.57 282.614 590.281 278.349 606.828 268.575C612.641 265.107 618.125 261.075 622.836 256.153C622.93 256.036 622.93 255.872 622.812 255.778ZM333.477 345.802C338.914 345.989 347.82 346.81 352.438 349.692C353 350.044 354.055 350.864 354.055 351.497C354.055 352.106 352.93 352.763 352.344 353.021C347.141 355.458 336.219 354.872 330.477 354.333C324.336 353.771 318.641 351.966 314.047 348.638C319.836 346.036 327.547 345.591 333.477 345.802ZM421.508 284.958C429.57 289.271 439.883 296.255 442.508 304.974C446.75 318.497 428.727 327.825 417.219 315.896C410.867 309.403 407.844 297.403 408.523 288.263C408.734 285.333 409.297 282.544 410.188 279.942C414.055 281.325 417.852 282.989 421.508 284.958Z" fill="#EEBDFF"/>
<path d="M559.297 153.286C548.961 153.286 540.242 148.927 534.055 140.677C527.656 132.145 524.422 119.911 524.422 104.372C524.422 88.8328 527.656 76.5984 534.055 68.0672C540.219 59.8172 548.961 55.4578 559.297 55.4578C569.633 55.4578 578.352 59.8172 584.539 68.0672C590.938 76.5984 594.172 88.8328 594.172 104.372C594.172 148.505 569.797 153.286 559.297 153.286ZM559.297 67.7859C544.977 67.7859 536.75 81.1219 536.75 104.372C536.75 127.622 544.977 140.958 559.297 140.958C577.93 140.958 581.844 121.059 581.844 104.372C581.844 81.1219 573.617 67.7859 559.297 67.7859ZM498.523 153.286H489.711C488.727 153.286 487.953 152.489 487.953 151.528V128.677H445.789C440.633 128.677 437.75 122.723 440.961 118.669L489.289 57.8016C492.922 53.2312 500.281 55.7859 500.281 61.6453V116.348H512.82C513.805 116.348 514.578 117.145 514.578 118.106V126.919C514.578 127.903 513.781 128.677 512.82 128.677H500.281V151.528C500.281 152.489 499.484 153.286 498.523 153.286ZM458.539 116.325H487.93V79.2937L458.539 116.325ZM657.945 153.286H649.133C648.148 153.286 647.375 152.489 647.375 151.528V128.677H605.211C600.055 128.677 597.172 122.723 600.383 118.669L648.711 57.7781C652.344 53.2078 659.703 55.7625 659.703 61.6219V116.325H672.242C673.227 116.325 674 117.122 674 118.083V126.895C674 127.88 673.203 128.653 672.242 128.653H659.703V151.505C659.703 152.489 658.906 153.286 657.945 153.286ZM617.961 116.325H647.352V79.2937L617.961 116.325Z" fill="#4A90F4"/>
<path d="M217.391 396.333L209.82 390.192C209.211 389.7 209.164 388.81 209.703 388.247L251.563 344.325C252.688 343.153 254.539 344.653 253.625 345.989L219.36 396.052C218.891 396.685 218 396.802 217.391 396.333ZM140.492 403.575L130.766 389.935C129.992 388.856 130.321 387.333 131.446 386.653L226.438 329.841C228.289 328.739 230.141 331.294 228.477 332.7L143.821 403.997C142.789 404.841 141.266 404.653 140.492 403.575ZM156.219 329.888L152.867 319.833C152.61 319.036 153.078 318.192 153.899 317.981L217.953 302.278C219.664 301.856 220.485 304.317 218.867 304.997L158.164 330.755C157.391 331.083 156.5 330.685 156.219 329.888ZM402.617 415.106L410 411.239C410.586 410.935 410.797 410.185 410.422 409.645L382.813 365.794C382.063 364.622 380.281 365.56 380.82 366.849L401.07 414.567C401.305 415.153 402.031 415.411 402.617 415.106ZM458.703 422.419L468.008 414.356C468.758 413.724 468.781 412.575 468.078 411.895L413.445 358.153C411.969 356.7 409.695 358.669 410.914 360.333L456.219 422.138C456.852 422.935 457.977 423.075 458.703 422.419ZM319.367 23.0441L327.36 22.4816C327.992 22.4347 328.531 22.9503 328.531 23.5832L328.016 73.4113C327.992 74.7472 326.047 74.8878 325.86 73.5519L318.383 24.2863C318.266 23.6769 318.735 23.091 319.367 23.0441ZM386.094 0.0519171L397.344 2.9816C398.234 3.21598 398.75 4.15348 398.445 5.02067L374.586 73.3878C373.953 75.216 371.188 74.5128 371.539 72.591L384.149 1.27067C384.313 0.40348 385.203 -0.182458 386.094 0.0519171ZM430.133 59.5597L435.969 62.8644C436.438 63.1222 436.578 63.7316 436.274 64.1769L412.906 98.7941C412.274 99.7316 410.844 98.9113 411.313 97.9034L428.844 60.005C429.078 59.4894 429.664 59.3019 430.133 59.5597ZM118.25 301.13L115.86 288.028C115.672 286.997 116.399 286.013 117.453 285.896L200.492 277.552C202.649 277.341 203.211 280.458 201.125 280.997L120.5 302.536C119.469 302.817 118.438 302.161 118.25 301.13ZM467.234 363.333L470.234 359.302C470.469 358.974 470.399 358.528 470.047 358.317L443.516 341.724C442.813 341.278 442.063 342.263 442.695 342.825L466.227 363.474C466.531 363.708 466.977 363.661 467.234 363.333ZM156.242 243.286L155.867 248.302C155.844 248.7 156.149 249.028 156.547 249.028L187.836 248.888C188.68 248.888 188.774 247.669 187.93 247.528L157.016 242.653C156.641 242.607 156.266 242.911 156.242 243.286Z" fill="#512CBC"/>
<defs>
<linearGradient id="paint0_linear_2667_109393" x1="192" y1="46" x2="192" y2="218" gradientUnits="userSpaceOnUse">
<stop stop-color="#7B61FF"/>
<stop offset="1" stop-color="#BE8CF0" stop-opacity="0.53"/>
</linearGradient>
<linearGradient id="paint1_linear_2667_109393" x1="467.5" y1="167" x2="467.5" y2="333" gradientUnits="userSpaceOnUse">
<stop stop-color="#7B43D6"/>
<stop offset="1" stop-color="#571FAB"/>
</linearGradient>
</defs>
</svg>
