<svg width="633" height="457" viewBox="0 0 633 457" fill="none" xmlns="http://www.w3.org/2000/svg">
<path d="M142.55 298.213L178.627 274.621C179.54 274.02 180.697 273.865 181.743 274.176L289.128 306.87C290.33 307.226 291.131 308.339 291.109 309.586C290.864 319.801 289.841 364.224 289.841 379.18C289.841 396.139 264.669 411.451 260.351 414.234C252.628 419.219 226.366 435.866 200.149 432.261C200.149 432.261 154.19 400.524 148.693 390.308C143.017 379.737 140.458 365.871 140.458 350.425V302.085C140.458 300.527 141.259 299.058 142.55 298.213Z" fill="#A180FF"/>
<path d="M142.906 300.416L255.077 338.853C256.568 339.364 257.592 340.789 257.592 342.369V394.315C257.592 411.274 237.472 420.933 233.155 423.715C225.432 428.7 203.999 437.18 187.797 428.945C173.286 421.578 154.146 400.524 148.671 390.309C142.995 379.737 140.436 365.871 140.436 350.426V302.175C140.458 300.906 141.705 300.016 142.906 300.416Z" fill="#D3BBFA"/>
<path d="M211.165 365.982C211.165 375.152 203.799 379.692 195.631 376.888C186.951 373.928 179.873 364.202 179.873 355.032C179.873 345.863 186.973 340.677 195.631 343.682C205.067 346.931 211.165 356.813 211.165 365.982Z" fill="#8D71FF"/>
<path d="M191.001 371.324L185.437 392.289C185.059 393.692 185.816 395.138 187.196 395.628L202.997 401.303C204.311 401.77 205.646 400.702 205.468 399.322L202.308 375.041L191.001 371.324Z" fill="#8D71FF"/>
<path d="M220.268 208.877C206.091 205.249 192.137 207.675 181.988 215.532C173.664 221.986 168.79 231.534 168.078 242.662L167.967 245.6V287.708C167.967 293.851 168.656 297.768 176.201 300.55C182.7 302.953 190.378 297.968 190.378 293.317L190.245 254.858C190.245 249.383 190.2 237.187 195.653 233.114C200.305 229.642 207.382 228.551 214.727 230.443C229.282 234.182 244.728 248.938 244.728 268.968V310.854C244.505 317.687 246.219 323.874 255.967 325.098C262.065 325.855 267.028 321.849 267.028 315.55V268.968C267.028 241.104 247.354 215.821 220.268 208.877Z" fill="#6543C7"/>
<path d="M234.846 98.6199C234.868 97.9968 234.89 97.3958 234.89 96.7727C234.89 68.1959 211.722 45.0273 183.145 45.0273C161.623 45.0273 143.173 58.1584 135.384 76.8535C128.328 71.2005 119.359 67.7953 109.611 67.7953C86.8431 67.7953 68.3928 86.2233 68.3261 108.969C61.5157 103.338 52.7914 99.9553 43.2658 99.9553C21.5439 99.9553 0 138.213 0 159.935C0 172.287 5.54176 177.785 43.2658 178.608C64.6538 179.076 201.529 178.497 220.468 178.608C257.057 178.808 270.745 172.065 272.792 158.8C276.977 131.715 260.084 101.892 234.846 98.6199Z" fill="url(#paint0_linear_2667_107987)"/>
<path d="M227.724 120.877C217.152 118.562 207.004 119.452 196.454 122.279C186.261 124.972 176.669 129.312 166.809 132.695C161.935 134.542 156.749 135.143 151.586 134.809C143.307 134.275 136.074 131.626 131.355 128.511C132.713 126.597 133.826 124.46 134.382 122.079C135.584 117.026 132.49 112.241 128.462 112.041C123.632 111.796 122.208 118.139 123.855 122.368C124.923 125.039 126.949 127.019 129.063 128.644C129.063 128.644 129.063 128.644 129.085 128.644C125.992 132.472 121.518 135.722 117.401 137.524C112.771 139.55 107.564 140.373 102.912 138.459C95.6788 135.477 89.1578 126.552 77.8072 119.942C68.7935 114.645 57.7545 111.418 47.1606 112.219C34.9865 113.109 25.1271 119.052 19.6966 127.398C13.3981 136.968 13.5317 148.786 18.6951 158.623C24.3704 168.972 34.9643 171.843 46.849 171.932C60.759 171.977 78.0297 168.06 93.6312 164.899C112.504 161.049 136.808 156.197 155.147 161.116C165.362 163.875 173.352 169.506 178.805 178.765C183.991 187.489 186.15 198.105 187.084 208.143V208.165C187.151 208.966 187.863 209.545 188.665 209.478C189.466 209.411 190.044 208.699 189.978 207.898C188.998 197.371 186.706 186.443 181.276 177.318C175.6 167.726 167.143 161.427 155.904 158.423C137.008 153.371 112.527 158.267 93.0971 162.228C77.3621 165.433 60.4697 169.306 46.8713 169.261C36.1438 169.217 26.2621 166.858 21.032 157.377C16.2914 148.407 16.0466 137.636 21.7887 128.778C27.3082 120.187 37.0341 115.357 47.3386 114.556C57.4206 113.755 68.0368 116.782 76.7389 121.834C88.0227 128.332 94.4102 137.168 102.178 140.306C107.363 142.421 113.061 141.553 118.157 139.26C122.987 137.101 127.238 133.807 130.532 129.646C135.517 132.873 142.995 135.543 151.541 136.033C155.459 136.233 159.531 135.944 163.404 134.943C164.695 134.609 165.941 134.164 167.188 133.741C177.091 130.269 186.639 125.907 196.721 123.191C207.137 120.343 217.13 119.43 227.568 121.656C227.791 121.7 227.991 121.567 228.036 121.344C228.08 121.144 227.947 120.921 227.724 120.877ZM129.931 127.509C127.928 125.973 126.103 124.104 125.257 121.834C124.1 118.785 124.79 113.376 128.395 113.643C131.199 113.799 133.803 117.427 132.757 121.722C132.268 123.703 131.288 125.684 129.931 127.509C129.931 127.531 129.931 127.531 129.931 127.509Z" fill="#BE8CF0"/>
<path d="M147.024 168.838C148.226 168.727 153.055 168.705 159.888 168.771C164.117 146.048 184.036 128.844 207.983 128.844C218.421 128.844 228.08 132.116 236.026 137.68C242.814 107.1 270.055 84.2207 302.683 84.2207C337.87 84.2207 366.847 110.839 370.564 145.046C389.682 143.555 403.124 156.175 406.997 174.246C416.144 166.479 427.984 161.761 440.915 161.805C484.114 161.939 514.761 206.273 514.761 247.647C514.761 264.984 503.076 273.33 440.915 273.33C415.61 273.33 175.845 273.33 147.002 273.33C110.836 273.33 94.1212 261.735 94.1212 240.458C94.1435 211.614 110.657 172.043 147.024 168.838Z" fill="url(#paint1_linear_2667_107987)"/>
<path d="M562.077 222.098C560.942 222.098 559.807 222.165 558.672 222.254C558.56 193.165 534.947 169.618 505.836 169.618C482.511 169.618 462.748 184.73 455.737 205.673C448.549 201.2 440.069 198.596 430.989 198.596C407.842 198.596 388.635 215.377 384.83 237.455C378.309 231.379 369.562 227.684 359.925 227.684C339.717 227.684 316.748 250.897 316.904 280.72C316.949 290.847 318.952 300.884 359.925 300.884C376.306 300.884 543.983 300.884 562.055 300.884C598.243 300.884 600.602 294.564 602.561 280.298C605.877 256.439 590.053 222.098 562.077 222.098Z" fill="url(#paint2_linear_2667_107987)"/>
<path d="M431.5 181.681C426.515 181.747 421.596 182.66 416.834 183.995C402.745 187.89 389.214 195.413 377.418 204.36C374.124 206.83 370.83 210.013 365.422 212.906C356.742 217.424 345.77 219.494 337.736 213.841C334.597 211.682 332.461 208.766 331.036 205.428C333.418 203.848 335.777 202.067 338.069 200.064C342.476 196.236 344.791 193.254 345.859 191.963C349.353 188.068 351.757 183.328 351.512 178.053C351.356 173.891 349.197 169.885 346.504 167.793C344.746 166.19 341.408 165.033 339.093 165.478C337.914 165.567 336.089 166.302 335.354 166.858C329.345 170.797 327.787 180.279 327.364 187.467C327.097 193.254 327.52 199.241 329.412 204.426C324.315 207.609 316.859 211.192 307.601 212.461C297.652 213.907 288.171 212.861 278.713 210.057C272.815 208.277 267.095 205.851 261.709 202.824C262.265 201.511 262.777 200.175 263.222 198.818C265.604 191.407 266.516 183.795 265.492 176.228C264.958 171.465 263.4 165.745 261.086 161.628C258.994 157.399 254.832 152.881 250.091 150.789C244.104 148.119 238.184 149.476 234.846 152.97C231.04 156.843 230.283 162.563 230.973 167.904C231.485 172.533 233.956 179.322 235.87 182.326C238.273 186.31 239.119 187.022 240.299 188.513C243.548 192.386 247.331 195.747 251.36 198.751C253.563 200.398 255.833 201.911 258.192 203.314C254.921 210.235 250.069 216.4 243.882 220.785C235.914 226.393 226.834 228.441 216.952 226.66H216.93C216.017 226.504 215.149 227.105 214.993 228.018C214.838 228.93 215.439 229.798 216.351 229.954C227.145 231.846 237.138 229.509 245.751 223.366C252.339 218.626 257.413 212.105 260.841 204.827C266.316 207.854 272.147 210.28 278.156 212.038C288.038 214.909 297.786 215.866 307.912 214.33C315.368 213.262 322.913 210.591 330.102 206.029C331.615 209.456 333.885 212.461 337.157 214.686C345.57 220.518 356.876 218.403 365.867 213.64C371.364 210.658 375.126 207.097 377.952 204.938C389.659 195.969 403.057 188.402 417.012 184.44C421.752 183.105 426.626 182.148 431.545 182.059C431.656 182.059 431.767 181.948 431.767 181.836C431.723 181.77 431.634 181.681 431.5 181.681ZM252.717 196.948C248.845 194.011 245.195 190.717 242.101 187C240.989 185.553 240.254 184.952 237.962 181.124C236.159 178.342 233.867 171.821 233.444 167.615C232.865 163.052 233.466 158.045 236.671 154.795C239.319 152.058 244.082 151.012 249.001 153.237C253.163 155.107 256.857 159.224 258.638 162.941C260.796 166.814 262.176 172.244 262.644 176.584C263.556 183.661 262.688 190.828 260.374 197.883C259.995 199.04 259.55 200.175 259.083 201.288C256.902 199.953 254.765 198.506 252.717 196.948ZM328.633 187.579C329.056 180.991 330.569 171.643 336.111 168.06C336.712 167.593 338.336 166.969 339.271 166.903C341.208 166.524 344.123 167.593 345.592 168.95C347.973 170.82 349.887 174.447 349.999 178.142C350.199 183.038 347.884 187.356 344.635 190.939C343.567 192.186 341.319 195.057 336.979 198.796C336.823 198.885 334.508 201.132 330.436 203.803C328.677 198.818 328.344 193.054 328.633 187.579Z" fill="#BE8CF0"/>
<path d="M506.726 148.874C495.82 148.874 486.629 144.29 480.13 135.588C473.386 126.574 469.959 113.71 469.959 97.3072C469.959 80.9045 473.386 68.0405 480.13 59.0268C486.629 50.3469 495.843 45.7399 506.726 45.7399C517.631 45.7399 526.823 50.3247 533.322 59.0268C540.065 68.0405 543.493 80.9045 543.493 97.3072C543.493 143.845 517.787 148.874 506.726 148.874ZM506.726 58.7374C491.614 58.7374 482.956 72.8033 482.956 97.3072C482.956 121.811 491.614 135.877 506.726 135.877C526.378 135.877 530.495 114.912 530.495 97.3072C530.495 72.8033 521.838 58.7374 506.726 58.7374ZM442.651 148.874H433.37C432.346 148.874 431.523 148.051 431.523 147.027V122.924H387.077C381.647 122.924 378.598 116.648 381.981 112.375L432.925 48.1881C436.753 43.3585 444.52 46.0738 444.52 52.2387V109.904H457.74C458.764 109.904 459.588 110.728 459.588 111.751V121.032C459.588 122.056 458.764 122.879 457.74 122.879H444.52V146.96C444.52 148.029 443.674 148.874 442.651 148.874ZM400.52 109.926H431.5V70.8893L400.52 109.926Z" fill="#4A90F4"/>
<path d="M592.123 258.441C585.023 254.68 575.965 251.653 568.041 249.828C542.024 243.841 515.985 247.424 493.528 260.244C483.691 265.808 481.109 269.08 472.029 274.043C461.057 280.03 447.547 284.102 435.774 280.23C431.033 278.716 426.849 275.912 423.6 271.973C425.046 271.016 426.426 269.903 427.717 268.59C435.551 260.778 441.516 243.952 439.246 232.201C436.953 220.228 426.538 216.244 419.905 225.947C413.918 234.716 412.939 252.521 417.212 263.894C418.191 266.476 419.438 268.835 420.884 270.949C415.721 273.798 409.734 274.688 403.413 274.621C391.885 274.443 377.396 270.905 366.001 268.011C358.812 266.142 357.232 266.097 353.182 265.719C343.879 265.118 334.932 267.722 328.9 274.888C325.829 278.538 323.692 283.079 322.936 287.018V287.04C322.78 287.953 323.381 288.821 324.293 288.999C325.206 289.155 326.074 288.554 326.252 287.641L326.274 287.552C326.875 284.28 328.678 280.185 331.371 276.914C336.668 270.459 344.635 268.078 353.07 268.501C357.21 268.679 361.261 269.48 365.4 270.548C377.151 273.442 391.64 276.891 403.436 276.98C410.246 277.025 416.745 275.979 422.331 272.752C425.781 276.958 430.254 279.963 435.395 281.587C447.658 285.527 461.457 281.298 472.697 275.089C481.888 269.97 484.27 266.787 494.129 261.156C516.296 248.337 542.091 244.642 567.975 250.429C577.567 252.566 586.158 255.815 591.967 258.842C592.078 258.909 592.234 258.864 592.301 258.731C592.278 258.664 592.234 258.508 592.123 258.441ZM418.703 263.36C414.119 250.963 416.433 234.338 421.419 227.016C427.161 218.692 435.395 222.364 437.287 232.602C439.379 243.797 433.437 259.843 426.137 267.01C424.913 268.234 423.6 269.28 422.22 270.148C420.818 268.145 419.638 265.875 418.703 263.36Z" fill="#ACA8BE"/>
<path d="M107.942 296.343L134.627 318.176C135.028 318.51 134.627 319.133 134.16 318.888L103.446 303.398C102.979 303.176 102.823 302.597 103.112 302.152L106.651 296.543C106.94 296.12 107.541 296.009 107.942 296.343ZM78.2301 346.241L129.33 356.902C130.109 357.057 129.998 358.193 129.196 358.193L77.1396 358.838C76.3606 358.838 75.7597 358.193 75.8042 357.414L76.6277 347.398C76.7167 346.642 77.4734 346.085 78.2301 346.241ZM104.782 415.279L143.218 400.279C143.796 400.056 144.219 400.857 143.685 401.191L109.5 424.093C108.988 424.427 108.298 424.271 108.009 423.714L104.247 416.726C103.936 416.192 104.181 415.502 104.782 415.279ZM283.631 456.587L259.817 424.048C259.461 423.559 260.107 422.958 260.552 423.358L290.775 449.91C291.221 450.31 291.243 451 290.798 451.401L285.145 456.72C284.722 457.143 284.01 457.076 283.631 456.587ZM339.694 417.127L291.287 397.408C290.553 397.118 290.864 396.028 291.643 396.161L343.033 404.908C343.789 405.042 344.279 405.798 344.079 406.555L341.452 416.259C341.252 417.015 340.429 417.416 339.694 417.127ZM330.992 347.843L297.141 349.735C296.629 349.757 296.517 349.045 297.007 348.889L329.568 339.742C330.057 339.609 330.547 339.92 330.636 340.41L331.793 346.82C331.86 347.332 331.504 347.799 330.992 347.843Z" fill="#EEBDFF"/>
<path d="M199.926 243.908C198.057 251.386 186.194 254.346 176.424 250.562C166.297 246.645 160.6 236.296 165.051 229.041C169.257 222.164 177.514 220.895 187.151 225.012C196.788 229.108 201.863 236.074 199.926 243.908Z" fill="#919DCE"/>
<path d="M267.029 315.55V268.968C267.029 241.081 247.354 215.821 220.269 208.855C206.092 205.227 192.137 207.653 181.988 215.509C173.665 221.963 168.79 231.511 168.078 242.639L167.989 244.843C170.17 247.224 173.041 249.249 176.424 250.563C180.987 252.321 186.017 252.632 190.268 251.675C190.379 245.577 191.091 236.541 195.654 233.136C200.305 229.664 207.382 228.574 214.727 230.465C229.282 234.204 244.728 248.96 244.728 268.991V310.876C244.506 317.709 246.219 323.896 255.967 325.12C262.043 325.855 267.029 321.826 267.029 315.55Z" fill="#512CBC"/>
<path d="M590.384 157.569L577.76 156.893L581.683 83.645C581.835 80.8071 581.964 78.4095 582.068 76.4523C582.271 74.5004 582.466 72.6952 582.653 71.0368C582.845 69.2806 583.04 67.4754 583.237 65.6213C581.588 67.1032 580.098 68.3483 578.768 69.3567C577.438 70.365 575.75 71.6485 573.704 73.2073L562.061 81.7108L555.772 72.6885L585.282 52.1874L595.997 52.7614L590.384 157.569Z" fill="url(#paint3_linear_2667_107987)"/>
<defs>
<linearGradient id="paint0_linear_2667_107987" x1="136.714" y1="45.0273" x2="136.714" y2="178.793" gradientUnits="userSpaceOnUse">
<stop stop-color="#BE8CF0" stop-opacity="0.69"/>
<stop offset="1" stop-color="#4D2191" stop-opacity="0.32"/>
</linearGradient>
<linearGradient id="paint1_linear_2667_107987" x1="304.441" y1="84.2207" x2="304.441" y2="273.33" gradientUnits="userSpaceOnUse">
<stop stop-color="#7B61FF"/>
<stop offset="1" stop-color="#BE8CF0" stop-opacity="0.53"/>
</linearGradient>
<linearGradient id="paint2_linear_2667_107987" x1="459.95" y1="169.618" x2="459.95" y2="300.884" gradientUnits="userSpaceOnUse">
<stop stop-color="#7B43D6"/>
<stop offset="1" stop-color="#571FAB"/>
</linearGradient>
<linearGradient id="paint3_linear_2667_107987" x1="589.352" y1="2.29173" x2="579.789" y2="180.851" gradientUnits="userSpaceOnUse">
<stop stop-color="#4A90F4"/>
<stop offset="1" stop-color="#5F9EF8"/>
</linearGradient>
</defs>
</svg>
