<svg width="55" height="56" viewBox="0 0 55 56" fill="none" xmlns="http://www.w3.org/2000/svg">
<path d="M47.2697 41.5059L40.5168 48.2587" stroke="#685587" stroke-width="3" stroke-linecap="round" stroke-linejoin="round"/>
<path d="M47.2697 48.2587V41.5059H40.5168" stroke="#685587" stroke-width="3" stroke-linecap="round" stroke-linejoin="round"/>
<path d="M6.75281 14.4943L13.5056 7.74146" stroke="#685587" stroke-width="3" stroke-linecap="round" stroke-linejoin="round"/>
<path fill-rule="evenodd" clip-rule="evenodd" d="M21.3839 46.0074C28.2212 46.0074 33.764 40.4646 33.764 33.6272C33.764 26.7899 28.2212 21.2471 21.3839 21.2471C14.5465 21.2471 9.00372 26.7899 9.00372 33.6272C9.00372 40.4646 14.5465 46.0074 21.3839 46.0074Z" stroke="#685587" stroke-width="3" stroke-linecap="round" stroke-linejoin="round"/>
<path d="M41.3927 31.1267C46.2275 26.2919 46.2275 18.4533 41.3927 13.6185C36.558 8.78374 28.7193 8.78374 23.8845 13.6185" stroke="#685587" stroke-width="3" stroke-linecap="round" stroke-linejoin="round"/>
<path fill-rule="evenodd" clip-rule="evenodd" d="M22.9747 28.659L26.3517 32.035C27.2308 32.9139 27.231 34.339 26.3522 35.2182L22.9762 38.5951C22.0972 39.4742 20.6721 39.4744 19.7929 38.5956L16.4161 35.2196C15.5369 34.3407 15.5367 32.9155 16.4156 32.0364L19.7915 28.6595C20.6704 27.7804 22.0956 27.7801 22.9747 28.659Z" stroke="#685587" stroke-width="3" stroke-linecap="round" stroke-linejoin="round"/>
</svg>
