<svg width="34" height="34" viewBox="0 0 34 34" fill="none" xmlns="http://www.w3.org/2000/svg">
<path d="M17.0003 33.4389C26.0762 33.4389 33.4337 26.0815 33.4337 17.0056C33.4337 7.92972 26.0762 0.572266 17.0003 0.572266C7.92447 0.572266 0.567017 7.92972 0.567017 17.0056C0.567017 26.0815 7.92447 33.4389 17.0003 33.4389Z" fill="#FACA30"/>
<path d="M22.6664 5.6651C23.2923 5.6651 23.7997 5.15769 23.7997 4.53177C23.7997 3.90585 23.2923 3.39844 22.6664 3.39844C22.0405 3.39844 21.5331 3.90585 21.5331 4.53177C21.5331 5.15769 22.0405 5.6651 22.6664 5.6651Z" fill="#B58401"/>
<path d="M10.7665 30.0323C11.3924 30.0323 11.8998 29.5249 11.8998 28.899C11.8998 28.273 11.3924 27.7656 10.7665 27.7656C10.1406 27.7656 9.63318 28.273 9.63318 28.899C9.63318 29.5249 10.1406 30.0323 10.7665 30.0323Z" fill="#B58401"/>
<path d="M18.6028 17.0012L17 15.3984L15.3972 17.0012L17 18.604L18.6028 17.0012Z" fill="#27363A"/>
<path d="M25.4025 17.0012L23.7997 15.3984L22.1969 17.0012L23.7997 18.604L25.4025 17.0012Z" fill="#27363A"/>
<path d="M10.2001 18.6028L11.8029 17L10.2001 15.3972L8.59731 17L10.2001 18.6028Z" fill="#27363A"/>
<path d="M22.0036 13.6054L20.3999 15.2091L16.9999 11.8034L13.5999 15.2091L11.9962 13.6054L16.9999 8.60742L22.0036 13.6054Z" fill="#27363A"/>
<path d="M22.0036 20.3986L20.3999 18.7949L16.9999 22.2006L13.5999 18.7949L11.9962 20.3986L16.9999 25.3966L22.0036 20.3986Z" fill="#27363A"/>
<path d="M16.5993 14.994L14.9968 16.5966C14.8906 16.7028 14.8309 16.8469 14.8309 16.9972C14.8309 17.1475 14.8906 17.2916 14.9968 17.3978L16.5993 19.0004C16.7056 19.1066 16.8497 19.1663 17 19.1663C17.1502 19.1663 17.2943 19.1066 17.4006 19.0004L19.0031 17.3978C19.1094 17.2916 19.169 17.1475 19.169 16.9972C19.169 16.8469 19.1094 16.7028 19.0031 16.5966L17.4006 14.994C17.2943 14.8878 17.1502 14.8281 17 14.8281C16.8497 14.8281 16.7056 14.8878 16.5993 14.994ZM17 17.7985L16.1987 16.9972L17 16.1959L17.8012 16.9972L17 17.7985ZM23.3993 14.994L21.7968 16.5966C21.6906 16.7028 21.6309 16.8469 21.6309 16.9972C21.6309 17.1475 21.6906 17.2916 21.7968 17.3978L23.3993 19.0004C23.5056 19.1066 23.6497 19.1663 23.8 19.1663C23.9502 19.1663 24.0943 19.1066 24.2006 19.0004L25.8031 17.3978C25.9094 17.2916 25.969 17.1475 25.969 16.9972C25.969 16.8469 25.9094 16.7028 25.8031 16.5966L24.2006 14.994C24.0943 14.8878 23.9502 14.8281 23.8 14.8281C23.6497 14.8281 23.5056 14.8878 23.3993 14.994ZM23.8 17.7985L22.9987 16.9972L23.8 16.1959L24.6012 16.9972L23.8 17.7985ZM12.2031 16.5966L10.6006 14.994C10.4943 14.8878 10.3502 14.8281 10.2 14.8281C10.0497 14.8281 9.90559 14.8878 9.79933 14.994L8.1968 16.5966C8.09056 16.7028 8.03088 16.8469 8.03088 16.9972C8.03088 17.1475 8.09056 17.2916 8.1968 17.3978L9.79933 19.0004C9.90559 19.1066 10.0497 19.1663 10.2 19.1663C10.3502 19.1663 10.4943 19.1066 10.6006 19.0004L12.2031 17.3978C12.3094 17.2916 12.369 17.1475 12.369 16.9972C12.369 16.8469 12.3094 16.7028 12.2031 16.5966ZM10.2 17.7985L9.3987 16.9972L10.2 16.1959L11.0012 16.9972L10.2 17.7985Z" fill="#1E120B"/>
<path d="M13.1998 15.6032C13.3069 15.7079 13.4508 15.7666 13.6007 15.7666C13.7506 15.7666 13.8945 15.7079 14.0016 15.6032C14.7434 14.8455 17.0004 12.5987 17.0004 12.5987C17.0004 12.5987 19.2575 14.8438 19.9992 15.602C20.1064 15.7068 20.2503 15.7655 20.4001 15.7655C20.55 15.7655 20.6939 15.7068 20.8011 15.602C21.1977 15.1969 21.9995 14.3945 22.4047 13.9984C22.5094 13.8913 22.5681 13.7475 22.5681 13.5977C22.5681 13.448 22.5094 13.3042 22.4047 13.1971C21.1416 11.9601 17.4011 8.19912 17.4011 8.19912C17.2948 8.09288 17.1507 8.0332 17.0004 8.0332C16.8502 8.0332 16.706 8.09288 16.5998 8.19912C16.5998 8.19912 12.8598 11.9601 11.5961 13.1971C11.4914 13.3042 11.4327 13.448 11.4327 13.5977C11.4327 13.7475 11.4914 13.8913 11.5961 13.9984C12.0013 14.3956 12.8031 15.198 13.1998 15.6032ZM17.0004 9.40158L21.2023 13.5989L20.4004 14.4007C20.4004 14.4007 18.1428 12.1556 17.4011 11.3974C17.2939 11.2924 17.1498 11.2337 16.9999 11.2337C16.8499 11.2337 16.7058 11.2924 16.5987 11.3974C15.8569 12.1561 13.5993 14.4007 13.5993 14.4007L12.7986 13.5989L17.0004 9.40158ZM20.8011 18.3946C20.694 18.2897 20.55 18.2309 20.4001 18.2309C20.2502 18.2309 20.1063 18.2897 19.9992 18.3946C19.2575 19.1522 17.0004 21.399 17.0004 21.399C17.0004 21.399 14.7434 19.1539 14.0016 18.3957C13.8945 18.2908 13.7506 18.2321 13.6007 18.2321C13.4508 18.2321 13.3069 18.2908 13.1998 18.3957C12.8031 18.8014 12.0007 19.6021 11.5961 19.9994C11.4915 20.1065 11.433 20.2503 11.433 20.4C11.433 20.5497 11.4915 20.6935 11.5961 20.8006C12.8592 22.0377 15.3492 24.5491 16.5998 25.7986C16.706 25.9049 16.8502 25.9646 17.0004 25.9646C17.1507 25.9646 17.2948 25.9049 17.4011 25.7986C18.6517 24.552 21.141 22.0377 22.4047 20.8006C22.5093 20.6935 22.5679 20.5497 22.5679 20.4C22.5679 20.2503 22.5093 20.1065 22.4047 19.9994C22.0001 19.601 21.1972 18.8003 20.8011 18.3946ZM17.0004 24.5962L12.7986 20.3989L13.6004 19.597L16.5998 22.6004C16.708 22.7032 16.8517 22.7606 17.001 22.7606C17.1503 22.7606 17.2939 22.7032 17.4022 22.6004L20.4004 19.597L21.2023 20.3989L17.0004 24.5962Z" fill="#1E120B"/>
<path d="M17 0C13.6377 0 10.3509 0.997032 7.55531 2.86502C4.75968 4.733 2.58075 7.38804 1.29406 10.4944C0.007366 13.6007 -0.329291 17.0189 0.326658 20.3165C0.982607 23.6142 2.6017 26.6433 4.97919 29.0208C7.35668 31.3983 10.3858 33.0174 13.6835 33.6733C16.9811 34.3293 20.3993 33.9926 23.5056 32.7059C26.612 31.4193 29.267 29.2403 31.135 26.4447C33.003 23.6491 34 20.3623 34 17C33.9949 12.4929 32.2022 8.17183 29.0152 4.98482C25.8282 1.7978 21.5071 0.0050994 17 0ZM17 32.8667C13.4834 32.8622 10.0675 31.6917 7.28721 29.5383C4.50694 27.385 2.51927 24.3704 1.63541 20.9667H3.40001C4.32802 24.1379 6.33995 26.8826 9.08481 28.7221C9.04593 29.0586 9.10938 29.399 9.26686 29.6989C9.42434 29.9988 9.66855 30.2443 9.96764 30.4034C10.2667 30.5625 10.6068 30.6277 10.9435 30.5906C11.2802 30.5535 11.598 30.4158 11.8552 30.1954C13.4938 30.8397 15.2393 31.1692 17 31.1667C20.0653 31.1667 23.0478 30.1725 25.5 28.3333C27.9522 26.4942 29.7417 23.9093 30.6 20.9667H32.3629C31.4791 24.3701 29.4917 27.3845 26.7118 29.5378C23.9318 31.6911 20.5164 32.8618 17 32.8667ZM10.2 28.9C10.2 28.7879 10.2332 28.6784 10.2955 28.5852C10.3578 28.492 10.4463 28.4194 10.5498 28.3765C10.6534 28.3336 10.7673 28.3224 10.8772 28.3442C10.9871 28.3661 11.0881 28.42 11.1674 28.4993C11.2466 28.5785 11.3006 28.6795 11.3225 28.7894C11.3443 28.8994 11.3331 29.0133 11.2902 29.1168C11.2473 29.2204 11.1747 29.3089 11.0815 29.3712C10.9883 29.4334 10.8787 29.4667 10.7667 29.4667C10.6164 29.4667 10.4722 29.407 10.366 29.3007C10.2597 29.1944 10.2 29.0503 10.2 28.9ZM32.7743 15.3H28.7787C28.4115 12.7572 27.2306 10.4017 25.4127 8.58613C25.3604 8.53209 25.2978 8.48901 25.2286 8.45942C25.1594 8.42982 25.0851 8.41429 25.0098 8.41375C24.9346 8.4132 24.86 8.42765 24.7904 8.45624C24.7208 8.48483 24.6576 8.527 24.6045 8.58027C24.5513 8.63355 24.5093 8.69688 24.481 8.76656C24.4526 8.83624 24.4383 8.91087 24.4391 8.98611C24.4398 9.06135 24.4556 9.13568 24.4854 9.20477C24.5152 9.27387 24.5584 9.33633 24.6126 9.38853C25.54 10.3178 26.2891 11.4093 26.8226 12.6089L25.8321 13.6H24.9333C24.7831 13.6 24.6389 13.6597 24.5326 13.766C24.4264 13.8722 24.3667 14.0164 24.3667 14.1667C24.3667 14.317 24.4264 14.4611 24.5326 14.5674C24.6389 14.6736 24.7831 14.7333 24.9333 14.7333H26.0667C26.2169 14.7333 26.3611 14.6736 26.4673 14.5673L27.2606 13.774C27.4846 14.4743 27.6354 15.1959 27.7106 15.9273C27.7246 16.0671 27.7901 16.1966 27.8943 16.2909C27.9985 16.3851 28.1339 16.4373 28.2744 16.4373H32.8502C32.8678 16.8136 32.8678 17.1944 32.8502 17.5706H28.2767C28.1357 17.5707 27.9999 17.6233 27.8957 17.7181C27.7914 17.8129 27.7262 17.9432 27.7128 18.0835C27.6408 18.8149 27.4917 19.5367 27.268 20.2368L26.4673 19.4361C26.415 19.3829 26.3526 19.3405 26.2839 19.3114C26.2151 19.2823 26.1413 19.2671 26.0667 19.2667H24.9333C24.7831 19.2667 24.6389 19.3264 24.5326 19.4326C24.4264 19.5389 24.3667 19.683 24.3667 19.8333C24.3667 19.9836 24.4264 20.1278 24.5326 20.234C24.6389 20.3403 24.7831 20.4 24.9333 20.4H25.8321L26.822 21.39C25.971 23.2787 24.5958 24.8834 22.8598 26.0138C21.1238 27.1441 19.0999 27.7525 17.0283 27.7667H17C16.8497 27.7667 16.7056 27.8264 16.5993 27.9326C16.493 28.0389 16.4333 28.183 16.4333 28.3333C16.435 28.4097 16.4518 28.4849 16.4826 28.5547C16.5135 28.6246 16.5578 28.6876 16.6131 28.7403C16.6684 28.7929 16.7335 28.8341 16.8048 28.8616C16.876 28.889 16.952 28.902 17.0283 28.9C19.8805 28.8761 22.6306 27.836 24.7847 25.9664C26.9387 24.0968 28.3555 21.5204 28.7804 18.7H32.7743C32.7335 19.0825 32.6757 19.4593 32.6083 19.8333H30.1716C30.046 19.8334 29.924 19.8751 29.8247 19.952C29.7254 20.029 29.6545 20.1367 29.6231 20.2583C28.9006 23.0566 27.2685 25.5354 24.9834 27.3048C22.6984 29.0743 19.8901 30.0341 17 30.0333C15.441 30.0357 13.8945 29.7553 12.4355 29.206C12.4554 29.1052 12.4658 29.0027 12.4667 28.9C12.466 28.5659 12.3669 28.2395 12.1817 27.9614C11.9966 27.6833 11.7336 27.466 11.4256 27.3365C11.1177 27.207 10.7784 27.1711 10.4502 27.2333C10.1219 27.2955 9.8193 27.453 9.58007 27.6862C7.00965 25.9162 5.16322 23.2791 4.37921 20.2583C4.34781 20.1367 4.27689 20.029 4.1776 19.952C4.07831 19.8751 3.95628 19.8334 3.83067 19.8333H1.39401C1.32657 19.4593 1.26877 19.0825 1.22797 18.7H5.22467C5.58064 21.2458 6.7626 23.6044 8.58897 25.4133C8.69585 25.5165 8.83899 25.5736 8.98757 25.5723C9.13615 25.5711 9.27827 25.5115 9.38334 25.4064C9.4884 25.3013 9.548 25.1592 9.54929 25.0106C9.55058 24.862 9.49346 24.7189 9.39024 24.612C8.46503 23.6794 7.71629 22.587 7.18024 21.3877L8.16794 20.4H9.06667C9.21696 20.4 9.3611 20.3403 9.46737 20.234C9.57364 20.1278 9.63334 19.9836 9.63334 19.8333C9.63334 19.683 9.57364 19.5389 9.46737 19.4326C9.3611 19.3264 9.21696 19.2667 9.06667 19.2667H7.93334C7.78306 19.2667 7.63895 19.3264 7.53271 19.4327L6.73201 20.2334C6.51251 19.5312 6.36442 18.8086 6.29001 18.0767C6.27591 17.9364 6.21004 17.8064 6.10526 17.7121C6.00048 17.6178 5.86431 17.566 5.72334 17.5667H1.14751C1.12994 17.1904 1.12994 16.8096 1.14751 16.4333H5.72334C5.86431 16.434 6.00048 16.3822 6.10526 16.2879C6.21004 16.1936 6.27591 16.0636 6.29001 15.9233C6.36232 15.1909 6.51103 14.4681 6.73371 13.7666L7.53554 14.5684C7.64128 14.6736 7.78421 14.7329 7.93334 14.7333H9.06667C9.21696 14.7333 9.3611 14.6736 9.46737 14.5674C9.57364 14.4611 9.63334 14.317 9.63334 14.1667C9.63334 14.0164 9.57364 13.8722 9.46737 13.766C9.3611 13.6597 9.21696 13.6 9.06667 13.6H8.16794L7.17684 12.6089C8.01916 10.7078 9.39636 9.09275 11.1406 7.9607C12.8848 6.82865 14.9206 6.22848 17 6.23333C17.1503 6.23333 17.2944 6.17363 17.4007 6.06736C17.507 5.96109 17.5667 5.81695 17.5667 5.66667C17.5667 5.51638 17.507 5.37224 17.4007 5.26597C17.2944 5.1597 17.1503 5.1 17 5.1C14.1432 5.11752 11.3866 6.15481 9.22691 8.02493C7.06723 9.89506 5.64649 12.475 5.22071 15.3H1.22571C1.26651 14.9175 1.32431 14.5407 1.39174 14.1667H3.82841C3.95401 14.1666 4.07605 14.1249 4.17533 14.0479C4.27462 13.971 4.34554 13.8633 4.37694 13.7417C4.81591 12.021 5.60311 10.4087 6.6899 9.00432C7.77669 7.59996 9.13996 6.43342 10.6954 5.57681C12.2509 4.7202 13.9656 4.19172 15.7334 4.02403C17.5012 3.85635 19.2847 4.05302 20.9735 4.6019C20.984 4.9163 21.0823 5.22148 21.2572 5.48295C21.4321 5.74441 21.6767 5.95171 21.9633 6.08142C22.2499 6.21112 22.567 6.25805 22.8789 6.21691C23.1908 6.17576 23.4849 6.04817 23.728 5.84857C26.6454 7.61042 28.7599 10.4414 29.6214 13.7388C29.6522 13.8609 29.7228 13.9692 29.822 14.0467C29.9213 14.1241 30.0435 14.1663 30.1693 14.1667H32.606C32.6757 14.5407 32.7335 14.9175 32.7743 15.3ZM22.1 4.53333C22.1 4.42126 22.1332 4.3117 22.1955 4.21851C22.2578 4.12532 22.3463 4.05269 22.4498 4.0098C22.5534 3.96691 22.6673 3.95569 22.7772 3.97755C22.8871 3.99942 22.9881 4.05339 23.0674 4.13264C23.1466 4.21189 23.2006 4.31286 23.2225 4.42278C23.2443 4.5327 23.2331 4.64664 23.1902 4.75019C23.1473 4.85373 23.0747 4.94223 22.9815 5.0045C22.8883 5.06676 22.7787 5.1 22.6667 5.1C22.5164 5.1 22.3722 5.0403 22.266 4.93403C22.1597 4.82776 22.1 4.68362 22.1 4.53333ZM30.6 13.0333C29.5969 9.63195 27.3603 6.72748 24.3281 4.88863C24.4121 4.50898 24.3629 4.11202 24.1889 3.7643C24.0149 3.41659 23.7267 3.13928 23.3725 2.97886C23.0183 2.81844 22.6197 2.78467 22.2436 2.88322C21.8675 2.98177 21.5367 3.20665 21.3067 3.52013C19.5071 2.93789 17.6089 2.72323 15.7248 2.88892C13.8407 3.05461 12.009 3.59726 10.3387 4.48464C8.66842 5.37202 7.19347 6.58603 6.0015 8.05456C4.80954 9.5231 3.92486 11.2162 3.40001 13.0333H1.63541C2.51359 9.62589 4.49954 6.60704 7.2809 4.45162C10.0623 2.29619 13.4812 1.12649 17 1.12649C20.5188 1.12649 23.9377 2.29619 26.7191 4.45162C29.5005 6.60704 31.4864 9.62589 32.3646 13.0333H30.6Z" fill="#1E120B"/>
</svg>
