<svg width="39" height="63" viewBox="0 0 39 63" fill="none" xmlns="http://www.w3.org/2000/svg">
<path d="M19.6 0V23.1896C19.6 23.2891 19.5 23.3886 19.4 23.3886C18.7 23.6872 18.1 23.9858 17.4 24.2844C16.5 24.6825 15.5 25.0806 14.6 25.5782L11.3 27.0711L8.6 28.2654L5.3 29.7583C4.4 30.1564 3.5 30.5545 2.5 31.0521C1.8 31.3507 1 31.7488 0.3 32.0474C0.2 32.0474 0.2 32.1469 0.1 32.0474H0C0.3 31.5498 0.6 31.1517 0.9 30.654C2.5 27.9668 4.2 25.2796 5.8 22.5924C7.5 19.7062 9.3 16.8199 11 13.9336C12.6 11.2464 14.2 8.55924 15.8 5.97156C17 3.98104 18.2 2.09005 19.3 0.099526C19.5 0.099526 19.5 0 19.6 0C19.6 0 19.5 0 19.6 0Z" fill="#8A92B2"/>
<path d="M39 32.0474C37.5 33.0427 35.9 33.9384 34.4 34.8341C29.5 37.7204 24.7 40.5071 19.8 43.3934C19.7 43.3934 19.7 43.4929 19.6 43.4929C19.5 43.4929 19.5 43.3934 19.5 43.3934V43.0948V23.6872V23.3886C19.5 23.2891 19.6 23.2891 19.7 23.2891C20.1 23.4882 20.5 23.6872 21 23.8863C22.2 24.4834 23.5 24.981 24.7 25.5782C25.8 26.0758 26.8 26.5735 27.9 26.9716C29 27.4692 30 27.9668 31.1 28.4645C32 28.8626 33 29.2607 33.9 29.7583C34.8 30.1564 35.8 30.5545 36.7 31.0521C37.4 31.3507 38.1 31.7488 38.9 32.0474C38.9 31.9479 38.9 32.0474 39 32.0474Z" fill="#454A75"/>
<path d="M19.6001 63C19.6001 63 19.5001 63 19.6001 63C19.5001 63 19.5001 63 19.4001 62.9005C17.4001 60.1137 15.5001 57.4265 13.5001 54.6398L7.5001 46.2796C5.6001 43.5924 3.6001 40.9052 1.7001 38.1185L0.200098 36.0284C0.200098 35.9289 0.100098 35.9289 0.100098 35.8294C0.200098 35.8294 0.200098 35.9289 0.300098 35.9289C3.0001 37.5213 5.8001 39.1137 8.5001 40.7062C11.6001 42.5972 14.8001 44.3886 17.9001 46.2796C18.4001 46.5782 19.0001 46.8768 19.5001 47.1754C19.6001 47.1754 19.6001 47.2749 19.6001 47.3744V63Z" fill="#8A92B2"/>
<path d="M0.100098 32.0474C0.100098 32.0474 0.200098 32.0474 0.100098 32.0474C0.200098 32.0474 0.200098 32.0474 0.100098 32.0474C0.100098 32.1469 0.100098 32.1469 0.100098 32.0474Z" fill="#808080"/>
<path d="M0.199951 32.1469C0.199951 32.0474 0.199951 32.0474 0.199951 32.1469C1.19995 31.6493 2.19995 31.2512 3.19995 30.7536L7.09995 28.9621C8.09995 28.4645 9.09995 28.0664 10.1 27.5687C11.5 26.872 13 26.2749 14.4 25.5782C15.4 25.1801 16.4 24.6825 17.4 24.2844C18.1 23.9858 18.7999 23.6872 19.5 23.2891C19.6 23.2891 19.6 23.1896 19.7 23.1896V43.4929C19.6 43.5924 19.6 43.4929 19.5 43.4929C19.2 43.2938 18.9 43.1943 18.7 42.9953L0.399951 32.2464C0.299951 32.1469 0.199951 32.1469 0.199951 32.1469ZM38.9 35.8294C38.9 35.9289 38.8999 35.9289 38.7999 36.0284C33 44.1896 27.2 52.2512 21.4 60.4123C20.7999 61.3081 20.2 62.1043 19.6 63V62.9005V62.7014V47.4739V47.1754C20.9 46.3791 22.2 45.5829 23.5 44.8863L38.7999 35.9289C38.7999 35.8294 38.9 35.8294 38.9 35.8294Z" fill="#62688F"/>
<path d="M19.6001 23.2891V23.09V0.298578V0.0995255L38.8001 31.7488C38.9001 31.8483 39.0001 31.9479 39.0001 32.0474C38.6001 31.8483 38.2001 31.6493 37.7001 31.4502C37.2001 31.2512 36.7001 30.9526 36.2001 30.7536C35.9001 30.654 35.6001 30.455 35.2001 30.3554C34.7001 30.1564 34.1001 29.8578 33.6001 29.6588C33.3001 29.5592 33.0001 29.3602 32.7001 29.2607L30.6001 28.3649C30.2001 28.1659 29.9001 28.0663 29.5001 27.8673C29.0001 27.6682 28.5001 27.3697 28.0001 27.1706C27.7001 27.0711 27.4001 26.872 27.1001 26.7725L25.0001 25.8768C24.6001 25.6777 24.3001 25.5782 23.9001 25.3791C23.4001 25.1801 22.9001 24.8815 22.4001 24.6825C22.1001 24.4834 21.7001 24.3839 21.4001 24.1848L19.6001 23.2891Z" fill="#62688F"/>
</svg>
