<svg width="26" height="26" viewBox="0 0 26 26" fill="none" xmlns="http://www.w3.org/2000/svg">
<path fill-rule="evenodd" clip-rule="evenodd" d="M19.957 21.9984H6.04319C4.93773 21.9984 4.04236 21.1031 4.04236 19.9976V8.99302C4.04236 7.88756 4.93773 6.99219 6.04319 6.99219H19.957C21.0624 6.99219 21.9578 7.88756 21.9578 8.99302V19.9976C21.9578 21.1031 21.0614 21.9984 19.957 21.9984Z" stroke="#D7D4ED" stroke-width="1.5" stroke-linecap="round" stroke-linejoin="round"/>
<path d="M13.0001 9.99609C14.3816 9.99609 15.5011 11.1156 15.5011 12.4971C15.5011 13.8787 14.3816 14.9982 13.0001 14.9982C11.6185 14.9982 10.499 13.8787 10.499 12.4971C10.499 11.1156 11.6185 9.99609 13.0001 9.99609" stroke="#D7D4ED" stroke-width="1.5" stroke-linecap="round" stroke-linejoin="round"/>
<path d="M17.5019 18.9967C17.3709 18.6676 17.1678 18.3715 16.9077 18.1304V18.1304C16.4685 17.7222 15.8932 17.4961 15.293 17.4961C14.2926 17.4961 11.7075 17.4961 10.7071 17.4961C10.1068 17.4961 9.5326 17.7232 9.09242 18.1304V18.1304C8.83231 18.3715 8.62922 18.6676 8.49817 18.9967" stroke="#D7D4ED" stroke-width="1.5" stroke-linecap="round" stroke-linejoin="round"/>
<path d="M5.77905 6.99344V5.99302C5.77905 4.88756 6.67443 3.99219 7.77989 3.99219H18.2192C19.3247 3.99219 20.2201 4.88756 20.2201 5.99302V6.99344" stroke="#D7D4ED" stroke-width="1.5" stroke-linecap="round" stroke-linejoin="round"/>
</svg>
