<svg width="24" height="20" viewBox="0 0 24 20" fill="none" xmlns="http://www.w3.org/2000/svg">
<path d="M15.1057 13.1914H9.17627" stroke="#B08815" stroke-width="1.5" stroke-linecap="round" stroke-linejoin="round"/>
<path fill-rule="evenodd" clip-rule="evenodd" d="M8.72247 12.8957C6.96736 11.6407 5.91489 9.4497 6.28548 7.0377C6.6867 4.4307 8.83414 2.3497 11.4243 2.0427C15.0195 1.6157 18.0702 4.4477 18.0702 7.9997C18.0702 10.0247 17.076 11.8117 15.5571 12.8977C15.2844 13.0927 15.1055 13.3947 15.1055 13.7327V16.4997C15.1055 17.8807 13.9996 18.9997 12.6349 18.9997H11.6467C10.2819 18.9997 9.17607 17.8807 9.17607 16.4997V13.7367C9.17607 13.3957 8.99621 13.0917 8.72247 12.8957Z" stroke="#B08815" stroke-width="1.5" stroke-linecap="round" stroke-linejoin="round"/>
<path d="M20.0469 3.00055L21.2229 1.81055" stroke="#B08815" stroke-width="1.5" stroke-linecap="round" stroke-linejoin="round"/>
<path d="M4.23508 13L3.05908 14.19" stroke="#B08815" stroke-width="1.5" stroke-linecap="round" stroke-linejoin="round"/>
<path d="M5.22336 2.00055L4.04736 0.810547" stroke="#B08815" stroke-width="1.5" stroke-linecap="round" stroke-linejoin="round"/>
<path d="M20.0469 13L21.2229 14.19" stroke="#B08815" stroke-width="1.5" stroke-linecap="round" stroke-linejoin="round"/>
<path d="M21.0352 8H22.7053" stroke="#B08815" stroke-width="1.5" stroke-linecap="round" stroke-linejoin="round"/>
<path d="M1.57666 8H3.24678" stroke="#B08815" stroke-width="1.5" stroke-linecap="round" stroke-linejoin="round"/>
<path d="M9.17627 16H14.9772" stroke="#B08815" stroke-width="1.5" stroke-linecap="round" stroke-linejoin="round"/>
</svg>
