<svg width="1440" height="245" viewBox="0 0 1440 245" fill="none" xmlns="http://www.w3.org/2000/svg">
<path d="M0 243.424L12.1367 244.197C14.1554 244.318 16.1742 244.475 18.205 244.559L24.2853 244.632C28.3349 244.668 32.3845 244.752 36.434 244.74L48.5827 244.294C50.6015 244.197 52.6322 244.185 54.651 244.028L60.7073 243.545C64.7449 243.207 68.7824 242.929 72.82 242.531L84.8845 241.082C86.8913 240.828 88.91 240.635 90.9168 240.321L96.925 239.379C100.927 238.739 104.94 238.159 108.93 237.483L120.874 235.237C122.869 234.851 124.863 234.501 126.846 234.102L132.782 232.81L144.667 230.226C160.432 226.459 176.162 222.51 191.735 217.994C222.942 209.204 253.776 199.109 284.671 189.232C315.553 179.367 346.207 168.656 375.888 155.555C405.581 142.514 434.06 126.744 460.965 108.596C474.399 99.5034 487.533 89.9401 500.078 79.6523C512.672 69.4128 524.917 58.7144 537.654 48.5956C543.987 43.5 550.512 38.6339 557.121 33.9005L562.156 30.4592L564.679 28.7445L567.251 27.1144L572.406 23.8542L577.669 20.7751C578.546 20.268 579.423 19.7367 580.313 19.2537L583.004 17.8167L588.4 14.9671L593.915 12.3468C594.841 11.9121 595.742 11.4653 596.679 11.0548L599.491 9.88352C606.917 6.575 614.692 3.991 622.635 2.17977C630.602 0.489281 638.785 -0.416366 646.944 0.187379L648.47 0.283998L649.996 0.465115C651.006 0.597938 652.027 0.694558 653.036 0.863607C655.043 1.25 657.062 1.58807 659.033 2.15559C661.027 2.61444 662.95 3.35102 664.897 3.97891C666.783 4.78793 668.706 5.48829 670.508 6.47843C677.778 10.2096 684.616 14.6773 691.033 19.7366C694.229 22.2724 697.293 25.0013 700.213 27.8148C703.169 30.6041 706.053 33.49 708.925 36.3759C720.329 47.9919 731.108 60.1875 742.92 71.3085C748.82 76.863 754.948 82.2122 761.533 86.8852C768.19 91.4374 775.172 95.5791 782.598 98.8031C797.306 105.553 813.084 109.707 829.03 112.315C845 114.911 861.21 115.925 877.384 115.611C909.745 114.959 941.997 109.791 973.12 100.844C980.894 98.5978 988.633 96.1708 996.227 93.3573C1003.82 90.5439 1011.3 87.3923 1018.82 84.3615C1026.34 81.3307 1033.97 78.4811 1041.82 76.3317C1045.74 75.2208 1049.72 74.4118 1053.74 73.7235C1055.76 73.4699 1057.78 73.1681 1059.81 73.0111L1062.86 72.8179L1064.39 72.7214H1065.91C1074.06 72.5402 1082.21 73.796 1090.03 76.0057C1097.86 78.1912 1105.48 81.0772 1112.92 84.3374C1127.8 90.882 1142.01 98.7789 1156.62 105.794C1163.93 109.296 1171.38 112.52 1178.81 115.78C1186.24 119.016 1193.71 122.18 1201.23 125.199C1216.27 131.224 1231.56 136.694 1247.18 141.029C1254.99 143.19 1262.86 145.086 1270.83 146.583C1278.77 148.189 1286.76 149.554 1294.77 150.81C1310.78 153.285 1326.9 155.06 1343.07 156.171C1375.41 158.393 1407.92 158.055 1440.19 154.782C1407.94 158.139 1375.41 158.586 1343.05 156.461C1326.87 155.398 1310.74 153.671 1294.69 151.244C1286.68 150.013 1278.68 148.672 1270.72 147.091C1262.74 145.617 1254.83 143.734 1247.01 141.597C1231.35 137.298 1216.05 131.816 1200.98 125.803C1193.44 122.796 1185.97 119.632 1178.52 116.408C1171.09 113.148 1163.64 109.936 1156.31 106.434C1141.66 99.4189 1127.45 91.5461 1112.61 85.0377C1105.19 81.7895 1097.6 78.9278 1089.81 76.7664C1082.04 74.5809 1073.97 73.3492 1065.91 73.5424H1064.4L1062.88 73.639L1059.87 73.8322C1057.86 74.0013 1055.87 74.3031 1053.86 74.5446C1049.88 75.2329 1045.92 76.0298 1042.03 77.1407C1034.24 79.2901 1026.65 82.1398 1019.13 85.1706C1011.61 88.2014 1004.13 91.365 996.528 94.1905C988.909 97.016 981.159 99.4551 973.372 101.713C942.177 110.709 909.865 115.925 877.396 116.614C861.162 116.952 844.892 115.937 828.85 113.353C812.832 110.745 796.958 106.591 782.142 99.8053C774.667 96.5693 767.614 92.4034 760.884 87.8029C754.215 83.0816 748.063 77.7203 742.139 72.1417C730.266 60.9845 719.464 48.7889 708.084 37.209C705.224 34.3231 702.364 31.4493 699.42 28.6721C696.5 25.8466 693.496 23.1659 690.324 20.6543C683.991 15.6433 677.178 11.1876 670.016 7.5048C668.249 6.53881 666.363 5.85051 664.524 5.05356C662.614 4.42567 660.739 3.70118 658.78 3.25441C656.846 2.68689 654.863 2.36089 652.892 1.98656C651.907 1.82959 650.897 1.73297 649.9 1.58807L648.41 1.40696L646.908 1.31037C638.881 0.706627 630.794 1.576 622.911 3.25441C615.04 5.0415 607.35 7.5893 599.96 10.8737L597.16 12.0449C596.234 12.4555 595.333 12.9023 594.408 13.337L588.928 15.9331L583.557 18.7586L580.877 20.1834C579.988 20.6664 579.123 21.1977 578.246 21.7049L572.995 24.7598L567.851 28.008L565.28 29.6381L562.768 31.3406L557.746 34.7579C551.148 39.4671 544.648 44.3212 538.315 49.3926C525.601 59.4752 513.345 70.1615 500.727 80.401C488.146 90.7009 474.988 100.276 461.518 109.357C434.565 127.505 406.001 143.275 376.26 156.304C346.532 169.393 315.842 180.079 284.935 189.92C254.029 199.761 223.182 209.832 191.939 218.574C176.342 223.042 160.6 226.954 144.811 230.673L132.914 233.221L126.966 234.489C124.984 234.887 122.977 235.237 120.994 235.612L109.038 237.821C105.036 238.486 101.023 239.065 97.0212 239.693L91.0129 240.611C89.0062 240.913 86.9874 241.106 84.9807 241.347L72.9041 242.76C68.8665 243.146 64.829 243.412 60.7794 243.738L54.7231 244.209C52.7043 244.354 50.6736 244.366 48.6548 244.451L36.5061 244.861C32.4566 244.873 28.407 244.765 24.3454 244.716L18.2651 244.632C16.2463 244.535 14.2155 244.378 12.1967 244.245L0 243.424Z" fill="#594C90"/>
</svg>
