<svg width="1440" height="165" viewBox="0 0 1440 165" fill="none" xmlns="http://www.w3.org/2000/svg">
<path d="M0.168945 164.621L11.7889 164.114L17.6049 163.86L23.3968 163.353L34.9807 162.339L46.5286 160.902L52.2965 160.19L58.0404 159.308L69.5402 157.521L80.9919 155.468C84.8131 154.78 88.6224 154.104 92.4196 153.307C122.869 147.33 153.031 140.025 183.384 133.565C198.549 130.268 213.81 127.418 229.107 124.834L240.619 123.132C242.542 122.854 244.452 122.54 246.375 122.299L252.155 121.635C256.012 121.212 259.857 120.705 263.727 120.355L275.335 119.497C306.313 117.577 337.364 117.517 368.294 115.235C383.759 114.112 399.177 112.397 414.462 109.789C429.747 107.181 444.887 103.812 459.848 99.7428C474.796 95.6494 489.613 91.0005 504.093 85.4582C518.585 79.952 532.8 73.7092 547.016 67.4665C561.231 61.2117 575.435 54.9207 589.854 49.161C597.052 46.251 604.334 43.522 611.652 40.9138C615.329 39.658 618.982 38.354 622.695 37.1827C626.409 36.0235 630.134 34.9126 633.907 33.9587C648.951 30.0706 664.489 27.6798 680.086 28.1386C683.992 28.2715 687.849 28.6095 691.706 28.7786L703.326 29.2495C707.207 29.4065 711.089 29.5876 714.97 29.9136L726.566 30.9883C742.007 32.5097 757.412 34.3088 772.866 35.5405C780.592 36.1684 788.331 36.6514 796.057 36.8446C803.796 37.0016 811.547 36.8204 819.285 36.4703C850.24 34.8764 880.99 30.3845 911.572 25.2889C926.869 22.7411 942.13 19.9277 957.403 17.1988L1003.26 9.16894C1010.9 7.81655 1018.54 6.47624 1026.2 5.2446C1033.85 3.97674 1041.52 2.75714 1049.24 1.88774C1056.96 1.03042 1064.75 0.48709 1072.52 0.716513C1080.3 0.958011 1088.07 1.92396 1095.62 3.84387C1103.19 5.71548 1110.44 8.7463 1117.31 12.3929C1124.23 15.955 1130.91 19.9397 1137.49 24.0693C1150.66 32.3406 1163.34 41.3365 1176.37 49.801C1202.53 66.5006 1229.2 82.6447 1257.79 94.78C1261.36 96.3014 1264.96 97.7383 1268.58 99.1269C1272.2 100.503 1275.89 101.711 1279.55 102.979C1283.21 104.271 1286.94 105.321 1290.64 106.505C1294.36 107.628 1298.11 108.618 1301.83 109.68C1316.82 113.677 1332.04 116.768 1347.4 118.918C1378.09 123.18 1409.45 123.82 1440.09 118.737C1409.46 123.917 1378.09 123.373 1347.36 119.208C1331.99 117.094 1316.73 114.064 1301.72 110.103C1297.99 109.052 1294.24 108.062 1290.51 106.951C1286.81 105.78 1283.06 104.742 1279.4 103.462C1275.72 102.206 1272.03 101.011 1268.39 99.6341C1264.76 98.2455 1261.14 96.8206 1257.57 95.3112C1228.92 83.2001 1202.19 67.056 1175.99 50.3806C1162.95 41.9282 1150.26 32.9444 1137.11 24.6972C1130.54 20.5797 1123.86 16.6071 1116.96 13.0691C1110.11 9.44664 1102.92 6.46414 1095.42 4.61668C1087.93 2.72092 1080.22 1.76702 1072.5 1.5376C1064.77 1.30817 1057.03 1.8636 1049.34 2.72091C1041.65 3.59031 1034 4.82201 1026.34 6.10194C1018.69 7.34566 1011.04 8.698 1003.41 10.0504L957.583 18.1285C942.31 20.8695 927.061 23.7071 911.752 26.267C881.158 31.3867 850.384 35.9269 819.357 37.557C811.595 37.9072 803.832 38.1004 796.057 37.9555C788.283 37.7743 780.532 37.2913 772.793 36.6755C757.316 35.456 741.899 33.681 726.47 32.1716L714.898 31.0849C711.053 30.7589 707.183 30.5656 703.314 30.4087L691.682 29.9257C687.801 29.7567 683.919 29.4186 680.074 29.2737C664.621 28.8028 649.18 31.1574 634.207 35.0093C630.458 35.9632 626.745 37.0619 623.044 38.2091C619.355 39.3683 615.702 40.6724 612.025 41.9161C604.719 44.5122 597.449 47.2169 590.263 50.1149C575.855 55.8505 561.652 62.1174 547.436 68.3601C533.221 74.5908 518.981 80.8214 504.441 86.3276C489.913 91.87 475.073 96.5067 460.1 100.6C445.104 104.657 429.927 108.026 414.618 110.61C399.309 113.206 383.856 114.909 368.378 116.02C337.412 118.266 306.349 118.29 275.407 120.186L263.811 121.031C259.954 121.381 256.108 121.876 252.251 122.299L246.471 122.951C244.548 123.18 242.638 123.506 240.715 123.772L229.215 125.462C213.918 128.022 198.669 130.872 183.505 134.132C153.139 140.496 122.941 147.704 92.4676 153.597C88.6704 154.382 84.8492 155.046 81.0279 155.722L69.5642 157.738L58.0644 159.489L52.3085 160.359L46.5286 161.059L34.9807 162.46L23.3848 163.438L17.5929 163.921L11.7769 164.162L0.168945 164.621Z" fill="#594C90"/>
</svg>
