<svg width="1440" height="224" viewBox="0 0 1440 224" fill="none" xmlns="http://www.w3.org/2000/svg">
<path d="M0.0361328 222.463L12.0046 222.97L17.9888 223.212L23.985 223.164L35.9654 223.055L47.9339 222.403L53.9181 222.065L59.8783 221.497L71.8106 220.35L83.695 218.78L89.6311 217.996L95.5432 217.017L107.367 215.061L119.132 212.791L125.02 211.656C126.978 211.258 128.925 210.811 130.872 210.4L142.576 207.841C158.137 204.218 173.65 200.378 189.08 196.176C219.962 187.929 250.628 178.849 281.498 170.529C312.369 162.27 343.215 153.745 373.256 142.817C388.277 137.384 403.069 131.286 417.537 124.488C432.005 117.689 446.148 110.215 459.955 102.149C466.853 98.1159 473.678 93.9381 480.395 89.6032C483.76 87.4418 487.089 85.232 490.417 83.0103C493.698 80.7281 497.014 78.4822 500.247 76.1396C513.261 66.8299 525.914 57.013 538.916 47.6549C551.918 38.2969 565.244 29.3252 579.351 21.706C582.836 19.7257 586.465 18.0111 590.034 16.1999C591.824 15.3063 593.675 14.5214 595.489 13.6883C597.316 12.8792 599.118 11.9978 600.993 11.2854C604.706 9.78808 608.407 8.25457 612.216 6.95049C616.026 5.70677 619.859 4.49926 623.776 3.60571C625.723 3.08649 627.706 2.76049 629.664 2.33786C631.647 2.03599 633.618 1.63753 635.625 1.44433C639.602 0.913039 643.64 0.731895 647.653 0.743969C651.679 0.768119 655.692 1.17868 659.669 1.81865C663.635 2.519 667.54 3.59365 671.326 4.97018C675.099 6.44332 678.704 8.15798 682.309 9.93299C685.902 11.7201 689.446 13.6158 692.895 15.6806C696.344 17.7333 699.708 19.9793 702.917 22.3822C706.161 24.7368 709.322 27.2122 712.482 29.6875C725.051 39.6493 737.044 50.2873 749.913 59.7661C753.146 62.1086 756.39 64.439 759.731 66.6125C760.572 67.1559 761.389 67.7235 762.242 68.2427L764.814 69.7641C766.544 70.7543 768.203 71.8531 769.981 72.7466L775.316 75.4272L776.65 76.0914L778.02 76.6709L780.772 77.8422C784.401 79.4964 788.198 80.7281 791.935 82.0805C807.076 87.0916 822.865 89.9292 838.715 91.511C854.589 93.0565 870.595 93.117 886.529 92.2959C918.409 90.5329 950.048 85.0509 980.882 76.7555C988.597 74.6786 996.264 72.4448 1003.83 69.909C1011.4 67.3733 1018.9 64.5839 1026.48 62.012C1034.07 59.4521 1041.75 57.0975 1049.6 55.5278C1057.46 53.9822 1065.53 53.2577 1073.54 53.7407C1081.57 54.1513 1089.49 55.9383 1097.06 58.5465C1104.66 61.0702 1112.03 64.2821 1119.25 67.7476C1133.7 74.6906 1147.53 82.7808 1161.78 90.0016C1190.47 104.045 1219.6 117.569 1250.21 126.842L1255.95 128.521L1261.73 130.09C1265.59 131.092 1269.49 131.95 1273.39 132.843C1281.19 134.594 1289.02 136.104 1296.89 137.516C1312.63 140.269 1328.5 142.262 1344.42 143.578C1376.26 146.174 1408.36 146.005 1440.12 142.395C1408.37 146.102 1376.25 146.367 1344.39 143.868C1328.46 142.6 1312.57 140.656 1296.82 137.951C1288.95 136.575 1281.09 135.077 1273.28 133.351C1269.37 132.469 1265.47 131.624 1261.6 130.634L1255.81 129.076L1250.04 127.41C1234.71 122.809 1219.73 117.086 1205.03 110.807C1190.32 104.492 1175.83 97.7054 1161.47 90.6295C1147.18 83.4087 1133.34 75.3306 1118.93 68.4238C1111.73 64.9703 1104.39 61.7826 1096.82 59.2831C1089.28 56.699 1081.45 54.9361 1073.51 54.5497C1065.56 54.0788 1057.58 54.8153 1049.77 56.3489C1041.96 57.9186 1034.32 60.2732 1026.76 62.8331C1019.2 65.393 1011.7 68.2064 1004.12 70.7542C996.54 73.3141 988.849 75.56 981.135 77.649C950.252 85.9928 918.565 91.511 886.601 93.3222C870.631 94.1674 854.577 94.1192 838.643 92.5856C822.721 91.0159 806.848 88.1904 791.611 83.1552C787.837 81.8028 784.016 80.5591 780.351 78.8928L777.575 77.7215L776.193 77.1298L774.848 76.4536L769.464 73.7609C767.674 72.8674 765.979 71.7564 764.237 70.7542L761.642 69.2207C760.788 68.6895 759.959 68.1219 759.118 67.5785C755.753 65.3929 752.485 63.0505 749.24 60.708C736.311 51.205 724.282 40.567 711.749 30.6414C708.613 28.1661 705.452 25.7028 702.232 23.3602C699.036 20.9694 695.731 18.7476 692.306 16.707C688.894 14.6543 685.373 12.7706 681.804 10.9955C678.235 9.23261 674.606 7.50592 670.929 6.069C667.204 4.71662 663.383 3.65402 659.477 2.96575C655.572 2.33785 651.619 1.91525 647.641 1.8911C643.676 1.87902 639.698 2.036 635.757 2.56729C633.774 2.76049 631.827 3.14689 629.857 3.43669C627.91 3.85931 625.951 4.17325 624.029 4.6804C620.147 5.54979 616.35 6.75727 612.565 7.98891C608.792 9.28092 605.103 10.7903 601.414 12.2876C599.551 13 597.749 13.8694 595.934 14.6784C594.12 15.5116 592.281 16.2844 590.503 17.1779C586.946 18.9771 583.329 20.6917 579.856 22.6599C565.797 30.243 552.494 39.1784 539.505 48.5002C526.515 57.8461 513.849 67.651 500.799 76.9486C497.555 79.3032 494.238 81.5492 490.946 83.8313C487.617 86.0652 484.277 88.2629 480.9 90.4243C474.159 94.7471 467.333 98.9371 460.412 102.958C446.569 111.024 432.402 118.498 417.898 125.284C403.394 132.071 388.577 138.168 373.533 143.59C343.443 154.506 312.561 162.994 281.679 171.229C250.808 179.501 220.13 188.569 189.224 196.768C173.783 200.922 158.245 204.713 142.672 208.287L130.944 210.811C128.985 211.222 127.038 211.668 125.08 212.055L119.192 213.178L107.416 215.412L95.5793 217.331L89.6672 218.285L83.719 219.058L71.8347 220.592L59.9023 221.703L53.9301 222.258L47.9459 222.584L35.9775 223.2L23.997 223.272L18.0008 223.309L12.0166 223.043L0.0361328 222.463Z" fill="#594C90"/>
</svg>
