<svg width="1440" height="167" viewBox="0 0 1440 167" fill="none" xmlns="http://www.w3.org/2000/svg">
<path d="M0.28833 166.767C63.1226 159.546 123.313 138.62 185.871 129.54C201.493 127.246 217.258 125.869 233.048 125.664C240.943 125.628 248.85 125.869 256.72 126.509C264.579 127.221 272.438 128.224 280.201 129.673C311.311 135.118 341.881 143.197 372.884 149.017C434.841 161.055 499.129 159.425 560.714 145.938C576.143 142.701 591.464 138.898 606.701 134.817C614.319 132.764 621.914 130.639 629.496 128.453L652.303 122.09L697.906 109.375C705.488 107.225 712.963 104.75 720.401 102.13C727.839 99.4975 735.253 96.7927 742.619 93.9793C772.096 82.7255 800.983 69.9261 830.087 57.67C844.627 51.5118 859.215 45.4381 873.924 39.6905C888.644 33.967 903.496 28.5695 918.529 23.7033C933.549 18.8372 948.762 14.5023 964.155 10.9643C971.87 9.27385 979.56 7.45048 987.347 6.14639C995.122 4.76985 1002.94 3.65899 1010.8 2.77752C1026.5 1.03874 1042.32 0.326357 1058.12 0.930102C1073.89 1.558 1089.73 3.816 1104.74 8.92368C1106.6 9.61195 1108.49 10.2036 1110.3 10.9884L1113.05 12.0994C1113.97 12.4858 1114.85 12.9083 1115.77 13.3189C1119.4 14.9128 1122.89 16.7965 1126.31 18.813C1129.71 20.8295 1133 23.0754 1136.17 25.43C1139.38 27.7484 1142.53 30.1393 1145.66 32.5543C1158.19 42.2263 1170.25 52.4778 1182.38 62.6086C1206.67 82.7979 1231.41 102.661 1258.55 118.866C1265.32 122.899 1272.25 126.726 1279.32 130.192C1286.44 133.585 1293.64 136.833 1301 139.659C1315.7 145.394 1330.83 150.007 1346.23 153.388C1361.64 156.793 1377.34 158.821 1393.11 159.292C1408.86 159.751 1424.71 158.568 1440.12 155.102C1424.72 158.616 1408.87 159.836 1393.11 159.437C1377.33 159.003 1361.6 157.022 1346.18 153.665C1330.75 150.333 1315.59 145.756 1300.85 140.069C1293.46 137.268 1286.25 134.044 1279.1 130.663C1271.98 127.209 1265.05 123.394 1258.25 119.373C1244.64 111.307 1231.64 102.263 1219 92.7476C1206.38 83.2205 1194.07 73.2829 1181.92 63.152C1169.77 53.0332 1157.71 42.8059 1145.2 33.158C1142.06 30.7551 1138.91 28.3763 1135.71 26.058C1132.54 23.7034 1129.29 21.4936 1125.9 19.4892C1122.51 17.4848 1119.04 15.6252 1115.43 14.0555C1114.53 13.657 1113.64 13.2344 1112.74 12.848L1110 11.7492C1108.19 10.9764 1106.31 10.3847 1104.46 9.7085C1089.54 4.6612 1073.79 2.41529 1058.08 1.81155C1042.33 1.21988 1026.55 1.94437 1010.9 3.69523C1003.06 4.57669 995.266 5.69965 987.503 7.07618C979.729 8.38027 972.062 10.2036 964.36 11.9061C949.003 15.4562 933.826 19.7911 918.817 24.6693C903.821 29.5476 888.992 34.9451 874.284 40.6806C859.588 46.4404 845.024 52.5261 830.496 58.6964C801.404 70.9765 772.54 83.8122 743.028 95.1143C735.65 97.9278 728.224 100.633 720.773 103.253C713.323 105.873 705.813 108.348 698.194 110.498L652.568 123.164L629.76 129.504C622.166 131.677 614.572 133.802 606.941 135.843C591.692 139.924 576.347 143.716 560.894 146.928C499.189 160.379 434.757 161.949 372.716 149.814C341.677 143.957 311.131 135.855 280.068 130.373C272.318 128.924 264.507 127.91 256.66 127.197C248.813 126.545 240.931 126.304 233.048 126.328C217.294 126.509 201.553 127.886 185.943 130.132C123.457 139.007 63.1466 159.739 0.28833 166.767Z" fill="#594C90"/>
</svg>
