<svg width="1440" height="201" viewBox="0 0 1440 201" fill="none" xmlns="http://www.w3.org/2000/svg">
<path d="M0.0722656 200.503L11.9085 200.756L17.8326 200.877L23.7568 200.708L35.593 200.382L47.4052 199.537L53.3174 199.114L59.2054 198.462L70.9816 197.158L82.7097 195.479L88.5737 194.634C90.5204 194.332 92.4671 193.97 94.4138 193.632C125.561 188.379 156.323 181.038 186.929 173.225C217.547 165.473 248.093 157.299 278.963 150.537C309.833 143.847 340.8 137.46 371.154 128.729C386.33 124.358 401.327 119.395 416.035 113.648C430.743 107.9 445.175 101.464 459.307 94.4004C473.426 87.3125 487.305 79.7173 500.691 71.3373C514.102 62.9815 527.176 54.0582 540.454 45.4487C553.756 36.8756 567.251 28.5439 581.382 21.3835C588.412 17.7369 595.646 14.5008 602.952 11.458C606.653 10.0452 610.306 8.52371 614.067 7.26792C617.816 5.98798 621.613 4.84088 625.471 3.88696C633.161 1.93083 641.044 0.723347 648.975 0.421474C656.906 0.167902 664.909 0.85613 672.611 2.94509C676.469 3.9956 680.182 5.38423 683.895 6.73662C687.608 8.10109 691.309 9.53798 694.95 11.0956C702.292 14.1627 709.166 18.1837 715.991 22.1563C729.63 30.2103 742.788 39.0008 756.631 46.5959C760.091 48.4916 763.576 50.3271 767.121 52.0658C768.876 52.9715 770.702 53.6959 772.492 54.517L775.184 55.7124C776.085 56.1109 777.023 56.4128 777.936 56.775L783.476 58.8278L789.111 60.5786C790.974 61.2065 792.896 61.6774 794.795 62.1604C796.706 62.6314 798.604 63.1747 800.527 63.5853C815.908 66.9662 831.65 68.7171 847.403 69.2605C863.169 69.7797 878.959 69.2243 894.676 67.8839C926.123 65.1671 957.282 59.504 987.924 51.9571C995.591 50.0614 1003.23 48.0811 1010.79 45.8231C1018.36 43.5771 1025.9 41.1984 1033.51 39.0853C1041.13 36.9722 1048.86 35.1247 1056.72 34.1225C1064.58 33.1082 1072.56 32.903 1080.44 33.8569C1088.32 34.8108 1096.01 37.0205 1103.38 39.9305C1110.76 42.8164 1117.92 46.2216 1124.94 49.8682C1138.98 57.1735 1152.47 65.4689 1166.39 72.9312C1194.38 87.5539 1222.82 101.657 1252.84 111.535C1256.59 112.778 1260.36 113.925 1264.15 115.024C1267.93 116.123 1271.78 117.029 1275.6 118.019C1279.42 119.009 1283.29 119.818 1287.12 120.724C1290.98 121.569 1294.85 122.342 1298.72 123.151C1314.22 126.169 1329.87 128.427 1345.58 129.925C1377.01 132.907 1408.78 132.919 1440.13 128.959C1408.79 133.016 1377.01 133.1 1345.56 130.215C1329.83 128.766 1314.17 126.544 1298.65 123.573C1294.78 122.776 1290.9 122.028 1287.04 121.183C1283.19 120.289 1279.32 119.48 1275.49 118.502C1271.66 117.524 1267.81 116.618 1264.02 115.532C1260.22 114.433 1256.43 113.298 1252.67 112.066C1222.57 102.225 1194.1 88.1214 1166.08 73.5229C1152.13 66.0606 1138.64 57.7772 1124.61 50.5081C1117.61 46.8736 1110.47 43.4926 1103.11 40.6309C1095.78 37.745 1088.17 35.5715 1080.36 34.6297C1072.54 33.6999 1064.63 33.9052 1056.83 34.9195C1049.02 35.9217 1041.34 37.7571 1033.74 39.8822C1026.15 41.9953 1018.61 44.3982 1011.03 46.6442C1003.46 48.9142 995.795 50.9067 988.128 52.8145C957.45 60.4096 926.256 66.1089 894.748 68.862C878.995 70.2144 863.169 70.794 847.355 70.2868C831.554 69.7555 815.752 68.0288 800.275 64.6358C798.34 64.2132 796.429 63.6819 794.507 63.211C792.584 62.728 790.661 62.257 788.775 61.6291L783.091 59.8662L777.515 57.8014C776.59 57.4392 775.641 57.1373 774.74 56.7388L772.012 55.5313C770.209 54.7102 768.359 53.9736 766.592 53.068C763.036 51.3292 759.527 49.4939 756.042 47.586C742.139 39.9668 728.945 31.1883 715.354 23.1585C708.529 19.1738 701.715 15.189 694.457 12.1462C690.84 10.5885 687.163 9.16368 683.462 7.79922C679.761 6.43476 676.048 5.05822 672.287 4.03186C664.717 1.96705 656.822 1.27876 648.987 1.52026C641.14 1.81006 633.33 3.00549 625.711 4.93748C621.89 5.86724 618.117 7.01438 614.392 8.28225C610.654 9.52596 607.013 11.0473 603.324 12.448C596.042 15.4668 588.832 18.6787 581.827 22.3133C567.731 29.4375 554.261 37.7329 540.971 46.2819C527.693 54.8672 514.619 63.7785 501.172 72.1343C487.738 80.5143 473.835 88.1094 459.679 95.1973C445.512 102.249 431.044 108.685 416.312 114.433C401.579 120.18 386.535 125.131 371.346 129.49C340.944 138.208 309.954 144.56 279.083 151.213C248.225 157.926 217.679 166.077 187.037 173.781C156.407 181.497 125.609 188.754 94.4378 193.91C92.4911 194.236 90.5444 194.586 88.5978 194.888L82.7337 195.721L71.0056 197.363L59.2295 198.631L53.3414 199.259L47.4293 199.657L35.605 200.466L23.7688 200.756L17.8447 200.901L11.9205 200.756L0.0722656 200.503Z" fill="#594C90"/>
</svg>
