<svg width="1440" height="166" viewBox="0 0 1440 166" fill="none" xmlns="http://www.w3.org/2000/svg">
<path d="M0.132812 165.582L11.8008 165.328L17.6288 165.195L23.4448 164.809L35.0888 164.024L46.6967 162.792L52.5007 162.177L58.2806 161.38L69.8285 159.762C73.6738 159.158 77.495 158.482 81.3403 157.842C85.1735 157.202 89.0188 156.574 92.828 155.801C123.422 150.078 153.692 142.809 184.033 135.914C199.198 132.424 214.435 129.212 229.696 126.181L241.184 124.092L246.928 123.054L252.695 122.16L264.231 120.373L275.815 118.936C306.734 115.374 337.796 113.225 368.595 108.83C383.988 106.62 399.297 103.867 414.413 100.208C429.53 96.5737 444.467 92.1784 459.175 87.1311C473.871 82.0597 488.399 76.4086 502.542 69.9486C516.698 63.4885 530.541 56.3643 544.444 49.3246C558.347 42.297 572.298 35.3298 586.586 29.1112C593.712 25.9476 600.958 23.0738 608.24 20.2966C615.558 17.628 622.924 15.0078 630.494 13.112C634.267 12.0977 638.089 11.3008 641.922 10.5521C645.767 9.87593 649.624 9.2601 653.506 8.8737C661.268 8.07676 669.127 7.89562 676.914 8.70463C680.819 9.09103 684.652 9.79143 688.486 10.3469L700.034 12.0615C703.879 12.6652 707.724 13.3173 711.545 14.1746C715.343 15.0319 719.14 15.9254 722.913 16.8552C738.042 20.5863 753.014 24.8246 768.179 28.2418C771.976 29.0871 775.773 29.9082 779.583 30.6448C781.481 31.0433 783.404 31.3088 785.315 31.6469C787.225 31.985 789.136 32.299 791.07 32.5164C798.749 33.6152 806.512 34.0982 814.262 34.4725C845.325 35.5834 876.412 32.5647 907.186 28.3022C922.591 26.1529 937.936 23.5809 953.233 20.7916L999.088 12.1098L1010.55 9.9363C1014.37 9.18765 1018.17 8.4028 1021.98 7.61794C1029.6 6.03612 1037.22 4.44225 1044.91 3.17438C1060.23 0.578279 1076.13 -0.303221 1091.45 3.06568C1099.09 4.73201 1106.44 7.55752 1113.45 10.9747C1120.48 14.3557 1127.32 18.1352 1134.02 22.1199C1147.43 30.0773 1160.35 38.8195 1173.65 46.9096C1200.36 62.8606 1227.59 78.2682 1256.61 89.5582C1260.23 90.983 1263.88 92.3113 1267.56 93.5912C1271.23 94.8832 1274.96 95.9578 1278.68 97.1412C1282.39 98.3004 1286.15 99.2906 1289.89 100.365C1293.65 101.367 1297.42 102.309 1301.18 103.275C1316.31 106.91 1331.63 109.711 1347.06 111.631C1377.91 115.435 1409.31 115.845 1440.09 111.148C1409.32 115.942 1377.91 115.628 1347.03 111.921C1331.57 110.049 1316.23 107.296 1301.07 103.71C1297.3 102.756 1293.52 101.826 1289.76 100.836C1286.02 99.7615 1282.24 98.7955 1278.52 97.6363C1274.81 96.465 1271.06 95.4024 1267.38 94.1225C1263.7 92.8425 1260.04 91.5264 1256.4 90.1137C1227.31 78.8357 1200.04 63.4402 1173.29 47.5134C1159.96 39.4232 1147.04 30.7051 1133.64 22.7719C1126.94 18.8114 1120.13 15.044 1113.11 11.6872C1106.12 8.29413 1098.85 5.4927 1091.27 3.86259C1076.08 0.541989 1060.31 1.42346 1045.04 4.01957C1037.37 5.28743 1029.77 6.88132 1022.15 8.47521C1018.34 9.27215 1014.53 10.057 1010.71 10.8057L999.244 12.9913L953.377 21.7214C938.068 24.5228 922.711 27.1189 907.306 29.2803C876.496 33.579 845.373 36.6459 814.202 35.5592C806.416 35.1849 798.629 34.714 790.902 33.6152C788.968 33.3978 787.033 33.0839 785.11 32.7458C783.188 32.4077 781.253 32.142 779.342 31.7436C775.521 31.007 771.712 30.198 767.903 29.3528C752.69 25.9476 737.705 21.7214 722.6 18.0144C718.827 17.0726 715.042 16.1911 711.257 15.3337C707.484 14.4885 703.651 13.8365 699.817 13.2327L688.281 11.506C684.424 10.9385 680.591 10.2382 676.758 9.85176C669.067 9.04274 661.28 9.21178 653.578 9.98457C649.721 10.371 645.887 10.9747 642.078 11.6388C638.269 12.3875 634.472 13.1724 630.722 14.1746C623.188 16.0462 615.87 18.6544 608.564 21.3108C601.294 24.0639 594.06 26.9257 586.946 30.0772C572.671 36.2716 558.744 43.2147 544.828 50.2181C530.925 57.2337 517.058 64.3578 502.867 70.8058C488.675 77.2659 474.135 82.9049 459.403 87.9764C444.659 93.0237 429.698 97.4069 414.546 101.029C399.405 104.676 384.048 107.417 368.643 109.615C337.808 113.986 306.734 116.111 275.827 119.625L264.255 121.05L252.732 122.825L246.964 123.718L241.22 124.757L229.744 126.833C214.483 129.84 199.258 133.052 184.081 136.493C153.716 143.291 123.41 150.476 92.792 156.103C88.9708 156.852 85.1375 157.48 81.2922 158.107C77.4469 158.735 73.6137 159.399 69.7684 159.991L58.2085 161.573L52.4286 162.358L46.6246 162.961L35.0167 164.157L23.3727 164.906L17.5447 165.28L11.7167 165.389L0.132812 165.582Z" fill="#594C90"/>
</svg>
