<svg width="1440" height="165" viewBox="0 0 1440 165" fill="none" xmlns="http://www.w3.org/2000/svg">
<path d="M0.193115 164.661L11.801 163.888L17.605 163.501L23.3849 162.873L34.9568 161.618L46.4686 159.951L52.2245 159.118L57.9564 158.128L69.4201 156.136L80.8358 153.902C84.645 153.165 88.4543 152.417 92.2395 151.583C122.617 145.244 152.755 137.794 183.204 131.756C198.417 128.653 213.738 126.166 229.131 124.125C236.846 123.304 244.549 122.29 252.311 121.915L258.115 121.529L261.023 121.336C261.996 121.275 262.958 121.288 263.931 121.263L275.575 121.07C306.614 121.191 337.616 123.05 368.631 122.761C384.132 122.652 399.633 121.952 415.051 120.382C430.468 118.824 445.801 116.421 461.002 113.342C468.596 111.797 476.154 110.07 483.677 108.174C487.438 107.232 491.175 106.23 494.924 105.204C498.649 104.117 502.374 103.079 506.076 101.895C520.892 97.3309 535.468 91.9696 549.984 86.4997C564.5 81.0177 578.98 75.3908 593.568 70.0779C600.862 67.4093 608.192 64.8374 615.558 62.3741C619.247 61.1545 622.924 59.9229 626.661 58.812C630.398 57.7132 634.147 56.711 637.933 55.8174C653.073 52.2191 668.515 50.1543 683.956 48.6087C691.682 47.7755 699.445 47.3167 707.208 47.0269L730.46 46.1696C745.961 45.6021 761.462 45.0587 776.939 44.1772C784.678 43.7304 792.417 43.2475 800.131 42.5471C807.846 41.8226 815.548 40.9532 823.227 39.8785C838.584 37.8017 853.869 35.1452 869.13 32.3559C884.391 29.5545 899.604 26.5599 914.829 23.5533C945.266 17.552 975.716 11.418 1006.44 6.93819C1014.12 5.80315 1021.81 4.78891 1029.51 3.82292C1037.22 2.869 1044.93 1.98751 1052.68 1.45621C1068.15 0.429845 1083.96 0.864535 1098.97 5.22357C1106.49 7.27631 1113.7 10.4158 1120.47 14.2556C1127.27 18.0472 1133.88 22.1526 1140.34 26.4634C1153.3 35.0728 1165.78 44.3342 1178.55 53.1972C1204.19 70.7058 1230.37 87.6589 1258.56 100.712C1265.6 103.96 1272.75 106.979 1280.06 109.587C1287.33 112.292 1294.72 114.671 1302.14 116.892C1317.02 121.3 1332.19 124.693 1347.51 127.108C1362.83 129.51 1378.32 130.899 1393.82 131.032C1409.32 131.165 1424.86 130.054 1440.13 127.277C1424.87 130.09 1409.33 131.261 1393.82 131.177C1378.3 131.092 1362.8 129.752 1347.46 127.397C1332.13 125.031 1316.92 121.686 1302.02 117.315C1294.59 115.105 1287.17 112.751 1279.89 110.07C1272.56 107.486 1265.39 104.479 1258.32 101.243C1230.06 88.2144 1203.84 71.2612 1178.17 53.7647C1165.38 44.9138 1152.89 35.6644 1139.95 27.0912C1133.48 22.7925 1126.88 18.6991 1120.11 14.9439C1113.37 11.1282 1106.23 8.03705 1098.77 6.00847C1083.86 1.70981 1068.16 1.2872 1052.75 2.32564C1045.03 2.86901 1037.32 3.75046 1029.63 4.71645C1021.94 5.68244 1014.25 6.70877 1006.59 7.84381C975.896 12.3598 945.471 18.518 915.033 24.5555C899.808 27.5742 884.595 30.5809 869.322 33.4064C854.061 36.2199 838.764 38.8884 823.383 40.9894C815.693 42.0762 807.978 42.9577 800.251 43.6822C792.513 44.3946 784.774 44.8776 777.023 45.3364C761.522 46.242 746.021 46.7975 730.52 47.3771C715.018 48.0774 699.481 48.0895 684.088 49.7558C668.671 51.2772 653.278 53.3179 638.209 56.8921C634.448 57.7857 630.699 58.7757 626.986 59.8625C623.272 60.9613 619.595 62.1809 615.918 63.4004C608.564 65.8516 601.234 68.4116 593.952 71.068C579.364 76.3568 564.896 81.9717 550.356 87.4416C535.816 92.8874 521.228 98.2365 506.376 102.801C502.675 103.984 498.926 105.023 495.201 106.097C491.451 107.124 487.702 108.114 483.929 109.056C476.395 110.939 468.824 112.666 461.206 114.2C445.981 117.279 430.624 119.657 415.171 121.203C399.717 122.761 384.192 123.449 368.667 123.533C337.616 123.787 306.614 121.891 275.611 121.734L263.991 121.915C263.018 121.94 262.057 121.927 261.083 121.976L258.187 122.169L252.383 122.555C244.633 122.918 236.942 123.932 229.24 124.741C213.87 126.757 198.549 129.233 183.349 132.3C152.899 138.229 122.725 145.582 92.3236 151.837C88.5264 152.658 84.7171 153.383 80.9079 154.119L69.4802 156.317L58.0045 158.273L52.2726 159.239L46.5167 160.048L34.9929 161.678L23.421 162.898L17.6411 163.513L11.8371 163.888L0.193115 164.661Z" fill="#594C90"/>
</svg>
