<svg width="1440" height="165" viewBox="0 0 1440 165" fill="none" xmlns="http://www.w3.org/2000/svg">
<path d="M0.264404 164.74C31.4592 161.902 62.1734 155.478 92.6953 148.559C123.217 141.652 153.655 134.178 184.561 129.07C215.408 123.963 246.963 121.403 278.146 125.098C309.269 128.648 340.031 134.673 371.069 138.573C386.583 140.505 402.18 141.858 417.813 142.208C433.447 142.594 449.092 142.16 464.678 140.964C480.263 139.745 495.801 137.813 511.182 135.035C526.563 132.234 541.812 128.696 556.94 124.711C572.081 120.751 587.102 116.356 602.098 111.888L624.593 105.138C632.092 102.868 639.614 100.694 647.184 98.6658C662.313 94.5965 677.586 91.0344 692.979 88.1606C700.646 86.6995 708.24 84.8159 715.799 82.8235C723.357 80.8191 730.939 78.8508 738.474 76.7619C753.554 72.6081 768.563 68.1404 783.511 63.5278C798.472 58.9152 813.409 54.2543 828.297 49.4123C858.074 39.7524 887.839 29.9475 918.084 21.7366C933.201 17.6311 948.402 13.8154 963.735 10.6518C979.032 7.29499 994.509 4.74722 1010.07 2.91183C1025.63 1.11267 1041.29 0.0621196 1056.96 0.158719C1072.62 0.279468 1088.39 2.04245 1103.38 6.84826C1107.1 8.09197 1110.79 9.4685 1114.39 11.0624C1117.97 12.6683 1121.46 14.4917 1124.85 16.4961C1131.57 20.6016 1137.95 25.1538 1144.29 29.7664C1156.95 39.052 1169.12 48.9534 1181.44 58.6495C1206.13 77.9211 1231.37 96.7338 1258.85 111.803C1272.53 119.41 1286.92 125.677 1301.66 130.93C1316.41 136.17 1331.52 140.372 1346.87 143.403C1362.23 146.386 1377.81 148.221 1393.46 148.571C1409.09 148.909 1424.78 147.75 1440.12 144.526C1424.8 147.799 1409.09 149.006 1393.46 148.716C1377.8 148.426 1362.19 146.639 1346.82 143.693C1331.45 140.711 1316.3 136.545 1301.52 131.353C1286.75 126.148 1272.31 119.906 1258.57 112.335C1244.8 104.824 1231.58 96.3353 1218.74 87.3395C1205.9 78.3196 1193.36 68.9012 1181.02 59.2171C1168.68 49.533 1156.5 39.6437 1143.86 30.3822C1137.53 25.7817 1131.12 21.2294 1124.47 17.1723C1121.1 15.1799 1117.64 13.3807 1114.07 11.7869C1110.5 10.205 1106.84 8.85264 1103.14 7.621C1088.25 2.86349 1072.56 1.12474 1056.96 1.01606C1041.34 0.931539 1025.7 2.00621 1010.18 3.81745C994.653 5.66491 979.212 8.22479 963.939 11.5937C948.618 14.7694 933.441 18.6092 918.349 22.7146C888.151 30.9497 858.422 40.7908 828.645 50.4749C813.757 55.3411 798.808 60.014 783.86 64.6508C768.899 69.2755 753.891 73.7794 738.798 77.9332C731.24 80.0101 723.669 81.9783 716.099 83.9827C708.517 85.963 700.91 87.8467 693.195 89.3077C677.814 92.1695 662.578 95.7074 647.461 99.7525C639.902 101.769 632.392 103.93 624.894 106.2L602.387 112.926C587.378 117.37 572.334 121.753 557.181 125.701C542.028 129.674 526.755 133.2 511.338 136.001C495.909 138.766 480.347 140.698 464.738 141.894C449.116 143.077 433.447 143.488 417.777 143.089C402.12 142.727 386.486 141.351 370.949 139.406C339.875 135.47 309.124 129.408 278.038 125.834C246.939 122.115 215.456 124.639 184.621 129.698C153.727 134.709 123.265 142.075 92.7193 148.897C62.2094 155.671 31.4712 161.999 0.264404 164.74Z" fill="#594C90"/>
</svg>
