<svg width="1440" height="193" viewBox="0 0 1440 193" fill="none" xmlns="http://www.w3.org/2000/svg">
<path d="M0.360596 170.846C32.2404 165.702 63.4472 157.225 94.7141 149.268C125.969 141.323 157.476 133.715 189.668 130.648C197.707 129.851 205.783 129.501 213.858 129.356C221.933 129.32 230.008 129.634 238.059 130.347C246.086 131.192 254.113 132.291 262.008 134.054C269.903 135.816 277.677 138.002 285.404 140.369C316.322 149.763 346.364 161.729 377.21 171.22C381.067 172.403 384.924 173.563 388.806 174.649C392.675 175.772 396.616 176.654 400.51 177.668L412.238 180.626L424.098 183.005L430.022 184.188C432.005 184.551 433.964 185.046 435.958 185.299L447.915 187.086L453.899 187.98C454.896 188.113 455.894 188.306 456.891 188.403L459.895 188.704L471.924 189.912C504.02 192.834 536.428 192.52 568.452 188.837C600.476 185.106 632.116 178.151 662.734 168.02L674.197 164.156C676.12 163.553 677.971 162.743 679.857 162.031L685.493 159.821L696.752 155.402L707.784 150.451L713.299 147.976C715.138 147.143 717 146.358 718.779 145.404L729.557 139.91C736.803 136.372 743.773 132.291 750.839 128.378C778.873 112.343 805.886 94.5686 833.26 77.386C846.911 68.7283 860.778 60.4087 874.789 52.3426C881.879 48.4545 888.884 44.4094 896.118 40.8111L901.513 38.0339C903.316 37.1041 905.094 36.1623 906.945 35.3291L917.916 30.1731C932.672 23.6044 947.693 17.4945 963.218 12.9543C970.897 10.3944 978.792 8.66774 986.638 6.69953C994.497 4.82792 1002.49 3.51175 1010.5 2.50954C1026.55 0.505103 1042.78 0.070427 1058.89 1.39867C1066.94 2.06279 1074.97 3.23404 1082.88 4.90038C1090.79 6.56672 1098.61 8.76436 1106.18 11.6261C1113.75 14.4758 1121.13 17.905 1128.08 22.0709C1135.05 26.2125 1141.55 31.1391 1147.6 36.5004C1159.87 47.0538 1171.74 58.0541 1183.58 69.0785C1207.21 91.1273 1230.93 113.273 1257.38 131.88C1259 133.075 1260.69 134.21 1262.37 135.321L1267.4 138.69C1270.78 140.912 1274.25 142.965 1277.68 145.102C1279.41 146.14 1281.19 147.094 1282.94 148.097C1284.71 149.063 1286.43 150.125 1288.24 151.019L1293.62 153.772L1296.32 155.148L1299.07 156.416C1313.67 163.275 1328.88 168.853 1344.45 173.031C1360.03 177.221 1376.02 179.914 1392.13 180.675C1408.22 181.435 1424.48 180.252 1440.14 176.255C1424.5 180.3 1408.24 181.532 1392.12 180.832C1376 180.119 1359.98 177.475 1344.37 173.321C1328.76 169.191 1313.51 163.649 1298.86 156.827L1296.11 155.559L1293.41 154.194L1288 151.453C1286.19 150.572 1284.45 149.509 1282.69 148.543C1280.93 147.541 1279.14 146.587 1277.41 145.561C1273.98 143.424 1270.49 141.383 1267.1 139.161L1262.04 135.804C1260.35 134.693 1258.68 133.571 1257.05 132.375C1230.52 113.78 1206.77 91.6223 1183.11 69.5977C1171.26 58.5854 1159.39 47.5972 1147.12 37.0679C1141.06 31.7067 1134.62 26.8526 1127.69 22.735C1120.77 18.6054 1113.44 15.2123 1105.9 12.3747C1098.37 9.53714 1090.59 7.36364 1082.71 5.70938C1074.83 4.05512 1066.85 2.89594 1058.82 2.25597C1042.77 0.951884 1026.58 1.41072 1010.61 3.41515C1002.62 4.42945 994.665 5.74562 986.831 7.61723C979.02 9.58544 971.137 11.3121 963.483 13.872C948.005 18.4122 933.045 24.5221 918.325 31.0908L907.378 36.2468C905.539 37.08 903.761 38.0218 901.958 38.9516L896.575 41.7288C889.353 45.3271 882.359 49.3843 875.293 53.2603C861.306 61.3264 847.475 69.6581 833.837 78.3278C806.487 95.5346 779.486 113.357 751.427 129.429C744.35 133.341 737.368 137.422 730.098 140.96L719.283 146.454C717.505 147.408 715.63 148.193 713.792 149.026L708.252 151.502L697.185 156.452L685.89 160.872L680.242 163.082C678.355 163.794 676.493 164.603 674.57 165.207L663.082 169.059C632.392 179.177 600.669 186.121 568.573 189.827C536.476 193.498 504.008 193.776 471.852 190.806L459.799 189.574L456.783 189.272C455.774 189.163 454.788 188.982 453.791 188.849L447.807 187.944L435.826 186.133C433.82 185.879 431.861 185.384 429.878 185.022L423.942 183.826L412.07 181.423L400.33 178.453C396.424 177.427 392.483 176.545 388.601 175.41C384.72 174.311 380.851 173.152 376.994 171.957C346.123 162.417 316.094 150.415 285.224 141.009C277.521 138.63 269.746 136.444 261.888 134.681C254.029 132.918 246.038 131.808 238.023 130.962C229.996 130.238 221.945 129.912 213.882 129.948C205.831 130.081 197.768 130.443 189.741 131.204C157.596 134.174 126.077 141.673 94.8102 149.521C63.4953 157.418 32.2644 165.81 0.360596 170.846Z" fill="#594C90"/>
</svg>
