<svg width="1440" height="175" viewBox="0 0 1440 175" fill="none" xmlns="http://www.w3.org/2000/svg">
<path d="M0.324463 168.806C63.5793 160.064 124.13 137.919 187.602 130.094C195.52 129.176 203.463 128.391 211.442 128.053L214.434 127.896L217.426 127.824L223.411 127.691C227.4 127.727 231.39 127.691 235.379 127.908C251.337 128.416 267.211 130.915 282.676 134.779C313.715 142.217 344.056 152.203 374.987 159.907C405.869 167.756 437.581 172.211 469.412 173.419C501.244 174.675 533.16 172.441 564.607 167.333C580.325 164.773 595.946 161.609 611.423 157.818C626.913 154.075 642.246 149.716 657.506 145.127C672.755 140.503 687.944 135.6 702.905 130.166C717.841 124.636 732.381 118.079 746.765 111.197C775.533 97.4314 803.411 81.8548 831.698 67.0389C859.936 52.1868 888.596 37.9505 918.421 26.4793C933.333 20.7679 948.51 15.7689 963.951 11.6755L966.847 10.9027L969.755 10.2144L975.583 8.86204C979.476 7.9685 983.346 7.00249 987.275 6.27799C995.11 4.75656 1003 3.53698 1010.94 2.64344C1026.8 0.844276 1042.82 0.337133 1058.75 1.3635C1074.67 2.40194 1090.57 5.15505 1105.65 10.5284C1113.17 13.2332 1120.47 16.6021 1127.38 20.6592C1130.81 22.712 1134.15 24.9337 1137.35 27.3487C1140.53 29.7758 1143.65 32.2873 1146.75 34.7989C1159.15 44.8935 1171.1 55.5074 1183.07 66.085C1207.01 87.204 1231.25 108.19 1258.05 125.554C1284.68 143.159 1314.5 155.705 1345.44 163.252L1348.33 163.976L1351.25 164.592L1357.11 165.812C1361.01 166.584 1364.95 167.152 1368.88 167.84C1372.84 168.311 1376.79 168.867 1380.76 169.241L1386.72 169.7L1389.7 169.929L1392.68 170.026C1408.59 170.617 1424.62 169.422 1440.14 165.703C1424.64 169.47 1408.6 170.714 1392.68 170.171L1389.68 170.086L1386.7 169.869L1380.74 169.434C1376.78 169.072 1372.82 168.528 1368.86 168.07C1364.93 167.405 1360.98 166.838 1357.07 166.077L1351.21 164.87L1348.27 164.266L1345.37 163.554C1314.36 156.091 1284.47 143.618 1257.73 126.061C1230.85 108.709 1206.58 87.7111 1182.62 66.6163C1170.63 56.0508 1158.67 45.461 1146.28 35.3906C1143.18 32.8911 1140.05 30.3795 1136.89 27.9766C1133.71 25.5858 1130.39 23.3761 1126.98 21.3475C1120.12 17.3145 1112.86 13.9818 1105.39 11.3012C1090.39 5.97616 1074.56 3.2593 1058.7 2.23293C1042.82 1.23071 1026.86 1.76198 1011.04 3.56114C1003.14 4.45468 995.266 5.68635 987.455 7.20778C983.55 7.94435 979.681 8.91037 975.799 9.80392L969.983 11.1563L967.075 11.8445L964.191 12.6294C948.798 16.7228 933.658 21.7339 918.781 27.4453C889.028 38.9286 860.429 53.1649 832.214 68.0411C803.976 82.8812 776.097 98.494 747.294 112.296C732.886 119.178 718.31 125.723 703.313 131.265C688.293 136.699 673.104 141.577 657.831 146.19C642.546 150.766 627.189 155.113 611.676 158.844C596.174 162.624 580.517 165.775 564.763 168.323C533.268 173.407 501.268 175.616 469.376 174.324C437.497 173.081 405.725 168.589 374.794 160.692C343.84 152.94 313.51 142.93 282.52 135.467C267.067 131.591 251.277 129.092 235.355 128.561C231.378 128.343 227.4 128.379 223.423 128.331L217.451 128.452L214.47 128.524L211.49 128.681C203.535 129.007 195.605 129.804 187.686 130.686C124.275 138.293 63.6033 160.269 0.324463 168.806Z" fill="#594C90"/>
</svg>
