<svg width="1440" height="180" viewBox="0 0 1440 180" fill="none" xmlns="http://www.w3.org/2000/svg">
<path d="M0.0964355 179.542H11.8365H17.7006L23.5646 179.264L35.2927 178.709L46.9848 177.671L52.8248 177.151L58.6528 176.427L70.2968 174.966L81.8927 173.167C85.762 172.575 89.6313 171.971 93.4646 171.235C124.287 165.753 154.761 158.472 185.186 151.13C200.399 147.459 215.648 143.873 230.921 140.42L242.397 137.944L248.141 136.713L253.897 135.577L265.421 133.307L276.992 131.303C307.875 126.171 338.914 121.909 369.52 115.352C384.816 112.056 399.993 108.228 414.918 103.507C429.842 98.8215 444.538 93.4119 458.982 87.3503C473.402 81.2767 487.606 74.6475 501.401 67.2456C515.195 59.8437 528.654 51.8139 542.245 43.9893C555.847 36.189 569.546 28.5335 583.75 21.844C590.815 18.4268 598.049 15.3839 605.331 12.4618C612.661 9.68457 620.039 6.94356 627.682 5.05988C631.479 4.04558 635.336 3.28487 639.206 2.57245C643.087 1.95663 646.98 1.41327 650.91 1.14762C654.827 0.881972 658.768 0.74918 662.698 0.954454C666.627 1.1235 670.557 1.49781 674.438 2.2223C678.331 2.91057 682.117 3.96107 685.902 4.91498C689.699 5.88097 693.496 6.85904 697.269 7.93371C701.042 9.00837 704.792 10.1917 708.481 11.5683C712.146 12.969 715.799 14.3817 719.428 15.879C733.944 21.8199 748.147 28.461 762.759 34.0155C766.412 35.4161 770.089 36.7324 773.79 37.9882C775.641 38.616 777.515 39.1353 779.378 39.7149L782.178 40.5601L785.014 41.2604C792.56 43.2648 800.275 44.5207 808.001 45.5953C823.503 47.5394 839.148 48.1673 854.781 47.805C870.415 47.4549 886.012 46.2836 901.562 44.5206C932.648 40.9585 963.447 35.1988 994.005 28.461C1001.65 26.7585 1009.28 25.0318 1016.85 23.0998C1024.43 21.1919 1032.01 19.1996 1039.67 17.5212C1047.32 15.8307 1055.07 14.5025 1062.92 13.9712C1070.74 13.4278 1078.66 13.6572 1086.41 15.0458C1094.16 16.3982 1101.67 18.9581 1108.83 22.1459C1116.03 25.2974 1123.01 28.8958 1129.86 32.7114C1143.56 40.3548 1156.76 48.8555 1170.36 56.6197C1197.68 71.8824 1225.49 86.6017 1254.99 97.1552C1258.67 98.4834 1262.38 99.715 1266.11 100.91C1269.83 102.106 1273.62 103.084 1277.38 104.171C1281.14 105.233 1284.95 106.139 1288.73 107.129L1300.16 109.785C1315.46 113.094 1330.91 115.618 1346.47 117.332C1377.56 120.713 1409.09 120.919 1440.12 116.596C1409.1 121.015 1377.56 120.907 1346.44 117.622C1330.86 115.968 1315.39 113.493 1300.06 110.22L1288.61 107.6C1284.83 106.622 1281.01 105.728 1277.23 104.666C1273.47 103.591 1269.68 102.613 1265.94 101.43C1262.2 100.246 1258.48 99.0267 1254.79 97.7106C1225.21 87.1933 1197.37 72.4741 1170.01 57.2355C1156.37 49.4835 1143.18 40.9948 1129.5 33.3755C1122.67 29.5719 1115.7 25.9857 1108.53 22.8704C1101.38 19.7067 1093.96 17.1831 1086.28 15.8548C1078.6 14.4904 1070.75 14.273 1062.98 14.8164C1055.19 15.3598 1047.48 16.688 1039.86 18.3785C1032.23 20.0569 1024.66 22.0493 1017.06 23.9692C1009.48 25.9253 1001.84 27.652 994.197 29.3667C963.627 36.1527 932.805 41.9487 901.67 45.547C886.108 47.3221 870.475 48.5295 854.806 48.8917C839.148 49.2781 823.43 48.6623 807.869 46.7304C800.106 45.6678 792.344 44.3999 784.737 42.3954L781.877 41.6952L779.054 40.8499C777.179 40.2703 775.28 39.739 773.418 39.1111C769.705 37.8553 766.004 36.5392 762.339 35.1385C747.666 29.584 733.439 22.9549 718.959 17.0382C715.342 15.5409 711.701 14.1282 708.048 12.7275C704.407 11.363 700.682 10.1796 696.933 9.11702C693.184 8.04236 689.398 7.06429 685.601 6.0983C681.804 5.14438 678.031 4.0939 674.222 3.41771C670.4 2.69321 666.519 2.31891 662.638 2.14986C658.756 1.94458 654.851 2.07736 650.97 2.33094C647.088 2.58451 643.219 3.11585 639.374 3.73167C635.541 4.43201 631.707 5.18062 627.946 6.18283C620.364 8.04237 613.022 10.7592 605.716 13.5244C598.458 16.4224 591.248 19.4531 584.194 22.8462C570.027 29.4994 556.34 37.1308 542.737 44.907C529.147 52.7074 515.676 60.7251 501.845 68.1391C488.014 75.5531 473.787 82.1702 459.331 88.2439C444.863 94.2934 430.131 99.6909 415.182 104.376C400.234 109.085 385.021 112.913 369.7 116.185C339.046 122.718 307.995 126.944 277.125 132.04L265.565 134.032L254.041 136.278L248.285 137.401L242.541 138.632L231.065 141.096C215.792 144.525 200.556 148.099 185.331 151.746C154.869 158.991 124.371 166.175 93.5247 171.561C89.6794 172.285 85.8101 172.877 81.9408 173.456L70.3328 175.219L58.6768 176.644L52.8488 177.345L46.9968 177.852L35.3048 178.854L23.5767 179.373L17.7126 179.627L11.8486 179.615L0.0964355 179.542Z" fill="#594C90"/>
</svg>
