<svg width="1440" height="165" viewBox="0 0 1440 165" fill="none" xmlns="http://www.w3.org/2000/svg">
<path d="M0.228271 164.7L11.8482 163.674L17.6642 163.154L23.4562 162.418L35.028 160.933L46.5519 159.085L52.3078 158.155L58.0396 157.081L69.5154 154.943C77.1338 153.349 84.7763 151.876 92.3707 150.186C122.797 143.617 153.042 136.203 183.684 130.637C191.327 129.139 199.029 128.04 206.72 126.833C208.642 126.507 210.577 126.278 212.512 126.048L218.304 125.348C222.173 124.901 226.03 124.333 229.912 124.092L241.555 123.162C243.49 122.969 245.449 122.981 247.383 122.897L253.224 122.715L259.064 122.534C261.01 122.45 262.957 122.595 264.904 122.619L276.584 122.921C307.682 124.611 338.589 128.608 369.639 130.492C400.678 132.544 431.897 131.397 462.695 127.075C478.088 124.901 493.409 122.112 508.502 118.417C523.619 114.746 538.531 110.29 553.359 105.581C568.188 100.86 582.932 95.873 597.724 90.9947C605.115 88.5556 612.517 86.1406 619.943 83.798C627.357 81.4314 634.831 79.1854 642.378 77.2293C657.458 73.2808 672.779 70.2017 688.281 68.4871C696.019 67.7143 703.686 66.5188 711.352 65.2148C719.019 63.8865 726.733 62.7395 734.4 61.4957C749.757 59.0325 765.09 56.3759 780.387 53.5263C795.684 50.6766 810.945 47.6941 826.11 44.1924C856.439 37.2373 886.577 29.4007 916.918 22.3972C932.083 18.8834 947.296 15.5386 962.581 12.5561C977.854 9.51327 993.223 6.97757 1008.66 4.96106C1016.39 3.95884 1024.13 3.11357 1031.88 2.43737C1039.63 1.73703 1047.41 1.16948 1055.19 0.976284C1062.98 0.783086 1070.79 0.928052 1078.55 1.725C1086.31 2.54609 1094.02 4.0071 1101.49 6.27718C1108.98 8.51104 1116.19 11.6988 1122.93 15.6594C1129.65 19.6441 1136.15 23.9549 1142.55 28.4226C1155.35 37.3459 1167.65 46.9334 1180.19 56.2069C1205.34 74.5608 1231.02 92.4437 1258.86 106.438C1272.74 113.502 1287.25 119.214 1302.04 124.056C1316.83 128.862 1331.96 132.677 1347.28 135.346C1362.6 138.026 1378.12 139.62 1393.67 139.85C1409.22 140.067 1424.82 138.932 1440.09 135.937C1424.82 138.968 1409.22 140.164 1393.66 139.995C1378.1 139.813 1362.56 138.268 1347.22 135.636C1331.87 133.015 1316.72 129.236 1301.89 124.478C1287.07 119.685 1272.51 114.009 1258.58 106.97C1244.63 100.003 1231.21 92.009 1218.15 83.4962C1205.1 74.9592 1192.34 65.9996 1179.76 56.7744C1167.21 47.513 1154.89 37.9496 1142.11 29.0504C1135.71 24.6069 1129.21 20.2962 1122.52 16.3477C1115.82 12.4233 1108.68 9.28386 1101.24 7.06208C1093.81 4.81615 1086.16 3.36712 1078.44 2.57018C1070.73 1.78531 1062.94 1.64044 1055.18 1.84572C1047.42 2.05099 1039.65 2.61849 1031.92 3.3309C1024.17 4.01917 1016.44 4.87655 1008.74 5.87876C993.319 7.89527 977.962 10.4551 962.713 13.51C947.452 16.5046 932.252 19.8615 917.099 23.3874C886.781 30.427 856.656 38.2877 826.314 45.2912C811.149 48.817 795.852 51.8237 780.555 54.6855C765.258 57.5472 749.913 60.2279 734.544 62.7032C726.854 63.9469 719.163 65.082 711.496 66.3981C703.83 67.6902 696.103 68.8856 688.353 69.6463C672.911 71.3247 657.639 74.3796 642.606 78.304C635.084 80.2601 627.633 82.4819 620.219 84.8365C612.793 87.1669 605.391 89.5698 598.001 91.9969C583.208 96.8631 568.464 101.838 553.612 106.547C538.771 111.244 523.823 115.7 508.682 119.359C493.541 123.054 478.196 125.831 462.767 127.992C431.909 132.291 400.618 133.414 369.543 131.325C338.456 129.405 307.562 125.372 276.499 123.657L264.843 123.343C262.897 123.319 260.962 123.174 259.015 123.259L253.187 123.428L247.359 123.597C245.413 123.669 243.478 123.657 241.531 123.85L229.912 124.768C226.03 124.998 222.185 125.565 218.316 126.012L212.524 126.712C210.589 126.942 208.666 127.159 206.744 127.485C199.053 128.68 191.363 129.779 183.72 131.252C153.09 136.722 122.809 144.04 92.3587 150.512C84.7523 152.178 77.1098 153.639 69.4913 155.209L58.0036 157.31L52.2597 158.361L46.4918 159.266L34.9559 161.077L23.372 162.526L17.5801 163.251L11.8602 163.71L0.228271 164.7Z" fill="#594C90"/>
</svg>
