<svg width="1440" height="245" viewBox="0 0 1440 245" fill="none" xmlns="http://www.w3.org/2000/svg">
<path d="M0 243.424L12.1367 244.197C14.1554 244.318 16.1742 244.475 18.205 244.559L24.2853 244.632C28.3349 244.668 32.3845 244.752 36.434 244.74L48.5827 244.294C50.6015 244.197 52.6322 244.185 54.651 244.028L60.7073 243.545C64.7449 243.207 68.7824 242.929 72.82 242.531L84.8845 241.082C86.8913 240.828 88.91 240.635 90.9168 240.321L96.925 239.379C100.927 238.739 104.94 238.159 108.93 237.483L120.874 235.237C122.869 234.851 124.863 234.501 126.846 234.102L132.782 232.81L144.667 230.226C160.432 226.459 176.162 222.51 191.735 217.994C222.942 209.204 253.776 199.109 284.671 189.232C315.553 179.367 346.207 168.656 375.888 155.555C405.581 142.514 434.06 126.744 460.965 108.596C474.399 99.5034 487.533 89.9401 500.078 79.6523C512.672 69.4128 524.917 58.7144 537.654 48.5956C543.987 43.5 550.512 38.6339 557.121 33.9005L562.156 30.4592L564.679 28.7445L567.251 27.1144L572.406 23.8542L577.669 20.7751C578.546 20.268 579.423 19.7367 580.313 19.2537L583.004 17.8167L588.4 14.9671L593.915 12.3468C594.841 11.9121 595.742 11.4653 596.679 11.0548L599.491 9.88352C606.917 6.575 614.692 3.991 622.635 2.17977C630.602 0.489281 638.785 -0.416366 646.944 0.187379L648.47 0.283998L649.996 0.465115C651.006 0.597938 652.027 0.694558 653.036 0.863607C655.043 1.25 657.062 1.58807 659.033 2.15559C661.027 2.61444 662.95 3.35102 664.897 3.97891C666.783 4.78793 668.706 5.48829 670.508 6.47843C677.778 10.2096 684.616 14.6773 691.033 19.7366C694.229 22.2724 697.293 25.0013 700.213 27.8148C703.169 30.6041 706.053 33.49 708.925 36.3759C720.329 47.9919 731.108 60.1875 742.92 71.3085C748.82 76.863 754.948 82.2122 761.533 86.8852C768.19 91.4374 775.172 95.5791 782.598 98.8031C797.306 105.553 813.084 109.707 829.03 112.315C845 114.911 861.21 115.925 877.384 115.611C909.745 114.959 941.997 109.791 973.12 100.844C980.894 98.5978 988.633 96.1708 996.227 93.3573C1003.82 90.5439 1011.3 87.3923 1018.82 84.3615C1026.34 81.3307 1033.97 78.4811 1041.82 76.3317C1045.74 75.2208 1049.72 74.4118 1053.74 73.7235C1055.76 73.4699 1057.78 73.1681 1059.81 73.0111L1062.86 72.8179L1064.39 72.7214H1065.91C1074.06 72.5402 1082.21 73.796 1090.03 76.0057C1097.86 78.1912 1105.48 81.0772 1112.92 84.3374C1127.8 90.882 1142.01 98.7789 1156.62 105.794C1163.93 109.296 1171.38 112.52 1178.81 115.78C1186.24 119.016 1193.71 122.18 1201.23 125.199C1216.27 131.224 1231.56 136.694 1247.18 141.029C1254.99 143.19 1262.86 145.086 1270.83 146.583C1278.77 148.189 1286.76 149.554 1294.77 150.81C1310.78 153.285 1326.9 155.06 1343.07 156.171C1375.41 158.393 1407.92 158.055 1440.19 154.782C1407.94 158.139 1375.41 158.586 1343.05 156.461C1326.87 155.398 1310.74 153.671 1294.69 151.244C1286.68 150.013 1278.68 148.672 1270.72 147.091C1262.74 145.617 1254.83 143.734 1247.01 141.597C1231.35 137.298 1216.05 131.816 1200.98 125.803C1193.44 122.796 1185.97 119.632 1178.52 116.408C1171.09 113.148 1163.64 109.936 1156.31 106.434C1141.66 99.4189 1127.45 91.5461 1112.61 85.0377C1105.19 81.7895 1097.6 78.9278 1089.81 76.7664C1082.04 74.5809 1073.97 73.3492 1065.91 73.5424H1064.4L1062.88 73.639L1059.87 73.8322C1057.86 74.0013 1055.87 74.3031 1053.86 74.5446C1049.88 75.2329 1045.92 76.0298 1042.03 77.1407C1034.24 79.2901 1026.65 82.1398 1019.13 85.1706C1011.61 88.2014 1004.13 91.365 996.528 94.1905C988.909 97.016 981.159 99.4551 973.372 101.713C942.177 110.709 909.865 115.925 877.396 116.614C861.162 116.952 844.892 115.937 828.85 113.353C812.832 110.745 796.958 106.591 782.142 99.8053C774.667 96.5693 767.614 92.4034 760.884 87.8029C754.215 83.0816 748.063 77.7203 742.139 72.1417C730.266 60.9845 719.464 48.7889 708.084 37.209C705.224 34.3231 702.364 31.4493 699.42 28.6721C696.5 25.8466 693.496 23.1659 690.324 20.6543C683.991 15.6433 677.178 11.1876 670.016 7.5048C668.249 6.53881 666.363 5.85051 664.524 5.05356C662.614 4.42567 660.739 3.70118 658.78 3.25441C656.846 2.68689 654.863 2.36089 652.892 1.98656C651.907 1.82959 650.897 1.73297 649.9 1.58807L648.41 1.40696L646.908 1.31037C638.881 0.706627 630.794 1.576 622.911 3.25441C615.04 5.0415 607.35 7.5893 599.96 10.8737L597.16 12.0449C596.234 12.4555 595.333 12.9023 594.408 13.337L588.928 15.9331L583.557 18.7586L580.877 20.1834C579.988 20.6664 579.123 21.1977 578.246 21.7049L572.995 24.7598L567.851 28.008L565.28 29.6381L562.768 31.3406L557.746 34.7579C551.148 39.4671 544.648 44.3212 538.315 49.3926C525.601 59.4752 513.345 70.1615 500.727 80.401C488.146 90.7009 474.988 100.276 461.518 109.357C434.565 127.505 406.001 143.275 376.26 156.304C346.532 169.393 315.842 180.079 284.935 189.92C254.029 199.761 223.182 209.832 191.939 218.574C176.342 223.042 160.6 226.954 144.811 230.673L132.914 233.221L126.966 234.489C124.984 234.887 122.977 235.237 120.994 235.612L109.038 237.821C105.036 238.486 101.023 239.065 97.0212 239.693L91.0129 240.611C89.0062 240.913 86.9874 241.106 84.9807 241.347L72.9041 242.76C68.8665 243.146 64.829 243.412 60.7794 243.738L54.7231 244.209C52.7043 244.354 50.6736 244.366 48.6548 244.451L36.5061 244.861C32.4566 244.873 28.407 244.765 24.3454 244.716L18.2651 244.632C16.2463 244.535 14.2155 244.378 12.1967 244.245L0 243.424Z" fill="#594C90"/>
<path d="M0.0361328 239.463L12.0046 239.97L17.9888 240.212L23.985 240.164L35.9654 240.055L47.9339 239.403L53.9181 239.065L59.8783 238.497L71.8106 237.35L83.695 235.78L89.6311 234.996L95.5432 234.017L107.367 232.061L119.132 229.791L125.02 228.656C126.978 228.258 128.925 227.811 130.872 227.4L142.576 224.841C158.137 221.218 173.65 217.378 189.08 213.176C219.962 204.929 250.628 195.849 281.498 187.529C312.369 179.27 343.215 170.745 373.256 159.817C388.277 154.384 403.069 148.286 417.537 141.488C432.005 134.689 446.148 127.215 459.955 119.149C466.853 115.116 473.678 110.938 480.395 106.603C483.76 104.442 487.089 102.232 490.417 100.01C493.698 97.7281 497.014 95.4822 500.247 93.1396C513.261 83.8299 525.914 74.013 538.916 64.6549C551.918 55.2969 565.244 46.3252 579.351 38.706C582.836 36.7257 586.465 35.0111 590.034 33.1999C591.824 32.3063 593.675 31.5214 595.489 30.6883C597.316 29.8792 599.118 28.9978 600.993 28.2854C604.706 26.7881 608.407 25.2546 612.216 23.9505C616.026 22.7068 619.859 21.4993 623.776 20.6057C625.723 20.0865 627.706 19.7605 629.664 19.3379C631.647 19.036 633.618 18.6375 635.625 18.4443C639.602 17.913 643.64 17.7319 647.653 17.744C651.679 17.7681 655.692 18.1787 659.669 18.8187C663.635 19.519 667.54 20.5936 671.326 21.9702C675.099 23.4433 678.704 25.158 682.309 26.933C685.902 28.7201 689.446 30.6158 692.895 32.6806C696.344 34.7333 699.708 36.9793 702.917 39.3822C706.161 41.7368 709.322 44.2122 712.482 46.6875C725.051 56.6493 737.044 67.2873 749.913 76.7661C753.146 79.1086 756.39 81.439 759.731 83.6125C760.572 84.1559 761.389 84.7235 762.242 85.2427L764.814 86.7641C766.544 87.7543 768.203 88.8531 769.981 89.7466L775.316 92.4272L776.65 93.0914L778.02 93.6709L780.772 94.8422C784.401 96.4964 788.198 97.7281 791.935 99.0805C807.076 104.092 822.865 106.929 838.715 108.511C854.589 110.057 870.595 110.117 886.529 109.296C918.409 107.533 950.048 102.051 980.882 93.7555C988.597 91.6786 996.264 89.4448 1003.83 86.909C1011.4 84.3733 1018.9 81.5839 1026.48 79.012C1034.07 76.4521 1041.75 74.0975 1049.6 72.5278C1057.46 70.9822 1065.53 70.2577 1073.54 70.7407C1081.57 71.1513 1089.49 72.9383 1097.06 75.5465C1104.66 78.0702 1112.03 81.2821 1119.25 84.7476C1133.7 91.6906 1147.53 99.7808 1161.78 107.002C1190.47 121.045 1219.6 134.569 1250.21 143.842L1255.95 145.521L1261.73 147.09C1265.59 148.092 1269.49 148.95 1273.39 149.843C1281.19 151.594 1289.02 153.104 1296.89 154.516C1312.63 157.269 1328.5 159.262 1344.42 160.578C1376.26 163.174 1408.36 163.005 1440.12 159.395C1408.37 163.102 1376.25 163.367 1344.39 160.868C1328.46 159.6 1312.57 157.656 1296.82 154.951C1288.95 153.575 1281.09 152.077 1273.28 150.351C1269.37 149.469 1265.47 148.624 1261.6 147.634L1255.81 146.076L1250.04 144.41C1234.71 139.809 1219.73 134.086 1205.03 127.807C1190.32 121.492 1175.83 114.705 1161.47 107.63C1147.18 100.409 1133.34 92.3306 1118.93 85.4238C1111.73 81.9703 1104.39 78.7826 1096.82 76.2831C1089.28 73.699 1081.45 71.9361 1073.51 71.5497C1065.56 71.0788 1057.58 71.8153 1049.77 73.3489C1041.96 74.9186 1034.32 77.2732 1026.76 79.8331C1019.2 82.393 1011.7 85.2064 1004.12 87.7542C996.54 90.3141 988.849 92.56 981.135 94.649C950.252 102.993 918.565 108.511 886.601 110.322C870.631 111.167 854.577 111.119 838.643 109.586C822.721 108.016 806.848 105.19 791.611 100.155C787.837 98.8028 784.016 97.5591 780.351 95.8928L777.575 94.7215L776.193 94.1298L774.848 93.4536L769.464 90.7609C767.674 89.8674 765.979 88.7564 764.237 87.7542L761.642 86.2207C760.788 85.6895 759.959 85.1219 759.118 84.5785C755.753 82.3929 752.485 80.0505 749.24 77.708C736.311 68.205 724.282 57.567 711.749 47.6414C708.613 45.1661 705.452 42.7028 702.232 40.3602C699.036 37.9694 695.731 35.7476 692.306 33.707C688.894 31.6543 685.373 29.7706 681.804 27.9955C678.235 26.2326 674.606 24.5059 670.929 23.069C667.204 21.7166 663.383 20.654 659.477 19.9657C655.572 19.3379 651.619 18.9152 647.641 18.8911C643.676 18.879 639.698 19.036 635.757 19.5673C633.774 19.7605 631.827 20.1469 629.857 20.4367C627.91 20.8593 625.951 21.1733 624.029 21.6804C620.147 22.5498 616.35 23.7573 612.565 24.9889C608.792 26.2809 605.103 27.7903 601.414 29.2876C599.551 30 597.749 30.8694 595.934 31.6784C594.12 32.5116 592.281 33.2844 590.503 34.1779C586.946 35.9771 583.329 37.6917 579.856 39.6599C565.797 47.243 552.494 56.1784 539.505 65.5002C526.515 74.8461 513.849 84.651 500.799 93.9486C497.555 96.3032 494.238 98.5492 490.946 100.831C487.617 103.065 484.277 105.263 480.9 107.424C474.159 111.747 467.333 115.937 460.412 119.958C446.569 128.024 432.402 135.498 417.898 142.284C403.394 149.071 388.577 155.168 373.533 160.59C343.443 171.506 312.561 179.994 281.679 188.229C250.808 196.501 220.13 205.569 189.224 213.768C173.783 217.922 158.245 221.713 142.672 225.287L130.944 227.811C128.985 228.222 127.038 228.668 125.08 229.055L119.192 230.178L107.416 232.412L95.5793 234.331L89.6672 235.285L83.719 236.058L71.8347 237.592L59.9023 238.703L53.9301 239.258L47.9459 239.584L35.9775 240.2L23.997 240.272L18.0008 240.309L12.0166 240.043L0.0361328 239.463Z" fill="#594C90"/>
<path d="M0.0722656 235.503L11.9085 235.756L17.8326 235.877L23.7568 235.708L35.593 235.382L47.4052 234.537L53.3174 234.114L59.2054 233.462L70.9816 232.158L82.7097 230.479L88.5737 229.634C90.5204 229.332 92.4671 228.97 94.4138 228.632C125.561 223.379 156.323 216.038 186.929 208.225C217.547 200.473 248.093 192.299 278.963 185.537C309.833 178.847 340.8 172.46 371.154 163.729C386.33 159.358 401.327 154.395 416.035 148.648C430.743 142.9 445.175 136.464 459.307 129.4C473.426 122.312 487.305 114.717 500.691 106.337C514.102 97.9815 527.176 89.0582 540.454 80.4487C553.756 71.8756 567.251 63.5439 581.382 56.3835C588.412 52.7369 595.646 49.5008 602.952 46.458C606.653 45.0452 610.306 43.5237 614.067 42.2679C617.816 40.988 621.613 39.8409 625.471 38.887C633.161 36.9308 641.044 35.7233 648.975 35.4215C656.906 35.1679 664.909 35.8561 672.611 37.9451C676.469 38.9956 680.182 40.3842 683.895 41.7366C687.608 43.1011 691.309 44.538 694.95 46.0956C702.292 49.1627 709.166 53.1837 715.991 57.1563C729.63 65.2103 742.788 74.0008 756.631 81.5959C760.091 83.4916 763.576 85.3271 767.121 87.0658C768.876 87.9715 770.702 88.6959 772.492 89.517L775.184 90.7124C776.085 91.1109 777.023 91.4128 777.936 91.775L783.476 93.8278L789.111 95.5786C790.974 96.2065 792.896 96.6774 794.795 97.1604C796.706 97.6314 798.604 98.1747 800.527 98.5853C815.908 101.966 831.65 103.717 847.403 104.26C863.169 104.78 878.959 104.224 894.676 102.884C926.123 100.167 957.282 94.504 987.924 86.9571C995.591 85.0614 1003.23 83.0811 1010.79 80.8231C1018.36 78.5771 1025.9 76.1984 1033.51 74.0853C1041.13 71.9722 1048.86 70.1247 1056.72 69.1225C1064.58 68.1082 1072.56 67.903 1080.44 68.8569C1088.32 69.8108 1096.01 72.0205 1103.38 74.9305C1110.76 77.8164 1117.92 81.2216 1124.94 84.8682C1138.98 92.1735 1152.47 100.469 1166.39 107.931C1194.38 122.554 1222.82 136.657 1252.84 146.535C1256.59 147.778 1260.36 148.925 1264.15 150.024C1267.93 151.123 1271.78 152.029 1275.6 153.019C1279.42 154.009 1283.29 154.818 1287.12 155.724C1290.98 156.569 1294.85 157.342 1298.72 158.151C1314.22 161.169 1329.87 163.427 1345.58 164.925C1377.01 167.907 1408.78 167.919 1440.13 163.959C1408.79 168.016 1377.01 168.1 1345.56 165.215C1329.83 163.766 1314.17 161.544 1298.65 158.573C1294.78 157.776 1290.9 157.028 1287.04 156.183C1283.19 155.289 1279.32 154.48 1275.49 153.502C1271.66 152.524 1267.81 151.618 1264.02 150.532C1260.22 149.433 1256.43 148.298 1252.67 147.066C1222.57 137.225 1194.1 123.121 1166.08 108.523C1152.13 101.061 1138.64 92.7772 1124.61 85.5081C1117.61 81.8736 1110.47 78.4926 1103.11 75.6309C1095.78 72.745 1088.17 70.5715 1080.36 69.6297C1072.54 68.6999 1064.63 68.9052 1056.83 69.9195C1049.02 70.9217 1041.34 72.7571 1033.74 74.8822C1026.15 76.9953 1018.61 79.3982 1011.03 81.6442C1003.46 83.9142 995.795 85.9067 988.128 87.8145C957.45 95.4096 926.256 101.109 894.748 103.862C878.995 105.214 863.169 105.794 847.355 105.287C831.554 104.756 815.752 103.029 800.275 99.6358C798.34 99.2132 796.429 98.6819 794.507 98.211C792.584 97.728 790.661 97.257 788.775 96.6291L783.091 94.8662L777.515 92.8014C776.59 92.4392 775.641 92.1373 774.74 91.7388L772.012 90.5313C770.209 89.7102 768.359 88.9736 766.592 88.068C763.036 86.3292 759.527 84.4939 756.042 82.586C742.139 74.9668 728.945 66.1883 715.354 58.1585C708.529 54.1738 701.715 50.189 694.457 47.1462C690.84 45.5885 687.163 44.1637 683.462 42.7992C679.761 41.4348 676.048 40.0582 672.287 39.0319C664.717 36.967 656.822 36.2788 648.987 36.5203C641.14 36.8101 633.33 38.0055 625.711 39.9375C621.89 40.8672 618.117 42.0144 614.392 43.2822C610.654 44.526 607.013 46.0473 603.324 47.448C596.042 50.4668 588.832 53.6787 581.827 57.3133C567.731 64.4375 554.261 72.7329 540.971 81.2819C527.693 89.8672 514.619 98.7785 501.172 107.134C487.738 115.514 473.835 123.109 459.679 130.197C445.512 137.249 431.044 143.685 416.312 149.433C401.579 155.18 386.535 160.131 371.346 164.49C340.944 173.208 309.954 179.56 279.083 186.213C248.225 192.926 217.679 201.077 187.037 208.781C156.407 216.497 125.609 223.754 94.4378 228.91C92.4911 229.236 90.5444 229.586 88.5978 229.888L82.7337 230.721L71.0056 232.363L59.2295 233.631L53.3414 234.259L47.4293 234.657L35.605 235.466L23.7688 235.756L17.8447 235.901L11.9205 235.756L0.0722656 235.503Z" fill="#594C90"/>
<path d="M0.0964355 231.542H11.8365H17.7006L23.5646 231.264L35.2927 230.709L46.9848 229.671L52.8248 229.151L58.6528 228.427L70.2968 226.966L81.8927 225.167C85.762 224.575 89.6313 223.971 93.4646 223.235C124.287 217.753 154.761 210.472 185.186 203.13C200.399 199.459 215.648 195.873 230.921 192.42L242.397 189.944L248.141 188.713L253.897 187.577L265.421 185.307L276.992 183.303C307.875 178.171 338.914 173.909 369.52 167.352C384.816 164.056 399.993 160.228 414.918 155.507C429.842 150.822 444.538 145.412 458.982 139.35C473.402 133.277 487.606 126.648 501.401 119.246C515.195 111.844 528.654 103.814 542.245 95.9893C555.847 88.189 569.546 80.5335 583.75 73.844C590.815 70.4268 598.049 67.3839 605.331 64.4618C612.661 61.6846 620.039 58.9436 627.682 57.0599C631.479 56.0456 635.336 55.2849 639.206 54.5724C643.087 53.9566 646.98 53.4133 650.91 53.1476C654.827 52.882 658.768 52.7492 662.698 52.9545C666.627 53.1235 670.557 53.4978 674.438 54.2223C678.331 54.9106 682.117 55.9611 685.902 56.915C689.699 57.881 693.496 58.859 697.269 59.9337C701.042 61.0084 704.792 62.1917 708.481 63.5683C712.146 64.969 715.799 66.3817 719.428 67.879C733.944 73.8199 748.147 80.461 762.759 86.0155C766.412 87.4161 770.089 88.7324 773.79 89.9882C775.641 90.616 777.515 91.1353 779.378 91.7149L782.178 92.5601L785.014 93.2604C792.56 95.2648 800.275 96.5207 808.001 97.5953C823.503 99.5394 839.148 100.167 854.781 99.805C870.415 99.4549 886.012 98.2836 901.562 96.5206C932.648 92.9585 963.447 87.1988 994.005 80.461C1001.65 78.7585 1009.28 77.0318 1016.85 75.0998C1024.43 73.1919 1032.01 71.1996 1039.67 69.5212C1047.32 67.8307 1055.07 66.5025 1062.92 65.9712C1070.74 65.4278 1078.66 65.6572 1086.41 67.0458C1094.16 68.3982 1101.67 70.9581 1108.83 74.1459C1116.03 77.2974 1123.01 80.8958 1129.86 84.7114C1143.56 92.3548 1156.76 100.856 1170.36 108.62C1197.68 123.882 1225.49 138.602 1254.99 149.155C1258.67 150.483 1262.38 151.715 1266.11 152.91C1269.83 154.106 1273.62 155.084 1277.38 156.171C1281.14 157.233 1284.95 158.139 1288.73 159.129L1300.16 161.785C1315.46 165.094 1330.91 167.618 1346.47 169.332C1377.56 172.713 1409.09 172.919 1440.12 168.596C1409.1 173.015 1377.56 172.907 1346.44 169.622C1330.86 167.968 1315.39 165.493 1300.06 162.22L1288.61 159.6C1284.83 158.622 1281.01 157.728 1277.23 156.666C1273.47 155.591 1269.68 154.613 1265.94 153.43C1262.2 152.246 1258.48 151.027 1254.79 149.711C1225.21 139.193 1197.37 124.474 1170.01 109.236C1156.37 101.483 1143.18 92.9948 1129.5 85.3755C1122.67 81.5719 1115.7 77.9857 1108.53 74.8704C1101.38 71.7067 1093.96 69.1831 1086.28 67.8548C1078.6 66.4904 1070.75 66.273 1062.98 66.8164C1055.19 67.3598 1047.48 68.688 1039.86 70.3785C1032.23 72.0569 1024.66 74.0493 1017.06 75.9692C1009.48 77.9253 1001.84 79.652 994.197 81.3667C963.627 88.1527 932.805 93.9487 901.67 97.547C886.108 99.3221 870.475 100.529 854.806 100.892C839.148 101.278 823.43 100.662 807.869 98.7304C800.106 97.6678 792.344 96.3999 784.737 94.3954L781.877 93.6952L779.054 92.8499C777.179 92.2703 775.28 91.739 773.418 91.1111C769.705 89.8553 766.004 88.5392 762.339 87.1385C747.666 81.584 733.439 74.9549 718.959 69.0382C715.342 67.5409 711.701 66.1282 708.048 64.7275C704.407 63.363 700.682 62.1796 696.933 61.117C693.184 60.0424 689.398 59.0643 685.601 58.0983C681.804 57.1444 678.031 56.0939 674.222 55.4177C670.4 54.6932 666.519 54.3189 662.638 54.1499C658.756 53.9446 654.851 54.0774 650.97 54.3309C647.088 54.5845 643.219 55.1158 639.374 55.7317C635.541 56.432 631.707 57.1806 627.946 58.1828C620.364 60.0424 613.022 62.7592 605.716 65.5244C598.458 68.4224 591.248 71.4531 584.194 74.8462C570.027 81.4994 556.34 89.1308 542.737 96.907C529.147 104.707 515.676 112.725 501.845 120.139C488.014 127.553 473.787 134.17 459.331 140.244C444.863 146.293 430.131 151.691 415.182 156.376C400.234 161.085 385.021 164.913 369.7 168.185C339.046 174.718 307.995 178.944 277.125 184.04L265.565 186.032L254.041 188.278L248.285 189.401L242.541 190.632L231.065 193.096C215.792 196.525 200.556 200.099 185.331 203.746C154.869 210.991 124.371 218.175 93.5247 223.561C89.6794 224.285 85.8101 224.877 81.9408 225.456L70.3328 227.219L58.6768 228.644L52.8488 229.345L46.9968 229.852L35.3048 230.854L23.5767 231.373L17.7126 231.627L11.8486 231.615L0.0964355 231.542Z" fill="#594C90"/>
<path d="M0.132812 227.582L11.8008 227.328L17.6288 227.195L23.4448 226.809L35.0888 226.024L46.6967 224.792L52.5007 224.177L58.2806 223.38L69.8285 221.762C73.6738 221.158 77.495 220.482 81.3403 219.842C85.1735 219.202 89.0188 218.574 92.828 217.801C123.422 212.078 153.692 204.809 184.033 197.914C199.198 194.424 214.435 191.212 229.696 188.181L241.184 186.092L246.928 185.054L252.695 184.16L264.231 182.373L275.815 180.936C306.734 177.374 337.796 175.225 368.595 170.83C383.988 168.62 399.297 165.867 414.413 162.208C429.53 158.574 444.467 154.178 459.175 149.131C473.871 144.06 488.399 138.409 502.542 131.949C516.698 125.488 530.541 118.364 544.444 111.325C558.347 104.297 572.298 97.3298 586.586 91.1112C593.712 87.9476 600.958 85.0738 608.24 82.2966C615.558 79.628 622.924 77.0078 630.494 75.112C634.267 74.0977 638.089 73.3008 641.922 72.5521C645.767 71.8759 649.624 71.2601 653.506 70.8737C661.268 70.0768 669.127 69.8956 676.914 70.7046C680.819 71.091 684.652 71.7914 688.486 72.3469L700.034 74.0615C703.879 74.6652 707.724 75.3173 711.545 76.1746C715.343 77.0319 719.14 77.9254 722.913 78.8552C738.042 82.5863 753.014 86.8246 768.179 90.2418C771.976 91.0871 775.773 91.9082 779.583 92.6448C781.481 93.0433 783.404 93.3088 785.315 93.6469C787.225 93.985 789.136 94.299 791.07 94.5164C798.749 95.6152 806.512 96.0982 814.262 96.4725C845.325 97.5834 876.412 94.5647 907.186 90.3022C922.591 88.1529 937.936 85.5809 953.233 82.7916L999.088 74.1098L1010.55 71.9363C1014.37 71.1877 1018.17 70.4028 1021.98 69.6179C1029.6 68.0361 1037.22 66.4422 1044.91 65.1744C1060.23 62.5783 1076.13 61.6968 1091.45 65.0657C1099.09 66.732 1106.44 69.5575 1113.45 72.9747C1120.48 76.3557 1127.32 80.1352 1134.02 84.1199C1147.43 92.0773 1160.35 100.819 1173.65 108.91C1200.36 124.861 1227.59 140.268 1256.61 151.558C1260.23 152.983 1263.88 154.311 1267.56 155.591C1271.23 156.883 1274.96 157.958 1278.68 159.141C1282.39 160.3 1286.15 161.291 1289.89 162.365C1293.65 163.367 1297.42 164.309 1301.18 165.275C1316.31 168.91 1331.63 171.711 1347.06 173.631C1377.91 177.435 1409.31 177.845 1440.09 173.148C1409.32 177.942 1377.91 177.628 1347.03 173.921C1331.57 172.049 1316.23 169.296 1301.07 165.71C1297.3 164.756 1293.52 163.826 1289.76 162.836C1286.02 161.762 1282.24 160.795 1278.52 159.636C1274.81 158.465 1271.06 157.402 1267.38 156.122C1263.7 154.843 1260.04 153.526 1256.4 152.114C1227.31 140.836 1200.04 125.44 1173.29 109.513C1159.96 101.423 1147.04 92.7051 1133.64 84.7719C1126.94 80.8114 1120.13 77.044 1113.11 73.6872C1106.12 70.2941 1098.85 67.4927 1091.27 65.8626C1076.08 62.542 1060.31 63.4235 1045.04 66.0196C1037.37 67.2874 1029.77 68.8813 1022.15 70.4752C1018.34 71.2722 1014.53 72.057 1010.71 72.8057L999.244 74.9913L953.377 83.7214C938.068 86.5228 922.711 89.1189 907.306 91.2803C876.496 95.579 845.373 98.6459 814.202 97.5592C806.416 97.1849 798.629 96.714 790.902 95.6152C788.968 95.3978 787.033 95.0839 785.11 94.7458C783.188 94.4077 781.253 94.142 779.342 93.7436C775.521 93.007 771.712 92.198 767.903 91.3528C752.69 87.9476 737.705 83.7214 722.6 80.0144C718.827 79.0726 715.042 78.1911 711.257 77.3337C707.484 76.4885 703.651 75.8365 699.817 75.2327L688.281 73.506C684.424 72.9385 680.591 72.2382 676.758 71.8518C669.067 71.0427 661.28 71.2118 653.578 71.9846C649.721 72.371 645.887 72.9747 642.078 73.6388C638.269 74.3875 634.472 75.1724 630.722 76.1746C623.188 78.0462 615.87 80.6544 608.564 83.3108C601.294 86.0639 594.06 88.9257 586.946 92.0772C572.671 98.2716 558.744 105.215 544.828 112.218C530.925 119.234 517.058 126.358 502.867 132.806C488.675 139.266 474.135 144.905 459.403 149.976C444.659 155.024 429.698 159.407 414.546 163.029C399.405 166.676 384.048 169.417 368.643 171.615C337.808 175.986 306.734 178.111 275.827 181.625L264.255 183.05L252.732 184.825L246.964 185.718L241.22 186.757L229.744 188.833C214.483 191.84 199.258 195.052 184.081 198.493C153.716 205.291 123.41 212.476 92.792 218.103C88.9708 218.852 85.1375 219.48 81.2922 220.107C77.4469 220.735 73.6137 221.399 69.7684 221.991L58.2085 223.573L52.4286 224.358L46.6246 224.961L35.0167 226.157L23.3727 226.906L17.5447 227.28L11.7167 227.389L0.132812 227.582Z" fill="#594C90"/>
<path d="M0.168945 223.621L11.7889 223.114L17.6049 222.86L23.3968 222.353L34.9807 221.339L46.5286 219.902L52.2965 219.19L58.0404 218.308L69.5402 216.521L80.9919 214.468C84.8131 213.78 88.6224 213.104 92.4196 212.307C122.869 206.33 153.031 199.025 183.384 192.565C198.549 189.268 213.81 186.418 229.107 183.834L240.619 182.132C242.542 181.854 244.452 181.54 246.375 181.299L252.155 180.635C256.012 180.212 259.857 179.705 263.727 179.355L275.335 178.497C306.313 176.577 337.364 176.517 368.294 174.235C383.759 173.112 399.177 171.397 414.462 168.789C429.747 166.181 444.887 162.812 459.848 158.743C474.796 154.649 489.613 150.001 504.093 144.458C518.585 138.952 532.8 132.709 547.016 126.467C561.231 120.212 575.435 113.921 589.854 108.161C597.052 105.251 604.334 102.522 611.652 99.9138C615.329 98.658 618.982 97.354 622.695 96.1827C626.409 95.0235 630.134 93.9126 633.907 92.9587C648.951 89.0706 664.489 86.6798 680.086 87.1386C683.992 87.2715 687.849 87.6095 691.706 87.7786L703.326 88.2495C707.207 88.4065 711.089 88.5876 714.97 88.9136L726.566 89.9883C742.007 91.5097 757.412 93.3088 772.866 94.5405C780.592 95.1684 788.331 95.6514 796.057 95.8446C803.796 96.0016 811.547 95.8204 819.285 95.4703C850.24 93.8764 880.99 89.3845 911.572 84.2889C926.869 81.7411 942.13 78.9277 957.403 76.1988L1003.26 68.1689C1010.9 66.8166 1018.54 65.4762 1026.2 64.2446C1033.85 62.9767 1041.52 61.7571 1049.24 60.8877C1056.96 60.0304 1064.75 59.4871 1072.52 59.7165C1080.3 59.958 1088.07 60.924 1095.62 62.8439C1103.19 64.7155 1110.44 67.7463 1117.31 71.3929C1124.23 74.955 1130.91 78.9397 1137.49 83.0693C1150.66 91.3406 1163.34 100.337 1176.37 108.801C1202.53 125.501 1229.2 141.645 1257.79 153.78C1261.36 155.301 1264.96 156.738 1268.58 158.127C1272.2 159.503 1275.89 160.711 1279.55 161.979C1283.21 163.271 1286.94 164.321 1290.64 165.505C1294.36 166.628 1298.11 167.618 1301.83 168.68C1316.82 172.677 1332.04 175.768 1347.4 177.918C1378.09 182.18 1409.45 182.82 1440.09 177.737C1409.46 182.917 1378.09 182.373 1347.36 178.208C1331.99 176.094 1316.73 173.064 1301.72 169.103C1297.99 168.052 1294.24 167.062 1290.51 165.951C1286.81 164.78 1283.06 163.742 1279.4 162.462C1275.72 161.206 1272.03 160.011 1268.39 158.634C1264.76 157.245 1261.14 155.821 1257.57 154.311C1228.92 142.2 1202.19 126.056 1175.99 109.381C1162.95 100.928 1150.26 91.9444 1137.11 83.6972C1130.54 79.5797 1123.86 75.6071 1116.96 72.0691C1110.11 68.4466 1102.92 65.4641 1095.42 63.6167C1087.93 61.7209 1080.22 60.767 1072.5 60.5376C1064.77 60.3082 1057.03 60.8636 1049.34 61.7209C1041.65 62.5903 1034 63.822 1026.34 65.1019C1018.69 66.3457 1011.04 67.698 1003.41 69.0504L957.583 77.1285C942.31 79.8695 927.061 82.7071 911.752 85.267C881.158 90.3867 850.384 94.9269 819.357 96.557C811.595 96.9072 803.832 97.1004 796.057 96.9555C788.283 96.7743 780.532 96.2913 772.793 95.6755C757.316 94.456 741.899 92.681 726.47 91.1716L714.898 90.0849C711.053 89.7589 707.183 89.5656 703.314 89.4087L691.682 88.9257C687.801 88.7567 683.919 88.4186 680.074 88.2737C664.621 87.8028 649.18 90.1574 634.207 94.0093C630.458 94.9632 626.745 96.0619 623.044 97.2091C619.355 98.3683 615.702 99.6724 612.025 100.916C604.719 103.512 597.449 106.217 590.263 109.115C575.855 114.85 561.652 121.117 547.436 127.36C533.221 133.591 518.981 139.821 504.441 145.328C489.913 150.87 475.073 155.507 460.1 159.6C445.104 163.657 429.927 167.026 414.618 169.61C399.309 172.206 383.856 173.909 368.378 175.02C337.412 177.266 306.349 177.29 275.407 179.186L263.811 180.031C259.954 180.381 256.108 180.876 252.251 181.299L246.471 181.951C244.548 182.18 242.638 182.506 240.715 182.772L229.215 184.462C213.918 187.022 198.669 189.872 183.505 193.132C153.139 199.496 122.941 206.704 92.4676 212.597C88.6704 213.382 84.8492 214.046 81.0279 214.722L69.5642 216.738L58.0644 218.489L52.3085 219.359L46.5286 220.059L34.9807 221.46L23.3848 222.438L17.5929 222.921L11.7769 223.162L0.168945 223.621Z" fill="#594C90"/>
<path d="M0.193115 219.661L11.801 218.888L17.605 218.501L23.3849 217.873L34.9568 216.618L46.4686 214.951L52.2245 214.118L57.9564 213.128L69.4201 211.136L80.8358 208.902C84.645 208.165 88.4543 207.417 92.2395 206.583C122.617 200.244 152.755 192.794 183.204 186.756C198.417 183.653 213.738 181.166 229.131 179.125C236.846 178.304 244.549 177.29 252.311 176.915L258.115 176.529L261.023 176.336C261.996 176.275 262.958 176.288 263.931 176.263L275.575 176.07C306.614 176.191 337.616 178.05 368.631 177.761C384.132 177.652 399.633 176.952 415.051 175.382C430.468 173.824 445.801 171.421 461.002 168.342C468.596 166.797 476.154 165.07 483.677 163.174C487.438 162.232 491.175 161.23 494.924 160.204C498.649 159.117 502.374 158.079 506.076 156.895C520.892 152.331 535.468 146.97 549.984 141.5C564.5 136.018 578.98 130.391 593.568 125.078C600.862 122.409 608.192 119.837 615.558 117.374C619.247 116.155 622.924 114.923 626.661 113.812C630.398 112.713 634.147 111.711 637.933 110.817C653.073 107.219 668.515 105.154 683.956 103.609C691.682 102.776 699.445 102.317 707.208 102.027L730.46 101.17C745.961 100.602 761.462 100.059 776.939 99.1772C784.678 98.7304 792.417 98.2475 800.131 97.5471C807.846 96.8226 815.548 95.9532 823.227 94.8785C838.584 92.8017 853.869 90.1452 869.13 87.3559C884.391 84.5545 899.604 81.5599 914.829 78.5533C945.266 72.552 975.716 66.418 1006.44 61.9382C1014.12 60.8031 1021.81 59.7889 1029.51 58.8229C1037.22 57.869 1044.93 56.9875 1052.68 56.4562C1068.15 55.4298 1083.96 55.8645 1098.97 60.2236C1106.49 62.2763 1113.7 65.4158 1120.47 69.2556C1127.27 73.0472 1133.88 77.1526 1140.34 81.4634C1153.3 90.0728 1165.78 99.3342 1178.55 108.197C1204.19 125.706 1230.37 142.659 1258.56 155.712C1265.6 158.96 1272.75 161.979 1280.06 164.587C1287.33 167.292 1294.72 169.671 1302.14 171.892C1317.02 176.3 1332.19 179.693 1347.51 182.108C1362.83 184.51 1378.32 185.899 1393.82 186.032C1409.32 186.165 1424.86 185.054 1440.13 182.277C1424.87 185.09 1409.33 186.261 1393.82 186.177C1378.3 186.092 1362.8 184.752 1347.46 182.397C1332.13 180.031 1316.92 176.686 1302.02 172.315C1294.59 170.105 1287.17 167.751 1279.89 165.07C1272.56 162.486 1265.39 159.479 1258.32 156.243C1230.06 143.214 1203.84 126.261 1178.17 108.765C1165.38 99.9138 1152.89 90.6644 1139.95 82.0912C1133.48 77.7925 1126.88 73.6991 1120.11 69.9439C1113.37 66.1282 1106.23 63.0371 1098.77 61.0085C1083.86 56.7098 1068.16 56.2872 1052.75 57.3256C1045.03 57.869 1037.32 58.7505 1029.63 59.7164C1021.94 60.6824 1014.25 61.7088 1006.59 62.8438C975.896 67.3598 945.471 73.518 915.033 79.5555C899.808 82.5742 884.595 85.5809 869.322 88.4064C854.061 91.2199 838.764 93.8884 823.383 95.9894C815.693 97.0762 807.978 97.9577 800.251 98.6822C792.513 99.3946 784.774 99.8776 777.023 100.336C761.522 101.242 746.021 101.797 730.52 102.377C715.018 103.077 699.481 103.089 684.088 104.756C668.671 106.277 653.278 108.318 638.209 111.892C634.448 112.786 630.699 113.776 626.986 114.862C623.272 115.961 619.595 117.181 615.918 118.4C608.564 120.852 601.234 123.412 593.952 126.068C579.364 131.357 564.896 136.972 550.356 142.442C535.816 147.887 521.228 153.237 506.376 157.801C502.675 158.984 498.926 160.023 495.201 161.097C491.451 162.124 487.702 163.114 483.929 164.056C476.395 165.939 468.824 167.666 461.206 169.2C445.981 172.279 430.624 174.657 415.171 176.203C399.717 177.761 384.192 178.449 368.667 178.533C337.616 178.787 306.614 176.891 275.611 176.734L263.991 176.915C263.018 176.94 262.057 176.927 261.083 176.976L258.187 177.169L252.383 177.555C244.633 177.918 236.942 178.932 229.24 179.741C213.87 181.757 198.549 184.233 183.349 187.3C152.899 193.229 122.725 200.582 92.3236 206.837C88.5264 207.658 84.7171 208.383 80.9079 209.119L69.4802 211.317L58.0045 213.273L52.2726 214.239L46.5167 215.048L34.9929 216.678L23.421 217.898L17.6411 218.513L11.8371 218.888L0.193115 219.661Z" fill="#594C90"/>
<path d="M0.228271 215.7L11.8482 214.674L17.6642 214.154L23.4562 213.418L35.028 211.933L46.5519 210.085L52.3078 209.155L58.0396 208.081L69.5154 205.943C77.1338 204.349 84.7763 202.876 92.3707 201.186C122.797 194.617 153.042 187.203 183.684 181.637C191.327 180.139 199.029 179.04 206.72 177.833C208.642 177.507 210.577 177.278 212.512 177.048L218.304 176.348C222.173 175.901 226.03 175.333 229.912 175.092L241.555 174.162C243.49 173.969 245.449 173.981 247.383 173.897L253.224 173.715L259.064 173.534C261.01 173.45 262.957 173.595 264.904 173.619L276.584 173.921C307.682 175.611 338.589 179.608 369.639 181.492C400.678 183.544 431.897 182.397 462.695 178.075C478.088 175.901 493.409 173.112 508.502 169.417C523.619 165.746 538.531 161.29 553.359 156.581C568.188 151.86 582.932 146.873 597.724 141.995C605.115 139.556 612.517 137.141 619.943 134.798C627.357 132.431 634.831 130.185 642.378 128.229C657.458 124.281 672.779 121.202 688.281 119.487C696.019 118.714 703.686 117.519 711.352 116.215C719.019 114.887 726.733 113.739 734.4 112.496C749.757 110.032 765.09 107.376 780.387 104.526C795.684 101.677 810.945 98.6941 826.11 95.1924C856.439 88.2373 886.577 80.4007 916.918 73.3972C932.083 69.8834 947.296 66.5386 962.581 63.5561C977.854 60.5133 993.223 57.9776 1008.66 55.9611C1016.39 54.9588 1024.13 54.1136 1031.88 53.4374C1039.63 52.737 1047.41 52.1695 1055.19 51.9763C1062.98 51.7831 1070.79 51.9281 1078.55 52.725C1086.31 53.5461 1094.02 55.0071 1101.49 57.2772C1108.98 59.511 1116.19 62.6988 1122.93 66.6594C1129.65 70.6441 1136.15 74.9549 1142.55 79.4226C1155.35 88.3459 1167.65 97.9334 1180.19 107.207C1205.34 125.561 1231.02 143.444 1258.86 157.438C1272.74 164.502 1287.25 170.214 1302.04 175.056C1316.83 179.862 1331.96 183.677 1347.28 186.346C1362.6 189.026 1378.12 190.62 1393.67 190.85C1409.22 191.067 1424.82 189.932 1440.09 186.937C1424.82 189.968 1409.22 191.164 1393.66 190.995C1378.1 190.813 1362.56 189.268 1347.22 186.636C1331.87 184.015 1316.72 180.236 1301.89 175.478C1287.07 170.685 1272.51 165.009 1258.58 157.97C1244.63 151.003 1231.21 143.009 1218.15 134.496C1205.1 125.959 1192.34 117 1179.76 107.774C1167.21 98.513 1154.89 88.9496 1142.11 80.0504C1135.71 75.6069 1129.21 71.2962 1122.52 67.3477C1115.82 63.4233 1108.68 60.2839 1101.24 58.0621C1093.81 55.8161 1086.16 54.3671 1078.44 53.5702C1070.73 52.7853 1062.94 52.6404 1055.18 52.8457C1047.42 53.051 1039.65 53.6185 1031.92 54.3309C1024.17 55.0192 1016.44 55.8765 1008.74 56.8788C993.319 58.8953 977.962 61.4551 962.713 64.51C947.452 67.5046 932.252 70.8615 917.099 74.3874C886.781 81.427 856.656 89.2877 826.314 96.2912C811.149 99.817 795.852 102.824 780.555 105.685C765.258 108.547 749.913 111.228 734.544 113.703C726.854 114.947 719.163 116.082 711.496 117.398C703.83 118.69 696.103 119.886 688.353 120.646C672.911 122.325 657.639 125.38 642.606 129.304C635.084 131.26 627.633 133.482 620.219 135.836C612.793 138.167 605.391 140.57 598.001 142.997C583.208 147.863 568.464 152.838 553.612 157.547C538.771 162.244 523.823 166.7 508.682 170.359C493.541 174.054 478.196 176.831 462.767 178.992C431.909 183.291 400.618 184.414 369.543 182.325C338.456 180.405 307.562 176.372 276.499 174.657L264.843 174.343C262.897 174.319 260.962 174.174 259.015 174.259L253.187 174.428L247.359 174.597C245.413 174.669 243.478 174.657 241.531 174.85L229.912 175.768C226.03 175.998 222.185 176.565 218.316 177.012L212.524 177.712C210.589 177.942 208.666 178.159 206.744 178.485C199.053 179.68 191.363 180.779 183.72 182.252C153.09 187.722 122.809 195.04 92.3587 201.512C84.7523 203.178 77.1098 204.639 69.4913 206.209L58.0036 208.31L52.2597 209.361L46.4918 210.266L34.9559 212.077L23.372 213.526L17.5801 214.251L11.8602 214.71L0.228271 215.7Z" fill="#594C90"/>
<path d="M0.264404 211.74C31.4592 208.902 62.1734 202.478 92.6953 195.559C123.217 188.652 153.655 181.178 184.561 176.07C215.408 170.963 246.963 168.403 278.146 172.098C309.269 175.648 340.031 181.673 371.069 185.573C386.583 187.505 402.18 188.858 417.813 189.208C433.447 189.594 449.092 189.16 464.678 187.964C480.263 186.745 495.801 184.813 511.182 182.035C526.563 179.234 541.812 175.696 556.94 171.711C572.081 167.751 587.102 163.356 602.098 158.888L624.593 152.138C632.092 149.868 639.614 147.694 647.184 145.666C662.313 141.597 677.586 138.034 692.979 135.161C700.646 133.7 708.24 131.816 715.799 129.824C723.357 127.819 730.939 125.851 738.474 123.762C753.554 119.608 768.563 115.14 783.511 110.528C798.472 105.915 813.409 101.254 828.297 96.4123C858.074 86.7524 887.839 76.9475 918.084 68.7366C933.201 64.6311 948.402 60.8154 963.735 57.6518C979.032 54.295 994.509 51.7472 1010.07 49.9118C1025.63 48.1127 1041.29 47.0621 1056.96 47.1587C1072.62 47.2795 1088.39 49.0425 1103.38 53.8483C1107.1 55.092 1110.79 56.4685 1114.39 58.0624C1117.97 59.6683 1121.46 61.4917 1124.85 63.4961C1131.57 67.6016 1137.95 72.1538 1144.29 76.7664C1156.95 86.052 1169.12 95.9534 1181.44 105.65C1206.13 124.921 1231.37 143.734 1258.85 158.803C1272.53 166.41 1286.92 172.677 1301.66 177.93C1316.41 183.17 1331.52 187.372 1346.87 190.403C1362.23 193.386 1377.81 195.221 1393.46 195.571C1409.09 195.909 1424.78 194.75 1440.12 191.526C1424.8 194.799 1409.09 196.006 1393.46 195.716C1377.8 195.426 1362.19 193.639 1346.82 190.693C1331.45 187.711 1316.3 183.545 1301.52 178.353C1286.75 173.148 1272.31 166.906 1258.57 159.335C1244.8 151.824 1231.58 143.335 1218.74 134.34C1205.9 125.32 1193.36 115.901 1181.02 106.217C1168.68 96.533 1156.5 86.6437 1143.86 77.3822C1137.53 72.7817 1131.12 68.2294 1124.47 64.1723C1121.1 62.1799 1117.64 60.3807 1114.07 58.7869C1110.5 57.205 1106.84 55.8526 1103.14 54.621C1088.25 49.8635 1072.56 48.1247 1056.96 48.0161C1041.34 47.9315 1025.7 49.0062 1010.18 50.8174C994.653 52.6649 979.212 55.2248 963.939 58.5937C948.618 61.7694 933.441 65.6092 918.349 69.7146C888.151 77.9497 858.422 87.7908 828.645 97.4749C813.757 102.341 798.808 107.014 783.86 111.651C768.899 116.275 753.891 120.779 738.798 124.933C731.24 127.01 723.669 128.978 716.099 130.983C708.517 132.963 700.91 134.847 693.195 136.308C677.814 139.169 662.578 142.707 647.461 146.753C639.902 148.769 632.392 150.93 624.894 153.2L602.387 159.926C587.378 164.37 572.334 168.753 557.181 172.701C542.028 176.674 526.755 180.2 511.338 183.001C495.909 185.766 480.347 187.698 464.738 188.894C449.116 190.077 433.447 190.488 417.777 190.089C402.12 189.727 386.486 188.351 370.949 186.406C339.875 182.47 309.124 176.408 278.038 172.834C246.939 169.115 215.456 171.639 184.621 176.698C153.727 181.709 123.265 189.075 92.7193 195.897C62.2094 202.671 31.4712 208.999 0.264404 211.74Z" fill="#594C90"/>
<path d="M0.28833 207.767C63.1226 200.546 123.313 179.62 185.871 170.54C201.493 168.246 217.258 166.869 233.048 166.664C240.943 166.628 248.85 166.869 256.72 167.509C264.579 168.221 272.438 169.224 280.201 170.673C311.311 176.118 341.881 184.197 372.884 190.017C434.841 202.055 499.129 200.425 560.714 186.938C576.143 183.701 591.464 179.898 606.701 175.817C614.319 173.764 621.914 171.639 629.496 169.453L652.303 163.09L697.906 150.375C705.488 148.225 712.963 145.75 720.401 143.13C727.839 140.497 735.253 137.793 742.619 134.979C772.096 123.725 800.983 110.926 830.087 98.67C844.627 92.5118 859.215 86.4381 873.924 80.6905C888.644 74.967 903.496 69.5695 918.529 64.7033C933.549 59.8372 948.762 55.5023 964.155 51.9643C971.87 50.2739 979.56 48.4505 987.347 47.1464C995.122 45.7699 1002.94 44.659 1010.8 43.7775C1026.5 42.0387 1042.32 41.3264 1058.12 41.9301C1073.89 42.558 1089.73 44.816 1104.74 49.9237C1106.6 50.6119 1108.49 51.2036 1110.3 51.9884L1113.05 53.0994C1113.97 53.4858 1114.85 53.9083 1115.77 54.3189C1119.4 55.9128 1122.89 57.7965 1126.31 59.813C1129.71 61.8295 1133 64.0754 1136.17 66.43C1139.38 68.7484 1142.53 71.1393 1145.66 73.5543C1158.19 83.2263 1170.25 93.4778 1182.38 103.609C1206.67 123.798 1231.41 143.661 1258.55 159.866C1265.32 163.899 1272.25 167.726 1279.32 171.192C1286.44 174.585 1293.64 177.833 1301 180.659C1315.7 186.394 1330.83 191.007 1346.23 194.388C1361.64 197.793 1377.34 199.821 1393.11 200.292C1408.86 200.751 1424.71 199.568 1440.12 196.102C1424.72 199.616 1408.87 200.836 1393.11 200.437C1377.33 200.003 1361.6 198.022 1346.18 194.665C1330.75 191.333 1315.59 186.756 1300.85 181.069C1293.46 178.268 1286.25 175.044 1279.1 171.663C1271.98 168.209 1265.05 164.394 1258.25 160.373C1244.64 152.307 1231.64 143.263 1219 133.748C1206.38 124.221 1194.07 114.283 1181.92 104.152C1169.77 94.0332 1157.71 83.8059 1145.2 74.158C1142.06 71.7551 1138.91 69.3763 1135.71 67.058C1132.54 64.7034 1129.29 62.4936 1125.9 60.4892C1122.51 58.4848 1119.04 56.6252 1115.43 55.0555C1114.53 54.657 1113.64 54.2344 1112.74 53.848L1110 52.7492C1108.19 51.9764 1106.31 51.3847 1104.46 50.7085C1089.54 45.6612 1073.79 43.4153 1058.08 42.8115C1042.33 42.2199 1026.55 42.9444 1010.9 44.6952C1003.06 45.5767 995.266 46.6996 987.503 48.0762C979.729 49.3803 972.062 51.2036 964.36 52.9061C949.003 56.4562 933.826 60.7911 918.817 65.6693C903.821 70.5476 888.992 75.9451 874.284 81.6806C859.588 87.4404 845.024 93.5261 830.496 99.6964C801.404 111.977 772.54 124.812 743.028 136.114C735.65 138.928 728.224 141.633 720.773 144.253C713.323 146.873 705.813 149.348 698.194 151.498L652.568 164.164L629.76 170.504C622.166 172.677 614.572 174.802 606.941 176.843C591.692 180.924 576.347 184.716 560.894 187.928C499.189 201.379 434.757 202.949 372.716 190.814C341.677 184.957 311.131 176.855 280.068 171.373C272.318 169.924 264.507 168.91 256.66 168.197C248.813 167.545 240.931 167.304 233.048 167.328C217.294 167.509 201.553 168.886 185.943 171.132C123.457 180.007 63.1466 200.739 0.28833 207.767Z" fill="#594C90"/>
<path d="M0.324463 203.806C63.5793 195.064 124.13 172.919 187.602 165.094C195.52 164.176 203.463 163.391 211.442 163.053L214.434 162.896L217.426 162.824L223.411 162.691C227.4 162.727 231.39 162.691 235.379 162.908C251.337 163.416 267.211 165.915 282.676 169.779C313.715 177.217 344.056 187.203 374.987 194.907C405.869 202.756 437.581 207.211 469.412 208.419C501.244 209.675 533.16 207.441 564.607 202.333C580.325 199.773 595.946 196.609 611.423 192.818C626.913 189.075 642.246 184.716 657.506 180.127C672.755 175.503 687.944 170.6 702.905 165.166C717.841 159.636 732.381 153.079 746.765 146.197C775.533 132.431 803.411 116.855 831.698 102.039C859.936 87.1868 888.596 72.9505 918.421 61.4793C933.333 55.7679 948.51 50.7689 963.951 46.6755L966.847 45.9027L969.755 45.2144L975.583 43.862C979.476 42.9685 983.346 42.0025 987.275 41.278C995.11 39.7566 1003 38.537 1010.94 37.6434C1026.8 35.8443 1042.82 35.3371 1058.75 36.3635C1074.67 37.4019 1090.57 40.1551 1105.65 45.5284C1113.17 48.2332 1120.47 51.6021 1127.38 55.6592C1130.81 57.712 1134.15 59.9337 1137.35 62.3487C1140.53 64.7758 1143.65 67.2873 1146.75 69.7989C1159.15 79.8935 1171.1 90.5074 1183.07 101.085C1207.01 122.204 1231.25 143.19 1258.05 160.554C1284.68 178.159 1314.5 190.705 1345.44 198.252L1348.33 198.976L1351.25 199.592L1357.11 200.812C1361.01 201.584 1364.95 202.152 1368.88 202.84C1372.84 203.311 1376.79 203.867 1380.76 204.241L1386.72 204.7L1389.7 204.929L1392.68 205.026C1408.59 205.617 1424.62 204.422 1440.14 200.703C1424.64 204.47 1408.6 205.714 1392.68 205.171L1389.68 205.086L1386.7 204.869L1380.74 204.434C1376.78 204.072 1372.82 203.528 1368.86 203.07C1364.93 202.405 1360.98 201.838 1357.07 201.077L1351.21 199.87L1348.27 199.266L1345.37 198.554C1314.36 191.091 1284.47 178.618 1257.73 161.061C1230.85 143.709 1206.58 122.711 1182.62 101.616C1170.63 91.0508 1158.67 80.461 1146.28 70.3906C1143.18 67.8911 1140.05 65.3795 1136.89 62.9766C1133.71 60.5858 1130.39 58.3761 1126.98 56.3475C1120.12 52.3145 1112.86 48.9818 1105.39 46.3012C1090.39 40.9762 1074.56 38.2593 1058.7 37.2329C1042.82 36.2307 1026.86 36.762 1011.04 38.5611C1003.14 39.4547 995.266 40.6863 987.455 42.2078C983.55 42.9444 979.681 43.9104 975.799 44.8039L969.983 46.1563L967.075 46.8445L964.191 47.6294C948.798 51.7228 933.658 56.7339 918.781 62.4453C889.028 73.9286 860.429 88.1649 832.214 103.041C803.976 117.881 776.097 133.494 747.294 147.296C732.886 154.178 718.31 160.723 703.313 166.265C688.293 171.699 673.104 176.577 657.831 181.19C642.546 185.766 627.189 190.113 611.676 193.844C596.174 197.624 580.517 200.775 564.763 203.323C533.268 208.407 501.268 210.616 469.376 209.324C437.497 208.081 405.725 203.589 374.794 195.692C343.84 187.94 313.51 177.93 282.52 170.467C267.067 166.591 251.277 164.092 235.355 163.561C231.378 163.343 227.4 163.379 223.423 163.331L217.451 163.452L214.47 163.524L211.49 163.681C203.535 164.007 195.605 164.804 187.686 165.686C124.275 173.293 63.6033 195.269 0.324463 203.806Z" fill="#594C90"/>
<path d="M0.360596 199.846C32.2404 194.702 63.4472 186.225 94.7141 178.268C125.969 170.323 157.476 162.715 189.668 159.648C197.707 158.851 205.783 158.501 213.858 158.356C221.933 158.32 230.008 158.634 238.059 159.347C246.086 160.192 254.113 161.291 262.008 163.054C269.903 164.816 277.677 167.002 285.404 169.369C316.322 178.763 346.364 190.729 377.21 200.22C381.067 201.403 384.924 202.563 388.806 203.649C392.675 204.772 396.616 205.654 400.51 206.668L412.238 209.626L424.098 212.005L430.022 213.188C432.005 213.551 433.964 214.046 435.958 214.299L447.915 216.086L453.899 216.98C454.896 217.113 455.894 217.306 456.891 217.403L459.895 217.704L471.924 218.912C504.02 221.834 536.428 221.52 568.452 217.837C600.476 214.106 632.116 207.151 662.734 197.02L674.197 193.156C676.12 192.553 677.971 191.743 679.857 191.031L685.493 188.821L696.752 184.402L707.784 179.451L713.299 176.976C715.138 176.143 717 175.358 718.779 174.404L729.557 168.91C736.803 165.372 743.773 161.291 750.839 157.378C778.873 141.343 805.886 123.569 833.26 106.386C846.911 97.7283 860.778 89.4087 874.789 81.3426C881.879 77.4545 888.884 73.4094 896.118 69.8111L901.513 67.0339C903.316 66.1041 905.094 65.1623 906.945 64.3291L917.916 59.1731C932.672 52.6044 947.693 46.4945 963.218 41.9543C970.897 39.3944 978.792 37.6677 986.638 35.6995C994.497 33.8279 1002.49 32.5118 1010.5 31.5095C1026.55 29.5051 1042.78 29.0704 1058.89 30.3987C1066.94 31.0628 1074.97 32.234 1082.88 33.9004C1090.79 35.5667 1098.61 37.7644 1106.18 40.6261C1113.75 43.4758 1121.13 46.905 1128.08 51.0709C1135.05 55.2125 1141.55 60.1391 1147.6 65.5004C1159.87 76.0538 1171.74 87.0541 1183.58 98.0785C1207.21 120.127 1230.93 142.273 1257.38 160.88C1259 162.075 1260.69 163.21 1262.37 164.321L1267.4 167.69C1270.78 169.912 1274.25 171.965 1277.68 174.102C1279.41 175.14 1281.19 176.094 1282.94 177.097C1284.71 178.063 1286.43 179.125 1288.24 180.019L1293.62 182.772L1296.32 184.148L1299.07 185.416C1313.67 192.275 1328.88 197.853 1344.45 202.031C1360.03 206.221 1376.02 208.914 1392.13 209.675C1408.22 210.435 1424.48 209.252 1440.14 205.255C1424.5 209.3 1408.24 210.532 1392.12 209.832C1376 209.119 1359.98 206.475 1344.37 202.321C1328.76 198.191 1313.51 192.649 1298.86 185.827L1296.11 184.559L1293.41 183.194L1288 180.453C1286.19 179.572 1284.45 178.509 1282.69 177.543C1280.93 176.541 1279.14 175.587 1277.41 174.561C1273.98 172.424 1270.49 170.383 1267.1 168.161L1262.04 164.804C1260.35 163.693 1258.68 162.571 1257.05 161.375C1230.52 142.78 1206.77 120.622 1183.11 98.5977C1171.26 87.5854 1159.39 76.5972 1147.12 66.0679C1141.06 60.7067 1134.62 55.8526 1127.69 51.735C1120.77 47.6054 1113.44 44.2123 1105.9 41.3747C1098.37 38.5371 1090.59 36.3636 1082.71 34.7094C1074.83 33.0551 1066.85 31.8959 1058.82 31.256C1042.77 29.9519 1026.58 30.4107 1010.61 32.4152C1002.62 33.4294 994.665 34.7456 986.831 36.6172C979.02 38.5854 971.137 40.3121 963.483 42.872C948.005 47.4122 933.045 53.5221 918.325 60.0908L907.378 65.2468C905.539 66.08 903.761 67.0218 901.958 67.9516L896.575 70.7288C889.353 74.3271 882.359 78.3843 875.293 82.2603C861.306 90.3264 847.475 98.6581 833.837 107.328C806.487 124.535 779.486 142.357 751.427 158.429C744.35 162.341 737.368 166.422 730.098 169.96L719.283 175.454C717.505 176.408 715.63 177.193 713.792 178.026L708.252 180.502L697.185 185.452L685.89 189.872L680.242 192.082C678.355 192.794 676.493 193.603 674.57 194.207L663.082 198.059C632.392 208.177 600.669 215.121 568.573 218.827C536.476 222.498 504.008 222.776 471.852 219.806L459.799 218.574L456.783 218.272C455.774 218.163 454.788 217.982 453.791 217.849L447.807 216.944L435.826 215.133C433.82 214.879 431.861 214.384 429.878 214.022L423.942 212.826L412.07 210.423L400.33 207.453C396.424 206.427 392.483 205.545 388.601 204.41C384.72 203.311 380.851 202.152 376.994 200.957C346.123 191.417 316.094 179.415 285.224 170.009C277.521 167.63 269.746 165.444 261.888 163.681C254.029 161.918 246.038 160.808 238.023 159.962C229.996 159.238 221.945 158.912 213.882 158.948C205.831 159.081 197.768 159.443 189.741 160.204C157.596 163.174 126.077 170.673 94.8102 178.521C63.4953 186.418 32.2644 194.81 0.360596 199.846Z" fill="#594C90"/>
</svg>
