<svg width="82" height="82" viewBox="0 0 82 82" fill="none" xmlns="http://www.w3.org/2000/svg">
<path d="M63.074 23.2527C64.1891 24.3671 65.6096 25.1258 67.1559 25.433C68.7022 25.7402 70.3048 25.582 71.7612 24.9785C73.2176 24.375 74.4623 23.3532 75.3381 22.0423C76.2138 20.7314 76.6812 19.1904 76.6812 17.6139C76.6812 16.0374 76.2138 14.4963 75.3381 13.1854C74.4623 11.8745 73.2176 10.8528 71.7612 10.2492C70.3048 9.6457 68.7022 9.48753 67.1559 9.79472C65.6096 10.1019 64.1891 10.8606 63.074 11.975C62.3332 12.7154 61.7456 13.5944 61.3446 14.562C60.9437 15.5295 60.7373 16.5665 60.7373 17.6139C60.7373 18.6612 60.9437 19.6982 61.3446 20.6658C61.7456 21.6333 62.3332 22.5124 63.074 23.2527V23.2527Z" fill="url(#paint0_linear_2671_7791)"/>
<path d="M59.74 2.54536C55.9701 1.19899 50.6467 3.72167 49.2985 7.49152C47.9504 11.2614 50.4748 16.5884 54.2464 17.9436C58.0181 19.2989 63.3451 16.7585 64.7003 12.9869C66.0556 9.21523 63.5134 3.89705 59.74 2.54536Z" fill="url(#paint1_linear_2671_7791)"/>
<path d="M42.9688 0.00831996C39.3726 0.235078 34.9189 5.28753 35.1456 8.88554C35.3724 12.4835 40.4302 16.9354 44.0229 16.7087C47.6156 16.4819 52.0728 11.4277 51.846 7.83147C51.6193 4.23523 46.565 -0.218438 42.9688 0.00831996Z" fill="url(#paint2_linear_2671_7791)"/>
<path d="M26.3959 4.36284C23.5615 5.83322 21.2585 13.054 22.7218 15.9009C24.1851 18.7478 31.4165 21.0384 34.2598 19.5751C37.1032 18.1118 39.4062 10.8821 37.934 8.03703C36.4619 5.19192 29.2428 2.89069 26.3959 4.36284Z" fill="url(#paint3_linear_2671_7791)"/>
<path d="M12.6328 15.7664C10.9516 18.0092 12.1421 26.3461 14.3831 28.029C16.6241 29.712 24.9628 28.5198 26.6457 26.277C28.3287 24.0342 27.1435 15.692 24.8937 14.0108C22.6438 12.3296 14.314 13.5183 12.6328 15.7664Z" fill="url(#paint4_linear_2671_7791)"/>
<path d="M5.21899 31.6515C4.71941 34.0024 9.76655 41.7724 12.1174 42.2702C14.4682 42.768 22.2347 37.7333 22.7343 35.3736C23.2338 33.0139 18.1885 25.2527 15.8376 24.7443C13.4868 24.2359 5.71856 29.3025 5.21899 31.6515Z" fill="url(#paint5_linear_2671_7791)"/>
<path d="M5.02228 48.9118C5.43683 50.8712 13.9101 56.3824 15.8659 55.9679C17.8217 55.5534 23.3383 47.0801 22.9238 45.1207C22.5092 43.1614 14.0341 37.6519 12.0854 38.0664C10.1367 38.481 4.60597 46.9454 5.02228 48.9118Z" fill="url(#paint6_linear_2671_7791)"/>
<path d="M12.1439 65.1179C13.1041 66.4005 23.9442 67.9524 25.2268 66.9975C26.5094 66.0427 28.0613 55.1973 27.1064 53.9147C26.1515 52.6321 15.3061 51.0802 14.0235 52.0351C12.7409 52.9899 11.1838 63.8353 12.1439 65.1179Z" fill="url(#paint7_linear_2671_7791)"/>
<path d="M25.9212 77.0406C26.9842 77.5933 38.2264 74.0166 38.7791 72.9501C39.3318 71.8837 35.7533 60.6432 34.6886 60.0922C33.6239 59.5413 22.3835 63.1163 21.829 64.1827C21.2745 65.2492 24.853 76.4897 25.9212 77.0406Z" fill="url(#paint8_linear_2671_7791)"/>
<path d="M42.8555 81.8961C43.6544 81.9475 53.1411 73.5964 53.1907 72.7975C53.2403 71.9985 44.891 62.5136 44.092 62.4623C43.293 62.4109 33.8064 70.762 33.7568 71.5698C33.7072 72.3776 42.0547 81.8448 42.8555 81.8961Z" fill="url(#paint9_linear_2671_7791)"/>
<path d="M60.3086 79.6693C60.686 79.5347 66.4754 67.3606 66.3425 66.9833C66.2097 66.6059 54.0356 60.8165 53.6583 60.9494C53.2809 61.0823 47.4897 73.2581 47.6244 73.6354C47.759 74.0128 59.9313 79.8022 60.3086 79.6693Z" fill="url(#paint10_linear_2671_7791)"/>
<path d="M61.4106 55.6614V69.9843H75.7336V55.6614H61.4106Z" fill="url(#paint11_linear_2671_7791)"/>
<defs>
<linearGradient id="paint0_linear_2671_7791" x1="79.8326" y1="28.7995" x2="62.9945" y2="11.9614" gradientUnits="userSpaceOnUse">
<stop stop-color="#450458"/>
<stop offset="1" stop-color="#210458"/>
</linearGradient>
<linearGradient id="paint1_linear_2671_7791" x1="70.2944" y1="15.6909" x2="48.8641" y2="5.14822" gradientUnits="userSpaceOnUse">
<stop stop-color="#4C0C64"/>
<stop offset="1" stop-color="#280A60"/>
</linearGradient>
<linearGradient id="paint2_linear_2671_7791" x1="56.3323" y1="9.99332" x2="32.8107" y2="6.52221" gradientUnits="userSpaceOnUse">
<stop stop-color="#531471"/>
<stop offset="1" stop-color="#301068"/>
</linearGradient>
<linearGradient id="paint3_linear_2671_7791" x1="43.5283" y1="9.19181" x2="20.4379" y2="13.7193" gradientUnits="userSpaceOnUse">
<stop stop-color="#591B7D"/>
<stop offset="1" stop-color="#371770"/>
</linearGradient>
<linearGradient id="paint4_linear_2671_7791" x1="29.4578" y1="13.7104" x2="10.1676" y2="26.6353" gradientUnits="userSpaceOnUse">
<stop stop-color="#60238A"/>
<stop offset="1" stop-color="#3E1D78"/>
</linearGradient>
<linearGradient id="paint5_linear_2671_7791" x1="22.5966" y1="21.7219" x2="9.95224" y2="40.8179" gradientUnits="userSpaceOnUse">
<stop stop-color="#672B96"/>
<stop offset="1" stop-color="#462380"/>
</linearGradient>
<linearGradient id="paint6_linear_2671_7791" x1="17.7628" y1="33.613" x2="13.2962" y2="55.7083" gradientUnits="userSpaceOnUse">
<stop stop-color="#6E33A3"/>
<stop offset="1" stop-color="#4D2989"/>
</linearGradient>
<linearGradient id="paint7_linear_2671_7791" x1="16.7463" y1="48.3544" x2="21.0582" y2="69.9788" gradientUnits="userSpaceOnUse">
<stop stop-color="#753BAF"/>
<stop offset="1" stop-color="#552F91"/>
</linearGradient>
<linearGradient id="paint8_linear_2671_7791" x1="23.5594" y1="58.8929" x2="35.5349" y2="76.6295" gradientUnits="userSpaceOnUse">
<stop stop-color="#7C43BC"/>
<stop offset="1" stop-color="#5C3599"/>
</linearGradient>
<linearGradient id="paint9_linear_2671_7791" x1="33.5084" y1="65.9986" x2="49.9072" y2="78.1251" gradientUnits="userSpaceOnUse">
<stop stop-color="#824AC8"/>
<stop offset="1" stop-color="#633CA1"/>
</linearGradient>
<linearGradient id="paint10_linear_2671_7791" x1="45.3782" y1="67.4122" x2="63.3306" y2="73.497" gradientUnits="userSpaceOnUse">
<stop stop-color="#8952D5"/>
<stop offset="1" stop-color="#6B42A9"/>
</linearGradient>
<linearGradient id="paint11_linear_2671_7791" x1="59.4949" y1="63.6129" x2="76.4763" y2="63.5697" gradientUnits="userSpaceOnUse">
<stop stop-color="#905AE1"/>
<stop offset="1" stop-color="#7248B1"/>
</linearGradient>
</defs>
</svg>
