<svg width="54" height="54" viewBox="0 0 54 54" fill="none" xmlns="http://www.w3.org/2000/svg">
<path fill-rule="evenodd" clip-rule="evenodd" d="M15.75 49.5C22.5562 49.5 28.1272 43.9312 28.1272 37.1272C28.1272 30.3232 22.5562 24.75 15.75 24.75C8.94375 24.75 3.375 30.3187 3.375 37.1272C3.375 39.9037 4.31325 42.4643 5.87025 44.5343C8.136 47.5403 11.7225 49.5 15.75 49.5Z" stroke="#685587" stroke-width="3" stroke-linecap="round" stroke-linejoin="round"/>
<path d="M33.4125 44.7098H37.0777C42.1357 44.7098 46.2375 40.6081 46.2375 35.55" stroke="#685587" stroke-width="3" stroke-linecap="round" stroke-linejoin="round"/>
<path d="M20.5875 9.29028H16.9223C11.8643 9.29028 7.76251 13.392 7.76251 18.45" stroke="#685587" stroke-width="3" stroke-linecap="round" stroke-linejoin="round"/>
<path d="M17.8403 6.54077L20.5875 9.29027L17.8403 12.0375" stroke="#685587" stroke-width="3" stroke-linecap="round" stroke-linejoin="round"/>
<path d="M50.625 16.875C50.625 23.7105 45.0855 29.25 38.25 29.25C31.4145 29.25 25.875 23.7105 25.875 16.875C25.875 10.0395 31.4145 4.5 38.25 4.5C45.0832 4.5 50.625 10.0395 50.625 16.875" stroke="#685587" stroke-width="3" stroke-linecap="round" stroke-linejoin="round"/>
<path d="M36.1597 47.4591L33.4125 44.7119L36.1597 41.9646" stroke="#685587" stroke-width="3" stroke-linecap="round" stroke-linejoin="round"/>
</svg>
