<svg width="278" height="252" viewBox="0 0 278 252" fill="none" xmlns="http://www.w3.org/2000/svg">
<line x1="6.47217" y1="39.6523" x2="177.019" y2="39.6523" stroke="#1E1F3C" stroke-width="6" stroke-linecap="round"/>
<line x1="193.404" y1="39.6523" x2="204.398" y2="39.6523" stroke="#1E1F3C" stroke-width="6" stroke-linecap="round"/>
<line x1="129.206" y1="90.6338" x2="140.199" y2="90.6338" stroke="#1E1F3C" stroke-width="6" stroke-linecap="round"/>
<line x1="101.827" y1="90.6338" x2="112.82" y2="90.6338" stroke="#1E1F3C" stroke-width="6" stroke-linecap="round"/>
<line x1="74.4473" y1="90.6338" x2="85.4411" y2="90.6338" stroke="#1E1F3C" stroke-width="6" stroke-linecap="round"/>
<line x1="74.4473" y1="135.951" x2="85.4411" y2="135.951" stroke="#1E1F3C" stroke-width="6" stroke-linecap="round"/>
<line x1="101.827" y1="135.951" x2="112.82" y2="135.951" stroke="#1E1F3C" stroke-width="6" stroke-linecap="round"/>
<line x1="101.827" y1="182.212" x2="112.82" y2="182.212" stroke="#1E1F3C" stroke-width="6" stroke-linecap="round"/>
<line x1="74.4473" y1="182.212" x2="85.4411" y2="182.212" stroke="#1E1F3C" stroke-width="6" stroke-linecap="round"/>
<line x1="219.839" y1="39.6523" x2="236.497" y2="39.6523" stroke="#1E1F3C" stroke-width="6" stroke-linecap="round"/>
<path d="M239.025 175.771V12C239.025 7.02943 234.996 3 230.025 3H12C7.02943 3 3 7.02944 3 12V204.063C3 209.033 7.02944 213.063 12 213.063H201.261" stroke="#1E1F3C" stroke-width="6" stroke-linecap="round"/>
<line x1="74.4473" y1="21.7148" x2="222.336" y2="21.7148" stroke="#1E1F3C" stroke-width="6" stroke-linecap="round"/>
<line x1="74.4473" y1="72.6953" x2="204.398" y2="72.6953" stroke="#1E1F3C" stroke-width="6" stroke-linecap="round"/>
<line x1="74.4473" y1="118.956" x2="131.702" y2="118.956" stroke="#1E1F3C" stroke-width="6" stroke-linecap="round"/>
<line x1="74.4473" y1="164.273" x2="123.205" y2="164.273" stroke="#1E1F3C" stroke-width="6" stroke-linecap="round"/>
<circle cx="56.3418" cy="20.9375" r="3" fill="#1C1E35" stroke="#1E1F3C" stroke-width="1.55281"/>
<circle cx="48.2174" cy="81.2174" r="10.2174" stroke="#1E1F3C" stroke-width="6"/>
<circle cx="47.8449" cy="125.733" r="10.2174" stroke="#1E1F3C" stroke-width="6"/>
<circle cx="47.8449" cy="171.049" r="10.2174" stroke="#1E1F3C" stroke-width="6"/>
<circle cx="38.4038" cy="20.9375" r="3" fill="#1C1E35" stroke="#1E1F3C" stroke-width="1.55281"/>
<circle cx="19.773" cy="21.2168" r="3" fill="#1C1E35" stroke="#1E1F3C" stroke-width="1.55281"/>
<circle cx="180.373" cy="152.373" r="41.3728" stroke="#1E1F3C" stroke-width="6"/>
<line x1="209.162" y1="184.473" x2="222.857" y2="198.168" stroke="#1E1F3C" stroke-width="6" stroke-linecap="round"/>
<rect x="215.242" y="203.389" width="21.6758" height="61.2944" rx="10.8379" transform="rotate(-44.331 215.242 203.389)" stroke="#1E1F3C" stroke-width="6"/>
</svg>
