<svg width="24" height="24" viewBox="0 0 24 24" fill="none" xmlns="http://www.w3.org/2000/svg">
<path d="M9 21H7C5.89543 21 5 20.1046 5 19V5C5 3.89543 5.89543 3 7 3H15C16.1046 3 17 3.89543 17 5V10" stroke="#D7D4ED" stroke-width="1.5" stroke-linecap="round" stroke-linejoin="round"/>
<path d="M13.5 3V5C13.5 5.27614 13.2761 5.5 13 5.5H9C8.72386 5.5 8.5 5.27614 8.5 5V3" stroke="#D7D4ED" stroke-width="1.5" stroke-linecap="round" stroke-linejoin="round"/>
<rect x="13" y="17" width="6" height="4" rx="1.25" stroke="#D7D4ED" stroke-width="1.5" stroke-linecap="round" stroke-linejoin="round"/>
<path d="M14.25 17V15.75C14.25 14.7835 15.0335 14 16 14V14C16.9665 14 17.75 14.7835 17.75 15.75V17" stroke="#D7D4ED" stroke-width="1.5" stroke-linecap="round" stroke-linejoin="round"/>
</svg>
