<svg width="24" height="24" viewBox="0 0 24 24" fill="none" xmlns="http://www.w3.org/2000/svg">
<path d="M19.71 17V15.71C19.71 14.813 18.945 14 18 14C17.055 14 16.29 14.765 16.29 15.71V17" stroke="#D7D4ED" stroke-width="1.5" stroke-linecap="round" stroke-linejoin="round"/>
<path fill-rule="evenodd" clip-rule="evenodd" d="M20 21H16C15.448 21 15 20.552 15 20V18C15 17.448 15.448 17 16 17H20C20.552 17 21 17.448 21 18V20C21 20.552 20.552 21 20 21Z" stroke="#D7D4ED" stroke-width="1.5" stroke-linecap="round" stroke-linejoin="round"/>
<path d="M11 18.9815H5C3.895 18.9815 3 18.0865 3 16.9815V7.01953C3 5.91453 3.895 5.01953 5 5.01953H19C20.105 5.01953 21 5.91453 21 7.01953V11.0005" stroke="#D7D4ED" stroke-width="1.5" stroke-linecap="round" stroke-linejoin="round"/>
<path d="M17 9L12 12L7 9" stroke="#D7D4ED" stroke-width="1.5" stroke-linecap="round" stroke-linejoin="round"/>
</svg>
