<svg width="25" height="25" viewBox="0 0 25 25" fill="none" xmlns="http://www.w3.org/2000/svg">
<path d="M4.5 12.6408V8.82576C4.5 7.57776 5.273 6.45976 6.44 6.01876L14.793 2.86476C16.102 2.37176 17.5 3.33776 17.5 4.73676V8.08676" stroke="#D7D4ED" stroke-width="1.5" stroke-linecap="round" stroke-linejoin="round"/>
<path d="M17.749 14.8359C17.611 14.8369 17.5 14.9489 17.5 15.0869C17.5 15.2249 17.612 15.3369 17.75 15.3359C17.888 15.3359 18 15.2239 18 15.0859C18 14.9479 17.888 14.8359 17.749 14.8359" stroke="#D7D4ED" stroke-width="1.5" stroke-linecap="round" stroke-linejoin="round"/>
<path d="M11.162 21.7349H18.5C20.15 21.7349 21.5 20.3849 21.5 18.7349V11.0859C21.5 9.42894 20.157 8.08594 18.5 8.08594H6.5C5.395 8.08594 4.5 8.98094 4.5 10.0859V12.9919" stroke="#D7D4ED" stroke-width="1.5" stroke-linecap="round" stroke-linejoin="round"/>
<path d="M8 22.7344C4.963 22.7344 2.5 20.2714 2.5 17.2344C2.5 14.1974 4.963 11.7344 8 11.7344C11.038 11.7344 13.5 14.1974 13.5 17.2344C13.5 20.2714 11.038 22.7344 8 22.7344" stroke="#D7D4ED" stroke-width="1.5" stroke-linecap="round" stroke-linejoin="round"/>
<path d="M8 15.041V19.428" stroke="#D7D4ED" stroke-width="1.5" stroke-linecap="round" stroke-linejoin="round"/>
<path d="M10.193 17.2344H5.80701" stroke="#D7D4ED" stroke-width="1.5" stroke-linecap="round" stroke-linejoin="round"/>
</svg>
