<svg width="24" height="24" viewBox="0 0 24 24" fill="none" xmlns="http://www.w3.org/2000/svg">
<path fill-rule="evenodd" clip-rule="evenodd" d="M19.804 18.2129V18.2129C17.299 17.7119 14.715 17.7739 12.237 18.3929L12 18.4529C9.366 19.1109 6.619 19.1769 3.957 18.6439L3.804 18.6129C3.336 18.5199 3 18.1089 3 17.6329V6.7939C3 6.1629 3.577 5.6899 4.196 5.8129V5.8129C6.701 6.3139 9.285 6.2519 11.763 5.6329L12.236 5.5149C14.714 4.8959 17.299 4.8339 19.803 5.3349L20.195 5.4129C20.664 5.5069 21 5.9169 21 6.3939V17.2329C21 17.8639 20.423 18.3369 19.804 18.2129V18.2129Z" stroke="#7A7982" stroke-width="1.5" stroke-linecap="round" stroke-linejoin="round"/>
<path fill-rule="evenodd" clip-rule="evenodd" d="M12 14.0137C13.1046 14.0137 14 13.1182 14 12.0137C14 10.9091 13.1046 10.0137 12 10.0137C10.8954 10.0137 10 10.9091 10 12.0137C10 13.1182 10.8954 14.0137 12 14.0137Z" stroke="#7A7982" stroke-width="1.5" stroke-linecap="round" stroke-linejoin="round"/>
</svg>
