<svg width="54" height="54" viewBox="0 0 54 54" fill="none" xmlns="http://www.w3.org/2000/svg">
<path d="M31.4999 43.4994H37.5007C41.6429 43.4994 44.9999 40.1424 44.9999 36.0002" stroke="#685587" stroke-width="3" stroke-linecap="round" stroke-linejoin="round"/>
<path d="M35.2507 47.2502L31.4999 43.4994L35.2507 39.7509" stroke="#685587" stroke-width="3" stroke-linecap="round" stroke-linejoin="round"/>
<path d="M22.5001 10.5007H16.4993C12.3571 10.5007 9.00006 13.8577 9.00006 18" stroke="#685587" stroke-width="3" stroke-linecap="round" stroke-linejoin="round"/>
<path d="M18.7493 6.75L22.5001 10.5008L18.7493 14.2492" stroke="#685587" stroke-width="3" stroke-linecap="round" stroke-linejoin="round"/>
<path d="M9.00006 39.9396V40.2163C9.00006 42.2368 10.6381 43.8748 12.6586 43.8748H16.5938C18.6121 43.8748 20.2501 42.2368 20.2501 40.2163V40.2163C20.2501 38.5176 19.0801 37.0416 17.4263 36.6546L11.8261 35.3428C10.1701 34.9581 9.00006 33.4821 9.00006 31.7833V31.7833C9.00006 29.7628 10.6381 28.1248 12.6586 28.1248H16.5938C18.6121 28.1248 20.2501 29.7628 20.2501 31.7833V32.0601" stroke="#685587" stroke-width="3" stroke-linecap="round" stroke-linejoin="round"/>
<path fill-rule="evenodd" clip-rule="evenodd" d="M41.1232 25.8747H33.768C33.759 25.8747 33.75 25.8657 33.75 25.8567V18.1392C33.75 18.1302 33.759 18.1212 33.768 18.1212H41.1232C43.2652 18.1212 45 19.8559 45 21.9979V21.9979C45 24.1399 43.2652 25.8747 41.1232 25.8747V25.8747Z" stroke="#685587" stroke-width="3" stroke-linecap="round" stroke-linejoin="round"/>
<path d="M33.75 18.1215V10.125H40.1377C42.345 10.125 44.136 11.916 44.136 14.1232V14.1232C44.136 16.3305 42.3337 18.1215 40.113 18.1215" stroke="#685587" stroke-width="3" stroke-linecap="round" stroke-linejoin="round"/>
<path d="M38.25 10.1248V7.87482" stroke="#685587" stroke-width="3" stroke-linecap="round" stroke-linejoin="round"/>
<path d="M38.25 28.1252V25.8752" stroke="#685587" stroke-width="3" stroke-linecap="round" stroke-linejoin="round"/>
<path d="M14.625 28.1252V25.8752" stroke="#685587" stroke-width="3" stroke-linecap="round" stroke-linejoin="round"/>
<path d="M14.625 46.125V43.875" stroke="#685587" stroke-width="3" stroke-linecap="round" stroke-linejoin="round"/>
</svg>
