<svg width="25" height="25" viewBox="0 0 25 25" fill="none" xmlns="http://www.w3.org/2000/svg">
<path d="M13.7284 20.0088C13.3751 20.6274 12.7174 21.0092 12.0051 21.0092C11.2927 21.0092 10.635 20.6274 10.2817 20.0088" stroke="#685587" stroke-width="2" stroke-linecap="round" stroke-linejoin="round"/>
<path fill-rule="evenodd" clip-rule="evenodd" d="M6.50362 9.00348V8.50237C6.50362 5.46404 8.96666 3.00098 12.005 3.00098V3.00098C15.0433 3.00098 17.5064 5.46404 17.5064 8.50237V9.00346V9.00346C17.5064 11.601 18.3489 14.1284 19.9074 16.2065V16.2065C20.021 16.358 20.0393 16.5608 19.9546 16.7303C19.8699 16.8997 19.6967 17.0068 19.5072 17.0068H4.50277C4.31331 17.0068 4.14011 16.8997 4.05537 16.7303C3.97064 16.5608 3.98893 16.358 4.10261 16.2065V16.2065C5.66112 14.1284 6.50361 11.601 6.50361 9.00346L6.50362 9.00348Z" stroke="#685587" stroke-width="2" stroke-linecap="round" stroke-linejoin="round"/>
</svg>
