<svg width="24" height="25" viewBox="0 0 24 25" fill="none" xmlns="http://www.w3.org/2000/svg">
<path d="M18.5 6.97132L16.1352 3.81003C15.4983 2.95865 14.3089 2.7544 13.4257 3.34472L7.92981 7.0182" stroke="#D7D4ED" stroke-width="1.5" stroke-linecap="round" stroke-linejoin="round"/>
<path fill-rule="evenodd" clip-rule="evenodd" d="M18.5 11.5293H21C21.5523 11.5293 22 11.9782 22 12.5319V15.5397C22 16.0934 21.5523 16.5423 21 16.5423H18.5C17.1193 16.5423 16 15.4201 16 14.0358V14.0358C16 12.6515 17.1193 11.5293 18.5 11.5293V11.5293Z" stroke="#D7D4ED" stroke-width="1.5" stroke-linecap="round" stroke-linejoin="round"/>
<path d="M21 11.5293V9.52407C21 8.13977 19.8807 7.01758 18.5 7.01758H5.5C4.11929 7.01758 3 8.13977 3 9.52407V18.5474C3 19.9317 4.11929 21.0539 5.5 21.0539H18.5C19.8807 21.0539 21 19.9317 21 18.5474V16.5423" stroke="#D7D4ED" stroke-width="1.5" stroke-linecap="round" stroke-linejoin="round"/>
</svg>
