<svg width="24" height="24" viewBox="0 0 24 24" fill="none" xmlns="http://www.w3.org/2000/svg">
<path d="M12.003 0H11.997C5.3805 0 0 5.382 0 12C0 14.625 0.846 17.058 2.2845 19.0335L0.789 23.4915L5.4015 22.017C7.299 23.274 9.5625 24 12.003 24C18.6195 24 24 18.6165 24 12C24 5.3835 18.6195 0 12.003 0Z" fill="#BE8CF0"/>
<path d="M18.9855 16.9453C18.696 17.7628 17.547 18.4408 16.6305 18.6388C16.0035 18.7723 15.1845 18.8788 12.4275 17.7358C8.90098 16.2748 6.62998 12.6913 6.45298 12.4588C6.28348 12.2263 5.02798 10.5613 5.02798 8.83928C5.02798 7.11728 5.90248 6.27878 6.25498 5.91878C6.54448 5.62328 7.02298 5.48828 7.48198 5.48828C7.63048 5.48828 7.76398 5.49578 7.88398 5.50178C8.23648 5.51678 8.41348 5.53778 8.64598 6.09428C8.93548 6.79178 9.64048 8.51378 9.72448 8.69078C9.80998 8.86778 9.89548 9.10778 9.77548 9.34028C9.66298 9.58028 9.56398 9.68678 9.38698 9.89078C9.20998 10.0948 9.04198 10.2508 8.86498 10.4698C8.70298 10.6603 8.51998 10.8643 8.72398 11.2168C8.92798 11.5618 9.63298 12.7123 10.671 13.6363C12.0105 14.8288 13.0965 15.2098 13.485 15.3718C13.7745 15.4918 14.1195 15.4633 14.331 15.2383C14.5995 14.9488 14.931 14.4688 15.2685 13.9963C15.5085 13.6573 15.8115 13.6153 16.1295 13.7353C16.4535 13.8478 18.168 14.6953 18.5205 14.8708C18.873 15.0478 19.1055 15.1318 19.191 15.2803C19.275 15.4288 19.275 16.1263 18.9855 16.9453Z" fill="#15183E"/>
</svg>
